M48
; DRILL file {KiCad (5.1.2)-1} date 2019/05/14 15:55:00
; FORMAT={-:-/ absolute / inch / decimal}
; #@! TF.CreationDate,2019-05-14T15:55:00+09:00
; #@! TF.GenerationSoftware,Kicad,Pcbnew,(5.1.2)-1
; #@! TF.FileFunction,Plated,1,2,PTH
FMAT,2
INCH
T1C0.0315
T2C0.0320
T3C0.0512
%
G90
G05
T1
X2.75Y-5.75
X2.75Y-6.05
X2.85Y-5.75
X2.85Y-6.05
X2.95Y-5.75
X2.95Y-6.05
X3.05Y-5.75
X3.05Y-6.05
T2
X3.25Y-5.5
X3.25Y-5.7
X3.15Y-6.15
X3.35Y-6.15
X3.35Y-5.75
X3.35Y-5.95
X2.7Y-5.6
X2.9Y-5.6
X3.15Y-6.3
X3.35Y-6.3
X1.35Y-5.5992
X1.35Y-6.1992
X1.45Y-5.5992
X1.45Y-6.1992
X1.55Y-5.5992
X1.55Y-6.1992
X1.65Y-5.5992
X1.65Y-6.1992
X1.75Y-5.5992
X1.75Y-6.1992
X1.85Y-5.5992
X1.85Y-6.1992
X1.95Y-5.5992
X1.95Y-6.1992
X2.05Y-5.5992
X2.05Y-6.1992
X2.15Y-5.5992
X2.15Y-6.1992
X2.25Y-5.5992
X2.25Y-6.1992
X2.35Y-5.5992
X2.35Y-6.1992
X2.45Y-5.5992
X2.45Y-6.1992
X2.85Y-6.3
X3.05Y-6.3
T3
X1.322Y-6.4
X1.578Y-6.4
T1
G00X3.7421Y-6.7
M15
G01X3.7579Y-6.7
M16
G05
G00X3.9921Y-6.6
M15
G01X4.0079Y-6.6
M16
G05
G00X2.0756Y-6.7
M15
G01X2.0913Y-6.7
M16
G05
G00X2.3256Y-6.6
M15
G01X2.3413Y-6.6
M16
G05
G00X3.8079Y-6.0
M15
G01X3.7921Y-6.0
M16
G05
G00X4.0579Y-5.9
M15
G01X4.0421Y-5.9
M16
G05
G00X2.8921Y-6.7
M15
G01X2.9079Y-6.7
M16
G05
G00X3.1421Y-6.6
M15
G01X3.1579Y-6.6
M16
G05
T0
M30
