G04 #@! TF.GenerationSoftware,KiCad,Pcbnew,(5.1.2)-1*
G04 #@! TF.CreationDate,2019-05-14T15:55:12+09:00*
G04 #@! TF.ProjectId,pcb,7063622e-6b69-4636-9164-5f7063625858,rev?*
G04 #@! TF.SameCoordinates,Original*
G04 #@! TF.FileFunction,Copper,L2,Bot*
G04 #@! TF.FilePolarity,Positive*
%FSLAX46Y46*%
G04 Gerber Fmt 4.6, Leading zero omitted, Abs format (unit mm)*
G04 Created by KiCad (PCBNEW (5.1.2)-1) date 2019-05-14 15:55:12*
%MOMM*%
%LPD*%
G04 APERTURE LIST*
%ADD10C,1.524000*%
%ADD11R,1.524000X1.524000*%
%ADD12O,2.500000X2.000000*%
%ADD13O,1.600000X1.600000*%
%ADD14R,1.600000X1.600000*%
%ADD15C,2.000000*%
%ADD16C,1.397000*%
%ADD17C,0.254000*%
G04 APERTURE END LIST*
D10*
X62230000Y-157460000D03*
X59690000Y-157460000D03*
X57150000Y-157460000D03*
X54610000Y-157460000D03*
X52070000Y-157460000D03*
X49530000Y-157460000D03*
X46990000Y-157460000D03*
X44450000Y-157460000D03*
X41910000Y-157460000D03*
X39370000Y-157460000D03*
X36830000Y-157460000D03*
X34290000Y-157460000D03*
X62230000Y-142220000D03*
X59690000Y-142220000D03*
X57150000Y-142220000D03*
X54610000Y-142220000D03*
X52070000Y-142220000D03*
X49530000Y-142220000D03*
X46990000Y-142220000D03*
X44450000Y-142220000D03*
X41910000Y-142220000D03*
X39370000Y-142220000D03*
X36830000Y-142220000D03*
D11*
X34290000Y-142220000D03*
D12*
X102870000Y-149860000D03*
X96520000Y-152400000D03*
D13*
X69850000Y-146050000D03*
X77470000Y-153670000D03*
X72390000Y-146050000D03*
X74930000Y-153670000D03*
X74930000Y-146050000D03*
X72390000Y-153670000D03*
X77470000Y-146050000D03*
D14*
X69850000Y-153670000D03*
D12*
X52920000Y-170180000D03*
X59270000Y-167640000D03*
X73660000Y-170180000D03*
X80010000Y-167640000D03*
X95250000Y-170180000D03*
X101600000Y-167640000D03*
D15*
X33580000Y-162560000D03*
X40080000Y-162560000D03*
D16*
X80010000Y-156210000D03*
X85090000Y-156210000D03*
X80010000Y-160020000D03*
X85090000Y-160020000D03*
X77470000Y-160020000D03*
X72390000Y-160020000D03*
X85090000Y-146050000D03*
X85090000Y-151130000D03*
X82550000Y-144780000D03*
X82550000Y-139700000D03*
X73660000Y-142240000D03*
X68580000Y-142240000D03*
D17*
G36*
X120065424Y-135669580D02*
G01*
X120128356Y-135688580D01*
X120186405Y-135719445D01*
X120237343Y-135760989D01*
X120279248Y-135811644D01*
X120310515Y-135869471D01*
X120329956Y-135932272D01*
X120340001Y-136027845D01*
X120340000Y-188967721D01*
X120330420Y-189065424D01*
X120311420Y-189128357D01*
X120280554Y-189186406D01*
X120239011Y-189237343D01*
X120188356Y-189279248D01*
X120130529Y-189310515D01*
X120067728Y-189329956D01*
X119972165Y-189340000D01*
X31032279Y-189340000D01*
X30934576Y-189330420D01*
X30871643Y-189311420D01*
X30813594Y-189280554D01*
X30762657Y-189239011D01*
X30720752Y-189188356D01*
X30689485Y-189130529D01*
X30670044Y-189067728D01*
X30660000Y-188972165D01*
X30660000Y-172563891D01*
X49645000Y-172563891D01*
X49645000Y-172876109D01*
X49705911Y-173182327D01*
X49825391Y-173470779D01*
X49998850Y-173730379D01*
X50219621Y-173951150D01*
X50479221Y-174124609D01*
X50767673Y-174244089D01*
X51073891Y-174305000D01*
X51386109Y-174305000D01*
X51692327Y-174244089D01*
X51980779Y-174124609D01*
X52240379Y-173951150D01*
X52461150Y-173730379D01*
X52634609Y-173470779D01*
X52754089Y-173182327D01*
X52815000Y-172876109D01*
X52815000Y-172563891D01*
X52794430Y-172460475D01*
X54095000Y-172460475D01*
X54095000Y-172979525D01*
X54196261Y-173488601D01*
X54394893Y-173968141D01*
X54683262Y-174399715D01*
X55050285Y-174766738D01*
X55481859Y-175055107D01*
X55961399Y-175253739D01*
X56470475Y-175355000D01*
X56989525Y-175355000D01*
X57498601Y-175253739D01*
X57978141Y-175055107D01*
X58409715Y-174766738D01*
X58776738Y-174399715D01*
X59065107Y-173968141D01*
X59263739Y-173488601D01*
X59365000Y-172979525D01*
X59365000Y-172563891D01*
X60645000Y-172563891D01*
X60645000Y-172876109D01*
X60705911Y-173182327D01*
X60825391Y-173470779D01*
X60998850Y-173730379D01*
X61219621Y-173951150D01*
X61479221Y-174124609D01*
X61767673Y-174244089D01*
X62073891Y-174305000D01*
X62386109Y-174305000D01*
X62692327Y-174244089D01*
X62980779Y-174124609D01*
X63240379Y-173951150D01*
X63461150Y-173730379D01*
X63634609Y-173470779D01*
X63754089Y-173182327D01*
X63815000Y-172876109D01*
X63815000Y-172563891D01*
X70385000Y-172563891D01*
X70385000Y-172876109D01*
X70445911Y-173182327D01*
X70565391Y-173470779D01*
X70738850Y-173730379D01*
X70959621Y-173951150D01*
X71219221Y-174124609D01*
X71507673Y-174244089D01*
X71813891Y-174305000D01*
X72126109Y-174305000D01*
X72432327Y-174244089D01*
X72720779Y-174124609D01*
X72980379Y-173951150D01*
X73201150Y-173730379D01*
X73374609Y-173470779D01*
X73494089Y-173182327D01*
X73555000Y-172876109D01*
X73555000Y-172563891D01*
X73534430Y-172460475D01*
X74835000Y-172460475D01*
X74835000Y-172979525D01*
X74936261Y-173488601D01*
X75134893Y-173968141D01*
X75423262Y-174399715D01*
X75790285Y-174766738D01*
X76221859Y-175055107D01*
X76701399Y-175253739D01*
X77210475Y-175355000D01*
X77729525Y-175355000D01*
X78238601Y-175253739D01*
X78718141Y-175055107D01*
X79149715Y-174766738D01*
X79516738Y-174399715D01*
X79805107Y-173968141D01*
X80003739Y-173488601D01*
X80105000Y-172979525D01*
X80105000Y-172563891D01*
X81385000Y-172563891D01*
X81385000Y-172876109D01*
X81445911Y-173182327D01*
X81565391Y-173470779D01*
X81738850Y-173730379D01*
X81959621Y-173951150D01*
X82219221Y-174124609D01*
X82507673Y-174244089D01*
X82813891Y-174305000D01*
X83126109Y-174305000D01*
X83432327Y-174244089D01*
X83720779Y-174124609D01*
X83980379Y-173951150D01*
X84201150Y-173730379D01*
X84374609Y-173470779D01*
X84494089Y-173182327D01*
X84555000Y-172876109D01*
X84555000Y-172563891D01*
X91975000Y-172563891D01*
X91975000Y-172876109D01*
X92035911Y-173182327D01*
X92155391Y-173470779D01*
X92328850Y-173730379D01*
X92549621Y-173951150D01*
X92809221Y-174124609D01*
X93097673Y-174244089D01*
X93403891Y-174305000D01*
X93716109Y-174305000D01*
X94022327Y-174244089D01*
X94310779Y-174124609D01*
X94570379Y-173951150D01*
X94791150Y-173730379D01*
X94964609Y-173470779D01*
X95084089Y-173182327D01*
X95145000Y-172876109D01*
X95145000Y-172563891D01*
X95124430Y-172460475D01*
X96425000Y-172460475D01*
X96425000Y-172979525D01*
X96526261Y-173488601D01*
X96724893Y-173968141D01*
X97013262Y-174399715D01*
X97380285Y-174766738D01*
X97811859Y-175055107D01*
X98291399Y-175253739D01*
X98800475Y-175355000D01*
X99319525Y-175355000D01*
X99828601Y-175253739D01*
X100308141Y-175055107D01*
X100739715Y-174766738D01*
X101106738Y-174399715D01*
X101395107Y-173968141D01*
X101593739Y-173488601D01*
X101695000Y-172979525D01*
X101695000Y-172563891D01*
X102975000Y-172563891D01*
X102975000Y-172876109D01*
X103035911Y-173182327D01*
X103155391Y-173470779D01*
X103328850Y-173730379D01*
X103549621Y-173951150D01*
X103809221Y-174124609D01*
X104097673Y-174244089D01*
X104403891Y-174305000D01*
X104716109Y-174305000D01*
X105022327Y-174244089D01*
X105310779Y-174124609D01*
X105570379Y-173951150D01*
X105791150Y-173730379D01*
X105964609Y-173470779D01*
X106084089Y-173182327D01*
X106145000Y-172876109D01*
X106145000Y-172563891D01*
X106084089Y-172257673D01*
X105964609Y-171969221D01*
X105791150Y-171709621D01*
X105570379Y-171488850D01*
X105310779Y-171315391D01*
X105022327Y-171195911D01*
X104716109Y-171135000D01*
X104403891Y-171135000D01*
X104097673Y-171195911D01*
X103809221Y-171315391D01*
X103549621Y-171488850D01*
X103328850Y-171709621D01*
X103155391Y-171969221D01*
X103035911Y-172257673D01*
X102975000Y-172563891D01*
X101695000Y-172563891D01*
X101695000Y-172460475D01*
X101593739Y-171951399D01*
X101395107Y-171471859D01*
X101106738Y-171040285D01*
X100739715Y-170673262D01*
X100308141Y-170384893D01*
X99828601Y-170186261D01*
X99319525Y-170085000D01*
X98800475Y-170085000D01*
X98291399Y-170186261D01*
X97811859Y-170384893D01*
X97380285Y-170673262D01*
X97013262Y-171040285D01*
X96724893Y-171471859D01*
X96526261Y-171951399D01*
X96425000Y-172460475D01*
X95124430Y-172460475D01*
X95084089Y-172257673D01*
X94964609Y-171969221D01*
X94863995Y-171818641D01*
X94864970Y-171818819D01*
X95123000Y-171661016D01*
X95123000Y-170307000D01*
X95377000Y-170307000D01*
X95377000Y-171661016D01*
X95635030Y-171818819D01*
X95952153Y-171760987D01*
X96251900Y-171642398D01*
X96522752Y-171467610D01*
X96754300Y-171243340D01*
X96937646Y-170978206D01*
X97065744Y-170682398D01*
X97090124Y-170560434D01*
X96970777Y-170307000D01*
X95377000Y-170307000D01*
X95123000Y-170307000D01*
X93529223Y-170307000D01*
X93409876Y-170560434D01*
X93434256Y-170682398D01*
X93562354Y-170978206D01*
X93670781Y-171135000D01*
X93403891Y-171135000D01*
X93097673Y-171195911D01*
X92809221Y-171315391D01*
X92549621Y-171488850D01*
X92328850Y-171709621D01*
X92155391Y-171969221D01*
X92035911Y-172257673D01*
X91975000Y-172563891D01*
X84555000Y-172563891D01*
X84494089Y-172257673D01*
X84374609Y-171969221D01*
X84201150Y-171709621D01*
X83980379Y-171488850D01*
X83720779Y-171315391D01*
X83432327Y-171195911D01*
X83126109Y-171135000D01*
X82813891Y-171135000D01*
X82507673Y-171195911D01*
X82219221Y-171315391D01*
X81959621Y-171488850D01*
X81738850Y-171709621D01*
X81565391Y-171969221D01*
X81445911Y-172257673D01*
X81385000Y-172563891D01*
X80105000Y-172563891D01*
X80105000Y-172460475D01*
X80003739Y-171951399D01*
X79805107Y-171471859D01*
X79516738Y-171040285D01*
X79149715Y-170673262D01*
X78718141Y-170384893D01*
X78238601Y-170186261D01*
X77729525Y-170085000D01*
X77210475Y-170085000D01*
X76701399Y-170186261D01*
X76221859Y-170384893D01*
X75790285Y-170673262D01*
X75423262Y-171040285D01*
X75134893Y-171471859D01*
X74936261Y-171951399D01*
X74835000Y-172460475D01*
X73534430Y-172460475D01*
X73494089Y-172257673D01*
X73374609Y-171969221D01*
X73273995Y-171818641D01*
X73274970Y-171818819D01*
X73533000Y-171661016D01*
X73533000Y-170307000D01*
X73787000Y-170307000D01*
X73787000Y-171661016D01*
X74045030Y-171818819D01*
X74362153Y-171760987D01*
X74661900Y-171642398D01*
X74932752Y-171467610D01*
X75164300Y-171243340D01*
X75347646Y-170978206D01*
X75475744Y-170682398D01*
X75500124Y-170560434D01*
X75380777Y-170307000D01*
X73787000Y-170307000D01*
X73533000Y-170307000D01*
X71939223Y-170307000D01*
X71819876Y-170560434D01*
X71844256Y-170682398D01*
X71972354Y-170978206D01*
X72080781Y-171135000D01*
X71813891Y-171135000D01*
X71507673Y-171195911D01*
X71219221Y-171315391D01*
X70959621Y-171488850D01*
X70738850Y-171709621D01*
X70565391Y-171969221D01*
X70445911Y-172257673D01*
X70385000Y-172563891D01*
X63815000Y-172563891D01*
X63754089Y-172257673D01*
X63634609Y-171969221D01*
X63461150Y-171709621D01*
X63240379Y-171488850D01*
X62980779Y-171315391D01*
X62692327Y-171195911D01*
X62386109Y-171135000D01*
X62073891Y-171135000D01*
X61767673Y-171195911D01*
X61479221Y-171315391D01*
X61219621Y-171488850D01*
X60998850Y-171709621D01*
X60825391Y-171969221D01*
X60705911Y-172257673D01*
X60645000Y-172563891D01*
X59365000Y-172563891D01*
X59365000Y-172460475D01*
X59263739Y-171951399D01*
X59065107Y-171471859D01*
X58776738Y-171040285D01*
X58409715Y-170673262D01*
X57978141Y-170384893D01*
X57498601Y-170186261D01*
X56989525Y-170085000D01*
X56470475Y-170085000D01*
X55961399Y-170186261D01*
X55481859Y-170384893D01*
X55050285Y-170673262D01*
X54683262Y-171040285D01*
X54394893Y-171471859D01*
X54196261Y-171951399D01*
X54095000Y-172460475D01*
X52794430Y-172460475D01*
X52754089Y-172257673D01*
X52634609Y-171969221D01*
X52533995Y-171818641D01*
X52534970Y-171818819D01*
X52793000Y-171661016D01*
X52793000Y-170307000D01*
X53047000Y-170307000D01*
X53047000Y-171661016D01*
X53305030Y-171818819D01*
X53622153Y-171760987D01*
X53921900Y-171642398D01*
X54192752Y-171467610D01*
X54424300Y-171243340D01*
X54607646Y-170978206D01*
X54735744Y-170682398D01*
X54760124Y-170560434D01*
X54640777Y-170307000D01*
X53047000Y-170307000D01*
X52793000Y-170307000D01*
X51199223Y-170307000D01*
X51079876Y-170560434D01*
X51104256Y-170682398D01*
X51232354Y-170978206D01*
X51340781Y-171135000D01*
X51073891Y-171135000D01*
X50767673Y-171195911D01*
X50479221Y-171315391D01*
X50219621Y-171488850D01*
X49998850Y-171709621D01*
X49825391Y-171969221D01*
X49705911Y-172257673D01*
X49645000Y-172563891D01*
X30660000Y-172563891D01*
X30660000Y-169799566D01*
X51079876Y-169799566D01*
X51199223Y-170053000D01*
X52793000Y-170053000D01*
X52793000Y-168698984D01*
X53047000Y-168698984D01*
X53047000Y-170053000D01*
X54640777Y-170053000D01*
X54760124Y-169799566D01*
X71819876Y-169799566D01*
X71939223Y-170053000D01*
X73533000Y-170053000D01*
X73533000Y-168698984D01*
X73787000Y-168698984D01*
X73787000Y-170053000D01*
X75380777Y-170053000D01*
X75500124Y-169799566D01*
X93409876Y-169799566D01*
X93529223Y-170053000D01*
X95123000Y-170053000D01*
X95123000Y-168698984D01*
X95377000Y-168698984D01*
X95377000Y-170053000D01*
X96970777Y-170053000D01*
X97090124Y-169799566D01*
X97065744Y-169677602D01*
X96937646Y-169381794D01*
X96754300Y-169116660D01*
X96522752Y-168892390D01*
X96251900Y-168717602D01*
X95952153Y-168599013D01*
X95635030Y-168541181D01*
X95377000Y-168698984D01*
X95123000Y-168698984D01*
X94864970Y-168541181D01*
X94547847Y-168599013D01*
X94248100Y-168717602D01*
X93977248Y-168892390D01*
X93745700Y-169116660D01*
X93562354Y-169381794D01*
X93434256Y-169677602D01*
X93409876Y-169799566D01*
X75500124Y-169799566D01*
X75475744Y-169677602D01*
X75347646Y-169381794D01*
X75164300Y-169116660D01*
X74932752Y-168892390D01*
X74661900Y-168717602D01*
X74362153Y-168599013D01*
X74045030Y-168541181D01*
X73787000Y-168698984D01*
X73533000Y-168698984D01*
X73274970Y-168541181D01*
X72957847Y-168599013D01*
X72658100Y-168717602D01*
X72387248Y-168892390D01*
X72155700Y-169116660D01*
X71972354Y-169381794D01*
X71844256Y-169677602D01*
X71819876Y-169799566D01*
X54760124Y-169799566D01*
X54735744Y-169677602D01*
X54607646Y-169381794D01*
X54424300Y-169116660D01*
X54192752Y-168892390D01*
X53921900Y-168717602D01*
X53622153Y-168599013D01*
X53305030Y-168541181D01*
X53047000Y-168698984D01*
X52793000Y-168698984D01*
X52534970Y-168541181D01*
X52217847Y-168599013D01*
X51918100Y-168717602D01*
X51647248Y-168892390D01*
X51415700Y-169116660D01*
X51232354Y-169381794D01*
X51104256Y-169677602D01*
X51079876Y-169799566D01*
X30660000Y-169799566D01*
X30660000Y-167640000D01*
X57377089Y-167640000D01*
X57408657Y-167960516D01*
X57502148Y-168268715D01*
X57653969Y-168552752D01*
X57858286Y-168801714D01*
X58107248Y-169006031D01*
X58391285Y-169157852D01*
X58699484Y-169251343D01*
X58939678Y-169275000D01*
X59600322Y-169275000D01*
X59840516Y-169251343D01*
X60148715Y-169157852D01*
X60432752Y-169006031D01*
X60681714Y-168801714D01*
X60886031Y-168552752D01*
X61037852Y-168268715D01*
X61131343Y-167960516D01*
X61162911Y-167640000D01*
X78117089Y-167640000D01*
X78148657Y-167960516D01*
X78242148Y-168268715D01*
X78393969Y-168552752D01*
X78598286Y-168801714D01*
X78847248Y-169006031D01*
X79131285Y-169157852D01*
X79439484Y-169251343D01*
X79679678Y-169275000D01*
X80340322Y-169275000D01*
X80580516Y-169251343D01*
X80888715Y-169157852D01*
X81172752Y-169006031D01*
X81421714Y-168801714D01*
X81626031Y-168552752D01*
X81777852Y-168268715D01*
X81871343Y-167960516D01*
X81902911Y-167640000D01*
X99707089Y-167640000D01*
X99738657Y-167960516D01*
X99832148Y-168268715D01*
X99983969Y-168552752D01*
X100188286Y-168801714D01*
X100437248Y-169006031D01*
X100721285Y-169157852D01*
X101029484Y-169251343D01*
X101269678Y-169275000D01*
X101930322Y-169275000D01*
X102170516Y-169251343D01*
X102478715Y-169157852D01*
X102762752Y-169006031D01*
X103011714Y-168801714D01*
X103216031Y-168552752D01*
X103367852Y-168268715D01*
X103461343Y-167960516D01*
X103492911Y-167640000D01*
X103461343Y-167319484D01*
X103367852Y-167011285D01*
X103216031Y-166727248D01*
X103011714Y-166478286D01*
X102762752Y-166273969D01*
X102478715Y-166122148D01*
X102170516Y-166028657D01*
X101930322Y-166005000D01*
X101269678Y-166005000D01*
X101029484Y-166028657D01*
X100721285Y-166122148D01*
X100437248Y-166273969D01*
X100188286Y-166478286D01*
X99983969Y-166727248D01*
X99832148Y-167011285D01*
X99738657Y-167319484D01*
X99707089Y-167640000D01*
X81902911Y-167640000D01*
X81871343Y-167319484D01*
X81777852Y-167011285D01*
X81626031Y-166727248D01*
X81421714Y-166478286D01*
X81172752Y-166273969D01*
X80888715Y-166122148D01*
X80580516Y-166028657D01*
X80340322Y-166005000D01*
X79679678Y-166005000D01*
X79439484Y-166028657D01*
X79131285Y-166122148D01*
X78847248Y-166273969D01*
X78598286Y-166478286D01*
X78393969Y-166727248D01*
X78242148Y-167011285D01*
X78148657Y-167319484D01*
X78117089Y-167640000D01*
X61162911Y-167640000D01*
X61131343Y-167319484D01*
X61037852Y-167011285D01*
X60886031Y-166727248D01*
X60681714Y-166478286D01*
X60432752Y-166273969D01*
X60148715Y-166122148D01*
X59840516Y-166028657D01*
X59600322Y-166005000D01*
X58939678Y-166005000D01*
X58699484Y-166028657D01*
X58391285Y-166122148D01*
X58107248Y-166273969D01*
X57858286Y-166478286D01*
X57653969Y-166727248D01*
X57502148Y-167011285D01*
X57408657Y-167319484D01*
X57377089Y-167640000D01*
X30660000Y-167640000D01*
X30660000Y-163695413D01*
X32624192Y-163695413D01*
X32719956Y-163959814D01*
X33009571Y-164100704D01*
X33321108Y-164182384D01*
X33642595Y-164201718D01*
X33961675Y-164157961D01*
X34266088Y-164052795D01*
X34440044Y-163959814D01*
X34535808Y-163695413D01*
X33580000Y-162739605D01*
X32624192Y-163695413D01*
X30660000Y-163695413D01*
X30660000Y-162622595D01*
X31938282Y-162622595D01*
X31982039Y-162941675D01*
X32087205Y-163246088D01*
X32180186Y-163420044D01*
X32444587Y-163515808D01*
X33400395Y-162560000D01*
X33759605Y-162560000D01*
X34715413Y-163515808D01*
X34979814Y-163420044D01*
X35120704Y-163130429D01*
X35202384Y-162818892D01*
X35221718Y-162497405D01*
X35208219Y-162398967D01*
X38445000Y-162398967D01*
X38445000Y-162721033D01*
X38507832Y-163036912D01*
X38631082Y-163334463D01*
X38810013Y-163602252D01*
X39037748Y-163829987D01*
X39305537Y-164008918D01*
X39603088Y-164132168D01*
X39918967Y-164195000D01*
X40241033Y-164195000D01*
X40556912Y-164132168D01*
X40854463Y-164008918D01*
X41122252Y-163829987D01*
X41349987Y-163602252D01*
X41528918Y-163334463D01*
X41652168Y-163036912D01*
X41715000Y-162721033D01*
X41715000Y-162398967D01*
X41652168Y-162083088D01*
X41528918Y-161785537D01*
X41349987Y-161517748D01*
X41122252Y-161290013D01*
X40854463Y-161111082D01*
X40556912Y-160987832D01*
X40241033Y-160925000D01*
X39918967Y-160925000D01*
X39603088Y-160987832D01*
X39305537Y-161111082D01*
X39037748Y-161290013D01*
X38810013Y-161517748D01*
X38631082Y-161785537D01*
X38507832Y-162083088D01*
X38445000Y-162398967D01*
X35208219Y-162398967D01*
X35177961Y-162178325D01*
X35072795Y-161873912D01*
X34979814Y-161699956D01*
X34715413Y-161604192D01*
X33759605Y-162560000D01*
X33400395Y-162560000D01*
X32444587Y-161604192D01*
X32180186Y-161699956D01*
X32039296Y-161989571D01*
X31957616Y-162301108D01*
X31938282Y-162622595D01*
X30660000Y-162622595D01*
X30660000Y-161424587D01*
X32624192Y-161424587D01*
X33580000Y-162380395D01*
X34535808Y-161424587D01*
X34440044Y-161160186D01*
X34150429Y-161019296D01*
X33838892Y-160937616D01*
X33517405Y-160918282D01*
X33198325Y-160962039D01*
X32893912Y-161067205D01*
X32719956Y-161160186D01*
X32624192Y-161424587D01*
X30660000Y-161424587D01*
X30660000Y-159888662D01*
X71056500Y-159888662D01*
X71056500Y-160151338D01*
X71107746Y-160408968D01*
X71208268Y-160651649D01*
X71354203Y-160870057D01*
X71539943Y-161055797D01*
X71758351Y-161201732D01*
X72001032Y-161302254D01*
X72258662Y-161353500D01*
X72521338Y-161353500D01*
X72778968Y-161302254D01*
X73021649Y-161201732D01*
X73240057Y-161055797D01*
X73425797Y-160870057D01*
X73571732Y-160651649D01*
X73672254Y-160408968D01*
X73723500Y-160151338D01*
X73723500Y-159888662D01*
X76136500Y-159888662D01*
X76136500Y-160151338D01*
X76187746Y-160408968D01*
X76288268Y-160651649D01*
X76434203Y-160870057D01*
X76619943Y-161055797D01*
X76838351Y-161201732D01*
X77081032Y-161302254D01*
X77338662Y-161353500D01*
X77601338Y-161353500D01*
X77858968Y-161302254D01*
X78101649Y-161201732D01*
X78320057Y-161055797D01*
X78505797Y-160870057D01*
X78651732Y-160651649D01*
X78740000Y-160438552D01*
X78828268Y-160651649D01*
X78974203Y-160870057D01*
X79159943Y-161055797D01*
X79378351Y-161201732D01*
X79621032Y-161302254D01*
X79878662Y-161353500D01*
X80141338Y-161353500D01*
X80398968Y-161302254D01*
X80641649Y-161201732D01*
X80860057Y-161055797D01*
X81045797Y-160870057D01*
X81191732Y-160651649D01*
X81292254Y-160408968D01*
X81343500Y-160151338D01*
X81343500Y-159888662D01*
X83756500Y-159888662D01*
X83756500Y-160151338D01*
X83807746Y-160408968D01*
X83908268Y-160651649D01*
X84054203Y-160870057D01*
X84239943Y-161055797D01*
X84458351Y-161201732D01*
X84701032Y-161302254D01*
X84958662Y-161353500D01*
X85221338Y-161353500D01*
X85478968Y-161302254D01*
X85721649Y-161201732D01*
X85940057Y-161055797D01*
X86125797Y-160870057D01*
X86271732Y-160651649D01*
X86372254Y-160408968D01*
X86423500Y-160151338D01*
X86423500Y-159888662D01*
X86372254Y-159631032D01*
X86271732Y-159388351D01*
X86125797Y-159169943D01*
X85940057Y-158984203D01*
X85721649Y-158838268D01*
X85478968Y-158737746D01*
X85221338Y-158686500D01*
X84958662Y-158686500D01*
X84701032Y-158737746D01*
X84458351Y-158838268D01*
X84239943Y-158984203D01*
X84054203Y-159169943D01*
X83908268Y-159388351D01*
X83807746Y-159631032D01*
X83756500Y-159888662D01*
X81343500Y-159888662D01*
X81292254Y-159631032D01*
X81191732Y-159388351D01*
X81045797Y-159169943D01*
X80860057Y-158984203D01*
X80641649Y-158838268D01*
X80398968Y-158737746D01*
X80141338Y-158686500D01*
X79878662Y-158686500D01*
X79621032Y-158737746D01*
X79378351Y-158838268D01*
X79159943Y-158984203D01*
X78974203Y-159169943D01*
X78828268Y-159388351D01*
X78740000Y-159601448D01*
X78651732Y-159388351D01*
X78505797Y-159169943D01*
X78320057Y-158984203D01*
X78101649Y-158838268D01*
X77858968Y-158737746D01*
X77601338Y-158686500D01*
X77338662Y-158686500D01*
X77081032Y-158737746D01*
X76838351Y-158838268D01*
X76619943Y-158984203D01*
X76434203Y-159169943D01*
X76288268Y-159388351D01*
X76187746Y-159631032D01*
X76136500Y-159888662D01*
X73723500Y-159888662D01*
X73672254Y-159631032D01*
X73571732Y-159388351D01*
X73425797Y-159169943D01*
X73240057Y-158984203D01*
X73021649Y-158838268D01*
X72778968Y-158737746D01*
X72521338Y-158686500D01*
X72258662Y-158686500D01*
X72001032Y-158737746D01*
X71758351Y-158838268D01*
X71539943Y-158984203D01*
X71354203Y-159169943D01*
X71208268Y-159388351D01*
X71107746Y-159631032D01*
X71056500Y-159888662D01*
X30660000Y-159888662D01*
X30660000Y-157322408D01*
X32893000Y-157322408D01*
X32893000Y-157597592D01*
X32946686Y-157867490D01*
X33051995Y-158121727D01*
X33204880Y-158350535D01*
X33399465Y-158545120D01*
X33628273Y-158698005D01*
X33882510Y-158803314D01*
X34152408Y-158857000D01*
X34427592Y-158857000D01*
X34697490Y-158803314D01*
X34951727Y-158698005D01*
X35180535Y-158545120D01*
X35300090Y-158425565D01*
X36044040Y-158425565D01*
X36111020Y-158665656D01*
X36360048Y-158782756D01*
X36627135Y-158849023D01*
X36902017Y-158861910D01*
X37174133Y-158820922D01*
X37433023Y-158727636D01*
X37548980Y-158665656D01*
X37615960Y-158425565D01*
X36830000Y-157639605D01*
X36044040Y-158425565D01*
X35300090Y-158425565D01*
X35375120Y-158350535D01*
X35528005Y-158121727D01*
X35557692Y-158050057D01*
X35562364Y-158063023D01*
X35624344Y-158178980D01*
X35864435Y-158245960D01*
X36650395Y-157460000D01*
X37009605Y-157460000D01*
X37795565Y-158245960D01*
X38035656Y-158178980D01*
X38099485Y-158043240D01*
X38131995Y-158121727D01*
X38284880Y-158350535D01*
X38479465Y-158545120D01*
X38708273Y-158698005D01*
X38962510Y-158803314D01*
X39232408Y-158857000D01*
X39507592Y-158857000D01*
X39777490Y-158803314D01*
X40031727Y-158698005D01*
X40260535Y-158545120D01*
X40455120Y-158350535D01*
X40608005Y-158121727D01*
X40640000Y-158044485D01*
X40671995Y-158121727D01*
X40824880Y-158350535D01*
X41019465Y-158545120D01*
X41248273Y-158698005D01*
X41502510Y-158803314D01*
X41772408Y-158857000D01*
X42047592Y-158857000D01*
X42317490Y-158803314D01*
X42571727Y-158698005D01*
X42800535Y-158545120D01*
X42995120Y-158350535D01*
X43148005Y-158121727D01*
X43180000Y-158044485D01*
X43211995Y-158121727D01*
X43364880Y-158350535D01*
X43559465Y-158545120D01*
X43788273Y-158698005D01*
X44042510Y-158803314D01*
X44312408Y-158857000D01*
X44587592Y-158857000D01*
X44857490Y-158803314D01*
X45111727Y-158698005D01*
X45340535Y-158545120D01*
X45535120Y-158350535D01*
X45688005Y-158121727D01*
X45720000Y-158044485D01*
X45751995Y-158121727D01*
X45904880Y-158350535D01*
X46099465Y-158545120D01*
X46328273Y-158698005D01*
X46582510Y-158803314D01*
X46852408Y-158857000D01*
X47127592Y-158857000D01*
X47397490Y-158803314D01*
X47651727Y-158698005D01*
X47880535Y-158545120D01*
X48075120Y-158350535D01*
X48228005Y-158121727D01*
X48260000Y-158044485D01*
X48291995Y-158121727D01*
X48444880Y-158350535D01*
X48639465Y-158545120D01*
X48868273Y-158698005D01*
X49122510Y-158803314D01*
X49392408Y-158857000D01*
X49667592Y-158857000D01*
X49937490Y-158803314D01*
X50191727Y-158698005D01*
X50420535Y-158545120D01*
X50615120Y-158350535D01*
X50768005Y-158121727D01*
X50800000Y-158044485D01*
X50831995Y-158121727D01*
X50984880Y-158350535D01*
X51179465Y-158545120D01*
X51408273Y-158698005D01*
X51662510Y-158803314D01*
X51932408Y-158857000D01*
X52207592Y-158857000D01*
X52477490Y-158803314D01*
X52731727Y-158698005D01*
X52960535Y-158545120D01*
X53155120Y-158350535D01*
X53308005Y-158121727D01*
X53340000Y-158044485D01*
X53371995Y-158121727D01*
X53524880Y-158350535D01*
X53719465Y-158545120D01*
X53948273Y-158698005D01*
X54202510Y-158803314D01*
X54472408Y-158857000D01*
X54747592Y-158857000D01*
X55017490Y-158803314D01*
X55271727Y-158698005D01*
X55500535Y-158545120D01*
X55695120Y-158350535D01*
X55848005Y-158121727D01*
X55880000Y-158044485D01*
X55911995Y-158121727D01*
X56064880Y-158350535D01*
X56259465Y-158545120D01*
X56488273Y-158698005D01*
X56742510Y-158803314D01*
X57012408Y-158857000D01*
X57287592Y-158857000D01*
X57557490Y-158803314D01*
X57811727Y-158698005D01*
X58040535Y-158545120D01*
X58235120Y-158350535D01*
X58388005Y-158121727D01*
X58420000Y-158044485D01*
X58451995Y-158121727D01*
X58604880Y-158350535D01*
X58799465Y-158545120D01*
X59028273Y-158698005D01*
X59282510Y-158803314D01*
X59552408Y-158857000D01*
X59827592Y-158857000D01*
X60097490Y-158803314D01*
X60351727Y-158698005D01*
X60580535Y-158545120D01*
X60775120Y-158350535D01*
X60928005Y-158121727D01*
X60960000Y-158044485D01*
X60991995Y-158121727D01*
X61144880Y-158350535D01*
X61339465Y-158545120D01*
X61568273Y-158698005D01*
X61822510Y-158803314D01*
X62092408Y-158857000D01*
X62367592Y-158857000D01*
X62637490Y-158803314D01*
X62891727Y-158698005D01*
X63120535Y-158545120D01*
X63315120Y-158350535D01*
X63468005Y-158121727D01*
X63573314Y-157867490D01*
X63627000Y-157597592D01*
X63627000Y-157322408D01*
X63573314Y-157052510D01*
X63468005Y-156798273D01*
X63315120Y-156569465D01*
X63120535Y-156374880D01*
X62891727Y-156221995D01*
X62637490Y-156116686D01*
X62446331Y-156078662D01*
X78676500Y-156078662D01*
X78676500Y-156341338D01*
X78727746Y-156598968D01*
X78828268Y-156841649D01*
X78974203Y-157060057D01*
X79159943Y-157245797D01*
X79378351Y-157391732D01*
X79621032Y-157492254D01*
X79878662Y-157543500D01*
X80141338Y-157543500D01*
X80398968Y-157492254D01*
X80641649Y-157391732D01*
X80860057Y-157245797D01*
X81045797Y-157060057D01*
X81191732Y-156841649D01*
X81292254Y-156598968D01*
X81343500Y-156341338D01*
X81343500Y-156078662D01*
X83756500Y-156078662D01*
X83756500Y-156341338D01*
X83807746Y-156598968D01*
X83908268Y-156841649D01*
X84054203Y-157060057D01*
X84239943Y-157245797D01*
X84458351Y-157391732D01*
X84701032Y-157492254D01*
X84958662Y-157543500D01*
X85221338Y-157543500D01*
X85478968Y-157492254D01*
X85721649Y-157391732D01*
X85940057Y-157245797D01*
X86125797Y-157060057D01*
X86271732Y-156841649D01*
X86372254Y-156598968D01*
X86423500Y-156341338D01*
X86423500Y-156078662D01*
X86372254Y-155821032D01*
X86271732Y-155578351D01*
X86125797Y-155359943D01*
X85940057Y-155174203D01*
X85721649Y-155028268D01*
X85478968Y-154927746D01*
X85221338Y-154876500D01*
X84958662Y-154876500D01*
X84701032Y-154927746D01*
X84458351Y-155028268D01*
X84239943Y-155174203D01*
X84054203Y-155359943D01*
X83908268Y-155578351D01*
X83807746Y-155821032D01*
X83756500Y-156078662D01*
X81343500Y-156078662D01*
X81292254Y-155821032D01*
X81191732Y-155578351D01*
X81045797Y-155359943D01*
X80860057Y-155174203D01*
X80641649Y-155028268D01*
X80398968Y-154927746D01*
X80141338Y-154876500D01*
X79878662Y-154876500D01*
X79621032Y-154927746D01*
X79378351Y-155028268D01*
X79159943Y-155174203D01*
X78974203Y-155359943D01*
X78828268Y-155578351D01*
X78727746Y-155821032D01*
X78676500Y-156078662D01*
X62446331Y-156078662D01*
X62367592Y-156063000D01*
X62092408Y-156063000D01*
X61822510Y-156116686D01*
X61568273Y-156221995D01*
X61339465Y-156374880D01*
X61144880Y-156569465D01*
X60991995Y-156798273D01*
X60960000Y-156875515D01*
X60928005Y-156798273D01*
X60775120Y-156569465D01*
X60580535Y-156374880D01*
X60351727Y-156221995D01*
X60097490Y-156116686D01*
X59827592Y-156063000D01*
X59552408Y-156063000D01*
X59282510Y-156116686D01*
X59028273Y-156221995D01*
X58799465Y-156374880D01*
X58604880Y-156569465D01*
X58451995Y-156798273D01*
X58420000Y-156875515D01*
X58388005Y-156798273D01*
X58235120Y-156569465D01*
X58040535Y-156374880D01*
X57811727Y-156221995D01*
X57557490Y-156116686D01*
X57287592Y-156063000D01*
X57012408Y-156063000D01*
X56742510Y-156116686D01*
X56488273Y-156221995D01*
X56259465Y-156374880D01*
X56064880Y-156569465D01*
X55911995Y-156798273D01*
X55880000Y-156875515D01*
X55848005Y-156798273D01*
X55695120Y-156569465D01*
X55500535Y-156374880D01*
X55271727Y-156221995D01*
X55017490Y-156116686D01*
X54747592Y-156063000D01*
X54472408Y-156063000D01*
X54202510Y-156116686D01*
X53948273Y-156221995D01*
X53719465Y-156374880D01*
X53524880Y-156569465D01*
X53371995Y-156798273D01*
X53340000Y-156875515D01*
X53308005Y-156798273D01*
X53155120Y-156569465D01*
X52960535Y-156374880D01*
X52731727Y-156221995D01*
X52477490Y-156116686D01*
X52207592Y-156063000D01*
X51932408Y-156063000D01*
X51662510Y-156116686D01*
X51408273Y-156221995D01*
X51179465Y-156374880D01*
X50984880Y-156569465D01*
X50831995Y-156798273D01*
X50800000Y-156875515D01*
X50768005Y-156798273D01*
X50615120Y-156569465D01*
X50420535Y-156374880D01*
X50191727Y-156221995D01*
X49937490Y-156116686D01*
X49667592Y-156063000D01*
X49392408Y-156063000D01*
X49122510Y-156116686D01*
X48868273Y-156221995D01*
X48639465Y-156374880D01*
X48444880Y-156569465D01*
X48291995Y-156798273D01*
X48260000Y-156875515D01*
X48228005Y-156798273D01*
X48075120Y-156569465D01*
X47880535Y-156374880D01*
X47651727Y-156221995D01*
X47397490Y-156116686D01*
X47127592Y-156063000D01*
X46852408Y-156063000D01*
X46582510Y-156116686D01*
X46328273Y-156221995D01*
X46099465Y-156374880D01*
X45904880Y-156569465D01*
X45751995Y-156798273D01*
X45720000Y-156875515D01*
X45688005Y-156798273D01*
X45535120Y-156569465D01*
X45340535Y-156374880D01*
X45111727Y-156221995D01*
X44857490Y-156116686D01*
X44587592Y-156063000D01*
X44312408Y-156063000D01*
X44042510Y-156116686D01*
X43788273Y-156221995D01*
X43559465Y-156374880D01*
X43364880Y-156569465D01*
X43211995Y-156798273D01*
X43180000Y-156875515D01*
X43148005Y-156798273D01*
X42995120Y-156569465D01*
X42800535Y-156374880D01*
X42571727Y-156221995D01*
X42317490Y-156116686D01*
X42047592Y-156063000D01*
X41772408Y-156063000D01*
X41502510Y-156116686D01*
X41248273Y-156221995D01*
X41019465Y-156374880D01*
X40824880Y-156569465D01*
X40671995Y-156798273D01*
X40640000Y-156875515D01*
X40608005Y-156798273D01*
X40455120Y-156569465D01*
X40260535Y-156374880D01*
X40031727Y-156221995D01*
X39777490Y-156116686D01*
X39507592Y-156063000D01*
X39232408Y-156063000D01*
X38962510Y-156116686D01*
X38708273Y-156221995D01*
X38479465Y-156374880D01*
X38284880Y-156569465D01*
X38131995Y-156798273D01*
X38102308Y-156869943D01*
X38097636Y-156856977D01*
X38035656Y-156741020D01*
X37795565Y-156674040D01*
X37009605Y-157460000D01*
X36650395Y-157460000D01*
X35864435Y-156674040D01*
X35624344Y-156741020D01*
X35560515Y-156876760D01*
X35528005Y-156798273D01*
X35375120Y-156569465D01*
X35300090Y-156494435D01*
X36044040Y-156494435D01*
X36830000Y-157280395D01*
X37615960Y-156494435D01*
X37548980Y-156254344D01*
X37299952Y-156137244D01*
X37032865Y-156070977D01*
X36757983Y-156058090D01*
X36485867Y-156099078D01*
X36226977Y-156192364D01*
X36111020Y-156254344D01*
X36044040Y-156494435D01*
X35300090Y-156494435D01*
X35180535Y-156374880D01*
X34951727Y-156221995D01*
X34697490Y-156116686D01*
X34427592Y-156063000D01*
X34152408Y-156063000D01*
X33882510Y-156116686D01*
X33628273Y-156221995D01*
X33399465Y-156374880D01*
X33204880Y-156569465D01*
X33051995Y-156798273D01*
X32946686Y-157052510D01*
X32893000Y-157322408D01*
X30660000Y-157322408D01*
X30660000Y-152870000D01*
X68411928Y-152870000D01*
X68411928Y-154470000D01*
X68424188Y-154594482D01*
X68460498Y-154714180D01*
X68519463Y-154824494D01*
X68598815Y-154921185D01*
X68695506Y-155000537D01*
X68805820Y-155059502D01*
X68925518Y-155095812D01*
X69050000Y-155108072D01*
X70650000Y-155108072D01*
X70774482Y-155095812D01*
X70894180Y-155059502D01*
X71004494Y-155000537D01*
X71101185Y-154921185D01*
X71180537Y-154824494D01*
X71239502Y-154714180D01*
X71275812Y-154594482D01*
X71277581Y-154576518D01*
X71370392Y-154689608D01*
X71588899Y-154868932D01*
X71838192Y-155002182D01*
X72108691Y-155084236D01*
X72319508Y-155105000D01*
X72460492Y-155105000D01*
X72671309Y-155084236D01*
X72941808Y-155002182D01*
X73191101Y-154868932D01*
X73409608Y-154689608D01*
X73588932Y-154471101D01*
X73660000Y-154338142D01*
X73731068Y-154471101D01*
X73910392Y-154689608D01*
X74128899Y-154868932D01*
X74378192Y-155002182D01*
X74648691Y-155084236D01*
X74859508Y-155105000D01*
X75000492Y-155105000D01*
X75211309Y-155084236D01*
X75481808Y-155002182D01*
X75731101Y-154868932D01*
X75949608Y-154689608D01*
X76128932Y-154471101D01*
X76202579Y-154333318D01*
X76317615Y-154525131D01*
X76506586Y-154733519D01*
X76732580Y-154901037D01*
X76986913Y-155021246D01*
X77120961Y-155061904D01*
X77343000Y-154939915D01*
X77343000Y-153797000D01*
X77597000Y-153797000D01*
X77597000Y-154939915D01*
X77819039Y-155061904D01*
X77953087Y-155021246D01*
X78207420Y-154901037D01*
X78433414Y-154733519D01*
X78622385Y-154525131D01*
X78767070Y-154283881D01*
X78861909Y-154019040D01*
X78740624Y-153797000D01*
X77597000Y-153797000D01*
X77343000Y-153797000D01*
X77323000Y-153797000D01*
X77323000Y-153543000D01*
X77343000Y-153543000D01*
X77343000Y-152400085D01*
X77597000Y-152400085D01*
X77597000Y-153543000D01*
X78740624Y-153543000D01*
X78861909Y-153320960D01*
X78767070Y-153056119D01*
X78622385Y-152814869D01*
X78433414Y-152606481D01*
X78207420Y-152438963D01*
X77953087Y-152318754D01*
X77819039Y-152278096D01*
X77597000Y-152400085D01*
X77343000Y-152400085D01*
X77120961Y-152278096D01*
X76986913Y-152318754D01*
X76732580Y-152438963D01*
X76506586Y-152606481D01*
X76317615Y-152814869D01*
X76202579Y-153006682D01*
X76128932Y-152868899D01*
X75949608Y-152650392D01*
X75731101Y-152471068D01*
X75481808Y-152337818D01*
X75211309Y-152255764D01*
X75000492Y-152235000D01*
X74859508Y-152235000D01*
X74648691Y-152255764D01*
X74378192Y-152337818D01*
X74128899Y-152471068D01*
X73910392Y-152650392D01*
X73731068Y-152868899D01*
X73660000Y-153001858D01*
X73588932Y-152868899D01*
X73409608Y-152650392D01*
X73191101Y-152471068D01*
X72941808Y-152337818D01*
X72671309Y-152255764D01*
X72460492Y-152235000D01*
X72319508Y-152235000D01*
X72108691Y-152255764D01*
X71838192Y-152337818D01*
X71588899Y-152471068D01*
X71370392Y-152650392D01*
X71277581Y-152763482D01*
X71275812Y-152745518D01*
X71239502Y-152625820D01*
X71180537Y-152515506D01*
X71101185Y-152418815D01*
X71004494Y-152339463D01*
X70894180Y-152280498D01*
X70774482Y-152244188D01*
X70650000Y-152231928D01*
X69050000Y-152231928D01*
X68925518Y-152244188D01*
X68805820Y-152280498D01*
X68695506Y-152339463D01*
X68598815Y-152418815D01*
X68519463Y-152515506D01*
X68460498Y-152625820D01*
X68424188Y-152745518D01*
X68411928Y-152870000D01*
X30660000Y-152870000D01*
X30660000Y-150998662D01*
X83756500Y-150998662D01*
X83756500Y-151261338D01*
X83807746Y-151518968D01*
X83908268Y-151761649D01*
X84054203Y-151980057D01*
X84239943Y-152165797D01*
X84458351Y-152311732D01*
X84701032Y-152412254D01*
X84958662Y-152463500D01*
X85221338Y-152463500D01*
X85478968Y-152412254D01*
X85508551Y-152400000D01*
X94627089Y-152400000D01*
X94658657Y-152720516D01*
X94752148Y-153028715D01*
X94903969Y-153312752D01*
X95108286Y-153561714D01*
X95357248Y-153766031D01*
X95641285Y-153917852D01*
X95949484Y-154011343D01*
X96189678Y-154035000D01*
X96850322Y-154035000D01*
X97090516Y-154011343D01*
X97398715Y-153917852D01*
X97682752Y-153766031D01*
X97931714Y-153561714D01*
X98136031Y-153312752D01*
X98287852Y-153028715D01*
X98381343Y-152720516D01*
X98412911Y-152400000D01*
X98381343Y-152079484D01*
X98287852Y-151771285D01*
X98136031Y-151487248D01*
X97931714Y-151238286D01*
X97682752Y-151033969D01*
X97398715Y-150882148D01*
X97090516Y-150788657D01*
X96850322Y-150765000D01*
X96189678Y-150765000D01*
X95949484Y-150788657D01*
X95641285Y-150882148D01*
X95357248Y-151033969D01*
X95108286Y-151238286D01*
X94903969Y-151487248D01*
X94752148Y-151771285D01*
X94658657Y-152079484D01*
X94627089Y-152400000D01*
X85508551Y-152400000D01*
X85721649Y-152311732D01*
X85940057Y-152165797D01*
X86125797Y-151980057D01*
X86271732Y-151761649D01*
X86372254Y-151518968D01*
X86423500Y-151261338D01*
X86423500Y-150998662D01*
X86372254Y-150741032D01*
X86271732Y-150498351D01*
X86125797Y-150279943D01*
X86086288Y-150240434D01*
X101029876Y-150240434D01*
X101054256Y-150362398D01*
X101182354Y-150658206D01*
X101365700Y-150923340D01*
X101597248Y-151147610D01*
X101868100Y-151322398D01*
X102167847Y-151440987D01*
X102484970Y-151498819D01*
X102743000Y-151341016D01*
X102743000Y-149987000D01*
X102997000Y-149987000D01*
X102997000Y-151341016D01*
X103255030Y-151498819D01*
X103572153Y-151440987D01*
X103871900Y-151322398D01*
X104142752Y-151147610D01*
X104374300Y-150923340D01*
X104557646Y-150658206D01*
X104685744Y-150362398D01*
X104710124Y-150240434D01*
X104590777Y-149987000D01*
X102997000Y-149987000D01*
X102743000Y-149987000D01*
X101149223Y-149987000D01*
X101029876Y-150240434D01*
X86086288Y-150240434D01*
X85940057Y-150094203D01*
X85721649Y-149948268D01*
X85478968Y-149847746D01*
X85221338Y-149796500D01*
X84958662Y-149796500D01*
X84701032Y-149847746D01*
X84458351Y-149948268D01*
X84239943Y-150094203D01*
X84054203Y-150279943D01*
X83908268Y-150498351D01*
X83807746Y-150741032D01*
X83756500Y-150998662D01*
X30660000Y-150998662D01*
X30660000Y-146050000D01*
X68408057Y-146050000D01*
X68435764Y-146331309D01*
X68517818Y-146601808D01*
X68651068Y-146851101D01*
X68830392Y-147069608D01*
X69048899Y-147248932D01*
X69298192Y-147382182D01*
X69568691Y-147464236D01*
X69779508Y-147485000D01*
X69920492Y-147485000D01*
X70131309Y-147464236D01*
X70401808Y-147382182D01*
X70651101Y-147248932D01*
X70869608Y-147069608D01*
X71048932Y-146851101D01*
X71120000Y-146718142D01*
X71191068Y-146851101D01*
X71370392Y-147069608D01*
X71588899Y-147248932D01*
X71838192Y-147382182D01*
X72108691Y-147464236D01*
X72319508Y-147485000D01*
X72460492Y-147485000D01*
X72671309Y-147464236D01*
X72941808Y-147382182D01*
X73191101Y-147248932D01*
X73409608Y-147069608D01*
X73588932Y-146851101D01*
X73660000Y-146718142D01*
X73731068Y-146851101D01*
X73910392Y-147069608D01*
X74128899Y-147248932D01*
X74378192Y-147382182D01*
X74648691Y-147464236D01*
X74859508Y-147485000D01*
X75000492Y-147485000D01*
X75211309Y-147464236D01*
X75481808Y-147382182D01*
X75731101Y-147248932D01*
X75949608Y-147069608D01*
X76128932Y-146851101D01*
X76200000Y-146718142D01*
X76271068Y-146851101D01*
X76450392Y-147069608D01*
X76668899Y-147248932D01*
X76918192Y-147382182D01*
X77188691Y-147464236D01*
X77399508Y-147485000D01*
X77540492Y-147485000D01*
X77751309Y-147464236D01*
X78021808Y-147382182D01*
X78271101Y-147248932D01*
X78489608Y-147069608D01*
X78668932Y-146851101D01*
X78802182Y-146601808D01*
X78884236Y-146331309D01*
X78911943Y-146050000D01*
X78884236Y-145768691D01*
X78863459Y-145700197D01*
X81809408Y-145700197D01*
X81868686Y-145933812D01*
X82106875Y-146044559D01*
X82362093Y-146106711D01*
X82624533Y-146117876D01*
X82884107Y-146077629D01*
X83130842Y-145987514D01*
X83231314Y-145933812D01*
X83235158Y-145918662D01*
X83756500Y-145918662D01*
X83756500Y-146181338D01*
X83807746Y-146438968D01*
X83908268Y-146681649D01*
X84054203Y-146900057D01*
X84239943Y-147085797D01*
X84458351Y-147231732D01*
X84701032Y-147332254D01*
X84958662Y-147383500D01*
X85221338Y-147383500D01*
X85478968Y-147332254D01*
X85721649Y-147231732D01*
X85823180Y-147163891D01*
X91975000Y-147163891D01*
X91975000Y-147476109D01*
X92035911Y-147782327D01*
X92155391Y-148070779D01*
X92328850Y-148330379D01*
X92549621Y-148551150D01*
X92809221Y-148724609D01*
X93097673Y-148844089D01*
X93403891Y-148905000D01*
X93716109Y-148905000D01*
X94022327Y-148844089D01*
X94310779Y-148724609D01*
X94570379Y-148551150D01*
X94791150Y-148330379D01*
X94964609Y-148070779D01*
X95084089Y-147782327D01*
X95145000Y-147476109D01*
X95145000Y-147163891D01*
X95124430Y-147060475D01*
X96425000Y-147060475D01*
X96425000Y-147579525D01*
X96526261Y-148088601D01*
X96724893Y-148568141D01*
X97013262Y-148999715D01*
X97380285Y-149366738D01*
X97811859Y-149655107D01*
X98291399Y-149853739D01*
X98800475Y-149955000D01*
X99319525Y-149955000D01*
X99828601Y-149853739D01*
X100308141Y-149655107D01*
X100570856Y-149479566D01*
X101029876Y-149479566D01*
X101149223Y-149733000D01*
X102743000Y-149733000D01*
X102743000Y-148378984D01*
X102484970Y-148221181D01*
X102167847Y-148279013D01*
X101868100Y-148397602D01*
X101597248Y-148572390D01*
X101365700Y-148796660D01*
X101182354Y-149061794D01*
X101054256Y-149357602D01*
X101029876Y-149479566D01*
X100570856Y-149479566D01*
X100739715Y-149366738D01*
X101106738Y-148999715D01*
X101395107Y-148568141D01*
X101593739Y-148088601D01*
X101695000Y-147579525D01*
X101695000Y-147163891D01*
X102975000Y-147163891D01*
X102975000Y-147476109D01*
X103035911Y-147782327D01*
X103155391Y-148070779D01*
X103256005Y-148221359D01*
X103255030Y-148221181D01*
X102997000Y-148378984D01*
X102997000Y-149733000D01*
X104590777Y-149733000D01*
X104710124Y-149479566D01*
X104685744Y-149357602D01*
X104557646Y-149061794D01*
X104449219Y-148905000D01*
X104716109Y-148905000D01*
X105022327Y-148844089D01*
X105310779Y-148724609D01*
X105570379Y-148551150D01*
X105791150Y-148330379D01*
X105964609Y-148070779D01*
X106084089Y-147782327D01*
X106145000Y-147476109D01*
X106145000Y-147163891D01*
X106084089Y-146857673D01*
X105964609Y-146569221D01*
X105791150Y-146309621D01*
X105570379Y-146088850D01*
X105310779Y-145915391D01*
X105022327Y-145795911D01*
X104716109Y-145735000D01*
X104403891Y-145735000D01*
X104097673Y-145795911D01*
X103809221Y-145915391D01*
X103549621Y-146088850D01*
X103328850Y-146309621D01*
X103155391Y-146569221D01*
X103035911Y-146857673D01*
X102975000Y-147163891D01*
X101695000Y-147163891D01*
X101695000Y-147060475D01*
X101593739Y-146551399D01*
X101395107Y-146071859D01*
X101106738Y-145640285D01*
X100739715Y-145273262D01*
X100308141Y-144984893D01*
X99828601Y-144786261D01*
X99319525Y-144685000D01*
X98800475Y-144685000D01*
X98291399Y-144786261D01*
X97811859Y-144984893D01*
X97380285Y-145273262D01*
X97013262Y-145640285D01*
X96724893Y-146071859D01*
X96526261Y-146551399D01*
X96425000Y-147060475D01*
X95124430Y-147060475D01*
X95084089Y-146857673D01*
X94964609Y-146569221D01*
X94791150Y-146309621D01*
X94570379Y-146088850D01*
X94310779Y-145915391D01*
X94022327Y-145795911D01*
X93716109Y-145735000D01*
X93403891Y-145735000D01*
X93097673Y-145795911D01*
X92809221Y-145915391D01*
X92549621Y-146088850D01*
X92328850Y-146309621D01*
X92155391Y-146569221D01*
X92035911Y-146857673D01*
X91975000Y-147163891D01*
X85823180Y-147163891D01*
X85940057Y-147085797D01*
X86125797Y-146900057D01*
X86271732Y-146681649D01*
X86372254Y-146438968D01*
X86423500Y-146181338D01*
X86423500Y-145918662D01*
X86372254Y-145661032D01*
X86271732Y-145418351D01*
X86125797Y-145199943D01*
X85940057Y-145014203D01*
X85721649Y-144868268D01*
X85478968Y-144767746D01*
X85221338Y-144716500D01*
X84958662Y-144716500D01*
X84701032Y-144767746D01*
X84458351Y-144868268D01*
X84239943Y-145014203D01*
X84054203Y-145199943D01*
X83908268Y-145418351D01*
X83807746Y-145661032D01*
X83756500Y-145918662D01*
X83235158Y-145918662D01*
X83290592Y-145700197D01*
X82550000Y-144959605D01*
X81809408Y-145700197D01*
X78863459Y-145700197D01*
X78802182Y-145498192D01*
X78668932Y-145248899D01*
X78489608Y-145030392D01*
X78275324Y-144854533D01*
X81212124Y-144854533D01*
X81252371Y-145114107D01*
X81342486Y-145360842D01*
X81396188Y-145461314D01*
X81629803Y-145520592D01*
X82370395Y-144780000D01*
X82729605Y-144780000D01*
X83470197Y-145520592D01*
X83703812Y-145461314D01*
X83814559Y-145223125D01*
X83876711Y-144967907D01*
X83887876Y-144705467D01*
X83847629Y-144445893D01*
X83757514Y-144199158D01*
X83703812Y-144098686D01*
X83470197Y-144039408D01*
X82729605Y-144780000D01*
X82370395Y-144780000D01*
X81629803Y-144039408D01*
X81396188Y-144098686D01*
X81285441Y-144336875D01*
X81223289Y-144592093D01*
X81212124Y-144854533D01*
X78275324Y-144854533D01*
X78271101Y-144851068D01*
X78021808Y-144717818D01*
X77751309Y-144635764D01*
X77540492Y-144615000D01*
X77399508Y-144615000D01*
X77188691Y-144635764D01*
X76918192Y-144717818D01*
X76668899Y-144851068D01*
X76450392Y-145030392D01*
X76271068Y-145248899D01*
X76200000Y-145381858D01*
X76128932Y-145248899D01*
X75949608Y-145030392D01*
X75731101Y-144851068D01*
X75481808Y-144717818D01*
X75211309Y-144635764D01*
X75000492Y-144615000D01*
X74859508Y-144615000D01*
X74648691Y-144635764D01*
X74378192Y-144717818D01*
X74128899Y-144851068D01*
X73910392Y-145030392D01*
X73731068Y-145248899D01*
X73660000Y-145381858D01*
X73588932Y-145248899D01*
X73409608Y-145030392D01*
X73191101Y-144851068D01*
X72941808Y-144717818D01*
X72671309Y-144635764D01*
X72460492Y-144615000D01*
X72319508Y-144615000D01*
X72108691Y-144635764D01*
X71838192Y-144717818D01*
X71588899Y-144851068D01*
X71370392Y-145030392D01*
X71191068Y-145248899D01*
X71120000Y-145381858D01*
X71048932Y-145248899D01*
X70869608Y-145030392D01*
X70651101Y-144851068D01*
X70401808Y-144717818D01*
X70131309Y-144635764D01*
X69920492Y-144615000D01*
X69779508Y-144615000D01*
X69568691Y-144635764D01*
X69298192Y-144717818D01*
X69048899Y-144851068D01*
X68830392Y-145030392D01*
X68651068Y-145248899D01*
X68517818Y-145498192D01*
X68435764Y-145768691D01*
X68408057Y-146050000D01*
X30660000Y-146050000D01*
X30660000Y-143859803D01*
X81809408Y-143859803D01*
X82550000Y-144600395D01*
X83290592Y-143859803D01*
X83231314Y-143626188D01*
X82993125Y-143515441D01*
X82737907Y-143453289D01*
X82475467Y-143442124D01*
X82215893Y-143482371D01*
X81969158Y-143572486D01*
X81868686Y-143626188D01*
X81809408Y-143859803D01*
X30660000Y-143859803D01*
X30660000Y-141458000D01*
X32889928Y-141458000D01*
X32889928Y-142982000D01*
X32902188Y-143106482D01*
X32938498Y-143226180D01*
X32997463Y-143336494D01*
X33076815Y-143433185D01*
X33173506Y-143512537D01*
X33283820Y-143571502D01*
X33403518Y-143607812D01*
X33528000Y-143620072D01*
X35052000Y-143620072D01*
X35176482Y-143607812D01*
X35296180Y-143571502D01*
X35406494Y-143512537D01*
X35503185Y-143433185D01*
X35582537Y-143336494D01*
X35641502Y-143226180D01*
X35677812Y-143106482D01*
X35686080Y-143022535D01*
X35744880Y-143110535D01*
X35939465Y-143305120D01*
X36168273Y-143458005D01*
X36422510Y-143563314D01*
X36692408Y-143617000D01*
X36967592Y-143617000D01*
X37237490Y-143563314D01*
X37491727Y-143458005D01*
X37720535Y-143305120D01*
X37840090Y-143185565D01*
X38584040Y-143185565D01*
X38651020Y-143425656D01*
X38900048Y-143542756D01*
X39167135Y-143609023D01*
X39442017Y-143621910D01*
X39714133Y-143580922D01*
X39973023Y-143487636D01*
X40088980Y-143425656D01*
X40155960Y-143185565D01*
X41124040Y-143185565D01*
X41191020Y-143425656D01*
X41440048Y-143542756D01*
X41707135Y-143609023D01*
X41982017Y-143621910D01*
X42254133Y-143580922D01*
X42513023Y-143487636D01*
X42628980Y-143425656D01*
X42695960Y-143185565D01*
X41910000Y-142399605D01*
X41124040Y-143185565D01*
X40155960Y-143185565D01*
X39370000Y-142399605D01*
X38584040Y-143185565D01*
X37840090Y-143185565D01*
X37915120Y-143110535D01*
X38068005Y-142881727D01*
X38097692Y-142810057D01*
X38102364Y-142823023D01*
X38164344Y-142938980D01*
X38404435Y-143005960D01*
X39190395Y-142220000D01*
X39549605Y-142220000D01*
X40335565Y-143005960D01*
X40575656Y-142938980D01*
X40637079Y-142808356D01*
X40642364Y-142823023D01*
X40704344Y-142938980D01*
X40944435Y-143005960D01*
X41730395Y-142220000D01*
X42089605Y-142220000D01*
X42875565Y-143005960D01*
X43115656Y-142938980D01*
X43179485Y-142803240D01*
X43211995Y-142881727D01*
X43364880Y-143110535D01*
X43559465Y-143305120D01*
X43788273Y-143458005D01*
X44042510Y-143563314D01*
X44312408Y-143617000D01*
X44587592Y-143617000D01*
X44857490Y-143563314D01*
X45111727Y-143458005D01*
X45340535Y-143305120D01*
X45535120Y-143110535D01*
X45688005Y-142881727D01*
X45720000Y-142804485D01*
X45751995Y-142881727D01*
X45904880Y-143110535D01*
X46099465Y-143305120D01*
X46328273Y-143458005D01*
X46582510Y-143563314D01*
X46852408Y-143617000D01*
X47127592Y-143617000D01*
X47397490Y-143563314D01*
X47651727Y-143458005D01*
X47880535Y-143305120D01*
X48075120Y-143110535D01*
X48228005Y-142881727D01*
X48260000Y-142804485D01*
X48291995Y-142881727D01*
X48444880Y-143110535D01*
X48639465Y-143305120D01*
X48868273Y-143458005D01*
X49122510Y-143563314D01*
X49392408Y-143617000D01*
X49667592Y-143617000D01*
X49937490Y-143563314D01*
X50191727Y-143458005D01*
X50420535Y-143305120D01*
X50615120Y-143110535D01*
X50768005Y-142881727D01*
X50800000Y-142804485D01*
X50831995Y-142881727D01*
X50984880Y-143110535D01*
X51179465Y-143305120D01*
X51408273Y-143458005D01*
X51662510Y-143563314D01*
X51932408Y-143617000D01*
X52207592Y-143617000D01*
X52477490Y-143563314D01*
X52731727Y-143458005D01*
X52960535Y-143305120D01*
X53155120Y-143110535D01*
X53308005Y-142881727D01*
X53340000Y-142804485D01*
X53371995Y-142881727D01*
X53524880Y-143110535D01*
X53719465Y-143305120D01*
X53948273Y-143458005D01*
X54202510Y-143563314D01*
X54472408Y-143617000D01*
X54747592Y-143617000D01*
X55017490Y-143563314D01*
X55271727Y-143458005D01*
X55500535Y-143305120D01*
X55695120Y-143110535D01*
X55848005Y-142881727D01*
X55880000Y-142804485D01*
X55911995Y-142881727D01*
X56064880Y-143110535D01*
X56259465Y-143305120D01*
X56488273Y-143458005D01*
X56742510Y-143563314D01*
X57012408Y-143617000D01*
X57287592Y-143617000D01*
X57557490Y-143563314D01*
X57811727Y-143458005D01*
X58040535Y-143305120D01*
X58235120Y-143110535D01*
X58388005Y-142881727D01*
X58420000Y-142804485D01*
X58451995Y-142881727D01*
X58604880Y-143110535D01*
X58799465Y-143305120D01*
X59028273Y-143458005D01*
X59282510Y-143563314D01*
X59552408Y-143617000D01*
X59827592Y-143617000D01*
X60097490Y-143563314D01*
X60351727Y-143458005D01*
X60580535Y-143305120D01*
X60775120Y-143110535D01*
X60928005Y-142881727D01*
X60960000Y-142804485D01*
X60991995Y-142881727D01*
X61144880Y-143110535D01*
X61339465Y-143305120D01*
X61568273Y-143458005D01*
X61822510Y-143563314D01*
X62092408Y-143617000D01*
X62367592Y-143617000D01*
X62637490Y-143563314D01*
X62891727Y-143458005D01*
X63120535Y-143305120D01*
X63315120Y-143110535D01*
X63468005Y-142881727D01*
X63573314Y-142627490D01*
X63627000Y-142357592D01*
X63627000Y-142108662D01*
X67246500Y-142108662D01*
X67246500Y-142371338D01*
X67297746Y-142628968D01*
X67398268Y-142871649D01*
X67544203Y-143090057D01*
X67729943Y-143275797D01*
X67948351Y-143421732D01*
X68191032Y-143522254D01*
X68448662Y-143573500D01*
X68711338Y-143573500D01*
X68968968Y-143522254D01*
X69211649Y-143421732D01*
X69430057Y-143275797D01*
X69615797Y-143090057D01*
X69761732Y-142871649D01*
X69862254Y-142628968D01*
X69913500Y-142371338D01*
X69913500Y-142108662D01*
X72326500Y-142108662D01*
X72326500Y-142371338D01*
X72377746Y-142628968D01*
X72478268Y-142871649D01*
X72624203Y-143090057D01*
X72809943Y-143275797D01*
X73028351Y-143421732D01*
X73271032Y-143522254D01*
X73528662Y-143573500D01*
X73791338Y-143573500D01*
X74048968Y-143522254D01*
X74291649Y-143421732D01*
X74510057Y-143275797D01*
X74695797Y-143090057D01*
X74841732Y-142871649D01*
X74942254Y-142628968D01*
X74993500Y-142371338D01*
X74993500Y-142108662D01*
X74942254Y-141851032D01*
X74841732Y-141608351D01*
X74695797Y-141389943D01*
X74510057Y-141204203D01*
X74291649Y-141058268D01*
X74048968Y-140957746D01*
X73791338Y-140906500D01*
X73528662Y-140906500D01*
X73271032Y-140957746D01*
X73028351Y-141058268D01*
X72809943Y-141204203D01*
X72624203Y-141389943D01*
X72478268Y-141608351D01*
X72377746Y-141851032D01*
X72326500Y-142108662D01*
X69913500Y-142108662D01*
X69862254Y-141851032D01*
X69761732Y-141608351D01*
X69615797Y-141389943D01*
X69430057Y-141204203D01*
X69211649Y-141058268D01*
X68968968Y-140957746D01*
X68711338Y-140906500D01*
X68448662Y-140906500D01*
X68191032Y-140957746D01*
X67948351Y-141058268D01*
X67729943Y-141204203D01*
X67544203Y-141389943D01*
X67398268Y-141608351D01*
X67297746Y-141851032D01*
X67246500Y-142108662D01*
X63627000Y-142108662D01*
X63627000Y-142082408D01*
X63573314Y-141812510D01*
X63468005Y-141558273D01*
X63315120Y-141329465D01*
X63120535Y-141134880D01*
X62891727Y-140981995D01*
X62637490Y-140876686D01*
X62367592Y-140823000D01*
X62092408Y-140823000D01*
X61822510Y-140876686D01*
X61568273Y-140981995D01*
X61339465Y-141134880D01*
X61144880Y-141329465D01*
X60991995Y-141558273D01*
X60960000Y-141635515D01*
X60928005Y-141558273D01*
X60775120Y-141329465D01*
X60580535Y-141134880D01*
X60351727Y-140981995D01*
X60097490Y-140876686D01*
X59827592Y-140823000D01*
X59552408Y-140823000D01*
X59282510Y-140876686D01*
X59028273Y-140981995D01*
X58799465Y-141134880D01*
X58604880Y-141329465D01*
X58451995Y-141558273D01*
X58420000Y-141635515D01*
X58388005Y-141558273D01*
X58235120Y-141329465D01*
X58040535Y-141134880D01*
X57811727Y-140981995D01*
X57557490Y-140876686D01*
X57287592Y-140823000D01*
X57012408Y-140823000D01*
X56742510Y-140876686D01*
X56488273Y-140981995D01*
X56259465Y-141134880D01*
X56064880Y-141329465D01*
X55911995Y-141558273D01*
X55880000Y-141635515D01*
X55848005Y-141558273D01*
X55695120Y-141329465D01*
X55500535Y-141134880D01*
X55271727Y-140981995D01*
X55017490Y-140876686D01*
X54747592Y-140823000D01*
X54472408Y-140823000D01*
X54202510Y-140876686D01*
X53948273Y-140981995D01*
X53719465Y-141134880D01*
X53524880Y-141329465D01*
X53371995Y-141558273D01*
X53340000Y-141635515D01*
X53308005Y-141558273D01*
X53155120Y-141329465D01*
X52960535Y-141134880D01*
X52731727Y-140981995D01*
X52477490Y-140876686D01*
X52207592Y-140823000D01*
X51932408Y-140823000D01*
X51662510Y-140876686D01*
X51408273Y-140981995D01*
X51179465Y-141134880D01*
X50984880Y-141329465D01*
X50831995Y-141558273D01*
X50800000Y-141635515D01*
X50768005Y-141558273D01*
X50615120Y-141329465D01*
X50420535Y-141134880D01*
X50191727Y-140981995D01*
X49937490Y-140876686D01*
X49667592Y-140823000D01*
X49392408Y-140823000D01*
X49122510Y-140876686D01*
X48868273Y-140981995D01*
X48639465Y-141134880D01*
X48444880Y-141329465D01*
X48291995Y-141558273D01*
X48260000Y-141635515D01*
X48228005Y-141558273D01*
X48075120Y-141329465D01*
X47880535Y-141134880D01*
X47651727Y-140981995D01*
X47397490Y-140876686D01*
X47127592Y-140823000D01*
X46852408Y-140823000D01*
X46582510Y-140876686D01*
X46328273Y-140981995D01*
X46099465Y-141134880D01*
X45904880Y-141329465D01*
X45751995Y-141558273D01*
X45720000Y-141635515D01*
X45688005Y-141558273D01*
X45535120Y-141329465D01*
X45340535Y-141134880D01*
X45111727Y-140981995D01*
X44857490Y-140876686D01*
X44587592Y-140823000D01*
X44312408Y-140823000D01*
X44042510Y-140876686D01*
X43788273Y-140981995D01*
X43559465Y-141134880D01*
X43364880Y-141329465D01*
X43211995Y-141558273D01*
X43182308Y-141629943D01*
X43177636Y-141616977D01*
X43115656Y-141501020D01*
X42875565Y-141434040D01*
X42089605Y-142220000D01*
X41730395Y-142220000D01*
X40944435Y-141434040D01*
X40704344Y-141501020D01*
X40642921Y-141631644D01*
X40637636Y-141616977D01*
X40575656Y-141501020D01*
X40335565Y-141434040D01*
X39549605Y-142220000D01*
X39190395Y-142220000D01*
X38404435Y-141434040D01*
X38164344Y-141501020D01*
X38100515Y-141636760D01*
X38068005Y-141558273D01*
X37915120Y-141329465D01*
X37840090Y-141254435D01*
X38584040Y-141254435D01*
X39370000Y-142040395D01*
X40155960Y-141254435D01*
X41124040Y-141254435D01*
X41910000Y-142040395D01*
X42695960Y-141254435D01*
X42628980Y-141014344D01*
X42379952Y-140897244D01*
X42112865Y-140830977D01*
X41837983Y-140818090D01*
X41565867Y-140859078D01*
X41306977Y-140952364D01*
X41191020Y-141014344D01*
X41124040Y-141254435D01*
X40155960Y-141254435D01*
X40088980Y-141014344D01*
X39839952Y-140897244D01*
X39572865Y-140830977D01*
X39297983Y-140818090D01*
X39025867Y-140859078D01*
X38766977Y-140952364D01*
X38651020Y-141014344D01*
X38584040Y-141254435D01*
X37840090Y-141254435D01*
X37720535Y-141134880D01*
X37491727Y-140981995D01*
X37237490Y-140876686D01*
X36967592Y-140823000D01*
X36692408Y-140823000D01*
X36422510Y-140876686D01*
X36168273Y-140981995D01*
X35939465Y-141134880D01*
X35744880Y-141329465D01*
X35686080Y-141417465D01*
X35677812Y-141333518D01*
X35641502Y-141213820D01*
X35582537Y-141103506D01*
X35503185Y-141006815D01*
X35406494Y-140927463D01*
X35296180Y-140868498D01*
X35176482Y-140832188D01*
X35052000Y-140819928D01*
X33528000Y-140819928D01*
X33403518Y-140832188D01*
X33283820Y-140868498D01*
X33173506Y-140927463D01*
X33076815Y-141006815D01*
X32997463Y-141103506D01*
X32938498Y-141213820D01*
X32902188Y-141333518D01*
X32889928Y-141458000D01*
X30660000Y-141458000D01*
X30660000Y-139568662D01*
X81216500Y-139568662D01*
X81216500Y-139831338D01*
X81267746Y-140088968D01*
X81368268Y-140331649D01*
X81514203Y-140550057D01*
X81699943Y-140735797D01*
X81918351Y-140881732D01*
X82161032Y-140982254D01*
X82418662Y-141033500D01*
X82681338Y-141033500D01*
X82938968Y-140982254D01*
X83181649Y-140881732D01*
X83400057Y-140735797D01*
X83585797Y-140550057D01*
X83731732Y-140331649D01*
X83832254Y-140088968D01*
X83883500Y-139831338D01*
X83883500Y-139568662D01*
X83832254Y-139311032D01*
X83731732Y-139068351D01*
X83585797Y-138849943D01*
X83400057Y-138664203D01*
X83181649Y-138518268D01*
X82938968Y-138417746D01*
X82681338Y-138366500D01*
X82418662Y-138366500D01*
X82161032Y-138417746D01*
X81918351Y-138518268D01*
X81699943Y-138664203D01*
X81514203Y-138849943D01*
X81368268Y-139068351D01*
X81267746Y-139311032D01*
X81216500Y-139568662D01*
X30660000Y-139568662D01*
X30660000Y-136032279D01*
X30669580Y-135934576D01*
X30688580Y-135871644D01*
X30719445Y-135813595D01*
X30760989Y-135762657D01*
X30811644Y-135720752D01*
X30869471Y-135689485D01*
X30932272Y-135670044D01*
X31027835Y-135660000D01*
X119967721Y-135660000D01*
X120065424Y-135669580D01*
X120065424Y-135669580D01*
G37*
X120065424Y-135669580D02*
X120128356Y-135688580D01*
X120186405Y-135719445D01*
X120237343Y-135760989D01*
X120279248Y-135811644D01*
X120310515Y-135869471D01*
X120329956Y-135932272D01*
X120340001Y-136027845D01*
X120340000Y-188967721D01*
X120330420Y-189065424D01*
X120311420Y-189128357D01*
X120280554Y-189186406D01*
X120239011Y-189237343D01*
X120188356Y-189279248D01*
X120130529Y-189310515D01*
X120067728Y-189329956D01*
X119972165Y-189340000D01*
X31032279Y-189340000D01*
X30934576Y-189330420D01*
X30871643Y-189311420D01*
X30813594Y-189280554D01*
X30762657Y-189239011D01*
X30720752Y-189188356D01*
X30689485Y-189130529D01*
X30670044Y-189067728D01*
X30660000Y-188972165D01*
X30660000Y-172563891D01*
X49645000Y-172563891D01*
X49645000Y-172876109D01*
X49705911Y-173182327D01*
X49825391Y-173470779D01*
X49998850Y-173730379D01*
X50219621Y-173951150D01*
X50479221Y-174124609D01*
X50767673Y-174244089D01*
X51073891Y-174305000D01*
X51386109Y-174305000D01*
X51692327Y-174244089D01*
X51980779Y-174124609D01*
X52240379Y-173951150D01*
X52461150Y-173730379D01*
X52634609Y-173470779D01*
X52754089Y-173182327D01*
X52815000Y-172876109D01*
X52815000Y-172563891D01*
X52794430Y-172460475D01*
X54095000Y-172460475D01*
X54095000Y-172979525D01*
X54196261Y-173488601D01*
X54394893Y-173968141D01*
X54683262Y-174399715D01*
X55050285Y-174766738D01*
X55481859Y-175055107D01*
X55961399Y-175253739D01*
X56470475Y-175355000D01*
X56989525Y-175355000D01*
X57498601Y-175253739D01*
X57978141Y-175055107D01*
X58409715Y-174766738D01*
X58776738Y-174399715D01*
X59065107Y-173968141D01*
X59263739Y-173488601D01*
X59365000Y-172979525D01*
X59365000Y-172563891D01*
X60645000Y-172563891D01*
X60645000Y-172876109D01*
X60705911Y-173182327D01*
X60825391Y-173470779D01*
X60998850Y-173730379D01*
X61219621Y-173951150D01*
X61479221Y-174124609D01*
X61767673Y-174244089D01*
X62073891Y-174305000D01*
X62386109Y-174305000D01*
X62692327Y-174244089D01*
X62980779Y-174124609D01*
X63240379Y-173951150D01*
X63461150Y-173730379D01*
X63634609Y-173470779D01*
X63754089Y-173182327D01*
X63815000Y-172876109D01*
X63815000Y-172563891D01*
X70385000Y-172563891D01*
X70385000Y-172876109D01*
X70445911Y-173182327D01*
X70565391Y-173470779D01*
X70738850Y-173730379D01*
X70959621Y-173951150D01*
X71219221Y-174124609D01*
X71507673Y-174244089D01*
X71813891Y-174305000D01*
X72126109Y-174305000D01*
X72432327Y-174244089D01*
X72720779Y-174124609D01*
X72980379Y-173951150D01*
X73201150Y-173730379D01*
X73374609Y-173470779D01*
X73494089Y-173182327D01*
X73555000Y-172876109D01*
X73555000Y-172563891D01*
X73534430Y-172460475D01*
X74835000Y-172460475D01*
X74835000Y-172979525D01*
X74936261Y-173488601D01*
X75134893Y-173968141D01*
X75423262Y-174399715D01*
X75790285Y-174766738D01*
X76221859Y-175055107D01*
X76701399Y-175253739D01*
X77210475Y-175355000D01*
X77729525Y-175355000D01*
X78238601Y-175253739D01*
X78718141Y-175055107D01*
X79149715Y-174766738D01*
X79516738Y-174399715D01*
X79805107Y-173968141D01*
X80003739Y-173488601D01*
X80105000Y-172979525D01*
X80105000Y-172563891D01*
X81385000Y-172563891D01*
X81385000Y-172876109D01*
X81445911Y-173182327D01*
X81565391Y-173470779D01*
X81738850Y-173730379D01*
X81959621Y-173951150D01*
X82219221Y-174124609D01*
X82507673Y-174244089D01*
X82813891Y-174305000D01*
X83126109Y-174305000D01*
X83432327Y-174244089D01*
X83720779Y-174124609D01*
X83980379Y-173951150D01*
X84201150Y-173730379D01*
X84374609Y-173470779D01*
X84494089Y-173182327D01*
X84555000Y-172876109D01*
X84555000Y-172563891D01*
X91975000Y-172563891D01*
X91975000Y-172876109D01*
X92035911Y-173182327D01*
X92155391Y-173470779D01*
X92328850Y-173730379D01*
X92549621Y-173951150D01*
X92809221Y-174124609D01*
X93097673Y-174244089D01*
X93403891Y-174305000D01*
X93716109Y-174305000D01*
X94022327Y-174244089D01*
X94310779Y-174124609D01*
X94570379Y-173951150D01*
X94791150Y-173730379D01*
X94964609Y-173470779D01*
X95084089Y-173182327D01*
X95145000Y-172876109D01*
X95145000Y-172563891D01*
X95124430Y-172460475D01*
X96425000Y-172460475D01*
X96425000Y-172979525D01*
X96526261Y-173488601D01*
X96724893Y-173968141D01*
X97013262Y-174399715D01*
X97380285Y-174766738D01*
X97811859Y-175055107D01*
X98291399Y-175253739D01*
X98800475Y-175355000D01*
X99319525Y-175355000D01*
X99828601Y-175253739D01*
X100308141Y-175055107D01*
X100739715Y-174766738D01*
X101106738Y-174399715D01*
X101395107Y-173968141D01*
X101593739Y-173488601D01*
X101695000Y-172979525D01*
X101695000Y-172563891D01*
X102975000Y-172563891D01*
X102975000Y-172876109D01*
X103035911Y-173182327D01*
X103155391Y-173470779D01*
X103328850Y-173730379D01*
X103549621Y-173951150D01*
X103809221Y-174124609D01*
X104097673Y-174244089D01*
X104403891Y-174305000D01*
X104716109Y-174305000D01*
X105022327Y-174244089D01*
X105310779Y-174124609D01*
X105570379Y-173951150D01*
X105791150Y-173730379D01*
X105964609Y-173470779D01*
X106084089Y-173182327D01*
X106145000Y-172876109D01*
X106145000Y-172563891D01*
X106084089Y-172257673D01*
X105964609Y-171969221D01*
X105791150Y-171709621D01*
X105570379Y-171488850D01*
X105310779Y-171315391D01*
X105022327Y-171195911D01*
X104716109Y-171135000D01*
X104403891Y-171135000D01*
X104097673Y-171195911D01*
X103809221Y-171315391D01*
X103549621Y-171488850D01*
X103328850Y-171709621D01*
X103155391Y-171969221D01*
X103035911Y-172257673D01*
X102975000Y-172563891D01*
X101695000Y-172563891D01*
X101695000Y-172460475D01*
X101593739Y-171951399D01*
X101395107Y-171471859D01*
X101106738Y-171040285D01*
X100739715Y-170673262D01*
X100308141Y-170384893D01*
X99828601Y-170186261D01*
X99319525Y-170085000D01*
X98800475Y-170085000D01*
X98291399Y-170186261D01*
X97811859Y-170384893D01*
X97380285Y-170673262D01*
X97013262Y-171040285D01*
X96724893Y-171471859D01*
X96526261Y-171951399D01*
X96425000Y-172460475D01*
X95124430Y-172460475D01*
X95084089Y-172257673D01*
X94964609Y-171969221D01*
X94863995Y-171818641D01*
X94864970Y-171818819D01*
X95123000Y-171661016D01*
X95123000Y-170307000D01*
X95377000Y-170307000D01*
X95377000Y-171661016D01*
X95635030Y-171818819D01*
X95952153Y-171760987D01*
X96251900Y-171642398D01*
X96522752Y-171467610D01*
X96754300Y-171243340D01*
X96937646Y-170978206D01*
X97065744Y-170682398D01*
X97090124Y-170560434D01*
X96970777Y-170307000D01*
X95377000Y-170307000D01*
X95123000Y-170307000D01*
X93529223Y-170307000D01*
X93409876Y-170560434D01*
X93434256Y-170682398D01*
X93562354Y-170978206D01*
X93670781Y-171135000D01*
X93403891Y-171135000D01*
X93097673Y-171195911D01*
X92809221Y-171315391D01*
X92549621Y-171488850D01*
X92328850Y-171709621D01*
X92155391Y-171969221D01*
X92035911Y-172257673D01*
X91975000Y-172563891D01*
X84555000Y-172563891D01*
X84494089Y-172257673D01*
X84374609Y-171969221D01*
X84201150Y-171709621D01*
X83980379Y-171488850D01*
X83720779Y-171315391D01*
X83432327Y-171195911D01*
X83126109Y-171135000D01*
X82813891Y-171135000D01*
X82507673Y-171195911D01*
X82219221Y-171315391D01*
X81959621Y-171488850D01*
X81738850Y-171709621D01*
X81565391Y-171969221D01*
X81445911Y-172257673D01*
X81385000Y-172563891D01*
X80105000Y-172563891D01*
X80105000Y-172460475D01*
X80003739Y-171951399D01*
X79805107Y-171471859D01*
X79516738Y-171040285D01*
X79149715Y-170673262D01*
X78718141Y-170384893D01*
X78238601Y-170186261D01*
X77729525Y-170085000D01*
X77210475Y-170085000D01*
X76701399Y-170186261D01*
X76221859Y-170384893D01*
X75790285Y-170673262D01*
X75423262Y-171040285D01*
X75134893Y-171471859D01*
X74936261Y-171951399D01*
X74835000Y-172460475D01*
X73534430Y-172460475D01*
X73494089Y-172257673D01*
X73374609Y-171969221D01*
X73273995Y-171818641D01*
X73274970Y-171818819D01*
X73533000Y-171661016D01*
X73533000Y-170307000D01*
X73787000Y-170307000D01*
X73787000Y-171661016D01*
X74045030Y-171818819D01*
X74362153Y-171760987D01*
X74661900Y-171642398D01*
X74932752Y-171467610D01*
X75164300Y-171243340D01*
X75347646Y-170978206D01*
X75475744Y-170682398D01*
X75500124Y-170560434D01*
X75380777Y-170307000D01*
X73787000Y-170307000D01*
X73533000Y-170307000D01*
X71939223Y-170307000D01*
X71819876Y-170560434D01*
X71844256Y-170682398D01*
X71972354Y-170978206D01*
X72080781Y-171135000D01*
X71813891Y-171135000D01*
X71507673Y-171195911D01*
X71219221Y-171315391D01*
X70959621Y-171488850D01*
X70738850Y-171709621D01*
X70565391Y-171969221D01*
X70445911Y-172257673D01*
X70385000Y-172563891D01*
X63815000Y-172563891D01*
X63754089Y-172257673D01*
X63634609Y-171969221D01*
X63461150Y-171709621D01*
X63240379Y-171488850D01*
X62980779Y-171315391D01*
X62692327Y-171195911D01*
X62386109Y-171135000D01*
X62073891Y-171135000D01*
X61767673Y-171195911D01*
X61479221Y-171315391D01*
X61219621Y-171488850D01*
X60998850Y-171709621D01*
X60825391Y-171969221D01*
X60705911Y-172257673D01*
X60645000Y-172563891D01*
X59365000Y-172563891D01*
X59365000Y-172460475D01*
X59263739Y-171951399D01*
X59065107Y-171471859D01*
X58776738Y-171040285D01*
X58409715Y-170673262D01*
X57978141Y-170384893D01*
X57498601Y-170186261D01*
X56989525Y-170085000D01*
X56470475Y-170085000D01*
X55961399Y-170186261D01*
X55481859Y-170384893D01*
X55050285Y-170673262D01*
X54683262Y-171040285D01*
X54394893Y-171471859D01*
X54196261Y-171951399D01*
X54095000Y-172460475D01*
X52794430Y-172460475D01*
X52754089Y-172257673D01*
X52634609Y-171969221D01*
X52533995Y-171818641D01*
X52534970Y-171818819D01*
X52793000Y-171661016D01*
X52793000Y-170307000D01*
X53047000Y-170307000D01*
X53047000Y-171661016D01*
X53305030Y-171818819D01*
X53622153Y-171760987D01*
X53921900Y-171642398D01*
X54192752Y-171467610D01*
X54424300Y-171243340D01*
X54607646Y-170978206D01*
X54735744Y-170682398D01*
X54760124Y-170560434D01*
X54640777Y-170307000D01*
X53047000Y-170307000D01*
X52793000Y-170307000D01*
X51199223Y-170307000D01*
X51079876Y-170560434D01*
X51104256Y-170682398D01*
X51232354Y-170978206D01*
X51340781Y-171135000D01*
X51073891Y-171135000D01*
X50767673Y-171195911D01*
X50479221Y-171315391D01*
X50219621Y-171488850D01*
X49998850Y-171709621D01*
X49825391Y-171969221D01*
X49705911Y-172257673D01*
X49645000Y-172563891D01*
X30660000Y-172563891D01*
X30660000Y-169799566D01*
X51079876Y-169799566D01*
X51199223Y-170053000D01*
X52793000Y-170053000D01*
X52793000Y-168698984D01*
X53047000Y-168698984D01*
X53047000Y-170053000D01*
X54640777Y-170053000D01*
X54760124Y-169799566D01*
X71819876Y-169799566D01*
X71939223Y-170053000D01*
X73533000Y-170053000D01*
X73533000Y-168698984D01*
X73787000Y-168698984D01*
X73787000Y-170053000D01*
X75380777Y-170053000D01*
X75500124Y-169799566D01*
X93409876Y-169799566D01*
X93529223Y-170053000D01*
X95123000Y-170053000D01*
X95123000Y-168698984D01*
X95377000Y-168698984D01*
X95377000Y-170053000D01*
X96970777Y-170053000D01*
X97090124Y-169799566D01*
X97065744Y-169677602D01*
X96937646Y-169381794D01*
X96754300Y-169116660D01*
X96522752Y-168892390D01*
X96251900Y-168717602D01*
X95952153Y-168599013D01*
X95635030Y-168541181D01*
X95377000Y-168698984D01*
X95123000Y-168698984D01*
X94864970Y-168541181D01*
X94547847Y-168599013D01*
X94248100Y-168717602D01*
X93977248Y-168892390D01*
X93745700Y-169116660D01*
X93562354Y-169381794D01*
X93434256Y-169677602D01*
X93409876Y-169799566D01*
X75500124Y-169799566D01*
X75475744Y-169677602D01*
X75347646Y-169381794D01*
X75164300Y-169116660D01*
X74932752Y-168892390D01*
X74661900Y-168717602D01*
X74362153Y-168599013D01*
X74045030Y-168541181D01*
X73787000Y-168698984D01*
X73533000Y-168698984D01*
X73274970Y-168541181D01*
X72957847Y-168599013D01*
X72658100Y-168717602D01*
X72387248Y-168892390D01*
X72155700Y-169116660D01*
X71972354Y-169381794D01*
X71844256Y-169677602D01*
X71819876Y-169799566D01*
X54760124Y-169799566D01*
X54735744Y-169677602D01*
X54607646Y-169381794D01*
X54424300Y-169116660D01*
X54192752Y-168892390D01*
X53921900Y-168717602D01*
X53622153Y-168599013D01*
X53305030Y-168541181D01*
X53047000Y-168698984D01*
X52793000Y-168698984D01*
X52534970Y-168541181D01*
X52217847Y-168599013D01*
X51918100Y-168717602D01*
X51647248Y-168892390D01*
X51415700Y-169116660D01*
X51232354Y-169381794D01*
X51104256Y-169677602D01*
X51079876Y-169799566D01*
X30660000Y-169799566D01*
X30660000Y-167640000D01*
X57377089Y-167640000D01*
X57408657Y-167960516D01*
X57502148Y-168268715D01*
X57653969Y-168552752D01*
X57858286Y-168801714D01*
X58107248Y-169006031D01*
X58391285Y-169157852D01*
X58699484Y-169251343D01*
X58939678Y-169275000D01*
X59600322Y-169275000D01*
X59840516Y-169251343D01*
X60148715Y-169157852D01*
X60432752Y-169006031D01*
X60681714Y-168801714D01*
X60886031Y-168552752D01*
X61037852Y-168268715D01*
X61131343Y-167960516D01*
X61162911Y-167640000D01*
X78117089Y-167640000D01*
X78148657Y-167960516D01*
X78242148Y-168268715D01*
X78393969Y-168552752D01*
X78598286Y-168801714D01*
X78847248Y-169006031D01*
X79131285Y-169157852D01*
X79439484Y-169251343D01*
X79679678Y-169275000D01*
X80340322Y-169275000D01*
X80580516Y-169251343D01*
X80888715Y-169157852D01*
X81172752Y-169006031D01*
X81421714Y-168801714D01*
X81626031Y-168552752D01*
X81777852Y-168268715D01*
X81871343Y-167960516D01*
X81902911Y-167640000D01*
X99707089Y-167640000D01*
X99738657Y-167960516D01*
X99832148Y-168268715D01*
X99983969Y-168552752D01*
X100188286Y-168801714D01*
X100437248Y-169006031D01*
X100721285Y-169157852D01*
X101029484Y-169251343D01*
X101269678Y-169275000D01*
X101930322Y-169275000D01*
X102170516Y-169251343D01*
X102478715Y-169157852D01*
X102762752Y-169006031D01*
X103011714Y-168801714D01*
X103216031Y-168552752D01*
X103367852Y-168268715D01*
X103461343Y-167960516D01*
X103492911Y-167640000D01*
X103461343Y-167319484D01*
X103367852Y-167011285D01*
X103216031Y-166727248D01*
X103011714Y-166478286D01*
X102762752Y-166273969D01*
X102478715Y-166122148D01*
X102170516Y-166028657D01*
X101930322Y-166005000D01*
X101269678Y-166005000D01*
X101029484Y-166028657D01*
X100721285Y-166122148D01*
X100437248Y-166273969D01*
X100188286Y-166478286D01*
X99983969Y-166727248D01*
X99832148Y-167011285D01*
X99738657Y-167319484D01*
X99707089Y-167640000D01*
X81902911Y-167640000D01*
X81871343Y-167319484D01*
X81777852Y-167011285D01*
X81626031Y-166727248D01*
X81421714Y-166478286D01*
X81172752Y-166273969D01*
X80888715Y-166122148D01*
X80580516Y-166028657D01*
X80340322Y-166005000D01*
X79679678Y-166005000D01*
X79439484Y-166028657D01*
X79131285Y-166122148D01*
X78847248Y-166273969D01*
X78598286Y-166478286D01*
X78393969Y-166727248D01*
X78242148Y-167011285D01*
X78148657Y-167319484D01*
X78117089Y-167640000D01*
X61162911Y-167640000D01*
X61131343Y-167319484D01*
X61037852Y-167011285D01*
X60886031Y-166727248D01*
X60681714Y-166478286D01*
X60432752Y-166273969D01*
X60148715Y-166122148D01*
X59840516Y-166028657D01*
X59600322Y-166005000D01*
X58939678Y-166005000D01*
X58699484Y-166028657D01*
X58391285Y-166122148D01*
X58107248Y-166273969D01*
X57858286Y-166478286D01*
X57653969Y-166727248D01*
X57502148Y-167011285D01*
X57408657Y-167319484D01*
X57377089Y-167640000D01*
X30660000Y-167640000D01*
X30660000Y-163695413D01*
X32624192Y-163695413D01*
X32719956Y-163959814D01*
X33009571Y-164100704D01*
X33321108Y-164182384D01*
X33642595Y-164201718D01*
X33961675Y-164157961D01*
X34266088Y-164052795D01*
X34440044Y-163959814D01*
X34535808Y-163695413D01*
X33580000Y-162739605D01*
X32624192Y-163695413D01*
X30660000Y-163695413D01*
X30660000Y-162622595D01*
X31938282Y-162622595D01*
X31982039Y-162941675D01*
X32087205Y-163246088D01*
X32180186Y-163420044D01*
X32444587Y-163515808D01*
X33400395Y-162560000D01*
X33759605Y-162560000D01*
X34715413Y-163515808D01*
X34979814Y-163420044D01*
X35120704Y-163130429D01*
X35202384Y-162818892D01*
X35221718Y-162497405D01*
X35208219Y-162398967D01*
X38445000Y-162398967D01*
X38445000Y-162721033D01*
X38507832Y-163036912D01*
X38631082Y-163334463D01*
X38810013Y-163602252D01*
X39037748Y-163829987D01*
X39305537Y-164008918D01*
X39603088Y-164132168D01*
X39918967Y-164195000D01*
X40241033Y-164195000D01*
X40556912Y-164132168D01*
X40854463Y-164008918D01*
X41122252Y-163829987D01*
X41349987Y-163602252D01*
X41528918Y-163334463D01*
X41652168Y-163036912D01*
X41715000Y-162721033D01*
X41715000Y-162398967D01*
X41652168Y-162083088D01*
X41528918Y-161785537D01*
X41349987Y-161517748D01*
X41122252Y-161290013D01*
X40854463Y-161111082D01*
X40556912Y-160987832D01*
X40241033Y-160925000D01*
X39918967Y-160925000D01*
X39603088Y-160987832D01*
X39305537Y-161111082D01*
X39037748Y-161290013D01*
X38810013Y-161517748D01*
X38631082Y-161785537D01*
X38507832Y-162083088D01*
X38445000Y-162398967D01*
X35208219Y-162398967D01*
X35177961Y-162178325D01*
X35072795Y-161873912D01*
X34979814Y-161699956D01*
X34715413Y-161604192D01*
X33759605Y-162560000D01*
X33400395Y-162560000D01*
X32444587Y-161604192D01*
X32180186Y-161699956D01*
X32039296Y-161989571D01*
X31957616Y-162301108D01*
X31938282Y-162622595D01*
X30660000Y-162622595D01*
X30660000Y-161424587D01*
X32624192Y-161424587D01*
X33580000Y-162380395D01*
X34535808Y-161424587D01*
X34440044Y-161160186D01*
X34150429Y-161019296D01*
X33838892Y-160937616D01*
X33517405Y-160918282D01*
X33198325Y-160962039D01*
X32893912Y-161067205D01*
X32719956Y-161160186D01*
X32624192Y-161424587D01*
X30660000Y-161424587D01*
X30660000Y-159888662D01*
X71056500Y-159888662D01*
X71056500Y-160151338D01*
X71107746Y-160408968D01*
X71208268Y-160651649D01*
X71354203Y-160870057D01*
X71539943Y-161055797D01*
X71758351Y-161201732D01*
X72001032Y-161302254D01*
X72258662Y-161353500D01*
X72521338Y-161353500D01*
X72778968Y-161302254D01*
X73021649Y-161201732D01*
X73240057Y-161055797D01*
X73425797Y-160870057D01*
X73571732Y-160651649D01*
X73672254Y-160408968D01*
X73723500Y-160151338D01*
X73723500Y-159888662D01*
X76136500Y-159888662D01*
X76136500Y-160151338D01*
X76187746Y-160408968D01*
X76288268Y-160651649D01*
X76434203Y-160870057D01*
X76619943Y-161055797D01*
X76838351Y-161201732D01*
X77081032Y-161302254D01*
X77338662Y-161353500D01*
X77601338Y-161353500D01*
X77858968Y-161302254D01*
X78101649Y-161201732D01*
X78320057Y-161055797D01*
X78505797Y-160870057D01*
X78651732Y-160651649D01*
X78740000Y-160438552D01*
X78828268Y-160651649D01*
X78974203Y-160870057D01*
X79159943Y-161055797D01*
X79378351Y-161201732D01*
X79621032Y-161302254D01*
X79878662Y-161353500D01*
X80141338Y-161353500D01*
X80398968Y-161302254D01*
X80641649Y-161201732D01*
X80860057Y-161055797D01*
X81045797Y-160870057D01*
X81191732Y-160651649D01*
X81292254Y-160408968D01*
X81343500Y-160151338D01*
X81343500Y-159888662D01*
X83756500Y-159888662D01*
X83756500Y-160151338D01*
X83807746Y-160408968D01*
X83908268Y-160651649D01*
X84054203Y-160870057D01*
X84239943Y-161055797D01*
X84458351Y-161201732D01*
X84701032Y-161302254D01*
X84958662Y-161353500D01*
X85221338Y-161353500D01*
X85478968Y-161302254D01*
X85721649Y-161201732D01*
X85940057Y-161055797D01*
X86125797Y-160870057D01*
X86271732Y-160651649D01*
X86372254Y-160408968D01*
X86423500Y-160151338D01*
X86423500Y-159888662D01*
X86372254Y-159631032D01*
X86271732Y-159388351D01*
X86125797Y-159169943D01*
X85940057Y-158984203D01*
X85721649Y-158838268D01*
X85478968Y-158737746D01*
X85221338Y-158686500D01*
X84958662Y-158686500D01*
X84701032Y-158737746D01*
X84458351Y-158838268D01*
X84239943Y-158984203D01*
X84054203Y-159169943D01*
X83908268Y-159388351D01*
X83807746Y-159631032D01*
X83756500Y-159888662D01*
X81343500Y-159888662D01*
X81292254Y-159631032D01*
X81191732Y-159388351D01*
X81045797Y-159169943D01*
X80860057Y-158984203D01*
X80641649Y-158838268D01*
X80398968Y-158737746D01*
X80141338Y-158686500D01*
X79878662Y-158686500D01*
X79621032Y-158737746D01*
X79378351Y-158838268D01*
X79159943Y-158984203D01*
X78974203Y-159169943D01*
X78828268Y-159388351D01*
X78740000Y-159601448D01*
X78651732Y-159388351D01*
X78505797Y-159169943D01*
X78320057Y-158984203D01*
X78101649Y-158838268D01*
X77858968Y-158737746D01*
X77601338Y-158686500D01*
X77338662Y-158686500D01*
X77081032Y-158737746D01*
X76838351Y-158838268D01*
X76619943Y-158984203D01*
X76434203Y-159169943D01*
X76288268Y-159388351D01*
X76187746Y-159631032D01*
X76136500Y-159888662D01*
X73723500Y-159888662D01*
X73672254Y-159631032D01*
X73571732Y-159388351D01*
X73425797Y-159169943D01*
X73240057Y-158984203D01*
X73021649Y-158838268D01*
X72778968Y-158737746D01*
X72521338Y-158686500D01*
X72258662Y-158686500D01*
X72001032Y-158737746D01*
X71758351Y-158838268D01*
X71539943Y-158984203D01*
X71354203Y-159169943D01*
X71208268Y-159388351D01*
X71107746Y-159631032D01*
X71056500Y-159888662D01*
X30660000Y-159888662D01*
X30660000Y-157322408D01*
X32893000Y-157322408D01*
X32893000Y-157597592D01*
X32946686Y-157867490D01*
X33051995Y-158121727D01*
X33204880Y-158350535D01*
X33399465Y-158545120D01*
X33628273Y-158698005D01*
X33882510Y-158803314D01*
X34152408Y-158857000D01*
X34427592Y-158857000D01*
X34697490Y-158803314D01*
X34951727Y-158698005D01*
X35180535Y-158545120D01*
X35300090Y-158425565D01*
X36044040Y-158425565D01*
X36111020Y-158665656D01*
X36360048Y-158782756D01*
X36627135Y-158849023D01*
X36902017Y-158861910D01*
X37174133Y-158820922D01*
X37433023Y-158727636D01*
X37548980Y-158665656D01*
X37615960Y-158425565D01*
X36830000Y-157639605D01*
X36044040Y-158425565D01*
X35300090Y-158425565D01*
X35375120Y-158350535D01*
X35528005Y-158121727D01*
X35557692Y-158050057D01*
X35562364Y-158063023D01*
X35624344Y-158178980D01*
X35864435Y-158245960D01*
X36650395Y-157460000D01*
X37009605Y-157460000D01*
X37795565Y-158245960D01*
X38035656Y-158178980D01*
X38099485Y-158043240D01*
X38131995Y-158121727D01*
X38284880Y-158350535D01*
X38479465Y-158545120D01*
X38708273Y-158698005D01*
X38962510Y-158803314D01*
X39232408Y-158857000D01*
X39507592Y-158857000D01*
X39777490Y-158803314D01*
X40031727Y-158698005D01*
X40260535Y-158545120D01*
X40455120Y-158350535D01*
X40608005Y-158121727D01*
X40640000Y-158044485D01*
X40671995Y-158121727D01*
X40824880Y-158350535D01*
X41019465Y-158545120D01*
X41248273Y-158698005D01*
X41502510Y-158803314D01*
X41772408Y-158857000D01*
X42047592Y-158857000D01*
X42317490Y-158803314D01*
X42571727Y-158698005D01*
X42800535Y-158545120D01*
X42995120Y-158350535D01*
X43148005Y-158121727D01*
X43180000Y-158044485D01*
X43211995Y-158121727D01*
X43364880Y-158350535D01*
X43559465Y-158545120D01*
X43788273Y-158698005D01*
X44042510Y-158803314D01*
X44312408Y-158857000D01*
X44587592Y-158857000D01*
X44857490Y-158803314D01*
X45111727Y-158698005D01*
X45340535Y-158545120D01*
X45535120Y-158350535D01*
X45688005Y-158121727D01*
X45720000Y-158044485D01*
X45751995Y-158121727D01*
X45904880Y-158350535D01*
X46099465Y-158545120D01*
X46328273Y-158698005D01*
X46582510Y-158803314D01*
X46852408Y-158857000D01*
X47127592Y-158857000D01*
X47397490Y-158803314D01*
X47651727Y-158698005D01*
X47880535Y-158545120D01*
X48075120Y-158350535D01*
X48228005Y-158121727D01*
X48260000Y-158044485D01*
X48291995Y-158121727D01*
X48444880Y-158350535D01*
X48639465Y-158545120D01*
X48868273Y-158698005D01*
X49122510Y-158803314D01*
X49392408Y-158857000D01*
X49667592Y-158857000D01*
X49937490Y-158803314D01*
X50191727Y-158698005D01*
X50420535Y-158545120D01*
X50615120Y-158350535D01*
X50768005Y-158121727D01*
X50800000Y-158044485D01*
X50831995Y-158121727D01*
X50984880Y-158350535D01*
X51179465Y-158545120D01*
X51408273Y-158698005D01*
X51662510Y-158803314D01*
X51932408Y-158857000D01*
X52207592Y-158857000D01*
X52477490Y-158803314D01*
X52731727Y-158698005D01*
X52960535Y-158545120D01*
X53155120Y-158350535D01*
X53308005Y-158121727D01*
X53340000Y-158044485D01*
X53371995Y-158121727D01*
X53524880Y-158350535D01*
X53719465Y-158545120D01*
X53948273Y-158698005D01*
X54202510Y-158803314D01*
X54472408Y-158857000D01*
X54747592Y-158857000D01*
X55017490Y-158803314D01*
X55271727Y-158698005D01*
X55500535Y-158545120D01*
X55695120Y-158350535D01*
X55848005Y-158121727D01*
X55880000Y-158044485D01*
X55911995Y-158121727D01*
X56064880Y-158350535D01*
X56259465Y-158545120D01*
X56488273Y-158698005D01*
X56742510Y-158803314D01*
X57012408Y-158857000D01*
X57287592Y-158857000D01*
X57557490Y-158803314D01*
X57811727Y-158698005D01*
X58040535Y-158545120D01*
X58235120Y-158350535D01*
X58388005Y-158121727D01*
X58420000Y-158044485D01*
X58451995Y-158121727D01*
X58604880Y-158350535D01*
X58799465Y-158545120D01*
X59028273Y-158698005D01*
X59282510Y-158803314D01*
X59552408Y-158857000D01*
X59827592Y-158857000D01*
X60097490Y-158803314D01*
X60351727Y-158698005D01*
X60580535Y-158545120D01*
X60775120Y-158350535D01*
X60928005Y-158121727D01*
X60960000Y-158044485D01*
X60991995Y-158121727D01*
X61144880Y-158350535D01*
X61339465Y-158545120D01*
X61568273Y-158698005D01*
X61822510Y-158803314D01*
X62092408Y-158857000D01*
X62367592Y-158857000D01*
X62637490Y-158803314D01*
X62891727Y-158698005D01*
X63120535Y-158545120D01*
X63315120Y-158350535D01*
X63468005Y-158121727D01*
X63573314Y-157867490D01*
X63627000Y-157597592D01*
X63627000Y-157322408D01*
X63573314Y-157052510D01*
X63468005Y-156798273D01*
X63315120Y-156569465D01*
X63120535Y-156374880D01*
X62891727Y-156221995D01*
X62637490Y-156116686D01*
X62446331Y-156078662D01*
X78676500Y-156078662D01*
X78676500Y-156341338D01*
X78727746Y-156598968D01*
X78828268Y-156841649D01*
X78974203Y-157060057D01*
X79159943Y-157245797D01*
X79378351Y-157391732D01*
X79621032Y-157492254D01*
X79878662Y-157543500D01*
X80141338Y-157543500D01*
X80398968Y-157492254D01*
X80641649Y-157391732D01*
X80860057Y-157245797D01*
X81045797Y-157060057D01*
X81191732Y-156841649D01*
X81292254Y-156598968D01*
X81343500Y-156341338D01*
X81343500Y-156078662D01*
X83756500Y-156078662D01*
X83756500Y-156341338D01*
X83807746Y-156598968D01*
X83908268Y-156841649D01*
X84054203Y-157060057D01*
X84239943Y-157245797D01*
X84458351Y-157391732D01*
X84701032Y-157492254D01*
X84958662Y-157543500D01*
X85221338Y-157543500D01*
X85478968Y-157492254D01*
X85721649Y-157391732D01*
X85940057Y-157245797D01*
X86125797Y-157060057D01*
X86271732Y-156841649D01*
X86372254Y-156598968D01*
X86423500Y-156341338D01*
X86423500Y-156078662D01*
X86372254Y-155821032D01*
X86271732Y-155578351D01*
X86125797Y-155359943D01*
X85940057Y-155174203D01*
X85721649Y-155028268D01*
X85478968Y-154927746D01*
X85221338Y-154876500D01*
X84958662Y-154876500D01*
X84701032Y-154927746D01*
X84458351Y-155028268D01*
X84239943Y-155174203D01*
X84054203Y-155359943D01*
X83908268Y-155578351D01*
X83807746Y-155821032D01*
X83756500Y-156078662D01*
X81343500Y-156078662D01*
X81292254Y-155821032D01*
X81191732Y-155578351D01*
X81045797Y-155359943D01*
X80860057Y-155174203D01*
X80641649Y-155028268D01*
X80398968Y-154927746D01*
X80141338Y-154876500D01*
X79878662Y-154876500D01*
X79621032Y-154927746D01*
X79378351Y-155028268D01*
X79159943Y-155174203D01*
X78974203Y-155359943D01*
X78828268Y-155578351D01*
X78727746Y-155821032D01*
X78676500Y-156078662D01*
X62446331Y-156078662D01*
X62367592Y-156063000D01*
X62092408Y-156063000D01*
X61822510Y-156116686D01*
X61568273Y-156221995D01*
X61339465Y-156374880D01*
X61144880Y-156569465D01*
X60991995Y-156798273D01*
X60960000Y-156875515D01*
X60928005Y-156798273D01*
X60775120Y-156569465D01*
X60580535Y-156374880D01*
X60351727Y-156221995D01*
X60097490Y-156116686D01*
X59827592Y-156063000D01*
X59552408Y-156063000D01*
X59282510Y-156116686D01*
X59028273Y-156221995D01*
X58799465Y-156374880D01*
X58604880Y-156569465D01*
X58451995Y-156798273D01*
X58420000Y-156875515D01*
X58388005Y-156798273D01*
X58235120Y-156569465D01*
X58040535Y-156374880D01*
X57811727Y-156221995D01*
X57557490Y-156116686D01*
X57287592Y-156063000D01*
X57012408Y-156063000D01*
X56742510Y-156116686D01*
X56488273Y-156221995D01*
X56259465Y-156374880D01*
X56064880Y-156569465D01*
X55911995Y-156798273D01*
X55880000Y-156875515D01*
X55848005Y-156798273D01*
X55695120Y-156569465D01*
X55500535Y-156374880D01*
X55271727Y-156221995D01*
X55017490Y-156116686D01*
X54747592Y-156063000D01*
X54472408Y-156063000D01*
X54202510Y-156116686D01*
X53948273Y-156221995D01*
X53719465Y-156374880D01*
X53524880Y-156569465D01*
X53371995Y-156798273D01*
X53340000Y-156875515D01*
X53308005Y-156798273D01*
X53155120Y-156569465D01*
X52960535Y-156374880D01*
X52731727Y-156221995D01*
X52477490Y-156116686D01*
X52207592Y-156063000D01*
X51932408Y-156063000D01*
X51662510Y-156116686D01*
X51408273Y-156221995D01*
X51179465Y-156374880D01*
X50984880Y-156569465D01*
X50831995Y-156798273D01*
X50800000Y-156875515D01*
X50768005Y-156798273D01*
X50615120Y-156569465D01*
X50420535Y-156374880D01*
X50191727Y-156221995D01*
X49937490Y-156116686D01*
X49667592Y-156063000D01*
X49392408Y-156063000D01*
X49122510Y-156116686D01*
X48868273Y-156221995D01*
X48639465Y-156374880D01*
X48444880Y-156569465D01*
X48291995Y-156798273D01*
X48260000Y-156875515D01*
X48228005Y-156798273D01*
X48075120Y-156569465D01*
X47880535Y-156374880D01*
X47651727Y-156221995D01*
X47397490Y-156116686D01*
X47127592Y-156063000D01*
X46852408Y-156063000D01*
X46582510Y-156116686D01*
X46328273Y-156221995D01*
X46099465Y-156374880D01*
X45904880Y-156569465D01*
X45751995Y-156798273D01*
X45720000Y-156875515D01*
X45688005Y-156798273D01*
X45535120Y-156569465D01*
X45340535Y-156374880D01*
X45111727Y-156221995D01*
X44857490Y-156116686D01*
X44587592Y-156063000D01*
X44312408Y-156063000D01*
X44042510Y-156116686D01*
X43788273Y-156221995D01*
X43559465Y-156374880D01*
X43364880Y-156569465D01*
X43211995Y-156798273D01*
X43180000Y-156875515D01*
X43148005Y-156798273D01*
X42995120Y-156569465D01*
X42800535Y-156374880D01*
X42571727Y-156221995D01*
X42317490Y-156116686D01*
X42047592Y-156063000D01*
X41772408Y-156063000D01*
X41502510Y-156116686D01*
X41248273Y-156221995D01*
X41019465Y-156374880D01*
X40824880Y-156569465D01*
X40671995Y-156798273D01*
X40640000Y-156875515D01*
X40608005Y-156798273D01*
X40455120Y-156569465D01*
X40260535Y-156374880D01*
X40031727Y-156221995D01*
X39777490Y-156116686D01*
X39507592Y-156063000D01*
X39232408Y-156063000D01*
X38962510Y-156116686D01*
X38708273Y-156221995D01*
X38479465Y-156374880D01*
X38284880Y-156569465D01*
X38131995Y-156798273D01*
X38102308Y-156869943D01*
X38097636Y-156856977D01*
X38035656Y-156741020D01*
X37795565Y-156674040D01*
X37009605Y-157460000D01*
X36650395Y-157460000D01*
X35864435Y-156674040D01*
X35624344Y-156741020D01*
X35560515Y-156876760D01*
X35528005Y-156798273D01*
X35375120Y-156569465D01*
X35300090Y-156494435D01*
X36044040Y-156494435D01*
X36830000Y-157280395D01*
X37615960Y-156494435D01*
X37548980Y-156254344D01*
X37299952Y-156137244D01*
X37032865Y-156070977D01*
X36757983Y-156058090D01*
X36485867Y-156099078D01*
X36226977Y-156192364D01*
X36111020Y-156254344D01*
X36044040Y-156494435D01*
X35300090Y-156494435D01*
X35180535Y-156374880D01*
X34951727Y-156221995D01*
X34697490Y-156116686D01*
X34427592Y-156063000D01*
X34152408Y-156063000D01*
X33882510Y-156116686D01*
X33628273Y-156221995D01*
X33399465Y-156374880D01*
X33204880Y-156569465D01*
X33051995Y-156798273D01*
X32946686Y-157052510D01*
X32893000Y-157322408D01*
X30660000Y-157322408D01*
X30660000Y-152870000D01*
X68411928Y-152870000D01*
X68411928Y-154470000D01*
X68424188Y-154594482D01*
X68460498Y-154714180D01*
X68519463Y-154824494D01*
X68598815Y-154921185D01*
X68695506Y-155000537D01*
X68805820Y-155059502D01*
X68925518Y-155095812D01*
X69050000Y-155108072D01*
X70650000Y-155108072D01*
X70774482Y-155095812D01*
X70894180Y-155059502D01*
X71004494Y-155000537D01*
X71101185Y-154921185D01*
X71180537Y-154824494D01*
X71239502Y-154714180D01*
X71275812Y-154594482D01*
X71277581Y-154576518D01*
X71370392Y-154689608D01*
X71588899Y-154868932D01*
X71838192Y-155002182D01*
X72108691Y-155084236D01*
X72319508Y-155105000D01*
X72460492Y-155105000D01*
X72671309Y-155084236D01*
X72941808Y-155002182D01*
X73191101Y-154868932D01*
X73409608Y-154689608D01*
X73588932Y-154471101D01*
X73660000Y-154338142D01*
X73731068Y-154471101D01*
X73910392Y-154689608D01*
X74128899Y-154868932D01*
X74378192Y-155002182D01*
X74648691Y-155084236D01*
X74859508Y-155105000D01*
X75000492Y-155105000D01*
X75211309Y-155084236D01*
X75481808Y-155002182D01*
X75731101Y-154868932D01*
X75949608Y-154689608D01*
X76128932Y-154471101D01*
X76202579Y-154333318D01*
X76317615Y-154525131D01*
X76506586Y-154733519D01*
X76732580Y-154901037D01*
X76986913Y-155021246D01*
X77120961Y-155061904D01*
X77343000Y-154939915D01*
X77343000Y-153797000D01*
X77597000Y-153797000D01*
X77597000Y-154939915D01*
X77819039Y-155061904D01*
X77953087Y-155021246D01*
X78207420Y-154901037D01*
X78433414Y-154733519D01*
X78622385Y-154525131D01*
X78767070Y-154283881D01*
X78861909Y-154019040D01*
X78740624Y-153797000D01*
X77597000Y-153797000D01*
X77343000Y-153797000D01*
X77323000Y-153797000D01*
X77323000Y-153543000D01*
X77343000Y-153543000D01*
X77343000Y-152400085D01*
X77597000Y-152400085D01*
X77597000Y-153543000D01*
X78740624Y-153543000D01*
X78861909Y-153320960D01*
X78767070Y-153056119D01*
X78622385Y-152814869D01*
X78433414Y-152606481D01*
X78207420Y-152438963D01*
X77953087Y-152318754D01*
X77819039Y-152278096D01*
X77597000Y-152400085D01*
X77343000Y-152400085D01*
X77120961Y-152278096D01*
X76986913Y-152318754D01*
X76732580Y-152438963D01*
X76506586Y-152606481D01*
X76317615Y-152814869D01*
X76202579Y-153006682D01*
X76128932Y-152868899D01*
X75949608Y-152650392D01*
X75731101Y-152471068D01*
X75481808Y-152337818D01*
X75211309Y-152255764D01*
X75000492Y-152235000D01*
X74859508Y-152235000D01*
X74648691Y-152255764D01*
X74378192Y-152337818D01*
X74128899Y-152471068D01*
X73910392Y-152650392D01*
X73731068Y-152868899D01*
X73660000Y-153001858D01*
X73588932Y-152868899D01*
X73409608Y-152650392D01*
X73191101Y-152471068D01*
X72941808Y-152337818D01*
X72671309Y-152255764D01*
X72460492Y-152235000D01*
X72319508Y-152235000D01*
X72108691Y-152255764D01*
X71838192Y-152337818D01*
X71588899Y-152471068D01*
X71370392Y-152650392D01*
X71277581Y-152763482D01*
X71275812Y-152745518D01*
X71239502Y-152625820D01*
X71180537Y-152515506D01*
X71101185Y-152418815D01*
X71004494Y-152339463D01*
X70894180Y-152280498D01*
X70774482Y-152244188D01*
X70650000Y-152231928D01*
X69050000Y-152231928D01*
X68925518Y-152244188D01*
X68805820Y-152280498D01*
X68695506Y-152339463D01*
X68598815Y-152418815D01*
X68519463Y-152515506D01*
X68460498Y-152625820D01*
X68424188Y-152745518D01*
X68411928Y-152870000D01*
X30660000Y-152870000D01*
X30660000Y-150998662D01*
X83756500Y-150998662D01*
X83756500Y-151261338D01*
X83807746Y-151518968D01*
X83908268Y-151761649D01*
X84054203Y-151980057D01*
X84239943Y-152165797D01*
X84458351Y-152311732D01*
X84701032Y-152412254D01*
X84958662Y-152463500D01*
X85221338Y-152463500D01*
X85478968Y-152412254D01*
X85508551Y-152400000D01*
X94627089Y-152400000D01*
X94658657Y-152720516D01*
X94752148Y-153028715D01*
X94903969Y-153312752D01*
X95108286Y-153561714D01*
X95357248Y-153766031D01*
X95641285Y-153917852D01*
X95949484Y-154011343D01*
X96189678Y-154035000D01*
X96850322Y-154035000D01*
X97090516Y-154011343D01*
X97398715Y-153917852D01*
X97682752Y-153766031D01*
X97931714Y-153561714D01*
X98136031Y-153312752D01*
X98287852Y-153028715D01*
X98381343Y-152720516D01*
X98412911Y-152400000D01*
X98381343Y-152079484D01*
X98287852Y-151771285D01*
X98136031Y-151487248D01*
X97931714Y-151238286D01*
X97682752Y-151033969D01*
X97398715Y-150882148D01*
X97090516Y-150788657D01*
X96850322Y-150765000D01*
X96189678Y-150765000D01*
X95949484Y-150788657D01*
X95641285Y-150882148D01*
X95357248Y-151033969D01*
X95108286Y-151238286D01*
X94903969Y-151487248D01*
X94752148Y-151771285D01*
X94658657Y-152079484D01*
X94627089Y-152400000D01*
X85508551Y-152400000D01*
X85721649Y-152311732D01*
X85940057Y-152165797D01*
X86125797Y-151980057D01*
X86271732Y-151761649D01*
X86372254Y-151518968D01*
X86423500Y-151261338D01*
X86423500Y-150998662D01*
X86372254Y-150741032D01*
X86271732Y-150498351D01*
X86125797Y-150279943D01*
X86086288Y-150240434D01*
X101029876Y-150240434D01*
X101054256Y-150362398D01*
X101182354Y-150658206D01*
X101365700Y-150923340D01*
X101597248Y-151147610D01*
X101868100Y-151322398D01*
X102167847Y-151440987D01*
X102484970Y-151498819D01*
X102743000Y-151341016D01*
X102743000Y-149987000D01*
X102997000Y-149987000D01*
X102997000Y-151341016D01*
X103255030Y-151498819D01*
X103572153Y-151440987D01*
X103871900Y-151322398D01*
X104142752Y-151147610D01*
X104374300Y-150923340D01*
X104557646Y-150658206D01*
X104685744Y-150362398D01*
X104710124Y-150240434D01*
X104590777Y-149987000D01*
X102997000Y-149987000D01*
X102743000Y-149987000D01*
X101149223Y-149987000D01*
X101029876Y-150240434D01*
X86086288Y-150240434D01*
X85940057Y-150094203D01*
X85721649Y-149948268D01*
X85478968Y-149847746D01*
X85221338Y-149796500D01*
X84958662Y-149796500D01*
X84701032Y-149847746D01*
X84458351Y-149948268D01*
X84239943Y-150094203D01*
X84054203Y-150279943D01*
X83908268Y-150498351D01*
X83807746Y-150741032D01*
X83756500Y-150998662D01*
X30660000Y-150998662D01*
X30660000Y-146050000D01*
X68408057Y-146050000D01*
X68435764Y-146331309D01*
X68517818Y-146601808D01*
X68651068Y-146851101D01*
X68830392Y-147069608D01*
X69048899Y-147248932D01*
X69298192Y-147382182D01*
X69568691Y-147464236D01*
X69779508Y-147485000D01*
X69920492Y-147485000D01*
X70131309Y-147464236D01*
X70401808Y-147382182D01*
X70651101Y-147248932D01*
X70869608Y-147069608D01*
X71048932Y-146851101D01*
X71120000Y-146718142D01*
X71191068Y-146851101D01*
X71370392Y-147069608D01*
X71588899Y-147248932D01*
X71838192Y-147382182D01*
X72108691Y-147464236D01*
X72319508Y-147485000D01*
X72460492Y-147485000D01*
X72671309Y-147464236D01*
X72941808Y-147382182D01*
X73191101Y-147248932D01*
X73409608Y-147069608D01*
X73588932Y-146851101D01*
X73660000Y-146718142D01*
X73731068Y-146851101D01*
X73910392Y-147069608D01*
X74128899Y-147248932D01*
X74378192Y-147382182D01*
X74648691Y-147464236D01*
X74859508Y-147485000D01*
X75000492Y-147485000D01*
X75211309Y-147464236D01*
X75481808Y-147382182D01*
X75731101Y-147248932D01*
X75949608Y-147069608D01*
X76128932Y-146851101D01*
X76200000Y-146718142D01*
X76271068Y-146851101D01*
X76450392Y-147069608D01*
X76668899Y-147248932D01*
X76918192Y-147382182D01*
X77188691Y-147464236D01*
X77399508Y-147485000D01*
X77540492Y-147485000D01*
X77751309Y-147464236D01*
X78021808Y-147382182D01*
X78271101Y-147248932D01*
X78489608Y-147069608D01*
X78668932Y-146851101D01*
X78802182Y-146601808D01*
X78884236Y-146331309D01*
X78911943Y-146050000D01*
X78884236Y-145768691D01*
X78863459Y-145700197D01*
X81809408Y-145700197D01*
X81868686Y-145933812D01*
X82106875Y-146044559D01*
X82362093Y-146106711D01*
X82624533Y-146117876D01*
X82884107Y-146077629D01*
X83130842Y-145987514D01*
X83231314Y-145933812D01*
X83235158Y-145918662D01*
X83756500Y-145918662D01*
X83756500Y-146181338D01*
X83807746Y-146438968D01*
X83908268Y-146681649D01*
X84054203Y-146900057D01*
X84239943Y-147085797D01*
X84458351Y-147231732D01*
X84701032Y-147332254D01*
X84958662Y-147383500D01*
X85221338Y-147383500D01*
X85478968Y-147332254D01*
X85721649Y-147231732D01*
X85823180Y-147163891D01*
X91975000Y-147163891D01*
X91975000Y-147476109D01*
X92035911Y-147782327D01*
X92155391Y-148070779D01*
X92328850Y-148330379D01*
X92549621Y-148551150D01*
X92809221Y-148724609D01*
X93097673Y-148844089D01*
X93403891Y-148905000D01*
X93716109Y-148905000D01*
X94022327Y-148844089D01*
X94310779Y-148724609D01*
X94570379Y-148551150D01*
X94791150Y-148330379D01*
X94964609Y-148070779D01*
X95084089Y-147782327D01*
X95145000Y-147476109D01*
X95145000Y-147163891D01*
X95124430Y-147060475D01*
X96425000Y-147060475D01*
X96425000Y-147579525D01*
X96526261Y-148088601D01*
X96724893Y-148568141D01*
X97013262Y-148999715D01*
X97380285Y-149366738D01*
X97811859Y-149655107D01*
X98291399Y-149853739D01*
X98800475Y-149955000D01*
X99319525Y-149955000D01*
X99828601Y-149853739D01*
X100308141Y-149655107D01*
X100570856Y-149479566D01*
X101029876Y-149479566D01*
X101149223Y-149733000D01*
X102743000Y-149733000D01*
X102743000Y-148378984D01*
X102484970Y-148221181D01*
X102167847Y-148279013D01*
X101868100Y-148397602D01*
X101597248Y-148572390D01*
X101365700Y-148796660D01*
X101182354Y-149061794D01*
X101054256Y-149357602D01*
X101029876Y-149479566D01*
X100570856Y-149479566D01*
X100739715Y-149366738D01*
X101106738Y-148999715D01*
X101395107Y-148568141D01*
X101593739Y-148088601D01*
X101695000Y-147579525D01*
X101695000Y-147163891D01*
X102975000Y-147163891D01*
X102975000Y-147476109D01*
X103035911Y-147782327D01*
X103155391Y-148070779D01*
X103256005Y-148221359D01*
X103255030Y-148221181D01*
X102997000Y-148378984D01*
X102997000Y-149733000D01*
X104590777Y-149733000D01*
X104710124Y-149479566D01*
X104685744Y-149357602D01*
X104557646Y-149061794D01*
X104449219Y-148905000D01*
X104716109Y-148905000D01*
X105022327Y-148844089D01*
X105310779Y-148724609D01*
X105570379Y-148551150D01*
X105791150Y-148330379D01*
X105964609Y-148070779D01*
X106084089Y-147782327D01*
X106145000Y-147476109D01*
X106145000Y-147163891D01*
X106084089Y-146857673D01*
X105964609Y-146569221D01*
X105791150Y-146309621D01*
X105570379Y-146088850D01*
X105310779Y-145915391D01*
X105022327Y-145795911D01*
X104716109Y-145735000D01*
X104403891Y-145735000D01*
X104097673Y-145795911D01*
X103809221Y-145915391D01*
X103549621Y-146088850D01*
X103328850Y-146309621D01*
X103155391Y-146569221D01*
X103035911Y-146857673D01*
X102975000Y-147163891D01*
X101695000Y-147163891D01*
X101695000Y-147060475D01*
X101593739Y-146551399D01*
X101395107Y-146071859D01*
X101106738Y-145640285D01*
X100739715Y-145273262D01*
X100308141Y-144984893D01*
X99828601Y-144786261D01*
X99319525Y-144685000D01*
X98800475Y-144685000D01*
X98291399Y-144786261D01*
X97811859Y-144984893D01*
X97380285Y-145273262D01*
X97013262Y-145640285D01*
X96724893Y-146071859D01*
X96526261Y-146551399D01*
X96425000Y-147060475D01*
X95124430Y-147060475D01*
X95084089Y-146857673D01*
X94964609Y-146569221D01*
X94791150Y-146309621D01*
X94570379Y-146088850D01*
X94310779Y-145915391D01*
X94022327Y-145795911D01*
X93716109Y-145735000D01*
X93403891Y-145735000D01*
X93097673Y-145795911D01*
X92809221Y-145915391D01*
X92549621Y-146088850D01*
X92328850Y-146309621D01*
X92155391Y-146569221D01*
X92035911Y-146857673D01*
X91975000Y-147163891D01*
X85823180Y-147163891D01*
X85940057Y-147085797D01*
X86125797Y-146900057D01*
X86271732Y-146681649D01*
X86372254Y-146438968D01*
X86423500Y-146181338D01*
X86423500Y-145918662D01*
X86372254Y-145661032D01*
X86271732Y-145418351D01*
X86125797Y-145199943D01*
X85940057Y-145014203D01*
X85721649Y-144868268D01*
X85478968Y-144767746D01*
X85221338Y-144716500D01*
X84958662Y-144716500D01*
X84701032Y-144767746D01*
X84458351Y-144868268D01*
X84239943Y-145014203D01*
X84054203Y-145199943D01*
X83908268Y-145418351D01*
X83807746Y-145661032D01*
X83756500Y-145918662D01*
X83235158Y-145918662D01*
X83290592Y-145700197D01*
X82550000Y-144959605D01*
X81809408Y-145700197D01*
X78863459Y-145700197D01*
X78802182Y-145498192D01*
X78668932Y-145248899D01*
X78489608Y-145030392D01*
X78275324Y-144854533D01*
X81212124Y-144854533D01*
X81252371Y-145114107D01*
X81342486Y-145360842D01*
X81396188Y-145461314D01*
X81629803Y-145520592D01*
X82370395Y-144780000D01*
X82729605Y-144780000D01*
X83470197Y-145520592D01*
X83703812Y-145461314D01*
X83814559Y-145223125D01*
X83876711Y-144967907D01*
X83887876Y-144705467D01*
X83847629Y-144445893D01*
X83757514Y-144199158D01*
X83703812Y-144098686D01*
X83470197Y-144039408D01*
X82729605Y-144780000D01*
X82370395Y-144780000D01*
X81629803Y-144039408D01*
X81396188Y-144098686D01*
X81285441Y-144336875D01*
X81223289Y-144592093D01*
X81212124Y-144854533D01*
X78275324Y-144854533D01*
X78271101Y-144851068D01*
X78021808Y-144717818D01*
X77751309Y-144635764D01*
X77540492Y-144615000D01*
X77399508Y-144615000D01*
X77188691Y-144635764D01*
X76918192Y-144717818D01*
X76668899Y-144851068D01*
X76450392Y-145030392D01*
X76271068Y-145248899D01*
X76200000Y-145381858D01*
X76128932Y-145248899D01*
X75949608Y-145030392D01*
X75731101Y-144851068D01*
X75481808Y-144717818D01*
X75211309Y-144635764D01*
X75000492Y-144615000D01*
X74859508Y-144615000D01*
X74648691Y-144635764D01*
X74378192Y-144717818D01*
X74128899Y-144851068D01*
X73910392Y-145030392D01*
X73731068Y-145248899D01*
X73660000Y-145381858D01*
X73588932Y-145248899D01*
X73409608Y-145030392D01*
X73191101Y-144851068D01*
X72941808Y-144717818D01*
X72671309Y-144635764D01*
X72460492Y-144615000D01*
X72319508Y-144615000D01*
X72108691Y-144635764D01*
X71838192Y-144717818D01*
X71588899Y-144851068D01*
X71370392Y-145030392D01*
X71191068Y-145248899D01*
X71120000Y-145381858D01*
X71048932Y-145248899D01*
X70869608Y-145030392D01*
X70651101Y-144851068D01*
X70401808Y-144717818D01*
X70131309Y-144635764D01*
X69920492Y-144615000D01*
X69779508Y-144615000D01*
X69568691Y-144635764D01*
X69298192Y-144717818D01*
X69048899Y-144851068D01*
X68830392Y-145030392D01*
X68651068Y-145248899D01*
X68517818Y-145498192D01*
X68435764Y-145768691D01*
X68408057Y-146050000D01*
X30660000Y-146050000D01*
X30660000Y-143859803D01*
X81809408Y-143859803D01*
X82550000Y-144600395D01*
X83290592Y-143859803D01*
X83231314Y-143626188D01*
X82993125Y-143515441D01*
X82737907Y-143453289D01*
X82475467Y-143442124D01*
X82215893Y-143482371D01*
X81969158Y-143572486D01*
X81868686Y-143626188D01*
X81809408Y-143859803D01*
X30660000Y-143859803D01*
X30660000Y-141458000D01*
X32889928Y-141458000D01*
X32889928Y-142982000D01*
X32902188Y-143106482D01*
X32938498Y-143226180D01*
X32997463Y-143336494D01*
X33076815Y-143433185D01*
X33173506Y-143512537D01*
X33283820Y-143571502D01*
X33403518Y-143607812D01*
X33528000Y-143620072D01*
X35052000Y-143620072D01*
X35176482Y-143607812D01*
X35296180Y-143571502D01*
X35406494Y-143512537D01*
X35503185Y-143433185D01*
X35582537Y-143336494D01*
X35641502Y-143226180D01*
X35677812Y-143106482D01*
X35686080Y-143022535D01*
X35744880Y-143110535D01*
X35939465Y-143305120D01*
X36168273Y-143458005D01*
X36422510Y-143563314D01*
X36692408Y-143617000D01*
X36967592Y-143617000D01*
X37237490Y-143563314D01*
X37491727Y-143458005D01*
X37720535Y-143305120D01*
X37840090Y-143185565D01*
X38584040Y-143185565D01*
X38651020Y-143425656D01*
X38900048Y-143542756D01*
X39167135Y-143609023D01*
X39442017Y-143621910D01*
X39714133Y-143580922D01*
X39973023Y-143487636D01*
X40088980Y-143425656D01*
X40155960Y-143185565D01*
X41124040Y-143185565D01*
X41191020Y-143425656D01*
X41440048Y-143542756D01*
X41707135Y-143609023D01*
X41982017Y-143621910D01*
X42254133Y-143580922D01*
X42513023Y-143487636D01*
X42628980Y-143425656D01*
X42695960Y-143185565D01*
X41910000Y-142399605D01*
X41124040Y-143185565D01*
X40155960Y-143185565D01*
X39370000Y-142399605D01*
X38584040Y-143185565D01*
X37840090Y-143185565D01*
X37915120Y-143110535D01*
X38068005Y-142881727D01*
X38097692Y-142810057D01*
X38102364Y-142823023D01*
X38164344Y-142938980D01*
X38404435Y-143005960D01*
X39190395Y-142220000D01*
X39549605Y-142220000D01*
X40335565Y-143005960D01*
X40575656Y-142938980D01*
X40637079Y-142808356D01*
X40642364Y-142823023D01*
X40704344Y-142938980D01*
X40944435Y-143005960D01*
X41730395Y-142220000D01*
X42089605Y-142220000D01*
X42875565Y-143005960D01*
X43115656Y-142938980D01*
X43179485Y-142803240D01*
X43211995Y-142881727D01*
X43364880Y-143110535D01*
X43559465Y-143305120D01*
X43788273Y-143458005D01*
X44042510Y-143563314D01*
X44312408Y-143617000D01*
X44587592Y-143617000D01*
X44857490Y-143563314D01*
X45111727Y-143458005D01*
X45340535Y-143305120D01*
X45535120Y-143110535D01*
X45688005Y-142881727D01*
X45720000Y-142804485D01*
X45751995Y-142881727D01*
X45904880Y-143110535D01*
X46099465Y-143305120D01*
X46328273Y-143458005D01*
X46582510Y-143563314D01*
X46852408Y-143617000D01*
X47127592Y-143617000D01*
X47397490Y-143563314D01*
X47651727Y-143458005D01*
X47880535Y-143305120D01*
X48075120Y-143110535D01*
X48228005Y-142881727D01*
X48260000Y-142804485D01*
X48291995Y-142881727D01*
X48444880Y-143110535D01*
X48639465Y-143305120D01*
X48868273Y-143458005D01*
X49122510Y-143563314D01*
X49392408Y-143617000D01*
X49667592Y-143617000D01*
X49937490Y-143563314D01*
X50191727Y-143458005D01*
X50420535Y-143305120D01*
X50615120Y-143110535D01*
X50768005Y-142881727D01*
X50800000Y-142804485D01*
X50831995Y-142881727D01*
X50984880Y-143110535D01*
X51179465Y-143305120D01*
X51408273Y-143458005D01*
X51662510Y-143563314D01*
X51932408Y-143617000D01*
X52207592Y-143617000D01*
X52477490Y-143563314D01*
X52731727Y-143458005D01*
X52960535Y-143305120D01*
X53155120Y-143110535D01*
X53308005Y-142881727D01*
X53340000Y-142804485D01*
X53371995Y-142881727D01*
X53524880Y-143110535D01*
X53719465Y-143305120D01*
X53948273Y-143458005D01*
X54202510Y-143563314D01*
X54472408Y-143617000D01*
X54747592Y-143617000D01*
X55017490Y-143563314D01*
X55271727Y-143458005D01*
X55500535Y-143305120D01*
X55695120Y-143110535D01*
X55848005Y-142881727D01*
X55880000Y-142804485D01*
X55911995Y-142881727D01*
X56064880Y-143110535D01*
X56259465Y-143305120D01*
X56488273Y-143458005D01*
X56742510Y-143563314D01*
X57012408Y-143617000D01*
X57287592Y-143617000D01*
X57557490Y-143563314D01*
X57811727Y-143458005D01*
X58040535Y-143305120D01*
X58235120Y-143110535D01*
X58388005Y-142881727D01*
X58420000Y-142804485D01*
X58451995Y-142881727D01*
X58604880Y-143110535D01*
X58799465Y-143305120D01*
X59028273Y-143458005D01*
X59282510Y-143563314D01*
X59552408Y-143617000D01*
X59827592Y-143617000D01*
X60097490Y-143563314D01*
X60351727Y-143458005D01*
X60580535Y-143305120D01*
X60775120Y-143110535D01*
X60928005Y-142881727D01*
X60960000Y-142804485D01*
X60991995Y-142881727D01*
X61144880Y-143110535D01*
X61339465Y-143305120D01*
X61568273Y-143458005D01*
X61822510Y-143563314D01*
X62092408Y-143617000D01*
X62367592Y-143617000D01*
X62637490Y-143563314D01*
X62891727Y-143458005D01*
X63120535Y-143305120D01*
X63315120Y-143110535D01*
X63468005Y-142881727D01*
X63573314Y-142627490D01*
X63627000Y-142357592D01*
X63627000Y-142108662D01*
X67246500Y-142108662D01*
X67246500Y-142371338D01*
X67297746Y-142628968D01*
X67398268Y-142871649D01*
X67544203Y-143090057D01*
X67729943Y-143275797D01*
X67948351Y-143421732D01*
X68191032Y-143522254D01*
X68448662Y-143573500D01*
X68711338Y-143573500D01*
X68968968Y-143522254D01*
X69211649Y-143421732D01*
X69430057Y-143275797D01*
X69615797Y-143090057D01*
X69761732Y-142871649D01*
X69862254Y-142628968D01*
X69913500Y-142371338D01*
X69913500Y-142108662D01*
X72326500Y-142108662D01*
X72326500Y-142371338D01*
X72377746Y-142628968D01*
X72478268Y-142871649D01*
X72624203Y-143090057D01*
X72809943Y-143275797D01*
X73028351Y-143421732D01*
X73271032Y-143522254D01*
X73528662Y-143573500D01*
X73791338Y-143573500D01*
X74048968Y-143522254D01*
X74291649Y-143421732D01*
X74510057Y-143275797D01*
X74695797Y-143090057D01*
X74841732Y-142871649D01*
X74942254Y-142628968D01*
X74993500Y-142371338D01*
X74993500Y-142108662D01*
X74942254Y-141851032D01*
X74841732Y-141608351D01*
X74695797Y-141389943D01*
X74510057Y-141204203D01*
X74291649Y-141058268D01*
X74048968Y-140957746D01*
X73791338Y-140906500D01*
X73528662Y-140906500D01*
X73271032Y-140957746D01*
X73028351Y-141058268D01*
X72809943Y-141204203D01*
X72624203Y-141389943D01*
X72478268Y-141608351D01*
X72377746Y-141851032D01*
X72326500Y-142108662D01*
X69913500Y-142108662D01*
X69862254Y-141851032D01*
X69761732Y-141608351D01*
X69615797Y-141389943D01*
X69430057Y-141204203D01*
X69211649Y-141058268D01*
X68968968Y-140957746D01*
X68711338Y-140906500D01*
X68448662Y-140906500D01*
X68191032Y-140957746D01*
X67948351Y-141058268D01*
X67729943Y-141204203D01*
X67544203Y-141389943D01*
X67398268Y-141608351D01*
X67297746Y-141851032D01*
X67246500Y-142108662D01*
X63627000Y-142108662D01*
X63627000Y-142082408D01*
X63573314Y-141812510D01*
X63468005Y-141558273D01*
X63315120Y-141329465D01*
X63120535Y-141134880D01*
X62891727Y-140981995D01*
X62637490Y-140876686D01*
X62367592Y-140823000D01*
X62092408Y-140823000D01*
X61822510Y-140876686D01*
X61568273Y-140981995D01*
X61339465Y-141134880D01*
X61144880Y-141329465D01*
X60991995Y-141558273D01*
X60960000Y-141635515D01*
X60928005Y-141558273D01*
X60775120Y-141329465D01*
X60580535Y-141134880D01*
X60351727Y-140981995D01*
X60097490Y-140876686D01*
X59827592Y-140823000D01*
X59552408Y-140823000D01*
X59282510Y-140876686D01*
X59028273Y-140981995D01*
X58799465Y-141134880D01*
X58604880Y-141329465D01*
X58451995Y-141558273D01*
X58420000Y-141635515D01*
X58388005Y-141558273D01*
X58235120Y-141329465D01*
X58040535Y-141134880D01*
X57811727Y-140981995D01*
X57557490Y-140876686D01*
X57287592Y-140823000D01*
X57012408Y-140823000D01*
X56742510Y-140876686D01*
X56488273Y-140981995D01*
X56259465Y-141134880D01*
X56064880Y-141329465D01*
X55911995Y-141558273D01*
X55880000Y-141635515D01*
X55848005Y-141558273D01*
X55695120Y-141329465D01*
X55500535Y-141134880D01*
X55271727Y-140981995D01*
X55017490Y-140876686D01*
X54747592Y-140823000D01*
X54472408Y-140823000D01*
X54202510Y-140876686D01*
X53948273Y-140981995D01*
X53719465Y-141134880D01*
X53524880Y-141329465D01*
X53371995Y-141558273D01*
X53340000Y-141635515D01*
X53308005Y-141558273D01*
X53155120Y-141329465D01*
X52960535Y-141134880D01*
X52731727Y-140981995D01*
X52477490Y-140876686D01*
X52207592Y-140823000D01*
X51932408Y-140823000D01*
X51662510Y-140876686D01*
X51408273Y-140981995D01*
X51179465Y-141134880D01*
X50984880Y-141329465D01*
X50831995Y-141558273D01*
X50800000Y-141635515D01*
X50768005Y-141558273D01*
X50615120Y-141329465D01*
X50420535Y-141134880D01*
X50191727Y-140981995D01*
X49937490Y-140876686D01*
X49667592Y-140823000D01*
X49392408Y-140823000D01*
X49122510Y-140876686D01*
X48868273Y-140981995D01*
X48639465Y-141134880D01*
X48444880Y-141329465D01*
X48291995Y-141558273D01*
X48260000Y-141635515D01*
X48228005Y-141558273D01*
X48075120Y-141329465D01*
X47880535Y-141134880D01*
X47651727Y-140981995D01*
X47397490Y-140876686D01*
X47127592Y-140823000D01*
X46852408Y-140823000D01*
X46582510Y-140876686D01*
X46328273Y-140981995D01*
X46099465Y-141134880D01*
X45904880Y-141329465D01*
X45751995Y-141558273D01*
X45720000Y-141635515D01*
X45688005Y-141558273D01*
X45535120Y-141329465D01*
X45340535Y-141134880D01*
X45111727Y-140981995D01*
X44857490Y-140876686D01*
X44587592Y-140823000D01*
X44312408Y-140823000D01*
X44042510Y-140876686D01*
X43788273Y-140981995D01*
X43559465Y-141134880D01*
X43364880Y-141329465D01*
X43211995Y-141558273D01*
X43182308Y-141629943D01*
X43177636Y-141616977D01*
X43115656Y-141501020D01*
X42875565Y-141434040D01*
X42089605Y-142220000D01*
X41730395Y-142220000D01*
X40944435Y-141434040D01*
X40704344Y-141501020D01*
X40642921Y-141631644D01*
X40637636Y-141616977D01*
X40575656Y-141501020D01*
X40335565Y-141434040D01*
X39549605Y-142220000D01*
X39190395Y-142220000D01*
X38404435Y-141434040D01*
X38164344Y-141501020D01*
X38100515Y-141636760D01*
X38068005Y-141558273D01*
X37915120Y-141329465D01*
X37840090Y-141254435D01*
X38584040Y-141254435D01*
X39370000Y-142040395D01*
X40155960Y-141254435D01*
X41124040Y-141254435D01*
X41910000Y-142040395D01*
X42695960Y-141254435D01*
X42628980Y-141014344D01*
X42379952Y-140897244D01*
X42112865Y-140830977D01*
X41837983Y-140818090D01*
X41565867Y-140859078D01*
X41306977Y-140952364D01*
X41191020Y-141014344D01*
X41124040Y-141254435D01*
X40155960Y-141254435D01*
X40088980Y-141014344D01*
X39839952Y-140897244D01*
X39572865Y-140830977D01*
X39297983Y-140818090D01*
X39025867Y-140859078D01*
X38766977Y-140952364D01*
X38651020Y-141014344D01*
X38584040Y-141254435D01*
X37840090Y-141254435D01*
X37720535Y-141134880D01*
X37491727Y-140981995D01*
X37237490Y-140876686D01*
X36967592Y-140823000D01*
X36692408Y-140823000D01*
X36422510Y-140876686D01*
X36168273Y-140981995D01*
X35939465Y-141134880D01*
X35744880Y-141329465D01*
X35686080Y-141417465D01*
X35677812Y-141333518D01*
X35641502Y-141213820D01*
X35582537Y-141103506D01*
X35503185Y-141006815D01*
X35406494Y-140927463D01*
X35296180Y-140868498D01*
X35176482Y-140832188D01*
X35052000Y-140819928D01*
X33528000Y-140819928D01*
X33403518Y-140832188D01*
X33283820Y-140868498D01*
X33173506Y-140927463D01*
X33076815Y-141006815D01*
X32997463Y-141103506D01*
X32938498Y-141213820D01*
X32902188Y-141333518D01*
X32889928Y-141458000D01*
X30660000Y-141458000D01*
X30660000Y-139568662D01*
X81216500Y-139568662D01*
X81216500Y-139831338D01*
X81267746Y-140088968D01*
X81368268Y-140331649D01*
X81514203Y-140550057D01*
X81699943Y-140735797D01*
X81918351Y-140881732D01*
X82161032Y-140982254D01*
X82418662Y-141033500D01*
X82681338Y-141033500D01*
X82938968Y-140982254D01*
X83181649Y-140881732D01*
X83400057Y-140735797D01*
X83585797Y-140550057D01*
X83731732Y-140331649D01*
X83832254Y-140088968D01*
X83883500Y-139831338D01*
X83883500Y-139568662D01*
X83832254Y-139311032D01*
X83731732Y-139068351D01*
X83585797Y-138849943D01*
X83400057Y-138664203D01*
X83181649Y-138518268D01*
X82938968Y-138417746D01*
X82681338Y-138366500D01*
X82418662Y-138366500D01*
X82161032Y-138417746D01*
X81918351Y-138518268D01*
X81699943Y-138664203D01*
X81514203Y-138849943D01*
X81368268Y-139068351D01*
X81267746Y-139311032D01*
X81216500Y-139568662D01*
X30660000Y-139568662D01*
X30660000Y-136032279D01*
X30669580Y-135934576D01*
X30688580Y-135871644D01*
X30719445Y-135813595D01*
X30760989Y-135762657D01*
X30811644Y-135720752D01*
X30869471Y-135689485D01*
X30932272Y-135670044D01*
X31027835Y-135660000D01*
X119967721Y-135660000D01*
X120065424Y-135669580D01*
M02*
