G04 #@! TF.GenerationSoftware,KiCad,Pcbnew,(5.1.2)-1*
G04 #@! TF.CreationDate,2019-05-14T15:55:12+09:00*
G04 #@! TF.ProjectId,pcb,7063622e-6b69-4636-9164-5f7063625858,rev?*
G04 #@! TF.SameCoordinates,Original*
G04 #@! TF.FileFunction,Soldermask,Bot*
G04 #@! TF.FilePolarity,Negative*
%FSLAX46Y46*%
G04 Gerber Fmt 4.6, Leading zero omitted, Abs format (unit mm)*
G04 Created by KiCad (PCBNEW (5.1.2)-1) date 2019-05-14 15:55:12*
%MOMM*%
%LPD*%
G04 APERTURE LIST*
%ADD10C,0.300000*%
%ADD11C,0.100000*%
G04 APERTURE END LIST*
D10*
X64136190Y-186324761D02*
X64136190Y-184991428D01*
X64136190Y-184324761D02*
X64040952Y-184420000D01*
X64136190Y-184515238D01*
X64231428Y-184420000D01*
X64136190Y-184324761D01*
X64136190Y-184515238D01*
X65088571Y-184991428D02*
X65088571Y-186324761D01*
X65088571Y-185181904D02*
X65183809Y-185086666D01*
X65374285Y-184991428D01*
X65660000Y-184991428D01*
X65850476Y-185086666D01*
X65945714Y-185277142D01*
X65945714Y-186324761D01*
X66612380Y-184991428D02*
X67374285Y-184991428D01*
X66898095Y-186324761D02*
X66898095Y-184610476D01*
X66993333Y-184420000D01*
X67183809Y-184324761D01*
X67374285Y-184324761D01*
X68040952Y-186324761D02*
X68040952Y-184991428D01*
X68040952Y-184324761D02*
X67945714Y-184420000D01*
X68040952Y-184515238D01*
X68136190Y-184420000D01*
X68040952Y-184324761D01*
X68040952Y-184515238D01*
X68993333Y-184991428D02*
X68993333Y-186324761D01*
X68993333Y-185181904D02*
X69088571Y-185086666D01*
X69279047Y-184991428D01*
X69564761Y-184991428D01*
X69755238Y-185086666D01*
X69850476Y-185277142D01*
X69850476Y-186324761D01*
X70802857Y-186324761D02*
X70802857Y-184991428D01*
X70802857Y-184324761D02*
X70707619Y-184420000D01*
X70802857Y-184515238D01*
X70898095Y-184420000D01*
X70802857Y-184324761D01*
X70802857Y-184515238D01*
X71469523Y-184991428D02*
X72231428Y-184991428D01*
X71755238Y-184324761D02*
X71755238Y-186039047D01*
X71850476Y-186229523D01*
X72040952Y-186324761D01*
X72231428Y-186324761D01*
X72707619Y-184991428D02*
X73183809Y-186324761D01*
X73660000Y-184991428D02*
X73183809Y-186324761D01*
X72993333Y-186800952D01*
X72898095Y-186896190D01*
X72707619Y-186991428D01*
X73945714Y-186515238D02*
X75469523Y-186515238D01*
X75945714Y-184991428D02*
X75945714Y-186991428D01*
X75945714Y-185086666D02*
X76136190Y-184991428D01*
X76517142Y-184991428D01*
X76707619Y-185086666D01*
X76802857Y-185181904D01*
X76898095Y-185372380D01*
X76898095Y-185943809D01*
X76802857Y-186134285D01*
X76707619Y-186229523D01*
X76517142Y-186324761D01*
X76136190Y-186324761D01*
X75945714Y-186229523D01*
X78040952Y-186324761D02*
X77850476Y-186229523D01*
X77755238Y-186039047D01*
X77755238Y-184324761D01*
X79660000Y-184991428D02*
X79660000Y-186324761D01*
X78802857Y-184991428D02*
X78802857Y-186039047D01*
X78898095Y-186229523D01*
X79088571Y-186324761D01*
X79374285Y-186324761D01*
X79564761Y-186229523D01*
X79660000Y-186134285D01*
X80517142Y-186229523D02*
X80707619Y-186324761D01*
X81088571Y-186324761D01*
X81279047Y-186229523D01*
X81374285Y-186039047D01*
X81374285Y-185943809D01*
X81279047Y-185753333D01*
X81088571Y-185658095D01*
X80802857Y-185658095D01*
X80612380Y-185562857D01*
X80517142Y-185372380D01*
X80517142Y-185277142D01*
X80612380Y-185086666D01*
X80802857Y-184991428D01*
X81088571Y-184991428D01*
X81279047Y-185086666D01*
X82040952Y-184324761D02*
X83279047Y-184324761D01*
X82612380Y-185086666D01*
X82898095Y-185086666D01*
X83088571Y-185181904D01*
X83183809Y-185277142D01*
X83279047Y-185467619D01*
X83279047Y-185943809D01*
X83183809Y-186134285D01*
X83088571Y-186229523D01*
X82898095Y-186324761D01*
X82326666Y-186324761D01*
X82136190Y-186229523D01*
X82040952Y-186134285D01*
D11*
G36*
X57328254Y-170747818D02*
G01*
X57701511Y-170902426D01*
X57701513Y-170902427D01*
X57737937Y-170926765D01*
X58037436Y-171126884D01*
X58323116Y-171412564D01*
X58547574Y-171748489D01*
X58702182Y-172121746D01*
X58781000Y-172517993D01*
X58781000Y-172922007D01*
X58702182Y-173318254D01*
X58551293Y-173682532D01*
X58547573Y-173691513D01*
X58323116Y-174027436D01*
X58037436Y-174313116D01*
X57701513Y-174537573D01*
X57701512Y-174537574D01*
X57701511Y-174537574D01*
X57328254Y-174692182D01*
X56932007Y-174771000D01*
X56527993Y-174771000D01*
X56131746Y-174692182D01*
X55758489Y-174537574D01*
X55758488Y-174537574D01*
X55758487Y-174537573D01*
X55422564Y-174313116D01*
X55136884Y-174027436D01*
X54912427Y-173691513D01*
X54908707Y-173682532D01*
X54757818Y-173318254D01*
X54679000Y-172922007D01*
X54679000Y-172517993D01*
X54757818Y-172121746D01*
X54912426Y-171748489D01*
X55136884Y-171412564D01*
X55422564Y-171126884D01*
X55722063Y-170926765D01*
X55758487Y-170902427D01*
X55758489Y-170902426D01*
X56131746Y-170747818D01*
X56527993Y-170669000D01*
X56932007Y-170669000D01*
X57328254Y-170747818D01*
X57328254Y-170747818D01*
G37*
G36*
X99658254Y-170747818D02*
G01*
X100031511Y-170902426D01*
X100031513Y-170902427D01*
X100067937Y-170926765D01*
X100367436Y-171126884D01*
X100653116Y-171412564D01*
X100877574Y-171748489D01*
X101032182Y-172121746D01*
X101111000Y-172517993D01*
X101111000Y-172922007D01*
X101032182Y-173318254D01*
X100881293Y-173682532D01*
X100877573Y-173691513D01*
X100653116Y-174027436D01*
X100367436Y-174313116D01*
X100031513Y-174537573D01*
X100031512Y-174537574D01*
X100031511Y-174537574D01*
X99658254Y-174692182D01*
X99262007Y-174771000D01*
X98857993Y-174771000D01*
X98461746Y-174692182D01*
X98088489Y-174537574D01*
X98088488Y-174537574D01*
X98088487Y-174537573D01*
X97752564Y-174313116D01*
X97466884Y-174027436D01*
X97242427Y-173691513D01*
X97238707Y-173682532D01*
X97087818Y-173318254D01*
X97009000Y-172922007D01*
X97009000Y-172517993D01*
X97087818Y-172121746D01*
X97242426Y-171748489D01*
X97466884Y-171412564D01*
X97752564Y-171126884D01*
X98052063Y-170926765D01*
X98088487Y-170902427D01*
X98088489Y-170902426D01*
X98461746Y-170747818D01*
X98857993Y-170669000D01*
X99262007Y-170669000D01*
X99658254Y-170747818D01*
X99658254Y-170747818D01*
G37*
G36*
X78068254Y-170747818D02*
G01*
X78441511Y-170902426D01*
X78441513Y-170902427D01*
X78477937Y-170926765D01*
X78777436Y-171126884D01*
X79063116Y-171412564D01*
X79287574Y-171748489D01*
X79442182Y-172121746D01*
X79521000Y-172517993D01*
X79521000Y-172922007D01*
X79442182Y-173318254D01*
X79291293Y-173682532D01*
X79287573Y-173691513D01*
X79063116Y-174027436D01*
X78777436Y-174313116D01*
X78441513Y-174537573D01*
X78441512Y-174537574D01*
X78441511Y-174537574D01*
X78068254Y-174692182D01*
X77672007Y-174771000D01*
X77267993Y-174771000D01*
X76871746Y-174692182D01*
X76498489Y-174537574D01*
X76498488Y-174537574D01*
X76498487Y-174537573D01*
X76162564Y-174313116D01*
X75876884Y-174027436D01*
X75652427Y-173691513D01*
X75648707Y-173682532D01*
X75497818Y-173318254D01*
X75419000Y-172922007D01*
X75419000Y-172517993D01*
X75497818Y-172121746D01*
X75652426Y-171748489D01*
X75876884Y-171412564D01*
X76162564Y-171126884D01*
X76462063Y-170926765D01*
X76498487Y-170902427D01*
X76498489Y-170902426D01*
X76871746Y-170747818D01*
X77267993Y-170669000D01*
X77672007Y-170669000D01*
X78068254Y-170747818D01*
X78068254Y-170747818D01*
G37*
G36*
X104851981Y-171757468D02*
G01*
X105034151Y-171832926D01*
X105198100Y-171942473D01*
X105337527Y-172081900D01*
X105447074Y-172245849D01*
X105522532Y-172428019D01*
X105561000Y-172621410D01*
X105561000Y-172818590D01*
X105522532Y-173011981D01*
X105447074Y-173194151D01*
X105337527Y-173358100D01*
X105198100Y-173497527D01*
X105034151Y-173607074D01*
X104851981Y-173682532D01*
X104658591Y-173721000D01*
X104461409Y-173721000D01*
X104268019Y-173682532D01*
X104085849Y-173607074D01*
X103921900Y-173497527D01*
X103782473Y-173358100D01*
X103672926Y-173194151D01*
X103597468Y-173011981D01*
X103559000Y-172818590D01*
X103559000Y-172621410D01*
X103597468Y-172428019D01*
X103672926Y-172245849D01*
X103782473Y-172081900D01*
X103921900Y-171942473D01*
X104085849Y-171832926D01*
X104268019Y-171757468D01*
X104461409Y-171719000D01*
X104658591Y-171719000D01*
X104851981Y-171757468D01*
X104851981Y-171757468D01*
G37*
G36*
X93851981Y-171757468D02*
G01*
X94034151Y-171832926D01*
X94198100Y-171942473D01*
X94337527Y-172081900D01*
X94447074Y-172245849D01*
X94522532Y-172428019D01*
X94561000Y-172621410D01*
X94561000Y-172818590D01*
X94522532Y-173011981D01*
X94447074Y-173194151D01*
X94337527Y-173358100D01*
X94198100Y-173497527D01*
X94034151Y-173607074D01*
X93851981Y-173682532D01*
X93658591Y-173721000D01*
X93461409Y-173721000D01*
X93268019Y-173682532D01*
X93085849Y-173607074D01*
X92921900Y-173497527D01*
X92782473Y-173358100D01*
X92672926Y-173194151D01*
X92597468Y-173011981D01*
X92559000Y-172818590D01*
X92559000Y-172621410D01*
X92597468Y-172428019D01*
X92672926Y-172245849D01*
X92782473Y-172081900D01*
X92921900Y-171942473D01*
X93085849Y-171832926D01*
X93268019Y-171757468D01*
X93461409Y-171719000D01*
X93658591Y-171719000D01*
X93851981Y-171757468D01*
X93851981Y-171757468D01*
G37*
G36*
X72261981Y-171757468D02*
G01*
X72444151Y-171832926D01*
X72608100Y-171942473D01*
X72747527Y-172081900D01*
X72857074Y-172245849D01*
X72932532Y-172428019D01*
X72971000Y-172621410D01*
X72971000Y-172818590D01*
X72932532Y-173011981D01*
X72857074Y-173194151D01*
X72747527Y-173358100D01*
X72608100Y-173497527D01*
X72444151Y-173607074D01*
X72261981Y-173682532D01*
X72068591Y-173721000D01*
X71871409Y-173721000D01*
X71678019Y-173682532D01*
X71495849Y-173607074D01*
X71331900Y-173497527D01*
X71192473Y-173358100D01*
X71082926Y-173194151D01*
X71007468Y-173011981D01*
X70969000Y-172818590D01*
X70969000Y-172621410D01*
X71007468Y-172428019D01*
X71082926Y-172245849D01*
X71192473Y-172081900D01*
X71331900Y-171942473D01*
X71495849Y-171832926D01*
X71678019Y-171757468D01*
X71871409Y-171719000D01*
X72068591Y-171719000D01*
X72261981Y-171757468D01*
X72261981Y-171757468D01*
G37*
G36*
X83261981Y-171757468D02*
G01*
X83444151Y-171832926D01*
X83608100Y-171942473D01*
X83747527Y-172081900D01*
X83857074Y-172245849D01*
X83932532Y-172428019D01*
X83971000Y-172621410D01*
X83971000Y-172818590D01*
X83932532Y-173011981D01*
X83857074Y-173194151D01*
X83747527Y-173358100D01*
X83608100Y-173497527D01*
X83444151Y-173607074D01*
X83261981Y-173682532D01*
X83068591Y-173721000D01*
X82871409Y-173721000D01*
X82678019Y-173682532D01*
X82495849Y-173607074D01*
X82331900Y-173497527D01*
X82192473Y-173358100D01*
X82082926Y-173194151D01*
X82007468Y-173011981D01*
X81969000Y-172818590D01*
X81969000Y-172621410D01*
X82007468Y-172428019D01*
X82082926Y-172245849D01*
X82192473Y-172081900D01*
X82331900Y-171942473D01*
X82495849Y-171832926D01*
X82678019Y-171757468D01*
X82871409Y-171719000D01*
X83068591Y-171719000D01*
X83261981Y-171757468D01*
X83261981Y-171757468D01*
G37*
G36*
X51521981Y-171757468D02*
G01*
X51704151Y-171832926D01*
X51868100Y-171942473D01*
X52007527Y-172081900D01*
X52117074Y-172245849D01*
X52192532Y-172428019D01*
X52231000Y-172621410D01*
X52231000Y-172818590D01*
X52192532Y-173011981D01*
X52117074Y-173194151D01*
X52007527Y-173358100D01*
X51868100Y-173497527D01*
X51704151Y-173607074D01*
X51521981Y-173682532D01*
X51328591Y-173721000D01*
X51131409Y-173721000D01*
X50938019Y-173682532D01*
X50755849Y-173607074D01*
X50591900Y-173497527D01*
X50452473Y-173358100D01*
X50342926Y-173194151D01*
X50267468Y-173011981D01*
X50229000Y-172818590D01*
X50229000Y-172621410D01*
X50267468Y-172428019D01*
X50342926Y-172245849D01*
X50452473Y-172081900D01*
X50591900Y-171942473D01*
X50755849Y-171832926D01*
X50938019Y-171757468D01*
X51131409Y-171719000D01*
X51328591Y-171719000D01*
X51521981Y-171757468D01*
X51521981Y-171757468D01*
G37*
G36*
X62521981Y-171757468D02*
G01*
X62704151Y-171832926D01*
X62868100Y-171942473D01*
X63007527Y-172081900D01*
X63117074Y-172245849D01*
X63192532Y-172428019D01*
X63231000Y-172621410D01*
X63231000Y-172818590D01*
X63192532Y-173011981D01*
X63117074Y-173194151D01*
X63007527Y-173358100D01*
X62868100Y-173497527D01*
X62704151Y-173607074D01*
X62521981Y-173682532D01*
X62328591Y-173721000D01*
X62131409Y-173721000D01*
X61938019Y-173682532D01*
X61755849Y-173607074D01*
X61591900Y-173497527D01*
X61452473Y-173358100D01*
X61342926Y-173194151D01*
X61267468Y-173011981D01*
X61229000Y-172818590D01*
X61229000Y-172621410D01*
X61267468Y-172428019D01*
X61342926Y-172245849D01*
X61452473Y-172081900D01*
X61591900Y-171942473D01*
X61755849Y-171832926D01*
X61938019Y-171757468D01*
X62131409Y-171719000D01*
X62328591Y-171719000D01*
X62521981Y-171757468D01*
X62521981Y-171757468D01*
G37*
G36*
X95603097Y-169134069D02*
G01*
X95706032Y-169144207D01*
X95904146Y-169204305D01*
X95904149Y-169204306D01*
X96000975Y-169256061D01*
X96086729Y-169301897D01*
X96246765Y-169433235D01*
X96378103Y-169593271D01*
X96423939Y-169679025D01*
X96475694Y-169775851D01*
X96475695Y-169775854D01*
X96535793Y-169973968D01*
X96556085Y-170180000D01*
X96535793Y-170386032D01*
X96475695Y-170584146D01*
X96475694Y-170584149D01*
X96430340Y-170669000D01*
X96378103Y-170766729D01*
X96246765Y-170926765D01*
X96086729Y-171058103D01*
X96000975Y-171103939D01*
X95904149Y-171155694D01*
X95904146Y-171155695D01*
X95706032Y-171215793D01*
X95603097Y-171225931D01*
X95551631Y-171231000D01*
X94948369Y-171231000D01*
X94896903Y-171225931D01*
X94793968Y-171215793D01*
X94595854Y-171155695D01*
X94595851Y-171155694D01*
X94499025Y-171103939D01*
X94413271Y-171058103D01*
X94253235Y-170926765D01*
X94121897Y-170766729D01*
X94069660Y-170669000D01*
X94024306Y-170584149D01*
X94024305Y-170584146D01*
X93964207Y-170386032D01*
X93943915Y-170180000D01*
X93964207Y-169973968D01*
X94024305Y-169775854D01*
X94024306Y-169775851D01*
X94076061Y-169679025D01*
X94121897Y-169593271D01*
X94253235Y-169433235D01*
X94413271Y-169301897D01*
X94499025Y-169256061D01*
X94595851Y-169204306D01*
X94595854Y-169204305D01*
X94793968Y-169144207D01*
X94896903Y-169134069D01*
X94948369Y-169129000D01*
X95551631Y-169129000D01*
X95603097Y-169134069D01*
X95603097Y-169134069D01*
G37*
G36*
X53273097Y-169134069D02*
G01*
X53376032Y-169144207D01*
X53574146Y-169204305D01*
X53574149Y-169204306D01*
X53670975Y-169256061D01*
X53756729Y-169301897D01*
X53916765Y-169433235D01*
X54048103Y-169593271D01*
X54093939Y-169679025D01*
X54145694Y-169775851D01*
X54145695Y-169775854D01*
X54205793Y-169973968D01*
X54226085Y-170180000D01*
X54205793Y-170386032D01*
X54145695Y-170584146D01*
X54145694Y-170584149D01*
X54100340Y-170669000D01*
X54048103Y-170766729D01*
X53916765Y-170926765D01*
X53756729Y-171058103D01*
X53670975Y-171103939D01*
X53574149Y-171155694D01*
X53574146Y-171155695D01*
X53376032Y-171215793D01*
X53273097Y-171225931D01*
X53221631Y-171231000D01*
X52618369Y-171231000D01*
X52566903Y-171225931D01*
X52463968Y-171215793D01*
X52265854Y-171155695D01*
X52265851Y-171155694D01*
X52169025Y-171103939D01*
X52083271Y-171058103D01*
X51923235Y-170926765D01*
X51791897Y-170766729D01*
X51739660Y-170669000D01*
X51694306Y-170584149D01*
X51694305Y-170584146D01*
X51634207Y-170386032D01*
X51613915Y-170180000D01*
X51634207Y-169973968D01*
X51694305Y-169775854D01*
X51694306Y-169775851D01*
X51746061Y-169679025D01*
X51791897Y-169593271D01*
X51923235Y-169433235D01*
X52083271Y-169301897D01*
X52169025Y-169256061D01*
X52265851Y-169204306D01*
X52265854Y-169204305D01*
X52463968Y-169144207D01*
X52566903Y-169134069D01*
X52618369Y-169129000D01*
X53221631Y-169129000D01*
X53273097Y-169134069D01*
X53273097Y-169134069D01*
G37*
G36*
X74013097Y-169134069D02*
G01*
X74116032Y-169144207D01*
X74314146Y-169204305D01*
X74314149Y-169204306D01*
X74410975Y-169256061D01*
X74496729Y-169301897D01*
X74656765Y-169433235D01*
X74788103Y-169593271D01*
X74833939Y-169679025D01*
X74885694Y-169775851D01*
X74885695Y-169775854D01*
X74945793Y-169973968D01*
X74966085Y-170180000D01*
X74945793Y-170386032D01*
X74885695Y-170584146D01*
X74885694Y-170584149D01*
X74840340Y-170669000D01*
X74788103Y-170766729D01*
X74656765Y-170926765D01*
X74496729Y-171058103D01*
X74410975Y-171103939D01*
X74314149Y-171155694D01*
X74314146Y-171155695D01*
X74116032Y-171215793D01*
X74013097Y-171225931D01*
X73961631Y-171231000D01*
X73358369Y-171231000D01*
X73306903Y-171225931D01*
X73203968Y-171215793D01*
X73005854Y-171155695D01*
X73005851Y-171155694D01*
X72909025Y-171103939D01*
X72823271Y-171058103D01*
X72663235Y-170926765D01*
X72531897Y-170766729D01*
X72479660Y-170669000D01*
X72434306Y-170584149D01*
X72434305Y-170584146D01*
X72374207Y-170386032D01*
X72353915Y-170180000D01*
X72374207Y-169973968D01*
X72434305Y-169775854D01*
X72434306Y-169775851D01*
X72486061Y-169679025D01*
X72531897Y-169593271D01*
X72663235Y-169433235D01*
X72823271Y-169301897D01*
X72909025Y-169256061D01*
X73005851Y-169204306D01*
X73005854Y-169204305D01*
X73203968Y-169144207D01*
X73306903Y-169134069D01*
X73358369Y-169129000D01*
X73961631Y-169129000D01*
X74013097Y-169134069D01*
X74013097Y-169134069D01*
G37*
G36*
X59623097Y-166594069D02*
G01*
X59726032Y-166604207D01*
X59924146Y-166664305D01*
X59924149Y-166664306D01*
X60020975Y-166716061D01*
X60106729Y-166761897D01*
X60266765Y-166893235D01*
X60398103Y-167053271D01*
X60443939Y-167139025D01*
X60495694Y-167235851D01*
X60495695Y-167235854D01*
X60555793Y-167433968D01*
X60576085Y-167640000D01*
X60555793Y-167846032D01*
X60495695Y-168044146D01*
X60495694Y-168044149D01*
X60443939Y-168140975D01*
X60398103Y-168226729D01*
X60266765Y-168386765D01*
X60106729Y-168518103D01*
X60020975Y-168563939D01*
X59924149Y-168615694D01*
X59924146Y-168615695D01*
X59726032Y-168675793D01*
X59623097Y-168685931D01*
X59571631Y-168691000D01*
X58968369Y-168691000D01*
X58916903Y-168685931D01*
X58813968Y-168675793D01*
X58615854Y-168615695D01*
X58615851Y-168615694D01*
X58519025Y-168563939D01*
X58433271Y-168518103D01*
X58273235Y-168386765D01*
X58141897Y-168226729D01*
X58096061Y-168140975D01*
X58044306Y-168044149D01*
X58044305Y-168044146D01*
X57984207Y-167846032D01*
X57963915Y-167640000D01*
X57984207Y-167433968D01*
X58044305Y-167235854D01*
X58044306Y-167235851D01*
X58096061Y-167139025D01*
X58141897Y-167053271D01*
X58273235Y-166893235D01*
X58433271Y-166761897D01*
X58519025Y-166716061D01*
X58615851Y-166664306D01*
X58615854Y-166664305D01*
X58813968Y-166604207D01*
X58916903Y-166594069D01*
X58968369Y-166589000D01*
X59571631Y-166589000D01*
X59623097Y-166594069D01*
X59623097Y-166594069D01*
G37*
G36*
X80363097Y-166594069D02*
G01*
X80466032Y-166604207D01*
X80664146Y-166664305D01*
X80664149Y-166664306D01*
X80760975Y-166716061D01*
X80846729Y-166761897D01*
X81006765Y-166893235D01*
X81138103Y-167053271D01*
X81183939Y-167139025D01*
X81235694Y-167235851D01*
X81235695Y-167235854D01*
X81295793Y-167433968D01*
X81316085Y-167640000D01*
X81295793Y-167846032D01*
X81235695Y-168044146D01*
X81235694Y-168044149D01*
X81183939Y-168140975D01*
X81138103Y-168226729D01*
X81006765Y-168386765D01*
X80846729Y-168518103D01*
X80760975Y-168563939D01*
X80664149Y-168615694D01*
X80664146Y-168615695D01*
X80466032Y-168675793D01*
X80363097Y-168685931D01*
X80311631Y-168691000D01*
X79708369Y-168691000D01*
X79656903Y-168685931D01*
X79553968Y-168675793D01*
X79355854Y-168615695D01*
X79355851Y-168615694D01*
X79259025Y-168563939D01*
X79173271Y-168518103D01*
X79013235Y-168386765D01*
X78881897Y-168226729D01*
X78836061Y-168140975D01*
X78784306Y-168044149D01*
X78784305Y-168044146D01*
X78724207Y-167846032D01*
X78703915Y-167640000D01*
X78724207Y-167433968D01*
X78784305Y-167235854D01*
X78784306Y-167235851D01*
X78836061Y-167139025D01*
X78881897Y-167053271D01*
X79013235Y-166893235D01*
X79173271Y-166761897D01*
X79259025Y-166716061D01*
X79355851Y-166664306D01*
X79355854Y-166664305D01*
X79553968Y-166604207D01*
X79656903Y-166594069D01*
X79708369Y-166589000D01*
X80311631Y-166589000D01*
X80363097Y-166594069D01*
X80363097Y-166594069D01*
G37*
G36*
X101953097Y-166594069D02*
G01*
X102056032Y-166604207D01*
X102254146Y-166664305D01*
X102254149Y-166664306D01*
X102350975Y-166716061D01*
X102436729Y-166761897D01*
X102596765Y-166893235D01*
X102728103Y-167053271D01*
X102773939Y-167139025D01*
X102825694Y-167235851D01*
X102825695Y-167235854D01*
X102885793Y-167433968D01*
X102906085Y-167640000D01*
X102885793Y-167846032D01*
X102825695Y-168044146D01*
X102825694Y-168044149D01*
X102773939Y-168140975D01*
X102728103Y-168226729D01*
X102596765Y-168386765D01*
X102436729Y-168518103D01*
X102350975Y-168563939D01*
X102254149Y-168615694D01*
X102254146Y-168615695D01*
X102056032Y-168675793D01*
X101953097Y-168685931D01*
X101901631Y-168691000D01*
X101298369Y-168691000D01*
X101246903Y-168685931D01*
X101143968Y-168675793D01*
X100945854Y-168615695D01*
X100945851Y-168615694D01*
X100849025Y-168563939D01*
X100763271Y-168518103D01*
X100603235Y-168386765D01*
X100471897Y-168226729D01*
X100426061Y-168140975D01*
X100374306Y-168044149D01*
X100374305Y-168044146D01*
X100314207Y-167846032D01*
X100293915Y-167640000D01*
X100314207Y-167433968D01*
X100374305Y-167235854D01*
X100374306Y-167235851D01*
X100426061Y-167139025D01*
X100471897Y-167053271D01*
X100603235Y-166893235D01*
X100763271Y-166761897D01*
X100849025Y-166716061D01*
X100945851Y-166664306D01*
X100945854Y-166664305D01*
X101143968Y-166604207D01*
X101246903Y-166594069D01*
X101298369Y-166589000D01*
X101901631Y-166589000D01*
X101953097Y-166594069D01*
X101953097Y-166594069D01*
G37*
G36*
X40386564Y-161549389D02*
G01*
X40577833Y-161628615D01*
X40577835Y-161628616D01*
X40749973Y-161743635D01*
X40896365Y-161890027D01*
X41011385Y-162062167D01*
X41090611Y-162253436D01*
X41131000Y-162456484D01*
X41131000Y-162663516D01*
X41090611Y-162866564D01*
X41011385Y-163057833D01*
X41011384Y-163057835D01*
X40896365Y-163229973D01*
X40749973Y-163376365D01*
X40577835Y-163491384D01*
X40577834Y-163491385D01*
X40577833Y-163491385D01*
X40386564Y-163570611D01*
X40183516Y-163611000D01*
X39976484Y-163611000D01*
X39773436Y-163570611D01*
X39582167Y-163491385D01*
X39582166Y-163491385D01*
X39582165Y-163491384D01*
X39410027Y-163376365D01*
X39263635Y-163229973D01*
X39148616Y-163057835D01*
X39148615Y-163057833D01*
X39069389Y-162866564D01*
X39029000Y-162663516D01*
X39029000Y-162456484D01*
X39069389Y-162253436D01*
X39148615Y-162062167D01*
X39263635Y-161890027D01*
X39410027Y-161743635D01*
X39582165Y-161628616D01*
X39582167Y-161628615D01*
X39773436Y-161549389D01*
X39976484Y-161509000D01*
X40183516Y-161509000D01*
X40386564Y-161549389D01*
X40386564Y-161549389D01*
G37*
G36*
X33886564Y-161549389D02*
G01*
X34077833Y-161628615D01*
X34077835Y-161628616D01*
X34249973Y-161743635D01*
X34396365Y-161890027D01*
X34511385Y-162062167D01*
X34590611Y-162253436D01*
X34631000Y-162456484D01*
X34631000Y-162663516D01*
X34590611Y-162866564D01*
X34511385Y-163057833D01*
X34511384Y-163057835D01*
X34396365Y-163229973D01*
X34249973Y-163376365D01*
X34077835Y-163491384D01*
X34077834Y-163491385D01*
X34077833Y-163491385D01*
X33886564Y-163570611D01*
X33683516Y-163611000D01*
X33476484Y-163611000D01*
X33273436Y-163570611D01*
X33082167Y-163491385D01*
X33082166Y-163491385D01*
X33082165Y-163491384D01*
X32910027Y-163376365D01*
X32763635Y-163229973D01*
X32648616Y-163057835D01*
X32648615Y-163057833D01*
X32569389Y-162866564D01*
X32529000Y-162663516D01*
X32529000Y-162456484D01*
X32569389Y-162253436D01*
X32648615Y-162062167D01*
X32763635Y-161890027D01*
X32910027Y-161743635D01*
X33082165Y-161628616D01*
X33082167Y-161628615D01*
X33273436Y-161549389D01*
X33476484Y-161509000D01*
X33683516Y-161509000D01*
X33886564Y-161549389D01*
X33886564Y-161549389D01*
G37*
G36*
X72484425Y-159274599D02*
G01*
X72608621Y-159299302D01*
X72745022Y-159355801D01*
X72867779Y-159437825D01*
X72972175Y-159542221D01*
X73054199Y-159664978D01*
X73110698Y-159801379D01*
X73139500Y-159946181D01*
X73139500Y-160093819D01*
X73110698Y-160238621D01*
X73054199Y-160375022D01*
X72972175Y-160497779D01*
X72867779Y-160602175D01*
X72745022Y-160684199D01*
X72608621Y-160740698D01*
X72484425Y-160765401D01*
X72463820Y-160769500D01*
X72316180Y-160769500D01*
X72295575Y-160765401D01*
X72171379Y-160740698D01*
X72034978Y-160684199D01*
X71912221Y-160602175D01*
X71807825Y-160497779D01*
X71725801Y-160375022D01*
X71669302Y-160238621D01*
X71640500Y-160093819D01*
X71640500Y-159946181D01*
X71669302Y-159801379D01*
X71725801Y-159664978D01*
X71807825Y-159542221D01*
X71912221Y-159437825D01*
X72034978Y-159355801D01*
X72171379Y-159299302D01*
X72295575Y-159274599D01*
X72316180Y-159270500D01*
X72463820Y-159270500D01*
X72484425Y-159274599D01*
X72484425Y-159274599D01*
G37*
G36*
X80104425Y-159274599D02*
G01*
X80228621Y-159299302D01*
X80365022Y-159355801D01*
X80487779Y-159437825D01*
X80592175Y-159542221D01*
X80674199Y-159664978D01*
X80730698Y-159801379D01*
X80759500Y-159946181D01*
X80759500Y-160093819D01*
X80730698Y-160238621D01*
X80674199Y-160375022D01*
X80592175Y-160497779D01*
X80487779Y-160602175D01*
X80365022Y-160684199D01*
X80228621Y-160740698D01*
X80104425Y-160765401D01*
X80083820Y-160769500D01*
X79936180Y-160769500D01*
X79915575Y-160765401D01*
X79791379Y-160740698D01*
X79654978Y-160684199D01*
X79532221Y-160602175D01*
X79427825Y-160497779D01*
X79345801Y-160375022D01*
X79289302Y-160238621D01*
X79260500Y-160093819D01*
X79260500Y-159946181D01*
X79289302Y-159801379D01*
X79345801Y-159664978D01*
X79427825Y-159542221D01*
X79532221Y-159437825D01*
X79654978Y-159355801D01*
X79791379Y-159299302D01*
X79915575Y-159274599D01*
X79936180Y-159270500D01*
X80083820Y-159270500D01*
X80104425Y-159274599D01*
X80104425Y-159274599D01*
G37*
G36*
X85184425Y-159274599D02*
G01*
X85308621Y-159299302D01*
X85445022Y-159355801D01*
X85567779Y-159437825D01*
X85672175Y-159542221D01*
X85754199Y-159664978D01*
X85810698Y-159801379D01*
X85839500Y-159946181D01*
X85839500Y-160093819D01*
X85810698Y-160238621D01*
X85754199Y-160375022D01*
X85672175Y-160497779D01*
X85567779Y-160602175D01*
X85445022Y-160684199D01*
X85308621Y-160740698D01*
X85184425Y-160765401D01*
X85163820Y-160769500D01*
X85016180Y-160769500D01*
X84995575Y-160765401D01*
X84871379Y-160740698D01*
X84734978Y-160684199D01*
X84612221Y-160602175D01*
X84507825Y-160497779D01*
X84425801Y-160375022D01*
X84369302Y-160238621D01*
X84340500Y-160093819D01*
X84340500Y-159946181D01*
X84369302Y-159801379D01*
X84425801Y-159664978D01*
X84507825Y-159542221D01*
X84612221Y-159437825D01*
X84734978Y-159355801D01*
X84871379Y-159299302D01*
X84995575Y-159274599D01*
X85016180Y-159270500D01*
X85163820Y-159270500D01*
X85184425Y-159274599D01*
X85184425Y-159274599D01*
G37*
G36*
X77564425Y-159274599D02*
G01*
X77688621Y-159299302D01*
X77825022Y-159355801D01*
X77947779Y-159437825D01*
X78052175Y-159542221D01*
X78134199Y-159664978D01*
X78190698Y-159801379D01*
X78219500Y-159946181D01*
X78219500Y-160093819D01*
X78190698Y-160238621D01*
X78134199Y-160375022D01*
X78052175Y-160497779D01*
X77947779Y-160602175D01*
X77825022Y-160684199D01*
X77688621Y-160740698D01*
X77564425Y-160765401D01*
X77543820Y-160769500D01*
X77396180Y-160769500D01*
X77375575Y-160765401D01*
X77251379Y-160740698D01*
X77114978Y-160684199D01*
X76992221Y-160602175D01*
X76887825Y-160497779D01*
X76805801Y-160375022D01*
X76749302Y-160238621D01*
X76720500Y-160093819D01*
X76720500Y-159946181D01*
X76749302Y-159801379D01*
X76805801Y-159664978D01*
X76887825Y-159542221D01*
X76992221Y-159437825D01*
X77114978Y-159355801D01*
X77251379Y-159299302D01*
X77375575Y-159274599D01*
X77396180Y-159270500D01*
X77543820Y-159270500D01*
X77564425Y-159274599D01*
X77564425Y-159274599D01*
G37*
G36*
X62467142Y-156678242D02*
G01*
X62615101Y-156739529D01*
X62748255Y-156828499D01*
X62861501Y-156941745D01*
X62950471Y-157074899D01*
X63011758Y-157222858D01*
X63043000Y-157379925D01*
X63043000Y-157540075D01*
X63011758Y-157697142D01*
X62950471Y-157845101D01*
X62861501Y-157978255D01*
X62748255Y-158091501D01*
X62615101Y-158180471D01*
X62467142Y-158241758D01*
X62310075Y-158273000D01*
X62149925Y-158273000D01*
X61992858Y-158241758D01*
X61844899Y-158180471D01*
X61711745Y-158091501D01*
X61598499Y-157978255D01*
X61509529Y-157845101D01*
X61448242Y-157697142D01*
X61417000Y-157540075D01*
X61417000Y-157379925D01*
X61448242Y-157222858D01*
X61509529Y-157074899D01*
X61598499Y-156941745D01*
X61711745Y-156828499D01*
X61844899Y-156739529D01*
X61992858Y-156678242D01*
X62149925Y-156647000D01*
X62310075Y-156647000D01*
X62467142Y-156678242D01*
X62467142Y-156678242D01*
G37*
G36*
X34527142Y-156678242D02*
G01*
X34675101Y-156739529D01*
X34808255Y-156828499D01*
X34921501Y-156941745D01*
X35010471Y-157074899D01*
X35071758Y-157222858D01*
X35103000Y-157379925D01*
X35103000Y-157540075D01*
X35071758Y-157697142D01*
X35010471Y-157845101D01*
X34921501Y-157978255D01*
X34808255Y-158091501D01*
X34675101Y-158180471D01*
X34527142Y-158241758D01*
X34370075Y-158273000D01*
X34209925Y-158273000D01*
X34052858Y-158241758D01*
X33904899Y-158180471D01*
X33771745Y-158091501D01*
X33658499Y-157978255D01*
X33569529Y-157845101D01*
X33508242Y-157697142D01*
X33477000Y-157540075D01*
X33477000Y-157379925D01*
X33508242Y-157222858D01*
X33569529Y-157074899D01*
X33658499Y-156941745D01*
X33771745Y-156828499D01*
X33904899Y-156739529D01*
X34052858Y-156678242D01*
X34209925Y-156647000D01*
X34370075Y-156647000D01*
X34527142Y-156678242D01*
X34527142Y-156678242D01*
G37*
G36*
X37067142Y-156678242D02*
G01*
X37215101Y-156739529D01*
X37348255Y-156828499D01*
X37461501Y-156941745D01*
X37550471Y-157074899D01*
X37611758Y-157222858D01*
X37643000Y-157379925D01*
X37643000Y-157540075D01*
X37611758Y-157697142D01*
X37550471Y-157845101D01*
X37461501Y-157978255D01*
X37348255Y-158091501D01*
X37215101Y-158180471D01*
X37067142Y-158241758D01*
X36910075Y-158273000D01*
X36749925Y-158273000D01*
X36592858Y-158241758D01*
X36444899Y-158180471D01*
X36311745Y-158091501D01*
X36198499Y-157978255D01*
X36109529Y-157845101D01*
X36048242Y-157697142D01*
X36017000Y-157540075D01*
X36017000Y-157379925D01*
X36048242Y-157222858D01*
X36109529Y-157074899D01*
X36198499Y-156941745D01*
X36311745Y-156828499D01*
X36444899Y-156739529D01*
X36592858Y-156678242D01*
X36749925Y-156647000D01*
X36910075Y-156647000D01*
X37067142Y-156678242D01*
X37067142Y-156678242D01*
G37*
G36*
X39607142Y-156678242D02*
G01*
X39755101Y-156739529D01*
X39888255Y-156828499D01*
X40001501Y-156941745D01*
X40090471Y-157074899D01*
X40151758Y-157222858D01*
X40183000Y-157379925D01*
X40183000Y-157540075D01*
X40151758Y-157697142D01*
X40090471Y-157845101D01*
X40001501Y-157978255D01*
X39888255Y-158091501D01*
X39755101Y-158180471D01*
X39607142Y-158241758D01*
X39450075Y-158273000D01*
X39289925Y-158273000D01*
X39132858Y-158241758D01*
X38984899Y-158180471D01*
X38851745Y-158091501D01*
X38738499Y-157978255D01*
X38649529Y-157845101D01*
X38588242Y-157697142D01*
X38557000Y-157540075D01*
X38557000Y-157379925D01*
X38588242Y-157222858D01*
X38649529Y-157074899D01*
X38738499Y-156941745D01*
X38851745Y-156828499D01*
X38984899Y-156739529D01*
X39132858Y-156678242D01*
X39289925Y-156647000D01*
X39450075Y-156647000D01*
X39607142Y-156678242D01*
X39607142Y-156678242D01*
G37*
G36*
X42147142Y-156678242D02*
G01*
X42295101Y-156739529D01*
X42428255Y-156828499D01*
X42541501Y-156941745D01*
X42630471Y-157074899D01*
X42691758Y-157222858D01*
X42723000Y-157379925D01*
X42723000Y-157540075D01*
X42691758Y-157697142D01*
X42630471Y-157845101D01*
X42541501Y-157978255D01*
X42428255Y-158091501D01*
X42295101Y-158180471D01*
X42147142Y-158241758D01*
X41990075Y-158273000D01*
X41829925Y-158273000D01*
X41672858Y-158241758D01*
X41524899Y-158180471D01*
X41391745Y-158091501D01*
X41278499Y-157978255D01*
X41189529Y-157845101D01*
X41128242Y-157697142D01*
X41097000Y-157540075D01*
X41097000Y-157379925D01*
X41128242Y-157222858D01*
X41189529Y-157074899D01*
X41278499Y-156941745D01*
X41391745Y-156828499D01*
X41524899Y-156739529D01*
X41672858Y-156678242D01*
X41829925Y-156647000D01*
X41990075Y-156647000D01*
X42147142Y-156678242D01*
X42147142Y-156678242D01*
G37*
G36*
X44687142Y-156678242D02*
G01*
X44835101Y-156739529D01*
X44968255Y-156828499D01*
X45081501Y-156941745D01*
X45170471Y-157074899D01*
X45231758Y-157222858D01*
X45263000Y-157379925D01*
X45263000Y-157540075D01*
X45231758Y-157697142D01*
X45170471Y-157845101D01*
X45081501Y-157978255D01*
X44968255Y-158091501D01*
X44835101Y-158180471D01*
X44687142Y-158241758D01*
X44530075Y-158273000D01*
X44369925Y-158273000D01*
X44212858Y-158241758D01*
X44064899Y-158180471D01*
X43931745Y-158091501D01*
X43818499Y-157978255D01*
X43729529Y-157845101D01*
X43668242Y-157697142D01*
X43637000Y-157540075D01*
X43637000Y-157379925D01*
X43668242Y-157222858D01*
X43729529Y-157074899D01*
X43818499Y-156941745D01*
X43931745Y-156828499D01*
X44064899Y-156739529D01*
X44212858Y-156678242D01*
X44369925Y-156647000D01*
X44530075Y-156647000D01*
X44687142Y-156678242D01*
X44687142Y-156678242D01*
G37*
G36*
X47227142Y-156678242D02*
G01*
X47375101Y-156739529D01*
X47508255Y-156828499D01*
X47621501Y-156941745D01*
X47710471Y-157074899D01*
X47771758Y-157222858D01*
X47803000Y-157379925D01*
X47803000Y-157540075D01*
X47771758Y-157697142D01*
X47710471Y-157845101D01*
X47621501Y-157978255D01*
X47508255Y-158091501D01*
X47375101Y-158180471D01*
X47227142Y-158241758D01*
X47070075Y-158273000D01*
X46909925Y-158273000D01*
X46752858Y-158241758D01*
X46604899Y-158180471D01*
X46471745Y-158091501D01*
X46358499Y-157978255D01*
X46269529Y-157845101D01*
X46208242Y-157697142D01*
X46177000Y-157540075D01*
X46177000Y-157379925D01*
X46208242Y-157222858D01*
X46269529Y-157074899D01*
X46358499Y-156941745D01*
X46471745Y-156828499D01*
X46604899Y-156739529D01*
X46752858Y-156678242D01*
X46909925Y-156647000D01*
X47070075Y-156647000D01*
X47227142Y-156678242D01*
X47227142Y-156678242D01*
G37*
G36*
X49767142Y-156678242D02*
G01*
X49915101Y-156739529D01*
X50048255Y-156828499D01*
X50161501Y-156941745D01*
X50250471Y-157074899D01*
X50311758Y-157222858D01*
X50343000Y-157379925D01*
X50343000Y-157540075D01*
X50311758Y-157697142D01*
X50250471Y-157845101D01*
X50161501Y-157978255D01*
X50048255Y-158091501D01*
X49915101Y-158180471D01*
X49767142Y-158241758D01*
X49610075Y-158273000D01*
X49449925Y-158273000D01*
X49292858Y-158241758D01*
X49144899Y-158180471D01*
X49011745Y-158091501D01*
X48898499Y-157978255D01*
X48809529Y-157845101D01*
X48748242Y-157697142D01*
X48717000Y-157540075D01*
X48717000Y-157379925D01*
X48748242Y-157222858D01*
X48809529Y-157074899D01*
X48898499Y-156941745D01*
X49011745Y-156828499D01*
X49144899Y-156739529D01*
X49292858Y-156678242D01*
X49449925Y-156647000D01*
X49610075Y-156647000D01*
X49767142Y-156678242D01*
X49767142Y-156678242D01*
G37*
G36*
X52307142Y-156678242D02*
G01*
X52455101Y-156739529D01*
X52588255Y-156828499D01*
X52701501Y-156941745D01*
X52790471Y-157074899D01*
X52851758Y-157222858D01*
X52883000Y-157379925D01*
X52883000Y-157540075D01*
X52851758Y-157697142D01*
X52790471Y-157845101D01*
X52701501Y-157978255D01*
X52588255Y-158091501D01*
X52455101Y-158180471D01*
X52307142Y-158241758D01*
X52150075Y-158273000D01*
X51989925Y-158273000D01*
X51832858Y-158241758D01*
X51684899Y-158180471D01*
X51551745Y-158091501D01*
X51438499Y-157978255D01*
X51349529Y-157845101D01*
X51288242Y-157697142D01*
X51257000Y-157540075D01*
X51257000Y-157379925D01*
X51288242Y-157222858D01*
X51349529Y-157074899D01*
X51438499Y-156941745D01*
X51551745Y-156828499D01*
X51684899Y-156739529D01*
X51832858Y-156678242D01*
X51989925Y-156647000D01*
X52150075Y-156647000D01*
X52307142Y-156678242D01*
X52307142Y-156678242D01*
G37*
G36*
X54847142Y-156678242D02*
G01*
X54995101Y-156739529D01*
X55128255Y-156828499D01*
X55241501Y-156941745D01*
X55330471Y-157074899D01*
X55391758Y-157222858D01*
X55423000Y-157379925D01*
X55423000Y-157540075D01*
X55391758Y-157697142D01*
X55330471Y-157845101D01*
X55241501Y-157978255D01*
X55128255Y-158091501D01*
X54995101Y-158180471D01*
X54847142Y-158241758D01*
X54690075Y-158273000D01*
X54529925Y-158273000D01*
X54372858Y-158241758D01*
X54224899Y-158180471D01*
X54091745Y-158091501D01*
X53978499Y-157978255D01*
X53889529Y-157845101D01*
X53828242Y-157697142D01*
X53797000Y-157540075D01*
X53797000Y-157379925D01*
X53828242Y-157222858D01*
X53889529Y-157074899D01*
X53978499Y-156941745D01*
X54091745Y-156828499D01*
X54224899Y-156739529D01*
X54372858Y-156678242D01*
X54529925Y-156647000D01*
X54690075Y-156647000D01*
X54847142Y-156678242D01*
X54847142Y-156678242D01*
G37*
G36*
X57387142Y-156678242D02*
G01*
X57535101Y-156739529D01*
X57668255Y-156828499D01*
X57781501Y-156941745D01*
X57870471Y-157074899D01*
X57931758Y-157222858D01*
X57963000Y-157379925D01*
X57963000Y-157540075D01*
X57931758Y-157697142D01*
X57870471Y-157845101D01*
X57781501Y-157978255D01*
X57668255Y-158091501D01*
X57535101Y-158180471D01*
X57387142Y-158241758D01*
X57230075Y-158273000D01*
X57069925Y-158273000D01*
X56912858Y-158241758D01*
X56764899Y-158180471D01*
X56631745Y-158091501D01*
X56518499Y-157978255D01*
X56429529Y-157845101D01*
X56368242Y-157697142D01*
X56337000Y-157540075D01*
X56337000Y-157379925D01*
X56368242Y-157222858D01*
X56429529Y-157074899D01*
X56518499Y-156941745D01*
X56631745Y-156828499D01*
X56764899Y-156739529D01*
X56912858Y-156678242D01*
X57069925Y-156647000D01*
X57230075Y-156647000D01*
X57387142Y-156678242D01*
X57387142Y-156678242D01*
G37*
G36*
X59927142Y-156678242D02*
G01*
X60075101Y-156739529D01*
X60208255Y-156828499D01*
X60321501Y-156941745D01*
X60410471Y-157074899D01*
X60471758Y-157222858D01*
X60503000Y-157379925D01*
X60503000Y-157540075D01*
X60471758Y-157697142D01*
X60410471Y-157845101D01*
X60321501Y-157978255D01*
X60208255Y-158091501D01*
X60075101Y-158180471D01*
X59927142Y-158241758D01*
X59770075Y-158273000D01*
X59609925Y-158273000D01*
X59452858Y-158241758D01*
X59304899Y-158180471D01*
X59171745Y-158091501D01*
X59058499Y-157978255D01*
X58969529Y-157845101D01*
X58908242Y-157697142D01*
X58877000Y-157540075D01*
X58877000Y-157379925D01*
X58908242Y-157222858D01*
X58969529Y-157074899D01*
X59058499Y-156941745D01*
X59171745Y-156828499D01*
X59304899Y-156739529D01*
X59452858Y-156678242D01*
X59609925Y-156647000D01*
X59770075Y-156647000D01*
X59927142Y-156678242D01*
X59927142Y-156678242D01*
G37*
G36*
X85184425Y-155464599D02*
G01*
X85308621Y-155489302D01*
X85445022Y-155545801D01*
X85567779Y-155627825D01*
X85672175Y-155732221D01*
X85754199Y-155854978D01*
X85810698Y-155991379D01*
X85839500Y-156136181D01*
X85839500Y-156283819D01*
X85810698Y-156428621D01*
X85754199Y-156565022D01*
X85672175Y-156687779D01*
X85567779Y-156792175D01*
X85445022Y-156874199D01*
X85308621Y-156930698D01*
X85184425Y-156955401D01*
X85163820Y-156959500D01*
X85016180Y-156959500D01*
X84995575Y-156955401D01*
X84871379Y-156930698D01*
X84734978Y-156874199D01*
X84612221Y-156792175D01*
X84507825Y-156687779D01*
X84425801Y-156565022D01*
X84369302Y-156428621D01*
X84340500Y-156283819D01*
X84340500Y-156136181D01*
X84369302Y-155991379D01*
X84425801Y-155854978D01*
X84507825Y-155732221D01*
X84612221Y-155627825D01*
X84734978Y-155545801D01*
X84871379Y-155489302D01*
X84995575Y-155464599D01*
X85016180Y-155460500D01*
X85163820Y-155460500D01*
X85184425Y-155464599D01*
X85184425Y-155464599D01*
G37*
G36*
X80104425Y-155464599D02*
G01*
X80228621Y-155489302D01*
X80365022Y-155545801D01*
X80487779Y-155627825D01*
X80592175Y-155732221D01*
X80674199Y-155854978D01*
X80730698Y-155991379D01*
X80759500Y-156136181D01*
X80759500Y-156283819D01*
X80730698Y-156428621D01*
X80674199Y-156565022D01*
X80592175Y-156687779D01*
X80487779Y-156792175D01*
X80365022Y-156874199D01*
X80228621Y-156930698D01*
X80104425Y-156955401D01*
X80083820Y-156959500D01*
X79936180Y-156959500D01*
X79915575Y-156955401D01*
X79791379Y-156930698D01*
X79654978Y-156874199D01*
X79532221Y-156792175D01*
X79427825Y-156687779D01*
X79345801Y-156565022D01*
X79289302Y-156428621D01*
X79260500Y-156283819D01*
X79260500Y-156136181D01*
X79289302Y-155991379D01*
X79345801Y-155854978D01*
X79427825Y-155732221D01*
X79532221Y-155627825D01*
X79654978Y-155545801D01*
X79791379Y-155489302D01*
X79915575Y-155464599D01*
X79936180Y-155460500D01*
X80083820Y-155460500D01*
X80104425Y-155464599D01*
X80104425Y-155464599D01*
G37*
G36*
X70701000Y-154521000D02*
G01*
X68999000Y-154521000D01*
X68999000Y-152819000D01*
X70701000Y-152819000D01*
X70701000Y-154521000D01*
X70701000Y-154521000D01*
G37*
G36*
X77636823Y-152831313D02*
G01*
X77797242Y-152879976D01*
X77929906Y-152950886D01*
X77945078Y-152958996D01*
X78074659Y-153065341D01*
X78181004Y-153194922D01*
X78181005Y-153194924D01*
X78260024Y-153342758D01*
X78308687Y-153503177D01*
X78325117Y-153670000D01*
X78308687Y-153836823D01*
X78260024Y-153997242D01*
X78189114Y-154129906D01*
X78181004Y-154145078D01*
X78074659Y-154274659D01*
X77945078Y-154381004D01*
X77945076Y-154381005D01*
X77797242Y-154460024D01*
X77636823Y-154508687D01*
X77511804Y-154521000D01*
X77428196Y-154521000D01*
X77303177Y-154508687D01*
X77142758Y-154460024D01*
X76994924Y-154381005D01*
X76994922Y-154381004D01*
X76865341Y-154274659D01*
X76758996Y-154145078D01*
X76750886Y-154129906D01*
X76679976Y-153997242D01*
X76631313Y-153836823D01*
X76614883Y-153670000D01*
X76631313Y-153503177D01*
X76679976Y-153342758D01*
X76758995Y-153194924D01*
X76758996Y-153194922D01*
X76865341Y-153065341D01*
X76994922Y-152958996D01*
X77010094Y-152950886D01*
X77142758Y-152879976D01*
X77303177Y-152831313D01*
X77428196Y-152819000D01*
X77511804Y-152819000D01*
X77636823Y-152831313D01*
X77636823Y-152831313D01*
G37*
G36*
X75096823Y-152831313D02*
G01*
X75257242Y-152879976D01*
X75389906Y-152950886D01*
X75405078Y-152958996D01*
X75534659Y-153065341D01*
X75641004Y-153194922D01*
X75641005Y-153194924D01*
X75720024Y-153342758D01*
X75768687Y-153503177D01*
X75785117Y-153670000D01*
X75768687Y-153836823D01*
X75720024Y-153997242D01*
X75649114Y-154129906D01*
X75641004Y-154145078D01*
X75534659Y-154274659D01*
X75405078Y-154381004D01*
X75405076Y-154381005D01*
X75257242Y-154460024D01*
X75096823Y-154508687D01*
X74971804Y-154521000D01*
X74888196Y-154521000D01*
X74763177Y-154508687D01*
X74602758Y-154460024D01*
X74454924Y-154381005D01*
X74454922Y-154381004D01*
X74325341Y-154274659D01*
X74218996Y-154145078D01*
X74210886Y-154129906D01*
X74139976Y-153997242D01*
X74091313Y-153836823D01*
X74074883Y-153670000D01*
X74091313Y-153503177D01*
X74139976Y-153342758D01*
X74218995Y-153194924D01*
X74218996Y-153194922D01*
X74325341Y-153065341D01*
X74454922Y-152958996D01*
X74470094Y-152950886D01*
X74602758Y-152879976D01*
X74763177Y-152831313D01*
X74888196Y-152819000D01*
X74971804Y-152819000D01*
X75096823Y-152831313D01*
X75096823Y-152831313D01*
G37*
G36*
X72556823Y-152831313D02*
G01*
X72717242Y-152879976D01*
X72849906Y-152950886D01*
X72865078Y-152958996D01*
X72994659Y-153065341D01*
X73101004Y-153194922D01*
X73101005Y-153194924D01*
X73180024Y-153342758D01*
X73228687Y-153503177D01*
X73245117Y-153670000D01*
X73228687Y-153836823D01*
X73180024Y-153997242D01*
X73109114Y-154129906D01*
X73101004Y-154145078D01*
X72994659Y-154274659D01*
X72865078Y-154381004D01*
X72865076Y-154381005D01*
X72717242Y-154460024D01*
X72556823Y-154508687D01*
X72431804Y-154521000D01*
X72348196Y-154521000D01*
X72223177Y-154508687D01*
X72062758Y-154460024D01*
X71914924Y-154381005D01*
X71914922Y-154381004D01*
X71785341Y-154274659D01*
X71678996Y-154145078D01*
X71670886Y-154129906D01*
X71599976Y-153997242D01*
X71551313Y-153836823D01*
X71534883Y-153670000D01*
X71551313Y-153503177D01*
X71599976Y-153342758D01*
X71678995Y-153194924D01*
X71678996Y-153194922D01*
X71785341Y-153065341D01*
X71914922Y-152958996D01*
X71930094Y-152950886D01*
X72062758Y-152879976D01*
X72223177Y-152831313D01*
X72348196Y-152819000D01*
X72431804Y-152819000D01*
X72556823Y-152831313D01*
X72556823Y-152831313D01*
G37*
G36*
X96873097Y-151354069D02*
G01*
X96976032Y-151364207D01*
X97174146Y-151424305D01*
X97174149Y-151424306D01*
X97270975Y-151476061D01*
X97356729Y-151521897D01*
X97516765Y-151653235D01*
X97648103Y-151813271D01*
X97668107Y-151850697D01*
X97745694Y-151995851D01*
X97745695Y-151995854D01*
X97805793Y-152193968D01*
X97826085Y-152400000D01*
X97805793Y-152606032D01*
X97745695Y-152804146D01*
X97745694Y-152804149D01*
X97705164Y-152879975D01*
X97648103Y-152986729D01*
X97516765Y-153146765D01*
X97356729Y-153278103D01*
X97270975Y-153323939D01*
X97174149Y-153375694D01*
X97174146Y-153375695D01*
X96976032Y-153435793D01*
X96873097Y-153445931D01*
X96821631Y-153451000D01*
X96218369Y-153451000D01*
X96166903Y-153445931D01*
X96063968Y-153435793D01*
X95865854Y-153375695D01*
X95865851Y-153375694D01*
X95769025Y-153323939D01*
X95683271Y-153278103D01*
X95523235Y-153146765D01*
X95391897Y-152986729D01*
X95334836Y-152879975D01*
X95294306Y-152804149D01*
X95294305Y-152804146D01*
X95234207Y-152606032D01*
X95213915Y-152400000D01*
X95234207Y-152193968D01*
X95294305Y-151995854D01*
X95294306Y-151995851D01*
X95371893Y-151850697D01*
X95391897Y-151813271D01*
X95523235Y-151653235D01*
X95683271Y-151521897D01*
X95769025Y-151476061D01*
X95865851Y-151424306D01*
X95865854Y-151424305D01*
X96063968Y-151364207D01*
X96166903Y-151354069D01*
X96218369Y-151349000D01*
X96821631Y-151349000D01*
X96873097Y-151354069D01*
X96873097Y-151354069D01*
G37*
G36*
X85184425Y-150384599D02*
G01*
X85308621Y-150409302D01*
X85445022Y-150465801D01*
X85567779Y-150547825D01*
X85672175Y-150652221D01*
X85754199Y-150774978D01*
X85810698Y-150911379D01*
X85839500Y-151056181D01*
X85839500Y-151203819D01*
X85810698Y-151348621D01*
X85754199Y-151485022D01*
X85672175Y-151607779D01*
X85567779Y-151712175D01*
X85445022Y-151794199D01*
X85308621Y-151850698D01*
X85184425Y-151875401D01*
X85163820Y-151879500D01*
X85016180Y-151879500D01*
X84995575Y-151875401D01*
X84871379Y-151850698D01*
X84734978Y-151794199D01*
X84612221Y-151712175D01*
X84507825Y-151607779D01*
X84425801Y-151485022D01*
X84369302Y-151348621D01*
X84340500Y-151203819D01*
X84340500Y-151056181D01*
X84369302Y-150911379D01*
X84425801Y-150774978D01*
X84507825Y-150652221D01*
X84612221Y-150547825D01*
X84734978Y-150465801D01*
X84871379Y-150409302D01*
X84995575Y-150384599D01*
X85016180Y-150380500D01*
X85163820Y-150380500D01*
X85184425Y-150384599D01*
X85184425Y-150384599D01*
G37*
G36*
X103223097Y-148814069D02*
G01*
X103326032Y-148824207D01*
X103524146Y-148884305D01*
X103524149Y-148884306D01*
X103578048Y-148913116D01*
X103706729Y-148981897D01*
X103866765Y-149113235D01*
X103998103Y-149273271D01*
X104008211Y-149292182D01*
X104095694Y-149455851D01*
X104095695Y-149455854D01*
X104155793Y-149653968D01*
X104176085Y-149860000D01*
X104155793Y-150066032D01*
X104095695Y-150264146D01*
X104095694Y-150264149D01*
X104043939Y-150360975D01*
X103998103Y-150446729D01*
X103866765Y-150606765D01*
X103706729Y-150738103D01*
X103620975Y-150783939D01*
X103524149Y-150835694D01*
X103524146Y-150835695D01*
X103326032Y-150895793D01*
X103223097Y-150905931D01*
X103171631Y-150911000D01*
X102568369Y-150911000D01*
X102516903Y-150905931D01*
X102413968Y-150895793D01*
X102215854Y-150835695D01*
X102215851Y-150835694D01*
X102119025Y-150783939D01*
X102033271Y-150738103D01*
X101873235Y-150606765D01*
X101741897Y-150446729D01*
X101696061Y-150360975D01*
X101644306Y-150264149D01*
X101644305Y-150264146D01*
X101584207Y-150066032D01*
X101563915Y-149860000D01*
X101584207Y-149653968D01*
X101644305Y-149455854D01*
X101644306Y-149455851D01*
X101731789Y-149292182D01*
X101741897Y-149273271D01*
X101873235Y-149113235D01*
X102033271Y-148981897D01*
X102161952Y-148913116D01*
X102215851Y-148884306D01*
X102215854Y-148884305D01*
X102413968Y-148824207D01*
X102516903Y-148814069D01*
X102568369Y-148809000D01*
X103171631Y-148809000D01*
X103223097Y-148814069D01*
X103223097Y-148814069D01*
G37*
G36*
X99658254Y-145347818D02*
G01*
X100027339Y-145500698D01*
X100031513Y-145502427D01*
X100367436Y-145726884D01*
X100653116Y-146012564D01*
X100877574Y-146348489D01*
X101032182Y-146721746D01*
X101111000Y-147117993D01*
X101111000Y-147522007D01*
X101032182Y-147918254D01*
X100881293Y-148282532D01*
X100877573Y-148291513D01*
X100653116Y-148627436D01*
X100367436Y-148913116D01*
X100031513Y-149137573D01*
X100031512Y-149137574D01*
X100031511Y-149137574D01*
X99658254Y-149292182D01*
X99262007Y-149371000D01*
X98857993Y-149371000D01*
X98461746Y-149292182D01*
X98088489Y-149137574D01*
X98088488Y-149137574D01*
X98088487Y-149137573D01*
X97752564Y-148913116D01*
X97466884Y-148627436D01*
X97242427Y-148291513D01*
X97238707Y-148282532D01*
X97087818Y-147918254D01*
X97009000Y-147522007D01*
X97009000Y-147117993D01*
X97087818Y-146721746D01*
X97242426Y-146348489D01*
X97466884Y-146012564D01*
X97752564Y-145726884D01*
X98088487Y-145502427D01*
X98092661Y-145500698D01*
X98461746Y-145347818D01*
X98857993Y-145269000D01*
X99262007Y-145269000D01*
X99658254Y-145347818D01*
X99658254Y-145347818D01*
G37*
G36*
X104851981Y-146357468D02*
G01*
X105034151Y-146432926D01*
X105198100Y-146542473D01*
X105337527Y-146681900D01*
X105447074Y-146845849D01*
X105522532Y-147028019D01*
X105561000Y-147221410D01*
X105561000Y-147418590D01*
X105522532Y-147611981D01*
X105447074Y-147794151D01*
X105337527Y-147958100D01*
X105198100Y-148097527D01*
X105034151Y-148207074D01*
X104851981Y-148282532D01*
X104658591Y-148321000D01*
X104461409Y-148321000D01*
X104268019Y-148282532D01*
X104085849Y-148207074D01*
X103921900Y-148097527D01*
X103782473Y-147958100D01*
X103672926Y-147794151D01*
X103597468Y-147611981D01*
X103559000Y-147418590D01*
X103559000Y-147221410D01*
X103597468Y-147028019D01*
X103672926Y-146845849D01*
X103782473Y-146681900D01*
X103921900Y-146542473D01*
X104085849Y-146432926D01*
X104268019Y-146357468D01*
X104461409Y-146319000D01*
X104658591Y-146319000D01*
X104851981Y-146357468D01*
X104851981Y-146357468D01*
G37*
G36*
X93851981Y-146357468D02*
G01*
X94034151Y-146432926D01*
X94198100Y-146542473D01*
X94337527Y-146681900D01*
X94447074Y-146845849D01*
X94522532Y-147028019D01*
X94561000Y-147221410D01*
X94561000Y-147418590D01*
X94522532Y-147611981D01*
X94447074Y-147794151D01*
X94337527Y-147958100D01*
X94198100Y-148097527D01*
X94034151Y-148207074D01*
X93851981Y-148282532D01*
X93658591Y-148321000D01*
X93461409Y-148321000D01*
X93268019Y-148282532D01*
X93085849Y-148207074D01*
X92921900Y-148097527D01*
X92782473Y-147958100D01*
X92672926Y-147794151D01*
X92597468Y-147611981D01*
X92559000Y-147418590D01*
X92559000Y-147221410D01*
X92597468Y-147028019D01*
X92672926Y-146845849D01*
X92782473Y-146681900D01*
X92921900Y-146542473D01*
X93085849Y-146432926D01*
X93268019Y-146357468D01*
X93461409Y-146319000D01*
X93658591Y-146319000D01*
X93851981Y-146357468D01*
X93851981Y-146357468D01*
G37*
G36*
X70016823Y-145211313D02*
G01*
X70177242Y-145259976D01*
X70253057Y-145300500D01*
X70325078Y-145338996D01*
X70454659Y-145445341D01*
X70561004Y-145574922D01*
X70561005Y-145574924D01*
X70640024Y-145722758D01*
X70688687Y-145883177D01*
X70705117Y-146050000D01*
X70688687Y-146216823D01*
X70640024Y-146377242D01*
X70610260Y-146432926D01*
X70561004Y-146525078D01*
X70454659Y-146654659D01*
X70325078Y-146761004D01*
X70325076Y-146761005D01*
X70177242Y-146840024D01*
X70016823Y-146888687D01*
X69891804Y-146901000D01*
X69808196Y-146901000D01*
X69683177Y-146888687D01*
X69522758Y-146840024D01*
X69374924Y-146761005D01*
X69374922Y-146761004D01*
X69245341Y-146654659D01*
X69138996Y-146525078D01*
X69089740Y-146432926D01*
X69059976Y-146377242D01*
X69011313Y-146216823D01*
X68994883Y-146050000D01*
X69011313Y-145883177D01*
X69059976Y-145722758D01*
X69138995Y-145574924D01*
X69138996Y-145574922D01*
X69245341Y-145445341D01*
X69374922Y-145338996D01*
X69446943Y-145300500D01*
X69522758Y-145259976D01*
X69683177Y-145211313D01*
X69808196Y-145199000D01*
X69891804Y-145199000D01*
X70016823Y-145211313D01*
X70016823Y-145211313D01*
G37*
G36*
X72556823Y-145211313D02*
G01*
X72717242Y-145259976D01*
X72793057Y-145300500D01*
X72865078Y-145338996D01*
X72994659Y-145445341D01*
X73101004Y-145574922D01*
X73101005Y-145574924D01*
X73180024Y-145722758D01*
X73228687Y-145883177D01*
X73245117Y-146050000D01*
X73228687Y-146216823D01*
X73180024Y-146377242D01*
X73150260Y-146432926D01*
X73101004Y-146525078D01*
X72994659Y-146654659D01*
X72865078Y-146761004D01*
X72865076Y-146761005D01*
X72717242Y-146840024D01*
X72556823Y-146888687D01*
X72431804Y-146901000D01*
X72348196Y-146901000D01*
X72223177Y-146888687D01*
X72062758Y-146840024D01*
X71914924Y-146761005D01*
X71914922Y-146761004D01*
X71785341Y-146654659D01*
X71678996Y-146525078D01*
X71629740Y-146432926D01*
X71599976Y-146377242D01*
X71551313Y-146216823D01*
X71534883Y-146050000D01*
X71551313Y-145883177D01*
X71599976Y-145722758D01*
X71678995Y-145574924D01*
X71678996Y-145574922D01*
X71785341Y-145445341D01*
X71914922Y-145338996D01*
X71986943Y-145300500D01*
X72062758Y-145259976D01*
X72223177Y-145211313D01*
X72348196Y-145199000D01*
X72431804Y-145199000D01*
X72556823Y-145211313D01*
X72556823Y-145211313D01*
G37*
G36*
X75096823Y-145211313D02*
G01*
X75257242Y-145259976D01*
X75333057Y-145300500D01*
X75405078Y-145338996D01*
X75534659Y-145445341D01*
X75641004Y-145574922D01*
X75641005Y-145574924D01*
X75720024Y-145722758D01*
X75768687Y-145883177D01*
X75785117Y-146050000D01*
X75768687Y-146216823D01*
X75720024Y-146377242D01*
X75690260Y-146432926D01*
X75641004Y-146525078D01*
X75534659Y-146654659D01*
X75405078Y-146761004D01*
X75405076Y-146761005D01*
X75257242Y-146840024D01*
X75096823Y-146888687D01*
X74971804Y-146901000D01*
X74888196Y-146901000D01*
X74763177Y-146888687D01*
X74602758Y-146840024D01*
X74454924Y-146761005D01*
X74454922Y-146761004D01*
X74325341Y-146654659D01*
X74218996Y-146525078D01*
X74169740Y-146432926D01*
X74139976Y-146377242D01*
X74091313Y-146216823D01*
X74074883Y-146050000D01*
X74091313Y-145883177D01*
X74139976Y-145722758D01*
X74218995Y-145574924D01*
X74218996Y-145574922D01*
X74325341Y-145445341D01*
X74454922Y-145338996D01*
X74526943Y-145300500D01*
X74602758Y-145259976D01*
X74763177Y-145211313D01*
X74888196Y-145199000D01*
X74971804Y-145199000D01*
X75096823Y-145211313D01*
X75096823Y-145211313D01*
G37*
G36*
X77636823Y-145211313D02*
G01*
X77797242Y-145259976D01*
X77873057Y-145300500D01*
X77945078Y-145338996D01*
X78074659Y-145445341D01*
X78181004Y-145574922D01*
X78181005Y-145574924D01*
X78260024Y-145722758D01*
X78308687Y-145883177D01*
X78325117Y-146050000D01*
X78308687Y-146216823D01*
X78260024Y-146377242D01*
X78230260Y-146432926D01*
X78181004Y-146525078D01*
X78074659Y-146654659D01*
X77945078Y-146761004D01*
X77945076Y-146761005D01*
X77797242Y-146840024D01*
X77636823Y-146888687D01*
X77511804Y-146901000D01*
X77428196Y-146901000D01*
X77303177Y-146888687D01*
X77142758Y-146840024D01*
X76994924Y-146761005D01*
X76994922Y-146761004D01*
X76865341Y-146654659D01*
X76758996Y-146525078D01*
X76709740Y-146432926D01*
X76679976Y-146377242D01*
X76631313Y-146216823D01*
X76614883Y-146050000D01*
X76631313Y-145883177D01*
X76679976Y-145722758D01*
X76758995Y-145574924D01*
X76758996Y-145574922D01*
X76865341Y-145445341D01*
X76994922Y-145338996D01*
X77066943Y-145300500D01*
X77142758Y-145259976D01*
X77303177Y-145211313D01*
X77428196Y-145199000D01*
X77511804Y-145199000D01*
X77636823Y-145211313D01*
X77636823Y-145211313D01*
G37*
G36*
X85184425Y-145304599D02*
G01*
X85308621Y-145329302D01*
X85445022Y-145385801D01*
X85567779Y-145467825D01*
X85672175Y-145572221D01*
X85754199Y-145694978D01*
X85810698Y-145831379D01*
X85839500Y-145976181D01*
X85839500Y-146123819D01*
X85810698Y-146268621D01*
X85754199Y-146405022D01*
X85672175Y-146527779D01*
X85567779Y-146632175D01*
X85445022Y-146714199D01*
X85308621Y-146770698D01*
X85184425Y-146795401D01*
X85163820Y-146799500D01*
X85016180Y-146799500D01*
X84995575Y-146795401D01*
X84871379Y-146770698D01*
X84734978Y-146714199D01*
X84612221Y-146632175D01*
X84507825Y-146527779D01*
X84425801Y-146405022D01*
X84369302Y-146268621D01*
X84340500Y-146123819D01*
X84340500Y-145976181D01*
X84369302Y-145831379D01*
X84425801Y-145694978D01*
X84507825Y-145572221D01*
X84612221Y-145467825D01*
X84734978Y-145385801D01*
X84871379Y-145329302D01*
X84995575Y-145304599D01*
X85016180Y-145300500D01*
X85163820Y-145300500D01*
X85184425Y-145304599D01*
X85184425Y-145304599D01*
G37*
G36*
X82644425Y-144034599D02*
G01*
X82768621Y-144059302D01*
X82905022Y-144115801D01*
X83027779Y-144197825D01*
X83132175Y-144302221D01*
X83214199Y-144424978D01*
X83270698Y-144561379D01*
X83299500Y-144706181D01*
X83299500Y-144853819D01*
X83270698Y-144998621D01*
X83214199Y-145135022D01*
X83132175Y-145257779D01*
X83027779Y-145362175D01*
X82905022Y-145444199D01*
X82768621Y-145500698D01*
X82644425Y-145525401D01*
X82623820Y-145529500D01*
X82476180Y-145529500D01*
X82455575Y-145525401D01*
X82331379Y-145500698D01*
X82194978Y-145444199D01*
X82072221Y-145362175D01*
X81967825Y-145257779D01*
X81885801Y-145135022D01*
X81829302Y-144998621D01*
X81800500Y-144853819D01*
X81800500Y-144706181D01*
X81829302Y-144561379D01*
X81885801Y-144424978D01*
X81967825Y-144302221D01*
X82072221Y-144197825D01*
X82194978Y-144115801D01*
X82331379Y-144059302D01*
X82455575Y-144034599D01*
X82476180Y-144030500D01*
X82623820Y-144030500D01*
X82644425Y-144034599D01*
X82644425Y-144034599D01*
G37*
G36*
X52307142Y-141438242D02*
G01*
X52455101Y-141499529D01*
X52588255Y-141588499D01*
X52701501Y-141701745D01*
X52790471Y-141834899D01*
X52851758Y-141982858D01*
X52883000Y-142139925D01*
X52883000Y-142300075D01*
X52851758Y-142457142D01*
X52790471Y-142605101D01*
X52701501Y-142738255D01*
X52588255Y-142851501D01*
X52455101Y-142940471D01*
X52307142Y-143001758D01*
X52150075Y-143033000D01*
X51989925Y-143033000D01*
X51832858Y-143001758D01*
X51684899Y-142940471D01*
X51551745Y-142851501D01*
X51438499Y-142738255D01*
X51349529Y-142605101D01*
X51288242Y-142457142D01*
X51257000Y-142300075D01*
X51257000Y-142139925D01*
X51288242Y-141982858D01*
X51349529Y-141834899D01*
X51438499Y-141701745D01*
X51551745Y-141588499D01*
X51684899Y-141499529D01*
X51832858Y-141438242D01*
X51989925Y-141407000D01*
X52150075Y-141407000D01*
X52307142Y-141438242D01*
X52307142Y-141438242D01*
G37*
G36*
X37067142Y-141438242D02*
G01*
X37215101Y-141499529D01*
X37348255Y-141588499D01*
X37461501Y-141701745D01*
X37550471Y-141834899D01*
X37611758Y-141982858D01*
X37643000Y-142139925D01*
X37643000Y-142300075D01*
X37611758Y-142457142D01*
X37550471Y-142605101D01*
X37461501Y-142738255D01*
X37348255Y-142851501D01*
X37215101Y-142940471D01*
X37067142Y-143001758D01*
X36910075Y-143033000D01*
X36749925Y-143033000D01*
X36592858Y-143001758D01*
X36444899Y-142940471D01*
X36311745Y-142851501D01*
X36198499Y-142738255D01*
X36109529Y-142605101D01*
X36048242Y-142457142D01*
X36017000Y-142300075D01*
X36017000Y-142139925D01*
X36048242Y-141982858D01*
X36109529Y-141834899D01*
X36198499Y-141701745D01*
X36311745Y-141588499D01*
X36444899Y-141499529D01*
X36592858Y-141438242D01*
X36749925Y-141407000D01*
X36910075Y-141407000D01*
X37067142Y-141438242D01*
X37067142Y-141438242D01*
G37*
G36*
X54847142Y-141438242D02*
G01*
X54995101Y-141499529D01*
X55128255Y-141588499D01*
X55241501Y-141701745D01*
X55330471Y-141834899D01*
X55391758Y-141982858D01*
X55423000Y-142139925D01*
X55423000Y-142300075D01*
X55391758Y-142457142D01*
X55330471Y-142605101D01*
X55241501Y-142738255D01*
X55128255Y-142851501D01*
X54995101Y-142940471D01*
X54847142Y-143001758D01*
X54690075Y-143033000D01*
X54529925Y-143033000D01*
X54372858Y-143001758D01*
X54224899Y-142940471D01*
X54091745Y-142851501D01*
X53978499Y-142738255D01*
X53889529Y-142605101D01*
X53828242Y-142457142D01*
X53797000Y-142300075D01*
X53797000Y-142139925D01*
X53828242Y-141982858D01*
X53889529Y-141834899D01*
X53978499Y-141701745D01*
X54091745Y-141588499D01*
X54224899Y-141499529D01*
X54372858Y-141438242D01*
X54529925Y-141407000D01*
X54690075Y-141407000D01*
X54847142Y-141438242D01*
X54847142Y-141438242D01*
G37*
G36*
X49767142Y-141438242D02*
G01*
X49915101Y-141499529D01*
X50048255Y-141588499D01*
X50161501Y-141701745D01*
X50250471Y-141834899D01*
X50311758Y-141982858D01*
X50343000Y-142139925D01*
X50343000Y-142300075D01*
X50311758Y-142457142D01*
X50250471Y-142605101D01*
X50161501Y-142738255D01*
X50048255Y-142851501D01*
X49915101Y-142940471D01*
X49767142Y-143001758D01*
X49610075Y-143033000D01*
X49449925Y-143033000D01*
X49292858Y-143001758D01*
X49144899Y-142940471D01*
X49011745Y-142851501D01*
X48898499Y-142738255D01*
X48809529Y-142605101D01*
X48748242Y-142457142D01*
X48717000Y-142300075D01*
X48717000Y-142139925D01*
X48748242Y-141982858D01*
X48809529Y-141834899D01*
X48898499Y-141701745D01*
X49011745Y-141588499D01*
X49144899Y-141499529D01*
X49292858Y-141438242D01*
X49449925Y-141407000D01*
X49610075Y-141407000D01*
X49767142Y-141438242D01*
X49767142Y-141438242D01*
G37*
G36*
X47227142Y-141438242D02*
G01*
X47375101Y-141499529D01*
X47508255Y-141588499D01*
X47621501Y-141701745D01*
X47710471Y-141834899D01*
X47771758Y-141982858D01*
X47803000Y-142139925D01*
X47803000Y-142300075D01*
X47771758Y-142457142D01*
X47710471Y-142605101D01*
X47621501Y-142738255D01*
X47508255Y-142851501D01*
X47375101Y-142940471D01*
X47227142Y-143001758D01*
X47070075Y-143033000D01*
X46909925Y-143033000D01*
X46752858Y-143001758D01*
X46604899Y-142940471D01*
X46471745Y-142851501D01*
X46358499Y-142738255D01*
X46269529Y-142605101D01*
X46208242Y-142457142D01*
X46177000Y-142300075D01*
X46177000Y-142139925D01*
X46208242Y-141982858D01*
X46269529Y-141834899D01*
X46358499Y-141701745D01*
X46471745Y-141588499D01*
X46604899Y-141499529D01*
X46752858Y-141438242D01*
X46909925Y-141407000D01*
X47070075Y-141407000D01*
X47227142Y-141438242D01*
X47227142Y-141438242D01*
G37*
G36*
X44687142Y-141438242D02*
G01*
X44835101Y-141499529D01*
X44968255Y-141588499D01*
X45081501Y-141701745D01*
X45170471Y-141834899D01*
X45231758Y-141982858D01*
X45263000Y-142139925D01*
X45263000Y-142300075D01*
X45231758Y-142457142D01*
X45170471Y-142605101D01*
X45081501Y-142738255D01*
X44968255Y-142851501D01*
X44835101Y-142940471D01*
X44687142Y-143001758D01*
X44530075Y-143033000D01*
X44369925Y-143033000D01*
X44212858Y-143001758D01*
X44064899Y-142940471D01*
X43931745Y-142851501D01*
X43818499Y-142738255D01*
X43729529Y-142605101D01*
X43668242Y-142457142D01*
X43637000Y-142300075D01*
X43637000Y-142139925D01*
X43668242Y-141982858D01*
X43729529Y-141834899D01*
X43818499Y-141701745D01*
X43931745Y-141588499D01*
X44064899Y-141499529D01*
X44212858Y-141438242D01*
X44369925Y-141407000D01*
X44530075Y-141407000D01*
X44687142Y-141438242D01*
X44687142Y-141438242D01*
G37*
G36*
X42147142Y-141438242D02*
G01*
X42295101Y-141499529D01*
X42428255Y-141588499D01*
X42541501Y-141701745D01*
X42630471Y-141834899D01*
X42691758Y-141982858D01*
X42723000Y-142139925D01*
X42723000Y-142300075D01*
X42691758Y-142457142D01*
X42630471Y-142605101D01*
X42541501Y-142738255D01*
X42428255Y-142851501D01*
X42295101Y-142940471D01*
X42147142Y-143001758D01*
X41990075Y-143033000D01*
X41829925Y-143033000D01*
X41672858Y-143001758D01*
X41524899Y-142940471D01*
X41391745Y-142851501D01*
X41278499Y-142738255D01*
X41189529Y-142605101D01*
X41128242Y-142457142D01*
X41097000Y-142300075D01*
X41097000Y-142139925D01*
X41128242Y-141982858D01*
X41189529Y-141834899D01*
X41278499Y-141701745D01*
X41391745Y-141588499D01*
X41524899Y-141499529D01*
X41672858Y-141438242D01*
X41829925Y-141407000D01*
X41990075Y-141407000D01*
X42147142Y-141438242D01*
X42147142Y-141438242D01*
G37*
G36*
X39607142Y-141438242D02*
G01*
X39755101Y-141499529D01*
X39888255Y-141588499D01*
X40001501Y-141701745D01*
X40090471Y-141834899D01*
X40151758Y-141982858D01*
X40183000Y-142139925D01*
X40183000Y-142300075D01*
X40151758Y-142457142D01*
X40090471Y-142605101D01*
X40001501Y-142738255D01*
X39888255Y-142851501D01*
X39755101Y-142940471D01*
X39607142Y-143001758D01*
X39450075Y-143033000D01*
X39289925Y-143033000D01*
X39132858Y-143001758D01*
X38984899Y-142940471D01*
X38851745Y-142851501D01*
X38738499Y-142738255D01*
X38649529Y-142605101D01*
X38588242Y-142457142D01*
X38557000Y-142300075D01*
X38557000Y-142139925D01*
X38588242Y-141982858D01*
X38649529Y-141834899D01*
X38738499Y-141701745D01*
X38851745Y-141588499D01*
X38984899Y-141499529D01*
X39132858Y-141438242D01*
X39289925Y-141407000D01*
X39450075Y-141407000D01*
X39607142Y-141438242D01*
X39607142Y-141438242D01*
G37*
G36*
X35103000Y-143033000D02*
G01*
X33477000Y-143033000D01*
X33477000Y-141407000D01*
X35103000Y-141407000D01*
X35103000Y-143033000D01*
X35103000Y-143033000D01*
G37*
G36*
X57387142Y-141438242D02*
G01*
X57535101Y-141499529D01*
X57668255Y-141588499D01*
X57781501Y-141701745D01*
X57870471Y-141834899D01*
X57931758Y-141982858D01*
X57963000Y-142139925D01*
X57963000Y-142300075D01*
X57931758Y-142457142D01*
X57870471Y-142605101D01*
X57781501Y-142738255D01*
X57668255Y-142851501D01*
X57535101Y-142940471D01*
X57387142Y-143001758D01*
X57230075Y-143033000D01*
X57069925Y-143033000D01*
X56912858Y-143001758D01*
X56764899Y-142940471D01*
X56631745Y-142851501D01*
X56518499Y-142738255D01*
X56429529Y-142605101D01*
X56368242Y-142457142D01*
X56337000Y-142300075D01*
X56337000Y-142139925D01*
X56368242Y-141982858D01*
X56429529Y-141834899D01*
X56518499Y-141701745D01*
X56631745Y-141588499D01*
X56764899Y-141499529D01*
X56912858Y-141438242D01*
X57069925Y-141407000D01*
X57230075Y-141407000D01*
X57387142Y-141438242D01*
X57387142Y-141438242D01*
G37*
G36*
X59927142Y-141438242D02*
G01*
X60075101Y-141499529D01*
X60208255Y-141588499D01*
X60321501Y-141701745D01*
X60410471Y-141834899D01*
X60471758Y-141982858D01*
X60503000Y-142139925D01*
X60503000Y-142300075D01*
X60471758Y-142457142D01*
X60410471Y-142605101D01*
X60321501Y-142738255D01*
X60208255Y-142851501D01*
X60075101Y-142940471D01*
X59927142Y-143001758D01*
X59770075Y-143033000D01*
X59609925Y-143033000D01*
X59452858Y-143001758D01*
X59304899Y-142940471D01*
X59171745Y-142851501D01*
X59058499Y-142738255D01*
X58969529Y-142605101D01*
X58908242Y-142457142D01*
X58877000Y-142300075D01*
X58877000Y-142139925D01*
X58908242Y-141982858D01*
X58969529Y-141834899D01*
X59058499Y-141701745D01*
X59171745Y-141588499D01*
X59304899Y-141499529D01*
X59452858Y-141438242D01*
X59609925Y-141407000D01*
X59770075Y-141407000D01*
X59927142Y-141438242D01*
X59927142Y-141438242D01*
G37*
G36*
X62467142Y-141438242D02*
G01*
X62615101Y-141499529D01*
X62748255Y-141588499D01*
X62861501Y-141701745D01*
X62950471Y-141834899D01*
X63011758Y-141982858D01*
X63043000Y-142139925D01*
X63043000Y-142300075D01*
X63011758Y-142457142D01*
X62950471Y-142605101D01*
X62861501Y-142738255D01*
X62748255Y-142851501D01*
X62615101Y-142940471D01*
X62467142Y-143001758D01*
X62310075Y-143033000D01*
X62149925Y-143033000D01*
X61992858Y-143001758D01*
X61844899Y-142940471D01*
X61711745Y-142851501D01*
X61598499Y-142738255D01*
X61509529Y-142605101D01*
X61448242Y-142457142D01*
X61417000Y-142300075D01*
X61417000Y-142139925D01*
X61448242Y-141982858D01*
X61509529Y-141834899D01*
X61598499Y-141701745D01*
X61711745Y-141588499D01*
X61844899Y-141499529D01*
X61992858Y-141438242D01*
X62149925Y-141407000D01*
X62310075Y-141407000D01*
X62467142Y-141438242D01*
X62467142Y-141438242D01*
G37*
G36*
X73754425Y-141494599D02*
G01*
X73878621Y-141519302D01*
X74015022Y-141575801D01*
X74137779Y-141657825D01*
X74242175Y-141762221D01*
X74324199Y-141884978D01*
X74380698Y-142021379D01*
X74409500Y-142166181D01*
X74409500Y-142313819D01*
X74380698Y-142458621D01*
X74324199Y-142595022D01*
X74242175Y-142717779D01*
X74137779Y-142822175D01*
X74015022Y-142904199D01*
X73878621Y-142960698D01*
X73754425Y-142985401D01*
X73733820Y-142989500D01*
X73586180Y-142989500D01*
X73565575Y-142985401D01*
X73441379Y-142960698D01*
X73304978Y-142904199D01*
X73182221Y-142822175D01*
X73077825Y-142717779D01*
X72995801Y-142595022D01*
X72939302Y-142458621D01*
X72910500Y-142313819D01*
X72910500Y-142166181D01*
X72939302Y-142021379D01*
X72995801Y-141884978D01*
X73077825Y-141762221D01*
X73182221Y-141657825D01*
X73304978Y-141575801D01*
X73441379Y-141519302D01*
X73565575Y-141494599D01*
X73586180Y-141490500D01*
X73733820Y-141490500D01*
X73754425Y-141494599D01*
X73754425Y-141494599D01*
G37*
G36*
X68674425Y-141494599D02*
G01*
X68798621Y-141519302D01*
X68935022Y-141575801D01*
X69057779Y-141657825D01*
X69162175Y-141762221D01*
X69244199Y-141884978D01*
X69300698Y-142021379D01*
X69329500Y-142166181D01*
X69329500Y-142313819D01*
X69300698Y-142458621D01*
X69244199Y-142595022D01*
X69162175Y-142717779D01*
X69057779Y-142822175D01*
X68935022Y-142904199D01*
X68798621Y-142960698D01*
X68674425Y-142985401D01*
X68653820Y-142989500D01*
X68506180Y-142989500D01*
X68485575Y-142985401D01*
X68361379Y-142960698D01*
X68224978Y-142904199D01*
X68102221Y-142822175D01*
X67997825Y-142717779D01*
X67915801Y-142595022D01*
X67859302Y-142458621D01*
X67830500Y-142313819D01*
X67830500Y-142166181D01*
X67859302Y-142021379D01*
X67915801Y-141884978D01*
X67997825Y-141762221D01*
X68102221Y-141657825D01*
X68224978Y-141575801D01*
X68361379Y-141519302D01*
X68485575Y-141494599D01*
X68506180Y-141490500D01*
X68653820Y-141490500D01*
X68674425Y-141494599D01*
X68674425Y-141494599D01*
G37*
G36*
X82644425Y-138954599D02*
G01*
X82768621Y-138979302D01*
X82905022Y-139035801D01*
X83027779Y-139117825D01*
X83132175Y-139222221D01*
X83214199Y-139344978D01*
X83270698Y-139481379D01*
X83299500Y-139626181D01*
X83299500Y-139773819D01*
X83270698Y-139918621D01*
X83214199Y-140055022D01*
X83132175Y-140177779D01*
X83027779Y-140282175D01*
X82905022Y-140364199D01*
X82768621Y-140420698D01*
X82644425Y-140445401D01*
X82623820Y-140449500D01*
X82476180Y-140449500D01*
X82455575Y-140445401D01*
X82331379Y-140420698D01*
X82194978Y-140364199D01*
X82072221Y-140282175D01*
X81967825Y-140177779D01*
X81885801Y-140055022D01*
X81829302Y-139918621D01*
X81800500Y-139773819D01*
X81800500Y-139626181D01*
X81829302Y-139481379D01*
X81885801Y-139344978D01*
X81967825Y-139222221D01*
X82072221Y-139117825D01*
X82194978Y-139035801D01*
X82331379Y-138979302D01*
X82455575Y-138954599D01*
X82476180Y-138950500D01*
X82623820Y-138950500D01*
X82644425Y-138954599D01*
X82644425Y-138954599D01*
G37*
M02*
