G04 #@! TF.GenerationSoftware,KiCad,Pcbnew,(5.1.2)-1*
G04 #@! TF.CreationDate,2019-05-14T15:55:12+09:00*
G04 #@! TF.ProjectId,pcb,7063622e-6b69-4636-9164-5f7063625858,rev?*
G04 #@! TF.SameCoordinates,Original*
G04 #@! TF.FileFunction,Legend,Bot*
G04 #@! TF.FilePolarity,Positive*
%FSLAX46Y46*%
G04 Gerber Fmt 4.6, Leading zero omitted, Abs format (unit mm)*
G04 Created by KiCad (PCBNEW (5.1.2)-1) date 2019-05-14 15:55:12*
%MOMM*%
%LPD*%
G04 APERTURE LIST*
%ADD10C,0.150000*%
G04 APERTURE END LIST*
D10*
X84050000Y-155210000D02*
X84050000Y-157210000D01*
X81050000Y-155210000D02*
X84050000Y-155210000D01*
X81050000Y-157210000D02*
X81050000Y-155210000D01*
X84050000Y-157210000D02*
X81050000Y-157210000D01*
X84050000Y-159020000D02*
X84050000Y-161020000D01*
X81050000Y-159020000D02*
X84050000Y-159020000D01*
X81050000Y-161020000D02*
X81050000Y-159020000D01*
X84050000Y-161020000D02*
X81050000Y-161020000D01*
X76430000Y-161020000D02*
X73430000Y-161020000D01*
X73430000Y-161020000D02*
X73430000Y-159020000D01*
X73430000Y-159020000D02*
X76430000Y-159020000D01*
X76430000Y-159020000D02*
X76430000Y-161020000D01*
X86090000Y-150090000D02*
X84090000Y-150090000D01*
X86090000Y-147090000D02*
X86090000Y-150090000D01*
X84090000Y-147090000D02*
X86090000Y-147090000D01*
X84090000Y-150090000D02*
X84090000Y-147090000D01*
X81550000Y-140740000D02*
X83550000Y-140740000D01*
X81550000Y-143740000D02*
X81550000Y-140740000D01*
X83550000Y-143740000D02*
X81550000Y-143740000D01*
X83550000Y-140740000D02*
X83550000Y-143740000D01*
X69620000Y-143240000D02*
X69620000Y-141240000D01*
X72620000Y-143240000D02*
X69620000Y-143240000D01*
X72620000Y-141240000D02*
X72620000Y-143240000D01*
X69620000Y-141240000D02*
X72620000Y-141240000D01*
X82859638Y-155828395D02*
X82859638Y-156021919D01*
X83053161Y-155944509D02*
X82859638Y-156021919D01*
X82666114Y-155944509D01*
X82975752Y-156176738D02*
X82859638Y-156021919D01*
X82743523Y-156176738D01*
X82240361Y-155828395D02*
X82240361Y-156021919D01*
X82433885Y-155944509D02*
X82240361Y-156021919D01*
X82046838Y-155944509D01*
X82356476Y-156176738D02*
X82240361Y-156021919D01*
X82124247Y-156176738D01*
X82859638Y-159638395D02*
X82859638Y-159831919D01*
X83053161Y-159754509D02*
X82859638Y-159831919D01*
X82666114Y-159754509D01*
X82975752Y-159986738D02*
X82859638Y-159831919D01*
X82743523Y-159986738D01*
X82240361Y-159638395D02*
X82240361Y-159831919D01*
X82433885Y-159754509D02*
X82240361Y-159831919D01*
X82046838Y-159754509D01*
X82356476Y-159986738D02*
X82240361Y-159831919D01*
X82124247Y-159986738D01*
X75239638Y-159638395D02*
X75239638Y-159831919D01*
X75433161Y-159754509D02*
X75239638Y-159831919D01*
X75046114Y-159754509D01*
X75355752Y-159986738D02*
X75239638Y-159831919D01*
X75123523Y-159986738D01*
X74620361Y-159638395D02*
X74620361Y-159831919D01*
X74813885Y-159754509D02*
X74620361Y-159831919D01*
X74426838Y-159754509D01*
X74736476Y-159986738D02*
X74620361Y-159831919D01*
X74504247Y-159986738D01*
X84581395Y-148280361D02*
X84774919Y-148280361D01*
X84697509Y-148086838D02*
X84774919Y-148280361D01*
X84697509Y-148473885D01*
X84929738Y-148164247D02*
X84774919Y-148280361D01*
X84929738Y-148396476D01*
X84581395Y-148899638D02*
X84774919Y-148899638D01*
X84697509Y-148706114D02*
X84774919Y-148899638D01*
X84697509Y-149093161D01*
X84929738Y-148783523D02*
X84774919Y-148899638D01*
X84929738Y-149015752D01*
X82168395Y-141930361D02*
X82361919Y-141930361D01*
X82284509Y-141736838D02*
X82361919Y-141930361D01*
X82284509Y-142123885D01*
X82516738Y-141814247D02*
X82361919Y-141930361D01*
X82516738Y-142046476D01*
X82168395Y-142549638D02*
X82361919Y-142549638D01*
X82284509Y-142356114D02*
X82361919Y-142549638D01*
X82284509Y-142743161D01*
X82516738Y-142433523D02*
X82361919Y-142549638D01*
X82516738Y-142665752D01*
X71429638Y-141731395D02*
X71429638Y-141924919D01*
X71623161Y-141847509D02*
X71429638Y-141924919D01*
X71236114Y-141847509D01*
X71545752Y-142079738D02*
X71429638Y-141924919D01*
X71313523Y-142079738D01*
X70810361Y-141731395D02*
X70810361Y-141924919D01*
X71003885Y-141847509D02*
X70810361Y-141924919D01*
X70616838Y-141847509D01*
X70926476Y-142079738D02*
X70810361Y-141924919D01*
X70694247Y-142079738D01*
M02*
