G04 #@! TF.GenerationSoftware,KiCad,Pcbnew,(5.1.2)-1*
G04 #@! TF.CreationDate,2019-05-14T15:55:12+09:00*
G04 #@! TF.ProjectId,pcb,7063622e-6b69-4636-9164-5f7063625858,rev?*
G04 #@! TF.SameCoordinates,Original*
G04 #@! TF.FileFunction,Copper,L1,Top*
G04 #@! TF.FilePolarity,Positive*
%FSLAX46Y46*%
G04 Gerber Fmt 4.6, Leading zero omitted, Abs format (unit mm)*
G04 Created by KiCad (PCBNEW (5.1.2)-1) date 2019-05-14 15:55:12*
%MOMM*%
%LPD*%
G04 APERTURE LIST*
%ADD10C,1.524000*%
%ADD11R,1.524000X1.524000*%
%ADD12O,2.500000X2.000000*%
%ADD13O,1.600000X1.600000*%
%ADD14R,1.600000X1.600000*%
%ADD15C,2.000000*%
%ADD16C,1.397000*%
%ADD17R,1.600000X0.850000*%
%ADD18C,0.250000*%
G04 APERTURE END LIST*
D10*
X62230000Y-157460000D03*
X59690000Y-157460000D03*
X57150000Y-157460000D03*
X54610000Y-157460000D03*
X52070000Y-157460000D03*
X49530000Y-157460000D03*
X46990000Y-157460000D03*
X44450000Y-157460000D03*
X41910000Y-157460000D03*
X39370000Y-157460000D03*
X36830000Y-157460000D03*
X34290000Y-157460000D03*
X62230000Y-142220000D03*
X59690000Y-142220000D03*
X57150000Y-142220000D03*
X54610000Y-142220000D03*
X52070000Y-142220000D03*
X49530000Y-142220000D03*
X46990000Y-142220000D03*
X44450000Y-142220000D03*
X41910000Y-142220000D03*
X39370000Y-142220000D03*
X36830000Y-142220000D03*
D11*
X34290000Y-142220000D03*
D12*
X102870000Y-149860000D03*
X96520000Y-152400000D03*
D13*
X69850000Y-146050000D03*
X77470000Y-153670000D03*
X72390000Y-146050000D03*
X74930000Y-153670000D03*
X74930000Y-146050000D03*
X72390000Y-153670000D03*
X77470000Y-146050000D03*
D14*
X69850000Y-153670000D03*
D12*
X52920000Y-170180000D03*
X59270000Y-167640000D03*
X73660000Y-170180000D03*
X80010000Y-167640000D03*
X95250000Y-170180000D03*
X101600000Y-167640000D03*
D15*
X33580000Y-162560000D03*
X40080000Y-162560000D03*
D16*
X80010000Y-156210000D03*
X85090000Y-156210000D03*
X80010000Y-160020000D03*
X85090000Y-160020000D03*
X77470000Y-160020000D03*
X72390000Y-160020000D03*
X85090000Y-146050000D03*
X85090000Y-151130000D03*
X82550000Y-144780000D03*
X82550000Y-139700000D03*
X73660000Y-142240000D03*
X68580000Y-142240000D03*
D17*
X38580000Y-173595000D03*
X38580000Y-171845000D03*
X35080000Y-173595000D03*
X35080000Y-171845000D03*
D18*
X33580000Y-160710000D02*
X36830000Y-157460000D01*
X33580000Y-162560000D02*
X33580000Y-160710000D01*
X33580000Y-162560000D02*
X33580000Y-164540000D01*
X33580000Y-164540000D02*
X31750000Y-166370000D01*
X34705000Y-173595000D02*
X35080000Y-173595000D01*
X31750000Y-170640000D02*
X34705000Y-173595000D01*
X31750000Y-166370000D02*
X31750000Y-170640000D01*
X38955000Y-171845000D02*
X38580000Y-171845000D01*
X41910000Y-168890000D02*
X38955000Y-171845000D01*
X41910000Y-157460000D02*
X41910000Y-168890000D01*
X41910000Y-157460000D02*
X41910000Y-152400000D01*
X41910000Y-152400000D02*
X48260000Y-146050000D01*
X48260000Y-141881238D02*
X50441238Y-139700000D01*
X48260000Y-146050000D02*
X48260000Y-141881238D01*
X66040000Y-139700000D02*
X68580000Y-142240000D01*
X50441238Y-139700000D02*
X66040000Y-139700000D01*
X69850000Y-143510000D02*
X68580000Y-142240000D01*
X69850000Y-146050000D02*
X69850000Y-143510000D01*
X34290000Y-142220000D02*
X34290000Y-153670000D01*
X34290000Y-153670000D02*
X30480000Y-157480000D01*
X30480000Y-157480000D02*
X30480000Y-176530000D01*
X30480000Y-176530000D02*
X31750000Y-177800000D01*
X31750000Y-177800000D02*
X38100000Y-177800000D01*
X38100000Y-177800000D02*
X39370000Y-176530000D01*
X39370000Y-176530000D02*
X39370000Y-173990000D01*
X80010000Y-142240000D02*
X82550000Y-139700000D01*
X73660000Y-142240000D02*
X80010000Y-142240000D01*
X85090000Y-145062172D02*
X85090000Y-146050000D01*
X82267828Y-142240000D02*
X85090000Y-145062172D01*
X80010000Y-142240000D02*
X82267828Y-142240000D01*
X73660000Y-152400000D02*
X74930000Y-153670000D01*
X73660000Y-142240000D02*
X73660000Y-152400000D01*
X63480000Y-153670000D02*
X59690000Y-157460000D01*
X69850000Y-153670000D02*
X63480000Y-153670000D01*
X85090000Y-151130000D02*
X85090000Y-156210000D01*
X87630000Y-156210000D02*
X85090000Y-156210000D01*
X69850000Y-161290000D02*
X71120000Y-162560000D01*
X69850000Y-153670000D02*
X69850000Y-161290000D01*
X71120000Y-162560000D02*
X87630000Y-162560000D01*
X87630000Y-162560000D02*
X88900000Y-161290000D01*
X88900000Y-161290000D02*
X88900000Y-157480000D01*
X88900000Y-157480000D02*
X87630000Y-156210000D01*
X76200000Y-157480000D02*
X72390000Y-157480000D01*
X72390000Y-157480000D02*
X72390000Y-160020000D01*
X72390000Y-153670000D02*
X72390000Y-157480000D01*
X96520000Y-152400000D02*
X92710000Y-152400000D01*
X92710000Y-152400000D02*
X88900000Y-148590000D01*
X88900000Y-148590000D02*
X85090000Y-148590000D01*
X85090000Y-148590000D02*
X76200000Y-157480000D01*
X80010000Y-160020000D02*
X77470000Y-160020000D01*
X83820000Y-160020000D02*
X80010000Y-156210000D01*
X85090000Y-160020000D02*
X83820000Y-160020000D01*
X40080000Y-158170000D02*
X39370000Y-157460000D01*
X40080000Y-162560000D02*
X40080000Y-158170000D01*
X101350000Y-167640000D02*
X101600000Y-167640000D01*
X97540000Y-163830000D02*
X101350000Y-167640000D01*
X58420000Y-146030000D02*
X58420000Y-157798762D01*
X58420000Y-157798762D02*
X61911238Y-161290000D01*
X61911238Y-161290000D02*
X63500000Y-161290000D01*
X62230000Y-142220000D02*
X58420000Y-146030000D01*
X63500000Y-161290000D02*
X66040000Y-163830000D01*
X66040000Y-163830000D02*
X97540000Y-163830000D01*
X59690000Y-142220000D02*
X55880000Y-146030000D01*
X78510000Y-167640000D02*
X80010000Y-167640000D01*
X65721238Y-167640000D02*
X78510000Y-167640000D01*
X55880000Y-157798762D02*
X65721238Y-167640000D01*
X55880000Y-146030000D02*
X55880000Y-157798762D01*
X59270000Y-166390000D02*
X59270000Y-167640000D01*
X53522999Y-160642999D02*
X59270000Y-166390000D01*
X53522999Y-145847001D02*
X53522999Y-160642999D01*
X57150000Y-142220000D02*
X53522999Y-145847001D01*
M02*
