G04 #@! TF.GenerationSoftware,KiCad,Pcbnew,(5.1.2)-1*
G04 #@! TF.CreationDate,2019-05-14T15:55:12+09:00*
G04 #@! TF.ProjectId,pcb,7063622e-6b69-4636-9164-5f7063625858,rev?*
G04 #@! TF.SameCoordinates,Original*
G04 #@! TF.FileFunction,Legend,Top*
G04 #@! TF.FilePolarity,Positive*
%FSLAX46Y46*%
G04 Gerber Fmt 4.6, Leading zero omitted, Abs format (unit mm)*
G04 Created by KiCad (PCBNEW (5.1.2)-1) date 2019-05-14 15:55:12*
%MOMM*%
%LPD*%
G04 APERTURE LIST*
%ADD10C,0.300000*%
%ADD11C,0.150000*%
%ADD12C,0.120000*%
G04 APERTURE END LIST*
D10*
X95287142Y-185312857D02*
X95501428Y-185384285D01*
X95572857Y-185455714D01*
X95644285Y-185598571D01*
X95644285Y-185812857D01*
X95572857Y-185955714D01*
X95501428Y-186027142D01*
X95358571Y-186098571D01*
X94787142Y-186098571D01*
X94787142Y-184598571D01*
X95287142Y-184598571D01*
X95430000Y-184670000D01*
X95501428Y-184741428D01*
X95572857Y-184884285D01*
X95572857Y-185027142D01*
X95501428Y-185170000D01*
X95430000Y-185241428D01*
X95287142Y-185312857D01*
X94787142Y-185312857D01*
X96144285Y-185098571D02*
X96501428Y-186098571D01*
X96858571Y-185098571D02*
X96501428Y-186098571D01*
X96358571Y-186455714D01*
X96287142Y-186527142D01*
X96144285Y-186598571D01*
X99215714Y-185098571D02*
X99215714Y-186312857D01*
X99144285Y-186455714D01*
X99072857Y-186527142D01*
X98930000Y-186598571D01*
X98715714Y-186598571D01*
X98572857Y-186527142D01*
X99215714Y-186027142D02*
X99072857Y-186098571D01*
X98787142Y-186098571D01*
X98644285Y-186027142D01*
X98572857Y-185955714D01*
X98501428Y-185812857D01*
X98501428Y-185384285D01*
X98572857Y-185241428D01*
X98644285Y-185170000D01*
X98787142Y-185098571D01*
X99072857Y-185098571D01*
X99215714Y-185170000D01*
X99930000Y-186098571D02*
X99930000Y-185098571D01*
X99930000Y-184598571D02*
X99858571Y-184670000D01*
X99930000Y-184741428D01*
X100001428Y-184670000D01*
X99930000Y-184598571D01*
X99930000Y-184741428D01*
X100644285Y-185098571D02*
X100644285Y-186098571D01*
X100644285Y-185241428D02*
X100715714Y-185170000D01*
X100858571Y-185098571D01*
X101072857Y-185098571D01*
X101215714Y-185170000D01*
X101287142Y-185312857D01*
X101287142Y-186098571D01*
X102001428Y-185098571D02*
X102001428Y-186384285D01*
X101930000Y-186527142D01*
X101787142Y-186598571D01*
X101715714Y-186598571D01*
X102001428Y-184598571D02*
X101930000Y-184670000D01*
X102001428Y-184741428D01*
X102072857Y-184670000D01*
X102001428Y-184598571D01*
X102001428Y-184741428D01*
X103358571Y-186098571D02*
X103358571Y-185312857D01*
X103287142Y-185170000D01*
X103144285Y-185098571D01*
X102858571Y-185098571D01*
X102715714Y-185170000D01*
X103358571Y-186027142D02*
X103215714Y-186098571D01*
X102858571Y-186098571D01*
X102715714Y-186027142D01*
X102644285Y-185884285D01*
X102644285Y-185741428D01*
X102715714Y-185598571D01*
X102858571Y-185527142D01*
X103215714Y-185527142D01*
X103358571Y-185455714D01*
X104072857Y-186098571D02*
X104072857Y-184598571D01*
X104215714Y-185527142D02*
X104644285Y-186098571D01*
X104644285Y-185098571D02*
X104072857Y-185670000D01*
X105858571Y-186027142D02*
X105715714Y-186098571D01*
X105430000Y-186098571D01*
X105287142Y-186027142D01*
X105215714Y-185884285D01*
X105215714Y-185312857D01*
X105287142Y-185170000D01*
X105430000Y-185098571D01*
X105715714Y-185098571D01*
X105858571Y-185170000D01*
X105930000Y-185312857D01*
X105930000Y-185455714D01*
X105215714Y-185598571D01*
X107001428Y-186670000D02*
X106930000Y-186598571D01*
X106787142Y-186384285D01*
X106715714Y-186241428D01*
X106644285Y-186027142D01*
X106572857Y-185670000D01*
X106572857Y-185384285D01*
X106644285Y-185027142D01*
X106715714Y-184812857D01*
X106787142Y-184670000D01*
X106930000Y-184455714D01*
X107001428Y-184384285D01*
X108501428Y-185384285D02*
X108430000Y-185312857D01*
X108287142Y-185241428D01*
X108144285Y-185241428D01*
X108001428Y-185312857D01*
X107930000Y-185384285D01*
X107858571Y-185527142D01*
X107858571Y-185670000D01*
X107930000Y-185812857D01*
X108001428Y-185884285D01*
X108144285Y-185955714D01*
X108287142Y-185955714D01*
X108430000Y-185884285D01*
X108501428Y-185812857D01*
X108501428Y-185241428D02*
X108501428Y-185812857D01*
X108572857Y-185884285D01*
X108644285Y-185884285D01*
X108787142Y-185812857D01*
X108858571Y-185670000D01*
X108858571Y-185312857D01*
X108715714Y-185098571D01*
X108501428Y-184955714D01*
X108215714Y-184884285D01*
X107930000Y-184955714D01*
X107715714Y-185098571D01*
X107572857Y-185312857D01*
X107501428Y-185598571D01*
X107572857Y-185884285D01*
X107715714Y-186098571D01*
X107930000Y-186241428D01*
X108215714Y-186312857D01*
X108501428Y-186241428D01*
X108715714Y-186098571D01*
X109430000Y-186027142D02*
X109572857Y-186098571D01*
X109858571Y-186098571D01*
X110001428Y-186027142D01*
X110072857Y-185884285D01*
X110072857Y-185812857D01*
X110001428Y-185670000D01*
X109858571Y-185598571D01*
X109644285Y-185598571D01*
X109501428Y-185527142D01*
X109430000Y-185384285D01*
X109430000Y-185312857D01*
X109501428Y-185170000D01*
X109644285Y-185098571D01*
X109858571Y-185098571D01*
X110001428Y-185170000D01*
X110715714Y-186098571D02*
X110715714Y-185098571D01*
X110715714Y-184598571D02*
X110644285Y-184670000D01*
X110715714Y-184741428D01*
X110787142Y-184670000D01*
X110715714Y-184598571D01*
X110715714Y-184741428D01*
X111430000Y-186098571D02*
X111430000Y-185098571D01*
X111430000Y-185384285D02*
X111501428Y-185241428D01*
X111572857Y-185170000D01*
X111715714Y-185098571D01*
X111858571Y-185098571D01*
X112572857Y-186098571D02*
X112430000Y-186027142D01*
X112358571Y-185955714D01*
X112287142Y-185812857D01*
X112287142Y-185384285D01*
X112358571Y-185241428D01*
X112430000Y-185170000D01*
X112572857Y-185098571D01*
X112787142Y-185098571D01*
X112930000Y-185170000D01*
X113001428Y-185241428D01*
X113072857Y-185384285D01*
X113072857Y-185812857D01*
X113001428Y-185955714D01*
X112930000Y-186027142D01*
X112787142Y-186098571D01*
X112572857Y-186098571D01*
X113715714Y-185098571D02*
X113715714Y-186384285D01*
X113644285Y-186527142D01*
X113501428Y-186598571D01*
X113430000Y-186598571D01*
X113715714Y-184598571D02*
X113644285Y-184670000D01*
X113715714Y-184741428D01*
X113787142Y-184670000D01*
X113715714Y-184598571D01*
X113715714Y-184741428D01*
X115072857Y-186098571D02*
X115072857Y-185312857D01*
X115001428Y-185170000D01*
X114858571Y-185098571D01*
X114572857Y-185098571D01*
X114430000Y-185170000D01*
X115072857Y-186027142D02*
X114930000Y-186098571D01*
X114572857Y-186098571D01*
X114430000Y-186027142D01*
X114358571Y-185884285D01*
X114358571Y-185741428D01*
X114430000Y-185598571D01*
X114572857Y-185527142D01*
X114930000Y-185527142D01*
X115072857Y-185455714D01*
X115787142Y-186098571D02*
X115787142Y-184598571D01*
X115930000Y-185527142D02*
X116358571Y-186098571D01*
X116358571Y-185098571D02*
X115787142Y-185670000D01*
X117572857Y-186027142D02*
X117430000Y-186098571D01*
X117144285Y-186098571D01*
X117001428Y-186027142D01*
X116930000Y-185884285D01*
X116930000Y-185312857D01*
X117001428Y-185170000D01*
X117144285Y-185098571D01*
X117430000Y-185098571D01*
X117572857Y-185170000D01*
X117644285Y-185312857D01*
X117644285Y-185455714D01*
X116930000Y-185598571D01*
X118144285Y-186670000D02*
X118215714Y-186598571D01*
X118358571Y-186384285D01*
X118430000Y-186241428D01*
X118501428Y-186027142D01*
X118572857Y-185670000D01*
X118572857Y-185384285D01*
X118501428Y-185027142D01*
X118430000Y-184812857D01*
X118358571Y-184670000D01*
X118215714Y-184455714D01*
X118144285Y-184384285D01*
D11*
X63500000Y-140950000D02*
X30480000Y-140950000D01*
X63500000Y-158730000D02*
X63500000Y-140950000D01*
X30480000Y-158730000D02*
X63500000Y-158730000D01*
X30480000Y-140950000D02*
X30480000Y-158730000D01*
X105060000Y-140320000D02*
X106060000Y-140320000D01*
X106060000Y-141320000D02*
X106060000Y-140320000D01*
X92060000Y-154320000D02*
X93060000Y-154320000D01*
X92060000Y-153320000D02*
X92060000Y-154320000D01*
X92060000Y-140320000D02*
X92060000Y-141320000D01*
X93060000Y-140320000D02*
X92060000Y-140320000D01*
X106060000Y-154320000D02*
X105060000Y-154320000D01*
X106060000Y-153320000D02*
X106060000Y-154320000D01*
D12*
X68520000Y-147210000D02*
X68520000Y-148860000D01*
X78800000Y-147210000D02*
X68520000Y-147210000D01*
X78800000Y-152510000D02*
X78800000Y-147210000D01*
X68520000Y-152510000D02*
X78800000Y-152510000D01*
X68520000Y-150860000D02*
X68520000Y-152510000D01*
X68520000Y-148860000D02*
G75*
G02X68520000Y-150860000I0J-1000000D01*
G01*
D11*
X50730000Y-179720000D02*
X49730000Y-179720000D01*
X49730000Y-178720000D02*
X49730000Y-179720000D01*
X63730000Y-165720000D02*
X62730000Y-165720000D01*
X63730000Y-166720000D02*
X63730000Y-165720000D01*
X63730000Y-179720000D02*
X63730000Y-178720000D01*
X62730000Y-179720000D02*
X63730000Y-179720000D01*
X49730000Y-165720000D02*
X50730000Y-165720000D01*
X49730000Y-166720000D02*
X49730000Y-165720000D01*
X71470000Y-179720000D02*
X70470000Y-179720000D01*
X70470000Y-178720000D02*
X70470000Y-179720000D01*
X84470000Y-165720000D02*
X83470000Y-165720000D01*
X84470000Y-166720000D02*
X84470000Y-165720000D01*
X84470000Y-179720000D02*
X84470000Y-178720000D01*
X83470000Y-179720000D02*
X84470000Y-179720000D01*
X70470000Y-165720000D02*
X71470000Y-165720000D01*
X70470000Y-166720000D02*
X70470000Y-165720000D01*
X93060000Y-179720000D02*
X92060000Y-179720000D01*
X92060000Y-178720000D02*
X92060000Y-179720000D01*
X106060000Y-165720000D02*
X105060000Y-165720000D01*
X106060000Y-166720000D02*
X106060000Y-165720000D01*
X106060000Y-179720000D02*
X106060000Y-178720000D01*
X105060000Y-179720000D02*
X106060000Y-179720000D01*
X92060000Y-165720000D02*
X93060000Y-165720000D01*
X92060000Y-166720000D02*
X92060000Y-165720000D01*
X33830000Y-161060000D02*
X33830000Y-160810000D01*
X33830000Y-160810000D02*
X39830000Y-160810000D01*
X39830000Y-160810000D02*
X39830000Y-161060000D01*
X39830000Y-164060000D02*
X39830000Y-164310000D01*
X39830000Y-164310000D02*
X33830000Y-164310000D01*
X33830000Y-164310000D02*
X33830000Y-164060000D01*
X81048860Y-157210760D02*
X84051140Y-157210760D01*
X81048860Y-155209240D02*
X81048860Y-157210760D01*
X84051140Y-155209240D02*
X81048860Y-155209240D01*
X84051140Y-157210760D02*
X84051140Y-155209240D01*
X81048860Y-161020760D02*
X84051140Y-161020760D01*
X81048860Y-159019240D02*
X81048860Y-161020760D01*
X84051140Y-159019240D02*
X81048860Y-159019240D01*
X84051140Y-161020760D02*
X84051140Y-159019240D01*
X76431140Y-161020760D02*
X76431140Y-159019240D01*
X76431140Y-159019240D02*
X73428860Y-159019240D01*
X73428860Y-159019240D02*
X73428860Y-161020760D01*
X73428860Y-161020760D02*
X76431140Y-161020760D01*
X84089240Y-147088860D02*
X84089240Y-150091140D01*
X86090760Y-147088860D02*
X84089240Y-147088860D01*
X86090760Y-150091140D02*
X86090760Y-147088860D01*
X84089240Y-150091140D02*
X86090760Y-150091140D01*
X83550760Y-143741140D02*
X83550760Y-140738860D01*
X81549240Y-143741140D02*
X83550760Y-143741140D01*
X81549240Y-140738860D02*
X81549240Y-143741140D01*
X83550760Y-140738860D02*
X81549240Y-140738860D01*
X72621140Y-141239240D02*
X69618860Y-141239240D01*
X72621140Y-143240760D02*
X72621140Y-141239240D01*
X69618860Y-143240760D02*
X72621140Y-143240760D01*
X69618860Y-141239240D02*
X69618860Y-143240760D01*
D12*
X33880000Y-170770000D02*
X39780000Y-170770000D01*
X33880000Y-174670000D02*
X39780000Y-174670000D01*
X39780000Y-174670000D02*
X39780000Y-173595000D01*
D11*
X32065980Y-143083504D02*
X32065980Y-142512076D01*
X33065980Y-142797790D02*
X32065980Y-142797790D01*
X32065980Y-142273980D02*
X33065980Y-141607314D01*
X32065980Y-141607314D02*
X33065980Y-142273980D01*
X66972380Y-150621904D02*
X67781904Y-150621904D01*
X67877142Y-150574285D01*
X67924761Y-150526666D01*
X67972380Y-150431428D01*
X67972380Y-150240952D01*
X67924761Y-150145714D01*
X67877142Y-150098095D01*
X67781904Y-150050476D01*
X66972380Y-150050476D01*
X67972380Y-149050476D02*
X67972380Y-149621904D01*
X67972380Y-149336190D02*
X66972380Y-149336190D01*
X67115238Y-149431428D01*
X67210476Y-149526666D01*
X67258095Y-149621904D01*
X82364533Y-156657695D02*
X82093600Y-156270647D01*
X81900076Y-156657695D02*
X81900076Y-155844895D01*
X82209714Y-155844895D01*
X82287123Y-155883600D01*
X82325828Y-155922304D01*
X82364533Y-155999714D01*
X82364533Y-156115828D01*
X82325828Y-156193238D01*
X82287123Y-156231942D01*
X82209714Y-156270647D01*
X81900076Y-156270647D01*
X83061219Y-155844895D02*
X82906400Y-155844895D01*
X82828990Y-155883600D01*
X82790285Y-155922304D01*
X82712876Y-156038419D01*
X82674171Y-156193238D01*
X82674171Y-156502876D01*
X82712876Y-156580285D01*
X82751580Y-156618990D01*
X82828990Y-156657695D01*
X82983809Y-156657695D01*
X83061219Y-156618990D01*
X83099923Y-156580285D01*
X83138628Y-156502876D01*
X83138628Y-156309352D01*
X83099923Y-156231942D01*
X83061219Y-156193238D01*
X82983809Y-156154533D01*
X82828990Y-156154533D01*
X82751580Y-156193238D01*
X82712876Y-156231942D01*
X82674171Y-156309352D01*
X82364533Y-160467695D02*
X82093600Y-160080647D01*
X81900076Y-160467695D02*
X81900076Y-159654895D01*
X82209714Y-159654895D01*
X82287123Y-159693600D01*
X82325828Y-159732304D01*
X82364533Y-159809714D01*
X82364533Y-159925828D01*
X82325828Y-160003238D01*
X82287123Y-160041942D01*
X82209714Y-160080647D01*
X81900076Y-160080647D01*
X83099923Y-159654895D02*
X82712876Y-159654895D01*
X82674171Y-160041942D01*
X82712876Y-160003238D01*
X82790285Y-159964533D01*
X82983809Y-159964533D01*
X83061219Y-160003238D01*
X83099923Y-160041942D01*
X83138628Y-160119352D01*
X83138628Y-160312876D01*
X83099923Y-160390285D01*
X83061219Y-160428990D01*
X82983809Y-160467695D01*
X82790285Y-160467695D01*
X82712876Y-160428990D01*
X82674171Y-160390285D01*
X74744533Y-160467695D02*
X74473600Y-160080647D01*
X74280076Y-160467695D02*
X74280076Y-159654895D01*
X74589714Y-159654895D01*
X74667123Y-159693600D01*
X74705828Y-159732304D01*
X74744533Y-159809714D01*
X74744533Y-159925828D01*
X74705828Y-160003238D01*
X74667123Y-160041942D01*
X74589714Y-160080647D01*
X74280076Y-160080647D01*
X75441219Y-159925828D02*
X75441219Y-160467695D01*
X75247695Y-159616190D02*
X75054171Y-160196761D01*
X75557333Y-160196761D01*
X85377695Y-148675466D02*
X84990647Y-148946400D01*
X85377695Y-149139923D02*
X84564895Y-149139923D01*
X84564895Y-148830285D01*
X84603600Y-148752876D01*
X84642304Y-148714171D01*
X84719714Y-148675466D01*
X84835828Y-148675466D01*
X84913238Y-148714171D01*
X84951942Y-148752876D01*
X84990647Y-148830285D01*
X84990647Y-149139923D01*
X84564895Y-148404533D02*
X84564895Y-147901371D01*
X84874533Y-148172304D01*
X84874533Y-148056190D01*
X84913238Y-147978780D01*
X84951942Y-147940076D01*
X85029352Y-147901371D01*
X85222876Y-147901371D01*
X85300285Y-147940076D01*
X85338990Y-147978780D01*
X85377695Y-148056190D01*
X85377695Y-148288419D01*
X85338990Y-148365828D01*
X85300285Y-148404533D01*
X82997695Y-142425466D02*
X82610647Y-142696400D01*
X82997695Y-142889923D02*
X82184895Y-142889923D01*
X82184895Y-142580285D01*
X82223600Y-142502876D01*
X82262304Y-142464171D01*
X82339714Y-142425466D01*
X82455828Y-142425466D01*
X82533238Y-142464171D01*
X82571942Y-142502876D01*
X82610647Y-142580285D01*
X82610647Y-142889923D01*
X82262304Y-142115828D02*
X82223600Y-142077123D01*
X82184895Y-141999714D01*
X82184895Y-141806190D01*
X82223600Y-141728780D01*
X82262304Y-141690076D01*
X82339714Y-141651371D01*
X82417123Y-141651371D01*
X82533238Y-141690076D01*
X82997695Y-142154533D01*
X82997695Y-141651371D01*
X71034533Y-142527695D02*
X70763600Y-142140647D01*
X70570076Y-142527695D02*
X70570076Y-141714895D01*
X70879714Y-141714895D01*
X70957123Y-141753600D01*
X70995828Y-141792304D01*
X71034533Y-141869714D01*
X71034533Y-141985828D01*
X70995828Y-142063238D01*
X70957123Y-142101942D01*
X70879714Y-142140647D01*
X70570076Y-142140647D01*
X71808628Y-142527695D02*
X71344171Y-142527695D01*
X71576400Y-142527695D02*
X71576400Y-141714895D01*
X71498990Y-141831009D01*
X71421580Y-141908419D01*
X71344171Y-141947123D01*
X36091904Y-170422380D02*
X36091904Y-169422380D01*
X36330000Y-169422380D01*
X36472857Y-169470000D01*
X36568095Y-169565238D01*
X36615714Y-169660476D01*
X36663333Y-169850952D01*
X36663333Y-169993809D01*
X36615714Y-170184285D01*
X36568095Y-170279523D01*
X36472857Y-170374761D01*
X36330000Y-170422380D01*
X36091904Y-170422380D01*
X37615714Y-170422380D02*
X37044285Y-170422380D01*
X37330000Y-170422380D02*
X37330000Y-169422380D01*
X37234761Y-169565238D01*
X37139523Y-169660476D01*
X37044285Y-169708095D01*
X33615714Y-172297380D02*
X33044285Y-172297380D01*
X33330000Y-172297380D02*
X33330000Y-171297380D01*
X33234761Y-171440238D01*
X33139523Y-171535476D01*
X33044285Y-171583095D01*
M02*
