M48
; DRILL file {KiCad (5.1.2)-1} date 2022/03/23 5:24:51
; FORMAT={-:-/ absolute / inch / decimal}
; #@! TF.CreationDate,2022-03-23T05:24:51+09:00
; #@! TF.GenerationSoftware,Kicad,Pcbnew,(5.1.2)-1
; #@! TF.FileFunction,Plated,1,2,PTH
FMAT,2
INCH
T1C0.0315
T2C0.0320
T3C0.0512
%
G90
G05
T2
X2.55Y-5.45
X2.55Y-5.65
X1.3Y-5.5
X1.3Y-5.6
X1.3Y-5.7
X1.3Y-5.8
X1.3Y-5.9
X1.3Y-6.0
X1.3Y-6.1
X1.3Y-6.2
X1.3Y-6.3
X1.3Y-6.4
X1.3Y-6.5
X1.3Y-6.6
X1.9Y-5.5
X1.9Y-5.6
X1.9Y-5.7
X1.9Y-5.8
X1.9Y-5.9
X1.9Y-6.0
X1.9Y-6.1
X1.9Y-6.2
X1.9Y-6.3
X1.9Y-6.4
X1.9Y-6.5
X1.9Y-6.6
X3.3Y-5.45
X3.3Y-5.65
X3.15Y-5.45
X3.15Y-5.65
X2.85Y-5.45
X2.85Y-5.65
X2.4Y-5.45
X2.4Y-5.65
X2.7Y-5.45
X2.7Y-5.65
X3.0Y-5.45
X3.0Y-5.65
T3
X2.15Y-5.422
X2.15Y-5.678
T1
G00X2.9421Y-6.95
M15
G01X2.9579Y-6.95
M16
G05
G00X3.1921Y-6.85
M15
G01X3.2079Y-6.85
M16
G05
G00X2.9421Y-6.1
M15
G01X2.9579Y-6.1
M16
G05
G00X3.1921Y-6.0
M15
G01X3.2079Y-6.0
M16
G05
G00X2.1921Y-6.95
M15
G01X2.2079Y-6.95
M16
G05
G00X2.4421Y-6.85
M15
G01X2.4579Y-6.85
M16
G05
G00X2.1921Y-6.1
M15
G01X2.2079Y-6.1
M16
G05
G00X2.4421Y-6.0
M15
G01X2.4579Y-6.0
M16
G05
G00X1.4421Y-6.95
M15
G01X1.4579Y-6.95
M16
G05
G00X1.6921Y-6.85
M15
G01X1.7079Y-6.85
M16
G05
T0
M30
