G04 #@! TF.GenerationSoftware,KiCad,Pcbnew,(5.1.2)-1*
G04 #@! TF.CreationDate,2022-03-23T05:24:54+09:00*
G04 #@! TF.ProjectId,pcb,7063622e-6b69-4636-9164-5f7063625858,rev?*
G04 #@! TF.SameCoordinates,Original*
G04 #@! TF.FileFunction,Soldermask,Top*
G04 #@! TF.FilePolarity,Negative*
%FSLAX46Y46*%
G04 Gerber Fmt 4.6, Leading zero omitted, Abs format (unit mm)*
G04 Created by KiCad (PCBNEW (5.1.2)-1) date 2022-03-23 05:24:54*
%MOMM*%
%LPD*%
G04 APERTURE LIST*
%ADD10C,0.010000*%
%ADD11C,0.100000*%
G04 APERTURE END LIST*
D10*
G36*
X108360276Y-141495667D02*
G01*
X108349104Y-141543549D01*
X108348901Y-141872544D01*
X108475039Y-142221640D01*
X108705231Y-142529802D01*
X108711464Y-142535819D01*
X108870295Y-142703133D01*
X108959171Y-142826148D01*
X108966000Y-142848507D01*
X108897375Y-142912621D01*
X108725256Y-142914998D01*
X108500275Y-142864033D01*
X108273068Y-142768121D01*
X108195354Y-142720733D01*
X108012848Y-142576364D01*
X107934258Y-142429438D01*
X107923174Y-142203661D01*
X107925250Y-142154740D01*
X107979454Y-141842768D01*
X108128037Y-141609358D01*
X108168798Y-141568173D01*
X108315638Y-141431475D01*
X108369808Y-141408625D01*
X108360276Y-141495667D01*
X108360276Y-141495667D01*
G37*
X108360276Y-141495667D02*
X108349104Y-141543549D01*
X108348901Y-141872544D01*
X108475039Y-142221640D01*
X108705231Y-142529802D01*
X108711464Y-142535819D01*
X108870295Y-142703133D01*
X108959171Y-142826148D01*
X108966000Y-142848507D01*
X108897375Y-142912621D01*
X108725256Y-142914998D01*
X108500275Y-142864033D01*
X108273068Y-142768121D01*
X108195354Y-142720733D01*
X108012848Y-142576364D01*
X107934258Y-142429438D01*
X107923174Y-142203661D01*
X107925250Y-142154740D01*
X107979454Y-141842768D01*
X108128037Y-141609358D01*
X108168798Y-141568173D01*
X108315638Y-141431475D01*
X108369808Y-141408625D01*
X108360276Y-141495667D01*
G36*
X96987806Y-142272469D02*
G01*
X96922635Y-142464740D01*
X96867154Y-142601198D01*
X96750199Y-142930723D01*
X96660283Y-143281897D01*
X96643746Y-143375181D01*
X96596532Y-143604605D01*
X96543098Y-143744234D01*
X96519386Y-143764000D01*
X96495397Y-143690733D01*
X96511848Y-143505871D01*
X96531135Y-143404166D01*
X96595999Y-143157804D01*
X96687602Y-142873668D01*
X96790022Y-142593338D01*
X96887339Y-142358396D01*
X96963630Y-142210423D01*
X96998862Y-142182640D01*
X96987806Y-142272469D01*
X96987806Y-142272469D01*
G37*
X96987806Y-142272469D02*
X96922635Y-142464740D01*
X96867154Y-142601198D01*
X96750199Y-142930723D01*
X96660283Y-143281897D01*
X96643746Y-143375181D01*
X96596532Y-143604605D01*
X96543098Y-143744234D01*
X96519386Y-143764000D01*
X96495397Y-143690733D01*
X96511848Y-143505871D01*
X96531135Y-143404166D01*
X96595999Y-143157804D01*
X96687602Y-142873668D01*
X96790022Y-142593338D01*
X96887339Y-142358396D01*
X96963630Y-142210423D01*
X96998862Y-142182640D01*
X96987806Y-142272469D01*
G36*
X96576073Y-144335500D02*
G01*
X96587255Y-144508842D01*
X96576073Y-144547166D01*
X96545170Y-144557802D01*
X96533368Y-144441333D01*
X96546673Y-144321137D01*
X96576073Y-144335500D01*
X96576073Y-144335500D01*
G37*
X96576073Y-144335500D02*
X96587255Y-144508842D01*
X96576073Y-144547166D01*
X96545170Y-144557802D01*
X96533368Y-144441333D01*
X96546673Y-144321137D01*
X96576073Y-144335500D01*
G36*
X117072774Y-144681849D02*
G01*
X117139353Y-144846038D01*
X117176275Y-145029192D01*
X117177510Y-145055166D01*
X117119833Y-145110126D01*
X117025675Y-145118346D01*
X117003499Y-145097500D01*
X116970665Y-144905618D01*
X116967274Y-144722132D01*
X116993079Y-144616710D01*
X117005234Y-144610666D01*
X117072774Y-144681849D01*
X117072774Y-144681849D01*
G37*
X117072774Y-144681849D02*
X117139353Y-144846038D01*
X117176275Y-145029192D01*
X117177510Y-145055166D01*
X117119833Y-145110126D01*
X117025675Y-145118346D01*
X117003499Y-145097500D01*
X116970665Y-144905618D01*
X116967274Y-144722132D01*
X116993079Y-144616710D01*
X117005234Y-144610666D01*
X117072774Y-144681849D01*
G36*
X119634000Y-143256000D02*
G01*
X119633323Y-143891861D01*
X119631409Y-144469016D01*
X119628429Y-144966849D01*
X119624556Y-145364743D01*
X119619961Y-145642082D01*
X119614818Y-145778250D01*
X119612833Y-145788733D01*
X119531731Y-145751460D01*
X119339762Y-145660854D01*
X119083666Y-145539001D01*
X118746351Y-145398906D01*
X118400022Y-145287669D01*
X118184341Y-145240464D01*
X117934994Y-145196034D01*
X117757560Y-145148614D01*
X117718674Y-145130363D01*
X117660251Y-145030352D01*
X117567106Y-144808771D01*
X117455443Y-144505546D01*
X117404659Y-144356666D01*
X117171609Y-143751761D01*
X116878204Y-143135070D01*
X116549255Y-142550652D01*
X116209576Y-142042562D01*
X115883980Y-141654859D01*
X115881730Y-141652593D01*
X115662508Y-141441466D01*
X115486052Y-141288417D01*
X115388186Y-141224355D01*
X115384955Y-141224000D01*
X115281101Y-141177967D01*
X115093266Y-141060360D01*
X114963896Y-140970000D01*
X114613260Y-140716000D01*
X119634000Y-140716000D01*
X119634000Y-143256000D01*
X119634000Y-143256000D01*
G37*
X119634000Y-143256000D02*
X119633323Y-143891861D01*
X119631409Y-144469016D01*
X119628429Y-144966849D01*
X119624556Y-145364743D01*
X119619961Y-145642082D01*
X119614818Y-145778250D01*
X119612833Y-145788733D01*
X119531731Y-145751460D01*
X119339762Y-145660854D01*
X119083666Y-145539001D01*
X118746351Y-145398906D01*
X118400022Y-145287669D01*
X118184341Y-145240464D01*
X117934994Y-145196034D01*
X117757560Y-145148614D01*
X117718674Y-145130363D01*
X117660251Y-145030352D01*
X117567106Y-144808771D01*
X117455443Y-144505546D01*
X117404659Y-144356666D01*
X117171609Y-143751761D01*
X116878204Y-143135070D01*
X116549255Y-142550652D01*
X116209576Y-142042562D01*
X115883980Y-141654859D01*
X115881730Y-141652593D01*
X115662508Y-141441466D01*
X115486052Y-141288417D01*
X115388186Y-141224355D01*
X115384955Y-141224000D01*
X115281101Y-141177967D01*
X115093266Y-141060360D01*
X114963896Y-140970000D01*
X114613260Y-140716000D01*
X119634000Y-140716000D01*
X119634000Y-143256000D01*
G36*
X107493389Y-140893336D02*
G01*
X107229119Y-141187587D01*
X107031196Y-141570789D01*
X106937073Y-141966056D01*
X106934000Y-142041576D01*
X107012964Y-142448513D01*
X107248175Y-142794253D01*
X107637113Y-143076471D01*
X108177254Y-143292845D01*
X108340701Y-143337665D01*
X108607641Y-143378354D01*
X108875759Y-143377879D01*
X109094144Y-143341460D01*
X109211890Y-143274315D01*
X109220000Y-143247533D01*
X109148823Y-143210822D01*
X108979059Y-143223754D01*
X108735615Y-143214352D01*
X108419885Y-143128097D01*
X108095112Y-142989648D01*
X107824543Y-142823666D01*
X107727136Y-142735628D01*
X107681947Y-142665668D01*
X107750345Y-142674123D01*
X107945144Y-142764586D01*
X108080933Y-142834836D01*
X108426742Y-142995559D01*
X108692792Y-143063478D01*
X108881333Y-143060896D01*
X109194115Y-143078062D01*
X109576518Y-143212340D01*
X109629624Y-143237101D01*
X110139315Y-143405588D01*
X110655388Y-143444089D01*
X111147278Y-143361778D01*
X111584418Y-143167833D01*
X111936243Y-142871428D01*
X112172186Y-142481739D01*
X112175597Y-142472833D01*
X112211767Y-142157582D01*
X112096950Y-141865285D01*
X111979676Y-141738647D01*
X111785555Y-141664343D01*
X111524900Y-141669388D01*
X111249020Y-141737814D01*
X111009224Y-141853649D01*
X110856819Y-142000922D01*
X110828666Y-142096911D01*
X110879955Y-142112005D01*
X110991700Y-142034034D01*
X111168705Y-141931300D01*
X111300125Y-141915078D01*
X111492078Y-142015653D01*
X111567673Y-142195253D01*
X111536944Y-142420210D01*
X111409920Y-142656855D01*
X111196635Y-142871520D01*
X110976162Y-143002348D01*
X110711532Y-143095417D01*
X110553371Y-143094489D01*
X110536664Y-143082531D01*
X110395279Y-143019672D01*
X110247671Y-143002000D01*
X109954506Y-142934895D01*
X109633812Y-142759470D01*
X109341848Y-142514556D01*
X109134871Y-142238984D01*
X109130767Y-142231051D01*
X108995167Y-141840360D01*
X108977440Y-141463091D01*
X109073906Y-141140255D01*
X109247037Y-140936186D01*
X109358889Y-140865087D01*
X109493156Y-140814303D01*
X109680914Y-140779485D01*
X109953243Y-140756280D01*
X110341219Y-140740337D01*
X110713864Y-140730816D01*
X111206909Y-140722029D01*
X111565722Y-140723516D01*
X111825265Y-140738611D01*
X112020496Y-140770651D01*
X112186377Y-140822972D01*
X112328214Y-140884848D01*
X112966199Y-141262338D01*
X113564388Y-141762138D01*
X114083136Y-142344327D01*
X114482798Y-142968987D01*
X114563086Y-143135153D01*
X114655637Y-143437268D01*
X114644853Y-143738811D01*
X114523152Y-144078898D01*
X114306333Y-144460043D01*
X113867135Y-144996589D01*
X113293574Y-145441225D01*
X112596227Y-145789600D01*
X111785669Y-146037360D01*
X110872479Y-146180153D01*
X110039964Y-146215820D01*
X109530908Y-146204078D01*
X109105591Y-146165910D01*
X108684492Y-146090475D01*
X108188087Y-145966934D01*
X108161666Y-145959788D01*
X107699564Y-145838375D01*
X107213934Y-145717139D01*
X106776406Y-145613698D01*
X106565747Y-145567286D01*
X106250538Y-145490406D01*
X106005842Y-145411024D01*
X105874181Y-145343535D01*
X105863697Y-145329673D01*
X105883934Y-145220219D01*
X105965974Y-144990543D01*
X106097252Y-144672555D01*
X106265206Y-144298161D01*
X106294955Y-144234489D01*
X106763678Y-143236936D01*
X106573672Y-143012596D01*
X106363507Y-142786376D01*
X106098997Y-142531362D01*
X105824807Y-142287575D01*
X105585599Y-142095038D01*
X105448405Y-142004265D01*
X105096161Y-141839483D01*
X104644022Y-141654979D01*
X104144435Y-141469519D01*
X103649846Y-141301872D01*
X103212704Y-141170803D01*
X102929509Y-141102940D01*
X102526089Y-141043081D01*
X102036710Y-140995612D01*
X101531910Y-140965299D01*
X101082226Y-140956909D01*
X100873639Y-140964019D01*
X100776005Y-141049289D01*
X100645459Y-141285462D01*
X100487977Y-141658635D01*
X100309535Y-142154904D01*
X100152315Y-142642166D01*
X100038521Y-142995494D01*
X99938398Y-143279450D01*
X99864222Y-143460804D01*
X99831837Y-143509683D01*
X99667748Y-143449619D01*
X99454879Y-143301009D01*
X99248349Y-143109017D01*
X99103279Y-142918807D01*
X99097492Y-142907972D01*
X99012197Y-142567689D01*
X99056907Y-142156971D01*
X99223418Y-141703219D01*
X99503528Y-141233836D01*
X99659427Y-141030900D01*
X99918994Y-140716000D01*
X107718836Y-140716000D01*
X107493389Y-140893336D01*
X107493389Y-140893336D01*
G37*
X107493389Y-140893336D02*
X107229119Y-141187587D01*
X107031196Y-141570789D01*
X106937073Y-141966056D01*
X106934000Y-142041576D01*
X107012964Y-142448513D01*
X107248175Y-142794253D01*
X107637113Y-143076471D01*
X108177254Y-143292845D01*
X108340701Y-143337665D01*
X108607641Y-143378354D01*
X108875759Y-143377879D01*
X109094144Y-143341460D01*
X109211890Y-143274315D01*
X109220000Y-143247533D01*
X109148823Y-143210822D01*
X108979059Y-143223754D01*
X108735615Y-143214352D01*
X108419885Y-143128097D01*
X108095112Y-142989648D01*
X107824543Y-142823666D01*
X107727136Y-142735628D01*
X107681947Y-142665668D01*
X107750345Y-142674123D01*
X107945144Y-142764586D01*
X108080933Y-142834836D01*
X108426742Y-142995559D01*
X108692792Y-143063478D01*
X108881333Y-143060896D01*
X109194115Y-143078062D01*
X109576518Y-143212340D01*
X109629624Y-143237101D01*
X110139315Y-143405588D01*
X110655388Y-143444089D01*
X111147278Y-143361778D01*
X111584418Y-143167833D01*
X111936243Y-142871428D01*
X112172186Y-142481739D01*
X112175597Y-142472833D01*
X112211767Y-142157582D01*
X112096950Y-141865285D01*
X111979676Y-141738647D01*
X111785555Y-141664343D01*
X111524900Y-141669388D01*
X111249020Y-141737814D01*
X111009224Y-141853649D01*
X110856819Y-142000922D01*
X110828666Y-142096911D01*
X110879955Y-142112005D01*
X110991700Y-142034034D01*
X111168705Y-141931300D01*
X111300125Y-141915078D01*
X111492078Y-142015653D01*
X111567673Y-142195253D01*
X111536944Y-142420210D01*
X111409920Y-142656855D01*
X111196635Y-142871520D01*
X110976162Y-143002348D01*
X110711532Y-143095417D01*
X110553371Y-143094489D01*
X110536664Y-143082531D01*
X110395279Y-143019672D01*
X110247671Y-143002000D01*
X109954506Y-142934895D01*
X109633812Y-142759470D01*
X109341848Y-142514556D01*
X109134871Y-142238984D01*
X109130767Y-142231051D01*
X108995167Y-141840360D01*
X108977440Y-141463091D01*
X109073906Y-141140255D01*
X109247037Y-140936186D01*
X109358889Y-140865087D01*
X109493156Y-140814303D01*
X109680914Y-140779485D01*
X109953243Y-140756280D01*
X110341219Y-140740337D01*
X110713864Y-140730816D01*
X111206909Y-140722029D01*
X111565722Y-140723516D01*
X111825265Y-140738611D01*
X112020496Y-140770651D01*
X112186377Y-140822972D01*
X112328214Y-140884848D01*
X112966199Y-141262338D01*
X113564388Y-141762138D01*
X114083136Y-142344327D01*
X114482798Y-142968987D01*
X114563086Y-143135153D01*
X114655637Y-143437268D01*
X114644853Y-143738811D01*
X114523152Y-144078898D01*
X114306333Y-144460043D01*
X113867135Y-144996589D01*
X113293574Y-145441225D01*
X112596227Y-145789600D01*
X111785669Y-146037360D01*
X110872479Y-146180153D01*
X110039964Y-146215820D01*
X109530908Y-146204078D01*
X109105591Y-146165910D01*
X108684492Y-146090475D01*
X108188087Y-145966934D01*
X108161666Y-145959788D01*
X107699564Y-145838375D01*
X107213934Y-145717139D01*
X106776406Y-145613698D01*
X106565747Y-145567286D01*
X106250538Y-145490406D01*
X106005842Y-145411024D01*
X105874181Y-145343535D01*
X105863697Y-145329673D01*
X105883934Y-145220219D01*
X105965974Y-144990543D01*
X106097252Y-144672555D01*
X106265206Y-144298161D01*
X106294955Y-144234489D01*
X106763678Y-143236936D01*
X106573672Y-143012596D01*
X106363507Y-142786376D01*
X106098997Y-142531362D01*
X105824807Y-142287575D01*
X105585599Y-142095038D01*
X105448405Y-142004265D01*
X105096161Y-141839483D01*
X104644022Y-141654979D01*
X104144435Y-141469519D01*
X103649846Y-141301872D01*
X103212704Y-141170803D01*
X102929509Y-141102940D01*
X102526089Y-141043081D01*
X102036710Y-140995612D01*
X101531910Y-140965299D01*
X101082226Y-140956909D01*
X100873639Y-140964019D01*
X100776005Y-141049289D01*
X100645459Y-141285462D01*
X100487977Y-141658635D01*
X100309535Y-142154904D01*
X100152315Y-142642166D01*
X100038521Y-142995494D01*
X99938398Y-143279450D01*
X99864222Y-143460804D01*
X99831837Y-143509683D01*
X99667748Y-143449619D01*
X99454879Y-143301009D01*
X99248349Y-143109017D01*
X99103279Y-142918807D01*
X99097492Y-142907972D01*
X99012197Y-142567689D01*
X99056907Y-142156971D01*
X99223418Y-141703219D01*
X99503528Y-141233836D01*
X99659427Y-141030900D01*
X99918994Y-140716000D01*
X107718836Y-140716000D01*
X107493389Y-140893336D01*
G36*
X93384558Y-147525753D02*
G01*
X93528512Y-147623188D01*
X93715755Y-147816903D01*
X94034113Y-148161746D01*
X93477890Y-148450115D01*
X92829851Y-148751720D01*
X92242467Y-148941669D01*
X91660232Y-149031514D01*
X91027637Y-149032806D01*
X90771628Y-149013333D01*
X90314923Y-148971000D01*
X90827585Y-148569142D01*
X91304636Y-148236668D01*
X91826832Y-147941982D01*
X92345281Y-147708763D01*
X92811092Y-147560689D01*
X92972117Y-147530550D01*
X93221342Y-147503441D01*
X93384558Y-147525753D01*
X93384558Y-147525753D01*
G37*
X93384558Y-147525753D02*
X93528512Y-147623188D01*
X93715755Y-147816903D01*
X94034113Y-148161746D01*
X93477890Y-148450115D01*
X92829851Y-148751720D01*
X92242467Y-148941669D01*
X91660232Y-149031514D01*
X91027637Y-149032806D01*
X90771628Y-149013333D01*
X90314923Y-148971000D01*
X90827585Y-148569142D01*
X91304636Y-148236668D01*
X91826832Y-147941982D01*
X92345281Y-147708763D01*
X92811092Y-147560689D01*
X92972117Y-147530550D01*
X93221342Y-147503441D01*
X93384558Y-147525753D01*
G36*
X93147214Y-140717168D02*
G01*
X93868378Y-140720511D01*
X94517735Y-140725784D01*
X95078198Y-140732743D01*
X95532677Y-140741145D01*
X95864086Y-140750744D01*
X96055334Y-140761298D01*
X96096666Y-140769204D01*
X96042259Y-140850136D01*
X95896371Y-141022885D01*
X95685001Y-141257315D01*
X95559247Y-141392102D01*
X94788351Y-142303286D01*
X94171241Y-143236823D01*
X93711523Y-144184965D01*
X93412808Y-145139963D01*
X93278704Y-146094070D01*
X93271637Y-146304000D01*
X93260333Y-147108333D01*
X92879333Y-147115576D01*
X92299620Y-147189029D01*
X91653786Y-147376042D01*
X90980346Y-147657041D01*
X90317817Y-148012452D01*
X89704714Y-148422700D01*
X89179554Y-148868211D01*
X88949252Y-149112864D01*
X88646000Y-149467146D01*
X88646000Y-140716000D01*
X92371333Y-140716000D01*
X93147214Y-140717168D01*
X93147214Y-140717168D01*
G37*
X93147214Y-140717168D02*
X93868378Y-140720511D01*
X94517735Y-140725784D01*
X95078198Y-140732743D01*
X95532677Y-140741145D01*
X95864086Y-140750744D01*
X96055334Y-140761298D01*
X96096666Y-140769204D01*
X96042259Y-140850136D01*
X95896371Y-141022885D01*
X95685001Y-141257315D01*
X95559247Y-141392102D01*
X94788351Y-142303286D01*
X94171241Y-143236823D01*
X93711523Y-144184965D01*
X93412808Y-145139963D01*
X93278704Y-146094070D01*
X93271637Y-146304000D01*
X93260333Y-147108333D01*
X92879333Y-147115576D01*
X92299620Y-147189029D01*
X91653786Y-147376042D01*
X90980346Y-147657041D01*
X90317817Y-148012452D01*
X89704714Y-148422700D01*
X89179554Y-148868211D01*
X88949252Y-149112864D01*
X88646000Y-149467146D01*
X88646000Y-140716000D01*
X92371333Y-140716000D01*
X93147214Y-140717168D01*
G36*
X119628480Y-150389166D02*
G01*
X119626739Y-150840691D01*
X119612552Y-151141894D01*
X119581346Y-151311607D01*
X119528547Y-151368658D01*
X119449581Y-151331877D01*
X119408665Y-151294132D01*
X119268938Y-151229852D01*
X119044847Y-151190545D01*
X119011111Y-151188298D01*
X118810554Y-151170788D01*
X118706926Y-151147866D01*
X118703046Y-151143070D01*
X118746784Y-151061847D01*
X118854649Y-150900587D01*
X118875673Y-150870841D01*
X118995792Y-150675199D01*
X119152909Y-150383428D01*
X119315576Y-150054283D01*
X119335820Y-150011104D01*
X119622961Y-149394333D01*
X119628480Y-150389166D01*
X119628480Y-150389166D01*
G37*
X119628480Y-150389166D02*
X119626739Y-150840691D01*
X119612552Y-151141894D01*
X119581346Y-151311607D01*
X119528547Y-151368658D01*
X119449581Y-151331877D01*
X119408665Y-151294132D01*
X119268938Y-151229852D01*
X119044847Y-151190545D01*
X119011111Y-151188298D01*
X118810554Y-151170788D01*
X118706926Y-151147866D01*
X118703046Y-151143070D01*
X118746784Y-151061847D01*
X118854649Y-150900587D01*
X118875673Y-150870841D01*
X118995792Y-150675199D01*
X119152909Y-150383428D01*
X119315576Y-150054283D01*
X119335820Y-150011104D01*
X119622961Y-149394333D01*
X119628480Y-150389166D01*
G36*
X117920640Y-152455793D02*
G01*
X118074046Y-152694468D01*
X118191623Y-152995615D01*
X118252013Y-153289956D01*
X118239929Y-153491437D01*
X118073249Y-153750471D01*
X117762641Y-153969647D01*
X117331907Y-154132339D01*
X117316448Y-154136415D01*
X116923243Y-154223582D01*
X116599317Y-154248049D01*
X116265909Y-154209094D01*
X115908666Y-154123546D01*
X115378330Y-153974706D01*
X114967991Y-153846956D01*
X114691330Y-153744998D01*
X114562025Y-153673529D01*
X114554000Y-153658172D01*
X114604532Y-153596492D01*
X114770881Y-153541078D01*
X115075179Y-153485622D01*
X115243860Y-153461558D01*
X115541121Y-153387461D01*
X115934110Y-153242652D01*
X116376286Y-153048247D01*
X116821104Y-152825363D01*
X117222020Y-152595115D01*
X117377206Y-152493698D01*
X117735083Y-152247472D01*
X117920640Y-152455793D01*
X117920640Y-152455793D01*
G37*
X117920640Y-152455793D02*
X118074046Y-152694468D01*
X118191623Y-152995615D01*
X118252013Y-153289956D01*
X118239929Y-153491437D01*
X118073249Y-153750471D01*
X117762641Y-153969647D01*
X117331907Y-154132339D01*
X117316448Y-154136415D01*
X116923243Y-154223582D01*
X116599317Y-154248049D01*
X116265909Y-154209094D01*
X115908666Y-154123546D01*
X115378330Y-153974706D01*
X114967991Y-153846956D01*
X114691330Y-153744998D01*
X114562025Y-153673529D01*
X114554000Y-153658172D01*
X114604532Y-153596492D01*
X114770881Y-153541078D01*
X115075179Y-153485622D01*
X115243860Y-153461558D01*
X115541121Y-153387461D01*
X115934110Y-153242652D01*
X116376286Y-153048247D01*
X116821104Y-152825363D01*
X117222020Y-152595115D01*
X117377206Y-152493698D01*
X117735083Y-152247472D01*
X117920640Y-152455793D01*
G36*
X90463538Y-149171130D02*
G01*
X90658709Y-149202620D01*
X90945428Y-149239839D01*
X91344276Y-149285313D01*
X91875832Y-149341566D01*
X92371333Y-149392082D01*
X92944491Y-149452417D01*
X93368860Y-149504042D01*
X93664515Y-149550858D01*
X93851530Y-149596762D01*
X93949980Y-149645653D01*
X93979939Y-149701429D01*
X93980000Y-149704481D01*
X93944628Y-149812427D01*
X93850567Y-150030140D01*
X93715902Y-150316456D01*
X93669970Y-150410217D01*
X93295459Y-151061034D01*
X92892341Y-151560199D01*
X92466613Y-151901102D01*
X92203273Y-152026764D01*
X91966380Y-152123585D01*
X91812249Y-152208906D01*
X91778666Y-152247392D01*
X91791248Y-152292642D01*
X91847644Y-152306520D01*
X91975835Y-152283598D01*
X92203799Y-152218450D01*
X92559515Y-152105648D01*
X92634761Y-152081324D01*
X93357683Y-151847314D01*
X93224341Y-152187157D01*
X93043934Y-152505060D01*
X92751737Y-152864608D01*
X92386034Y-153229008D01*
X91985107Y-153561468D01*
X91587239Y-153825195D01*
X91440000Y-153902028D01*
X90976554Y-154099495D01*
X90612566Y-154199549D01*
X90314458Y-154209539D01*
X90169451Y-154180189D01*
X89726183Y-153988506D01*
X89322666Y-153696929D01*
X88988759Y-153338687D01*
X88754319Y-152947014D01*
X88649203Y-152555139D01*
X88646316Y-152484955D01*
X88682774Y-152166632D01*
X88783950Y-151775436D01*
X88936666Y-151337378D01*
X89127747Y-150878466D01*
X89344017Y-150424713D01*
X89572299Y-150002127D01*
X89799418Y-149636720D01*
X90012198Y-149354501D01*
X90197462Y-149181480D01*
X90339333Y-149142846D01*
X90463538Y-149171130D01*
X90463538Y-149171130D01*
G37*
X90463538Y-149171130D02*
X90658709Y-149202620D01*
X90945428Y-149239839D01*
X91344276Y-149285313D01*
X91875832Y-149341566D01*
X92371333Y-149392082D01*
X92944491Y-149452417D01*
X93368860Y-149504042D01*
X93664515Y-149550858D01*
X93851530Y-149596762D01*
X93949980Y-149645653D01*
X93979939Y-149701429D01*
X93980000Y-149704481D01*
X93944628Y-149812427D01*
X93850567Y-150030140D01*
X93715902Y-150316456D01*
X93669970Y-150410217D01*
X93295459Y-151061034D01*
X92892341Y-151560199D01*
X92466613Y-151901102D01*
X92203273Y-152026764D01*
X91966380Y-152123585D01*
X91812249Y-152208906D01*
X91778666Y-152247392D01*
X91791248Y-152292642D01*
X91847644Y-152306520D01*
X91975835Y-152283598D01*
X92203799Y-152218450D01*
X92559515Y-152105648D01*
X92634761Y-152081324D01*
X93357683Y-151847314D01*
X93224341Y-152187157D01*
X93043934Y-152505060D01*
X92751737Y-152864608D01*
X92386034Y-153229008D01*
X91985107Y-153561468D01*
X91587239Y-153825195D01*
X91440000Y-153902028D01*
X90976554Y-154099495D01*
X90612566Y-154199549D01*
X90314458Y-154209539D01*
X90169451Y-154180189D01*
X89726183Y-153988506D01*
X89322666Y-153696929D01*
X88988759Y-153338687D01*
X88754319Y-152947014D01*
X88649203Y-152555139D01*
X88646316Y-152484955D01*
X88682774Y-152166632D01*
X88783950Y-151775436D01*
X88936666Y-151337378D01*
X89127747Y-150878466D01*
X89344017Y-150424713D01*
X89572299Y-150002127D01*
X89799418Y-149636720D01*
X90012198Y-149354501D01*
X90197462Y-149181480D01*
X90339333Y-149142846D01*
X90463538Y-149171130D01*
G36*
X119616542Y-152844500D02*
G01*
X119626041Y-153252258D01*
X119624679Y-153710600D01*
X119616542Y-154016037D01*
X119591666Y-154616074D01*
X119386796Y-154397450D01*
X119202731Y-154228226D01*
X118942908Y-154021121D01*
X118744673Y-153877679D01*
X118307421Y-153576532D01*
X118949544Y-152924766D01*
X119591666Y-152273000D01*
X119616542Y-152844500D01*
X119616542Y-152844500D01*
G37*
X119616542Y-152844500D02*
X119626041Y-153252258D01*
X119624679Y-153710600D01*
X119616542Y-154016037D01*
X119591666Y-154616074D01*
X119386796Y-154397450D01*
X119202731Y-154228226D01*
X118942908Y-154021121D01*
X118744673Y-153877679D01*
X118307421Y-153576532D01*
X118949544Y-152924766D01*
X119591666Y-152273000D01*
X119616542Y-152844500D01*
G36*
X95936717Y-155427032D02*
G01*
X95949678Y-155746803D01*
X95955485Y-155989591D01*
X95953350Y-156116037D01*
X95950674Y-156125532D01*
X95905117Y-156058411D01*
X95821617Y-155896799D01*
X95819543Y-155892500D01*
X95758123Y-155707633D01*
X95755516Y-155488803D01*
X95805586Y-155194000D01*
X95903767Y-154728333D01*
X95936717Y-155427032D01*
X95936717Y-155427032D01*
G37*
X95936717Y-155427032D02*
X95949678Y-155746803D01*
X95955485Y-155989591D01*
X95953350Y-156116037D01*
X95950674Y-156125532D01*
X95905117Y-156058411D01*
X95821617Y-155896799D01*
X95819543Y-155892500D01*
X95758123Y-155707633D01*
X95755516Y-155488803D01*
X95805586Y-155194000D01*
X95903767Y-154728333D01*
X95936717Y-155427032D01*
G36*
X119634000Y-155443988D02*
G01*
X119624675Y-155734154D01*
X119584926Y-155908740D01*
X119497084Y-156021016D01*
X119425312Y-156073262D01*
X119169624Y-156164408D01*
X118794132Y-156198077D01*
X118338624Y-156173402D01*
X117919500Y-156106165D01*
X117686323Y-156044095D01*
X117541183Y-155979525D01*
X117517333Y-155950104D01*
X117591278Y-155887314D01*
X117777657Y-155813628D01*
X117877166Y-155785167D01*
X118307273Y-155667167D01*
X118627042Y-155557409D01*
X118892539Y-155432788D01*
X119159835Y-155270202D01*
X119213117Y-155234683D01*
X119634000Y-154951451D01*
X119634000Y-155443988D01*
X119634000Y-155443988D01*
G37*
X119634000Y-155443988D02*
X119624675Y-155734154D01*
X119584926Y-155908740D01*
X119497084Y-156021016D01*
X119425312Y-156073262D01*
X119169624Y-156164408D01*
X118794132Y-156198077D01*
X118338624Y-156173402D01*
X117919500Y-156106165D01*
X117686323Y-156044095D01*
X117541183Y-155979525D01*
X117517333Y-155950104D01*
X117591278Y-155887314D01*
X117777657Y-155813628D01*
X117877166Y-155785167D01*
X118307273Y-155667167D01*
X118627042Y-155557409D01*
X118892539Y-155432788D01*
X119159835Y-155270202D01*
X119213117Y-155234683D01*
X119634000Y-154951451D01*
X119634000Y-155443988D01*
G36*
X99318188Y-157031559D02*
G01*
X99386368Y-157303146D01*
X99467471Y-157531266D01*
X99486510Y-157570604D01*
X99539861Y-157739397D01*
X99465817Y-157872421D01*
X99461108Y-157877177D01*
X99373016Y-157940442D01*
X99320401Y-157881182D01*
X99283509Y-157729716D01*
X99251386Y-157470014D01*
X99237871Y-157155512D01*
X99238609Y-157067250D01*
X99247886Y-156675666D01*
X99318188Y-157031559D01*
X99318188Y-157031559D01*
G37*
X99318188Y-157031559D02*
X99386368Y-157303146D01*
X99467471Y-157531266D01*
X99486510Y-157570604D01*
X99539861Y-157739397D01*
X99465817Y-157872421D01*
X99461108Y-157877177D01*
X99373016Y-157940442D01*
X99320401Y-157881182D01*
X99283509Y-157729716D01*
X99251386Y-157470014D01*
X99237871Y-157155512D01*
X99238609Y-157067250D01*
X99247886Y-156675666D01*
X99318188Y-157031559D01*
G36*
X115739333Y-157521160D02*
G01*
X116699140Y-157714246D01*
X117550822Y-157810023D01*
X118323703Y-157810085D01*
X119047103Y-157716027D01*
X119104833Y-157704250D01*
X119634000Y-157593362D01*
X119634000Y-158637347D01*
X119629181Y-159034907D01*
X119616033Y-159362143D01*
X119596516Y-159586931D01*
X119572591Y-159677151D01*
X119570500Y-159677591D01*
X119462539Y-159639423D01*
X119264700Y-159547589D01*
X119168333Y-159498969D01*
X118982764Y-159399517D01*
X118682067Y-159234194D01*
X118298321Y-159020819D01*
X117863604Y-158777209D01*
X117517333Y-158581938D01*
X117065136Y-158326615D01*
X116639451Y-158086998D01*
X116272394Y-157881111D01*
X115996078Y-157726974D01*
X115866333Y-157655425D01*
X115689773Y-157550055D01*
X115668542Y-157510812D01*
X115739333Y-157521160D01*
X115739333Y-157521160D01*
G37*
X115739333Y-157521160D02*
X116699140Y-157714246D01*
X117550822Y-157810023D01*
X118323703Y-157810085D01*
X119047103Y-157716027D01*
X119104833Y-157704250D01*
X119634000Y-157593362D01*
X119634000Y-158637347D01*
X119629181Y-159034907D01*
X119616033Y-159362143D01*
X119596516Y-159586931D01*
X119572591Y-159677151D01*
X119570500Y-159677591D01*
X119462539Y-159639423D01*
X119264700Y-159547589D01*
X119168333Y-159498969D01*
X118982764Y-159399517D01*
X118682067Y-159234194D01*
X118298321Y-159020819D01*
X117863604Y-158777209D01*
X117517333Y-158581938D01*
X117065136Y-158326615D01*
X116639451Y-158086998D01*
X116272394Y-157881111D01*
X115996078Y-157726974D01*
X115866333Y-157655425D01*
X115689773Y-157550055D01*
X115668542Y-157510812D01*
X115739333Y-157521160D01*
G36*
X94261165Y-155000941D02*
G01*
X94142659Y-155932733D01*
X93893079Y-156904868D01*
X93527634Y-157872395D01*
X93061533Y-158790365D01*
X92876653Y-159092842D01*
X92659143Y-159380463D01*
X92439969Y-159546735D01*
X92300210Y-159602001D01*
X91981608Y-159665756D01*
X91551468Y-159708615D01*
X91066436Y-159729387D01*
X90583158Y-159726880D01*
X90158278Y-159699904D01*
X89870208Y-159653103D01*
X89524317Y-159540680D01*
X89170004Y-159389695D01*
X89065874Y-159336050D01*
X88688333Y-159127877D01*
X88665227Y-157630115D01*
X88642122Y-156132353D01*
X88961560Y-156267401D01*
X89193722Y-156333841D01*
X89533808Y-156393155D01*
X89920433Y-156435396D01*
X90052134Y-156444131D01*
X90474778Y-156458113D01*
X90799481Y-156441398D01*
X91096070Y-156386251D01*
X91406800Y-156294044D01*
X91738946Y-156178612D01*
X92041564Y-156062736D01*
X92242901Y-155974424D01*
X92473903Y-155828383D01*
X92787392Y-155590166D01*
X93148126Y-155289306D01*
X93520861Y-154955334D01*
X93870352Y-154617782D01*
X93909866Y-154577608D01*
X94305400Y-154172883D01*
X94261165Y-155000941D01*
X94261165Y-155000941D01*
G37*
X94261165Y-155000941D02*
X94142659Y-155932733D01*
X93893079Y-156904868D01*
X93527634Y-157872395D01*
X93061533Y-158790365D01*
X92876653Y-159092842D01*
X92659143Y-159380463D01*
X92439969Y-159546735D01*
X92300210Y-159602001D01*
X91981608Y-159665756D01*
X91551468Y-159708615D01*
X91066436Y-159729387D01*
X90583158Y-159726880D01*
X90158278Y-159699904D01*
X89870208Y-159653103D01*
X89524317Y-159540680D01*
X89170004Y-159389695D01*
X89065874Y-159336050D01*
X88688333Y-159127877D01*
X88665227Y-157630115D01*
X88642122Y-156132353D01*
X88961560Y-156267401D01*
X89193722Y-156333841D01*
X89533808Y-156393155D01*
X89920433Y-156435396D01*
X90052134Y-156444131D01*
X90474778Y-156458113D01*
X90799481Y-156441398D01*
X91096070Y-156386251D01*
X91406800Y-156294044D01*
X91738946Y-156178612D01*
X92041564Y-156062736D01*
X92242901Y-155974424D01*
X92473903Y-155828383D01*
X92787392Y-155590166D01*
X93148126Y-155289306D01*
X93520861Y-154955334D01*
X93870352Y-154617782D01*
X93909866Y-154577608D01*
X94305400Y-154172883D01*
X94261165Y-155000941D01*
G36*
X114545687Y-159728759D02*
G01*
X114764968Y-159789776D01*
X115112505Y-159903268D01*
X115573626Y-160064505D01*
X115981674Y-160212630D01*
X116689681Y-160472989D01*
X116320340Y-160658939D01*
X116030192Y-160798244D01*
X115816937Y-160863917D01*
X115638014Y-160845324D01*
X115450864Y-160731833D01*
X115212927Y-160512811D01*
X115040833Y-160339285D01*
X114795986Y-160087135D01*
X114603571Y-159882824D01*
X114489457Y-159754163D01*
X114469333Y-159724949D01*
X114545687Y-159728759D01*
X114545687Y-159728759D01*
G37*
X114545687Y-159728759D02*
X114764968Y-159789776D01*
X115112505Y-159903268D01*
X115573626Y-160064505D01*
X115981674Y-160212630D01*
X116689681Y-160472989D01*
X116320340Y-160658939D01*
X116030192Y-160798244D01*
X115816937Y-160863917D01*
X115638014Y-160845324D01*
X115450864Y-160731833D01*
X115212927Y-160512811D01*
X115040833Y-160339285D01*
X114795986Y-160087135D01*
X114603571Y-159882824D01*
X114489457Y-159754163D01*
X114469333Y-159724949D01*
X114545687Y-159728759D01*
G36*
X97463525Y-160072431D02*
G01*
X97645287Y-160227271D01*
X97712699Y-160290725D01*
X97909185Y-160492723D01*
X97989723Y-160625230D01*
X97972772Y-160721759D01*
X97959704Y-160739219D01*
X97902734Y-160910767D01*
X97916833Y-161035475D01*
X98024093Y-161154770D01*
X98207948Y-161146985D01*
X98436535Y-161015085D01*
X98474000Y-160983652D01*
X98634360Y-160876751D01*
X98711678Y-160913482D01*
X98721333Y-160987778D01*
X98793405Y-161092704D01*
X98911833Y-161135944D01*
X99046146Y-161191099D01*
X99110983Y-161338339D01*
X99128280Y-161474962D01*
X99104743Y-161746859D01*
X98977237Y-161885475D01*
X98744937Y-161891319D01*
X98552000Y-161830136D01*
X98319911Y-161671359D01*
X98061329Y-161388193D01*
X97803418Y-161016857D01*
X97573339Y-160593570D01*
X97498127Y-160424886D01*
X97398724Y-160165749D01*
X97384264Y-160050094D01*
X97463525Y-160072431D01*
X97463525Y-160072431D01*
G37*
X97463525Y-160072431D02*
X97645287Y-160227271D01*
X97712699Y-160290725D01*
X97909185Y-160492723D01*
X97989723Y-160625230D01*
X97972772Y-160721759D01*
X97959704Y-160739219D01*
X97902734Y-160910767D01*
X97916833Y-161035475D01*
X98024093Y-161154770D01*
X98207948Y-161146985D01*
X98436535Y-161015085D01*
X98474000Y-160983652D01*
X98634360Y-160876751D01*
X98711678Y-160913482D01*
X98721333Y-160987778D01*
X98793405Y-161092704D01*
X98911833Y-161135944D01*
X99046146Y-161191099D01*
X99110983Y-161338339D01*
X99128280Y-161474962D01*
X99104743Y-161746859D01*
X98977237Y-161885475D01*
X98744937Y-161891319D01*
X98552000Y-161830136D01*
X98319911Y-161671359D01*
X98061329Y-161388193D01*
X97803418Y-161016857D01*
X97573339Y-160593570D01*
X97498127Y-160424886D01*
X97398724Y-160165749D01*
X97384264Y-160050094D01*
X97463525Y-160072431D01*
G36*
X95887823Y-158995794D02*
G01*
X95927047Y-159193404D01*
X95952615Y-159393831D01*
X96073441Y-159938909D01*
X96311245Y-160513435D01*
X96637352Y-161060490D01*
X97023089Y-161523155D01*
X97027475Y-161527482D01*
X97253308Y-161740693D01*
X97436436Y-161896972D01*
X97541343Y-161966278D01*
X97547492Y-161967333D01*
X97621031Y-162020621D01*
X97587667Y-162155534D01*
X97460912Y-162334642D01*
X97387833Y-162409573D01*
X96902552Y-162762098D01*
X96359260Y-162972491D01*
X95789634Y-163032972D01*
X95234192Y-162938602D01*
X94855572Y-162770582D01*
X94621562Y-162539814D01*
X94514100Y-162218870D01*
X94509960Y-161838892D01*
X94567187Y-161472408D01*
X94672754Y-161062015D01*
X94764449Y-160798529D01*
X94882374Y-160536842D01*
X95043930Y-160218141D01*
X95230001Y-159875464D01*
X95421469Y-159541849D01*
X95599217Y-159250334D01*
X95744130Y-159033959D01*
X95837091Y-158925760D01*
X95851797Y-158919333D01*
X95887823Y-158995794D01*
X95887823Y-158995794D01*
G37*
X95887823Y-158995794D02*
X95927047Y-159193404D01*
X95952615Y-159393831D01*
X96073441Y-159938909D01*
X96311245Y-160513435D01*
X96637352Y-161060490D01*
X97023089Y-161523155D01*
X97027475Y-161527482D01*
X97253308Y-161740693D01*
X97436436Y-161896972D01*
X97541343Y-161966278D01*
X97547492Y-161967333D01*
X97621031Y-162020621D01*
X97587667Y-162155534D01*
X97460912Y-162334642D01*
X97387833Y-162409573D01*
X96902552Y-162762098D01*
X96359260Y-162972491D01*
X95789634Y-163032972D01*
X95234192Y-162938602D01*
X94855572Y-162770582D01*
X94621562Y-162539814D01*
X94514100Y-162218870D01*
X94509960Y-161838892D01*
X94567187Y-161472408D01*
X94672754Y-161062015D01*
X94764449Y-160798529D01*
X94882374Y-160536842D01*
X95043930Y-160218141D01*
X95230001Y-159875464D01*
X95421469Y-159541849D01*
X95599217Y-159250334D01*
X95744130Y-159033959D01*
X95837091Y-158925760D01*
X95851797Y-158919333D01*
X95887823Y-158995794D01*
G36*
X117517333Y-160925084D02*
G01*
X117886370Y-161155752D01*
X118291362Y-161441907D01*
X118691033Y-161751073D01*
X119044109Y-162050775D01*
X119309313Y-162308537D01*
X119379969Y-162390628D01*
X119634000Y-162711367D01*
X119634000Y-166131889D01*
X119189500Y-166060444D01*
X118844804Y-166023654D01*
X118401610Y-166002878D01*
X117905569Y-165997389D01*
X117402334Y-166006456D01*
X116937556Y-166029350D01*
X116556887Y-166065341D01*
X116332000Y-166106103D01*
X115832726Y-166260009D01*
X115277305Y-166461633D01*
X114757935Y-166677039D01*
X114663001Y-166720419D01*
X114451867Y-166848651D01*
X114152870Y-167069171D01*
X113798014Y-167354663D01*
X113419305Y-167677810D01*
X113048750Y-168011298D01*
X112718355Y-168327808D01*
X112460125Y-168600027D01*
X112458500Y-168601881D01*
X112183333Y-168915892D01*
X112180863Y-168045112D01*
X112172826Y-167596209D01*
X112152971Y-167053452D01*
X112124471Y-166491655D01*
X112097205Y-166073666D01*
X112060140Y-165554790D01*
X112022337Y-164997876D01*
X111988678Y-164476278D01*
X111967592Y-164126333D01*
X111930497Y-163629796D01*
X111875399Y-163069841D01*
X111812749Y-162549978D01*
X111797355Y-162439951D01*
X111748828Y-162084050D01*
X111715520Y-161796814D01*
X111701385Y-161615258D01*
X111704563Y-161571213D01*
X111808501Y-161572467D01*
X112014883Y-161639571D01*
X112279658Y-161753443D01*
X112558780Y-161894998D01*
X112808199Y-162045153D01*
X112825213Y-162056733D01*
X113043670Y-162195041D01*
X113202212Y-162273180D01*
X113254476Y-162279079D01*
X113251533Y-162168217D01*
X113144843Y-161957051D01*
X112947218Y-161668112D01*
X112797670Y-161475859D01*
X112641657Y-161272015D01*
X112547590Y-161127678D01*
X112533695Y-161083092D01*
X112606805Y-161122905D01*
X112786706Y-161251605D01*
X113049049Y-161450954D01*
X113369484Y-161702714D01*
X113493984Y-161802353D01*
X113887642Y-162125555D01*
X114166484Y-162373310D01*
X114353096Y-162569141D01*
X114470064Y-162736572D01*
X114536323Y-162887969D01*
X114638956Y-163118896D01*
X114756307Y-163209920D01*
X114813171Y-163213664D01*
X114953876Y-163155718D01*
X114951579Y-163028633D01*
X114819727Y-162866946D01*
X114679425Y-162690138D01*
X114525219Y-162393057D01*
X114350707Y-161967333D01*
X114265340Y-161803938D01*
X114163869Y-161649833D01*
X114074684Y-161501939D01*
X114101112Y-161466656D01*
X114235856Y-161540118D01*
X114471621Y-161718456D01*
X114771762Y-161972080D01*
X115064983Y-162218864D01*
X115341746Y-162435359D01*
X115556389Y-162586403D01*
X115612333Y-162619411D01*
X115899175Y-162795725D01*
X116262080Y-163053665D01*
X116654813Y-163357731D01*
X117031142Y-163672427D01*
X117284500Y-163903342D01*
X117486007Y-164084717D01*
X117630298Y-164191673D01*
X117686647Y-164201496D01*
X117686666Y-164200644D01*
X117640138Y-164016346D01*
X117512112Y-163724251D01*
X117319923Y-163354061D01*
X117080908Y-162935477D01*
X116812401Y-162498200D01*
X116531740Y-162071931D01*
X116256260Y-161686371D01*
X116107997Y-161495952D01*
X115828925Y-161151571D01*
X116482629Y-160929834D01*
X117136333Y-160708098D01*
X117517333Y-160925084D01*
X117517333Y-160925084D01*
G37*
X117517333Y-160925084D02*
X117886370Y-161155752D01*
X118291362Y-161441907D01*
X118691033Y-161751073D01*
X119044109Y-162050775D01*
X119309313Y-162308537D01*
X119379969Y-162390628D01*
X119634000Y-162711367D01*
X119634000Y-166131889D01*
X119189500Y-166060444D01*
X118844804Y-166023654D01*
X118401610Y-166002878D01*
X117905569Y-165997389D01*
X117402334Y-166006456D01*
X116937556Y-166029350D01*
X116556887Y-166065341D01*
X116332000Y-166106103D01*
X115832726Y-166260009D01*
X115277305Y-166461633D01*
X114757935Y-166677039D01*
X114663001Y-166720419D01*
X114451867Y-166848651D01*
X114152870Y-167069171D01*
X113798014Y-167354663D01*
X113419305Y-167677810D01*
X113048750Y-168011298D01*
X112718355Y-168327808D01*
X112460125Y-168600027D01*
X112458500Y-168601881D01*
X112183333Y-168915892D01*
X112180863Y-168045112D01*
X112172826Y-167596209D01*
X112152971Y-167053452D01*
X112124471Y-166491655D01*
X112097205Y-166073666D01*
X112060140Y-165554790D01*
X112022337Y-164997876D01*
X111988678Y-164476278D01*
X111967592Y-164126333D01*
X111930497Y-163629796D01*
X111875399Y-163069841D01*
X111812749Y-162549978D01*
X111797355Y-162439951D01*
X111748828Y-162084050D01*
X111715520Y-161796814D01*
X111701385Y-161615258D01*
X111704563Y-161571213D01*
X111808501Y-161572467D01*
X112014883Y-161639571D01*
X112279658Y-161753443D01*
X112558780Y-161894998D01*
X112808199Y-162045153D01*
X112825213Y-162056733D01*
X113043670Y-162195041D01*
X113202212Y-162273180D01*
X113254476Y-162279079D01*
X113251533Y-162168217D01*
X113144843Y-161957051D01*
X112947218Y-161668112D01*
X112797670Y-161475859D01*
X112641657Y-161272015D01*
X112547590Y-161127678D01*
X112533695Y-161083092D01*
X112606805Y-161122905D01*
X112786706Y-161251605D01*
X113049049Y-161450954D01*
X113369484Y-161702714D01*
X113493984Y-161802353D01*
X113887642Y-162125555D01*
X114166484Y-162373310D01*
X114353096Y-162569141D01*
X114470064Y-162736572D01*
X114536323Y-162887969D01*
X114638956Y-163118896D01*
X114756307Y-163209920D01*
X114813171Y-163213664D01*
X114953876Y-163155718D01*
X114951579Y-163028633D01*
X114819727Y-162866946D01*
X114679425Y-162690138D01*
X114525219Y-162393057D01*
X114350707Y-161967333D01*
X114265340Y-161803938D01*
X114163869Y-161649833D01*
X114074684Y-161501939D01*
X114101112Y-161466656D01*
X114235856Y-161540118D01*
X114471621Y-161718456D01*
X114771762Y-161972080D01*
X115064983Y-162218864D01*
X115341746Y-162435359D01*
X115556389Y-162586403D01*
X115612333Y-162619411D01*
X115899175Y-162795725D01*
X116262080Y-163053665D01*
X116654813Y-163357731D01*
X117031142Y-163672427D01*
X117284500Y-163903342D01*
X117486007Y-164084717D01*
X117630298Y-164191673D01*
X117686647Y-164201496D01*
X117686666Y-164200644D01*
X117640138Y-164016346D01*
X117512112Y-163724251D01*
X117319923Y-163354061D01*
X117080908Y-162935477D01*
X116812401Y-162498200D01*
X116531740Y-162071931D01*
X116256260Y-161686371D01*
X116107997Y-161495952D01*
X115828925Y-161151571D01*
X116482629Y-160929834D01*
X117136333Y-160708098D01*
X117517333Y-160925084D01*
G36*
X95766911Y-156180035D02*
G01*
X95881811Y-156396465D01*
X95936767Y-156626685D01*
X95926810Y-156893760D01*
X95846968Y-157220755D01*
X95692271Y-157630735D01*
X95457749Y-158146765D01*
X95253157Y-158563976D01*
X94937661Y-159200992D01*
X94692172Y-159713553D01*
X94507321Y-160126785D01*
X94373741Y-160465810D01*
X94282065Y-160755753D01*
X94222927Y-161021738D01*
X94186957Y-161288889D01*
X94172433Y-161462567D01*
X94156008Y-161824573D01*
X94173422Y-162080631D01*
X94232931Y-162292183D01*
X94304877Y-162448303D01*
X94624234Y-162905049D01*
X95043603Y-163249021D01*
X95532255Y-163464500D01*
X96059458Y-163535767D01*
X96370410Y-163504901D01*
X96772797Y-163377922D01*
X97204956Y-163160700D01*
X97604624Y-162890582D01*
X97909542Y-162604919D01*
X97945578Y-162560000D01*
X98073520Y-162403436D01*
X98192749Y-162314772D01*
X98355809Y-162274722D01*
X98615248Y-162264001D01*
X98753139Y-162263605D01*
X99335279Y-162263543D01*
X99284886Y-162856271D01*
X99200205Y-163520233D01*
X99055215Y-164288061D01*
X98861592Y-165110351D01*
X98631014Y-165937699D01*
X98375157Y-166720701D01*
X98364348Y-166751000D01*
X98110539Y-167439075D01*
X97895783Y-167974200D01*
X97715025Y-168366912D01*
X97563208Y-168627746D01*
X97435275Y-168767240D01*
X97384391Y-168793158D01*
X97204884Y-168857873D01*
X96981883Y-168948854D01*
X96820742Y-169004136D01*
X96674351Y-169000979D01*
X96484214Y-168929103D01*
X96281051Y-168825679D01*
X95893699Y-168679229D01*
X95391507Y-168573702D01*
X94824864Y-168512964D01*
X94244158Y-168500884D01*
X93699779Y-168541330D01*
X93370270Y-168602234D01*
X93033281Y-168673343D01*
X92604851Y-168746866D01*
X92162182Y-168809916D01*
X92032666Y-168825487D01*
X91590656Y-168876851D01*
X91127841Y-168932379D01*
X90726985Y-168982099D01*
X90635666Y-168993810D01*
X89808271Y-169057199D01*
X89038057Y-169031112D01*
X88921166Y-169018085D01*
X88646000Y-168983937D01*
X88646000Y-160129471D01*
X89085606Y-160243504D01*
X89682555Y-160357395D01*
X90334442Y-160413640D01*
X90975658Y-160410237D01*
X91540598Y-160345187D01*
X91651117Y-160321704D01*
X92225714Y-160138152D01*
X92807650Y-159868466D01*
X93333795Y-159545464D01*
X93671036Y-159271752D01*
X93994929Y-158913283D01*
X94347228Y-158439456D01*
X94700767Y-157894866D01*
X95028378Y-157324109D01*
X95302894Y-156771780D01*
X95497148Y-156282476D01*
X95502910Y-156264702D01*
X95607605Y-155938404D01*
X95766911Y-156180035D01*
X95766911Y-156180035D01*
G37*
X95766911Y-156180035D02*
X95881811Y-156396465D01*
X95936767Y-156626685D01*
X95926810Y-156893760D01*
X95846968Y-157220755D01*
X95692271Y-157630735D01*
X95457749Y-158146765D01*
X95253157Y-158563976D01*
X94937661Y-159200992D01*
X94692172Y-159713553D01*
X94507321Y-160126785D01*
X94373741Y-160465810D01*
X94282065Y-160755753D01*
X94222927Y-161021738D01*
X94186957Y-161288889D01*
X94172433Y-161462567D01*
X94156008Y-161824573D01*
X94173422Y-162080631D01*
X94232931Y-162292183D01*
X94304877Y-162448303D01*
X94624234Y-162905049D01*
X95043603Y-163249021D01*
X95532255Y-163464500D01*
X96059458Y-163535767D01*
X96370410Y-163504901D01*
X96772797Y-163377922D01*
X97204956Y-163160700D01*
X97604624Y-162890582D01*
X97909542Y-162604919D01*
X97945578Y-162560000D01*
X98073520Y-162403436D01*
X98192749Y-162314772D01*
X98355809Y-162274722D01*
X98615248Y-162264001D01*
X98753139Y-162263605D01*
X99335279Y-162263543D01*
X99284886Y-162856271D01*
X99200205Y-163520233D01*
X99055215Y-164288061D01*
X98861592Y-165110351D01*
X98631014Y-165937699D01*
X98375157Y-166720701D01*
X98364348Y-166751000D01*
X98110539Y-167439075D01*
X97895783Y-167974200D01*
X97715025Y-168366912D01*
X97563208Y-168627746D01*
X97435275Y-168767240D01*
X97384391Y-168793158D01*
X97204884Y-168857873D01*
X96981883Y-168948854D01*
X96820742Y-169004136D01*
X96674351Y-169000979D01*
X96484214Y-168929103D01*
X96281051Y-168825679D01*
X95893699Y-168679229D01*
X95391507Y-168573702D01*
X94824864Y-168512964D01*
X94244158Y-168500884D01*
X93699779Y-168541330D01*
X93370270Y-168602234D01*
X93033281Y-168673343D01*
X92604851Y-168746866D01*
X92162182Y-168809916D01*
X92032666Y-168825487D01*
X91590656Y-168876851D01*
X91127841Y-168932379D01*
X90726985Y-168982099D01*
X90635666Y-168993810D01*
X89808271Y-169057199D01*
X89038057Y-169031112D01*
X88921166Y-169018085D01*
X88646000Y-168983937D01*
X88646000Y-160129471D01*
X89085606Y-160243504D01*
X89682555Y-160357395D01*
X90334442Y-160413640D01*
X90975658Y-160410237D01*
X91540598Y-160345187D01*
X91651117Y-160321704D01*
X92225714Y-160138152D01*
X92807650Y-159868466D01*
X93333795Y-159545464D01*
X93671036Y-159271752D01*
X93994929Y-158913283D01*
X94347228Y-158439456D01*
X94700767Y-157894866D01*
X95028378Y-157324109D01*
X95302894Y-156771780D01*
X95497148Y-156282476D01*
X95502910Y-156264702D01*
X95607605Y-155938404D01*
X95766911Y-156180035D01*
G36*
X102406890Y-167246102D02*
G01*
X102751772Y-167422900D01*
X102965856Y-167554129D01*
X103074703Y-167659218D01*
X103103879Y-167757597D01*
X103102761Y-167774991D01*
X103142954Y-167907790D01*
X103291129Y-168112313D01*
X103556830Y-168400322D01*
X103824192Y-168663991D01*
X104111385Y-168951774D01*
X104346540Y-169209535D01*
X104505426Y-169409146D01*
X104563811Y-169522474D01*
X104563810Y-169522597D01*
X104550179Y-169600384D01*
X104485233Y-169618383D01*
X104331857Y-169573960D01*
X104118833Y-169491022D01*
X103793773Y-169360484D01*
X103569841Y-169290524D01*
X103403302Y-169293518D01*
X103250422Y-169381842D01*
X103067468Y-169567871D01*
X102813907Y-169860289D01*
X102516985Y-170128933D01*
X102115676Y-170359125D01*
X101582500Y-170565463D01*
X101351799Y-170637067D01*
X101046115Y-170724427D01*
X100867243Y-170759776D01*
X100779859Y-170739934D01*
X100748634Y-170661722D01*
X100741962Y-170582166D01*
X100746815Y-170193908D01*
X100807444Y-169738744D01*
X100928337Y-169198460D01*
X101113979Y-168554838D01*
X101368858Y-167789663D01*
X101563665Y-167246102D01*
X101692356Y-166894537D01*
X102406890Y-167246102D01*
X102406890Y-167246102D01*
G37*
X102406890Y-167246102D02*
X102751772Y-167422900D01*
X102965856Y-167554129D01*
X103074703Y-167659218D01*
X103103879Y-167757597D01*
X103102761Y-167774991D01*
X103142954Y-167907790D01*
X103291129Y-168112313D01*
X103556830Y-168400322D01*
X103824192Y-168663991D01*
X104111385Y-168951774D01*
X104346540Y-169209535D01*
X104505426Y-169409146D01*
X104563811Y-169522474D01*
X104563810Y-169522597D01*
X104550179Y-169600384D01*
X104485233Y-169618383D01*
X104331857Y-169573960D01*
X104118833Y-169491022D01*
X103793773Y-169360484D01*
X103569841Y-169290524D01*
X103403302Y-169293518D01*
X103250422Y-169381842D01*
X103067468Y-169567871D01*
X102813907Y-169860289D01*
X102516985Y-170128933D01*
X102115676Y-170359125D01*
X101582500Y-170565463D01*
X101351799Y-170637067D01*
X101046115Y-170724427D01*
X100867243Y-170759776D01*
X100779859Y-170739934D01*
X100748634Y-170661722D01*
X100741962Y-170582166D01*
X100746815Y-170193908D01*
X100807444Y-169738744D01*
X100928337Y-169198460D01*
X101113979Y-168554838D01*
X101368858Y-167789663D01*
X101563665Y-167246102D01*
X101692356Y-166894537D01*
X102406890Y-167246102D01*
G36*
X89041343Y-169720891D02*
G01*
X89436687Y-170022663D01*
X90438343Y-169981816D01*
X90827312Y-169970375D01*
X91145796Y-169969424D01*
X91360917Y-169978465D01*
X91439799Y-169996984D01*
X91372633Y-170064579D01*
X91194991Y-170192799D01*
X90942345Y-170356404D01*
X90885480Y-170391429D01*
X90590917Y-170593807D01*
X90338332Y-170807188D01*
X90179611Y-170987425D01*
X90173739Y-170997009D01*
X90063297Y-171140175D01*
X89901484Y-171257360D01*
X89658351Y-171361802D01*
X89303951Y-171466740D01*
X88878833Y-171569419D01*
X88646000Y-171622559D01*
X88646000Y-169419118D01*
X89041343Y-169720891D01*
X89041343Y-169720891D01*
G37*
X89041343Y-169720891D02*
X89436687Y-170022663D01*
X90438343Y-169981816D01*
X90827312Y-169970375D01*
X91145796Y-169969424D01*
X91360917Y-169978465D01*
X91439799Y-169996984D01*
X91372633Y-170064579D01*
X91194991Y-170192799D01*
X90942345Y-170356404D01*
X90885480Y-170391429D01*
X90590917Y-170593807D01*
X90338332Y-170807188D01*
X90179611Y-170987425D01*
X90173739Y-170997009D01*
X90063297Y-171140175D01*
X89901484Y-171257360D01*
X89658351Y-171361802D01*
X89303951Y-171466740D01*
X88878833Y-171569419D01*
X88646000Y-171622559D01*
X88646000Y-169419118D01*
X89041343Y-169720891D01*
G36*
X88751833Y-171971763D02*
G01*
X89041517Y-172222589D01*
X89388239Y-172363350D01*
X89553838Y-172381333D01*
X89727650Y-172403360D01*
X89814074Y-172482951D01*
X89811938Y-172640373D01*
X89720071Y-172895893D01*
X89537302Y-173269778D01*
X89498173Y-173344543D01*
X89165014Y-173977130D01*
X89583541Y-174368613D01*
X89823570Y-174605561D01*
X90029823Y-174830839D01*
X90143416Y-174975821D01*
X90284765Y-175191546D01*
X89613549Y-175853550D01*
X89332998Y-176134902D01*
X89112140Y-176354326D01*
X88943904Y-176500256D01*
X88821220Y-176561127D01*
X88737019Y-176525375D01*
X88684230Y-176381434D01*
X88655784Y-176117740D01*
X88644610Y-175722727D01*
X88643638Y-175184831D01*
X88645797Y-174492487D01*
X88646000Y-174270868D01*
X88647266Y-173550388D01*
X88651517Y-172984549D01*
X88651712Y-172974000D01*
X88857666Y-172974000D01*
X88864379Y-173052018D01*
X88895003Y-173058666D01*
X88981221Y-172997206D01*
X88984666Y-172974000D01*
X88955779Y-172891534D01*
X88947330Y-172889333D01*
X88875044Y-172948662D01*
X88857666Y-172974000D01*
X88651712Y-172974000D01*
X88659427Y-172558675D01*
X88671673Y-172258090D01*
X88688929Y-172068117D01*
X88711872Y-171974080D01*
X88741176Y-171961304D01*
X88751833Y-171971763D01*
X88751833Y-171971763D01*
G37*
X88751833Y-171971763D02*
X89041517Y-172222589D01*
X89388239Y-172363350D01*
X89553838Y-172381333D01*
X89727650Y-172403360D01*
X89814074Y-172482951D01*
X89811938Y-172640373D01*
X89720071Y-172895893D01*
X89537302Y-173269778D01*
X89498173Y-173344543D01*
X89165014Y-173977130D01*
X89583541Y-174368613D01*
X89823570Y-174605561D01*
X90029823Y-174830839D01*
X90143416Y-174975821D01*
X90284765Y-175191546D01*
X89613549Y-175853550D01*
X89332998Y-176134902D01*
X89112140Y-176354326D01*
X88943904Y-176500256D01*
X88821220Y-176561127D01*
X88737019Y-176525375D01*
X88684230Y-176381434D01*
X88655784Y-176117740D01*
X88644610Y-175722727D01*
X88643638Y-175184831D01*
X88645797Y-174492487D01*
X88646000Y-174270868D01*
X88647266Y-173550388D01*
X88651517Y-172984549D01*
X88651712Y-172974000D01*
X88857666Y-172974000D01*
X88864379Y-173052018D01*
X88895003Y-173058666D01*
X88981221Y-172997206D01*
X88984666Y-172974000D01*
X88955779Y-172891534D01*
X88947330Y-172889333D01*
X88875044Y-172948662D01*
X88857666Y-172974000D01*
X88651712Y-172974000D01*
X88659427Y-172558675D01*
X88671673Y-172258090D01*
X88688929Y-172068117D01*
X88711872Y-171974080D01*
X88741176Y-171961304D01*
X88751833Y-171971763D01*
G36*
X115738329Y-184185562D02*
G01*
X116009718Y-184289665D01*
X116214478Y-184378987D01*
X116299146Y-184427590D01*
X116247245Y-184452820D01*
X116058618Y-184472263D01*
X115765840Y-184483506D01*
X115520611Y-184485225D01*
X114681000Y-184481784D01*
X114959794Y-184243198D01*
X115238588Y-184004611D01*
X115738329Y-184185562D01*
X115738329Y-184185562D01*
G37*
X115738329Y-184185562D02*
X116009718Y-184289665D01*
X116214478Y-184378987D01*
X116299146Y-184427590D01*
X116247245Y-184452820D01*
X116058618Y-184472263D01*
X115765840Y-184483506D01*
X115520611Y-184485225D01*
X114681000Y-184481784D01*
X114959794Y-184243198D01*
X115238588Y-184004611D01*
X115738329Y-184185562D01*
G36*
X113874292Y-184050066D02*
G01*
X113992970Y-184214618D01*
X114003666Y-184234666D01*
X114135015Y-184488666D01*
X113392007Y-184481400D01*
X112649000Y-184474134D01*
X113157000Y-184231569D01*
X113432298Y-184106575D01*
X113654129Y-184017528D01*
X113768659Y-183984835D01*
X113874292Y-184050066D01*
X113874292Y-184050066D01*
G37*
X113874292Y-184050066D02*
X113992970Y-184214618D01*
X114003666Y-184234666D01*
X114135015Y-184488666D01*
X113392007Y-184481400D01*
X112649000Y-184474134D01*
X113157000Y-184231569D01*
X113432298Y-184106575D01*
X113654129Y-184017528D01*
X113768659Y-183984835D01*
X113874292Y-184050066D01*
D11*
G36*
X79338254Y-177097818D02*
G01*
X79711511Y-177252426D01*
X79711513Y-177252427D01*
X80047436Y-177476884D01*
X80333116Y-177762564D01*
X80557574Y-178098489D01*
X80712182Y-178471746D01*
X80791000Y-178867993D01*
X80791000Y-179272007D01*
X80712182Y-179668254D01*
X80561293Y-180032532D01*
X80557573Y-180041513D01*
X80333116Y-180377436D01*
X80047436Y-180663116D01*
X79711513Y-180887573D01*
X79711512Y-180887574D01*
X79711511Y-180887574D01*
X79338254Y-181042182D01*
X78942007Y-181121000D01*
X78537993Y-181121000D01*
X78141746Y-181042182D01*
X77768489Y-180887574D01*
X77768488Y-180887574D01*
X77768487Y-180887573D01*
X77432564Y-180663116D01*
X77146884Y-180377436D01*
X76922427Y-180041513D01*
X76918707Y-180032532D01*
X76767818Y-179668254D01*
X76689000Y-179272007D01*
X76689000Y-178867993D01*
X76767818Y-178471746D01*
X76922426Y-178098489D01*
X77146884Y-177762564D01*
X77432564Y-177476884D01*
X77768487Y-177252427D01*
X77768489Y-177252426D01*
X78141746Y-177097818D01*
X78537993Y-177019000D01*
X78942007Y-177019000D01*
X79338254Y-177097818D01*
X79338254Y-177097818D01*
G37*
G36*
X60288254Y-177097818D02*
G01*
X60661511Y-177252426D01*
X60661513Y-177252427D01*
X60997436Y-177476884D01*
X61283116Y-177762564D01*
X61507574Y-178098489D01*
X61662182Y-178471746D01*
X61741000Y-178867993D01*
X61741000Y-179272007D01*
X61662182Y-179668254D01*
X61511293Y-180032532D01*
X61507573Y-180041513D01*
X61283116Y-180377436D01*
X60997436Y-180663116D01*
X60661513Y-180887573D01*
X60661512Y-180887574D01*
X60661511Y-180887574D01*
X60288254Y-181042182D01*
X59892007Y-181121000D01*
X59487993Y-181121000D01*
X59091746Y-181042182D01*
X58718489Y-180887574D01*
X58718488Y-180887574D01*
X58718487Y-180887573D01*
X58382564Y-180663116D01*
X58096884Y-180377436D01*
X57872427Y-180041513D01*
X57868707Y-180032532D01*
X57717818Y-179668254D01*
X57639000Y-179272007D01*
X57639000Y-178867993D01*
X57717818Y-178471746D01*
X57872426Y-178098489D01*
X58096884Y-177762564D01*
X58382564Y-177476884D01*
X58718487Y-177252427D01*
X58718489Y-177252426D01*
X59091746Y-177097818D01*
X59487993Y-177019000D01*
X59892007Y-177019000D01*
X60288254Y-177097818D01*
X60288254Y-177097818D01*
G37*
G36*
X41238254Y-177097818D02*
G01*
X41611511Y-177252426D01*
X41611513Y-177252427D01*
X41947436Y-177476884D01*
X42233116Y-177762564D01*
X42457574Y-178098489D01*
X42612182Y-178471746D01*
X42691000Y-178867993D01*
X42691000Y-179272007D01*
X42612182Y-179668254D01*
X42461293Y-180032532D01*
X42457573Y-180041513D01*
X42233116Y-180377436D01*
X41947436Y-180663116D01*
X41611513Y-180887573D01*
X41611512Y-180887574D01*
X41611511Y-180887574D01*
X41238254Y-181042182D01*
X40842007Y-181121000D01*
X40437993Y-181121000D01*
X40041746Y-181042182D01*
X39668489Y-180887574D01*
X39668488Y-180887574D01*
X39668487Y-180887573D01*
X39332564Y-180663116D01*
X39046884Y-180377436D01*
X38822427Y-180041513D01*
X38818707Y-180032532D01*
X38667818Y-179668254D01*
X38589000Y-179272007D01*
X38589000Y-178867993D01*
X38667818Y-178471746D01*
X38822426Y-178098489D01*
X39046884Y-177762564D01*
X39332564Y-177476884D01*
X39668487Y-177252427D01*
X39668489Y-177252426D01*
X40041746Y-177097818D01*
X40437993Y-177019000D01*
X40842007Y-177019000D01*
X41238254Y-177097818D01*
X41238254Y-177097818D01*
G37*
G36*
X65385285Y-178088234D02*
G01*
X65481981Y-178107468D01*
X65664151Y-178182926D01*
X65828100Y-178292473D01*
X65967527Y-178431900D01*
X66077074Y-178595849D01*
X66152532Y-178778019D01*
X66191000Y-178971410D01*
X66191000Y-179168590D01*
X66152532Y-179361981D01*
X66077074Y-179544151D01*
X65967527Y-179708100D01*
X65828100Y-179847527D01*
X65664151Y-179957074D01*
X65481981Y-180032532D01*
X65288591Y-180071000D01*
X65091409Y-180071000D01*
X64898019Y-180032532D01*
X64715849Y-179957074D01*
X64551900Y-179847527D01*
X64412473Y-179708100D01*
X64302926Y-179544151D01*
X64227468Y-179361981D01*
X64189000Y-179168590D01*
X64189000Y-178971410D01*
X64227468Y-178778019D01*
X64302926Y-178595849D01*
X64412473Y-178431900D01*
X64551900Y-178292473D01*
X64715849Y-178182926D01*
X64898019Y-178107468D01*
X64994715Y-178088234D01*
X65091409Y-178069000D01*
X65288591Y-178069000D01*
X65385285Y-178088234D01*
X65385285Y-178088234D01*
G37*
G36*
X84435285Y-178088234D02*
G01*
X84531981Y-178107468D01*
X84714151Y-178182926D01*
X84878100Y-178292473D01*
X85017527Y-178431900D01*
X85127074Y-178595849D01*
X85202532Y-178778019D01*
X85241000Y-178971410D01*
X85241000Y-179168590D01*
X85202532Y-179361981D01*
X85127074Y-179544151D01*
X85017527Y-179708100D01*
X84878100Y-179847527D01*
X84714151Y-179957074D01*
X84531981Y-180032532D01*
X84338591Y-180071000D01*
X84141409Y-180071000D01*
X83948019Y-180032532D01*
X83765849Y-179957074D01*
X83601900Y-179847527D01*
X83462473Y-179708100D01*
X83352926Y-179544151D01*
X83277468Y-179361981D01*
X83239000Y-179168590D01*
X83239000Y-178971410D01*
X83277468Y-178778019D01*
X83352926Y-178595849D01*
X83462473Y-178431900D01*
X83601900Y-178292473D01*
X83765849Y-178182926D01*
X83948019Y-178107468D01*
X84044715Y-178088234D01*
X84141409Y-178069000D01*
X84338591Y-178069000D01*
X84435285Y-178088234D01*
X84435285Y-178088234D01*
G37*
G36*
X73435285Y-178088234D02*
G01*
X73531981Y-178107468D01*
X73714151Y-178182926D01*
X73878100Y-178292473D01*
X74017527Y-178431900D01*
X74127074Y-178595849D01*
X74202532Y-178778019D01*
X74241000Y-178971410D01*
X74241000Y-179168590D01*
X74202532Y-179361981D01*
X74127074Y-179544151D01*
X74017527Y-179708100D01*
X73878100Y-179847527D01*
X73714151Y-179957074D01*
X73531981Y-180032532D01*
X73338591Y-180071000D01*
X73141409Y-180071000D01*
X72948019Y-180032532D01*
X72765849Y-179957074D01*
X72601900Y-179847527D01*
X72462473Y-179708100D01*
X72352926Y-179544151D01*
X72277468Y-179361981D01*
X72239000Y-179168590D01*
X72239000Y-178971410D01*
X72277468Y-178778019D01*
X72352926Y-178595849D01*
X72462473Y-178431900D01*
X72601900Y-178292473D01*
X72765849Y-178182926D01*
X72948019Y-178107468D01*
X73044715Y-178088234D01*
X73141409Y-178069000D01*
X73338591Y-178069000D01*
X73435285Y-178088234D01*
X73435285Y-178088234D01*
G37*
G36*
X46335285Y-178088234D02*
G01*
X46431981Y-178107468D01*
X46614151Y-178182926D01*
X46778100Y-178292473D01*
X46917527Y-178431900D01*
X47027074Y-178595849D01*
X47102532Y-178778019D01*
X47141000Y-178971410D01*
X47141000Y-179168590D01*
X47102532Y-179361981D01*
X47027074Y-179544151D01*
X46917527Y-179708100D01*
X46778100Y-179847527D01*
X46614151Y-179957074D01*
X46431981Y-180032532D01*
X46238591Y-180071000D01*
X46041409Y-180071000D01*
X45848019Y-180032532D01*
X45665849Y-179957074D01*
X45501900Y-179847527D01*
X45362473Y-179708100D01*
X45252926Y-179544151D01*
X45177468Y-179361981D01*
X45139000Y-179168590D01*
X45139000Y-178971410D01*
X45177468Y-178778019D01*
X45252926Y-178595849D01*
X45362473Y-178431900D01*
X45501900Y-178292473D01*
X45665849Y-178182926D01*
X45848019Y-178107468D01*
X45944715Y-178088234D01*
X46041409Y-178069000D01*
X46238591Y-178069000D01*
X46335285Y-178088234D01*
X46335285Y-178088234D01*
G37*
G36*
X35335285Y-178088234D02*
G01*
X35431981Y-178107468D01*
X35614151Y-178182926D01*
X35778100Y-178292473D01*
X35917527Y-178431900D01*
X36027074Y-178595849D01*
X36102532Y-178778019D01*
X36141000Y-178971410D01*
X36141000Y-179168590D01*
X36102532Y-179361981D01*
X36027074Y-179544151D01*
X35917527Y-179708100D01*
X35778100Y-179847527D01*
X35614151Y-179957074D01*
X35431981Y-180032532D01*
X35238591Y-180071000D01*
X35041409Y-180071000D01*
X34848019Y-180032532D01*
X34665849Y-179957074D01*
X34501900Y-179847527D01*
X34362473Y-179708100D01*
X34252926Y-179544151D01*
X34177468Y-179361981D01*
X34139000Y-179168590D01*
X34139000Y-178971410D01*
X34177468Y-178778019D01*
X34252926Y-178595849D01*
X34362473Y-178431900D01*
X34501900Y-178292473D01*
X34665849Y-178182926D01*
X34848019Y-178107468D01*
X34944715Y-178088234D01*
X35041409Y-178069000D01*
X35238591Y-178069000D01*
X35335285Y-178088234D01*
X35335285Y-178088234D01*
G37*
G36*
X54385285Y-178088234D02*
G01*
X54481981Y-178107468D01*
X54664151Y-178182926D01*
X54828100Y-178292473D01*
X54967527Y-178431900D01*
X55077074Y-178595849D01*
X55152532Y-178778019D01*
X55191000Y-178971410D01*
X55191000Y-179168590D01*
X55152532Y-179361981D01*
X55077074Y-179544151D01*
X54967527Y-179708100D01*
X54828100Y-179847527D01*
X54664151Y-179957074D01*
X54481981Y-180032532D01*
X54288591Y-180071000D01*
X54091409Y-180071000D01*
X53898019Y-180032532D01*
X53715849Y-179957074D01*
X53551900Y-179847527D01*
X53412473Y-179708100D01*
X53302926Y-179544151D01*
X53227468Y-179361981D01*
X53189000Y-179168590D01*
X53189000Y-178971410D01*
X53227468Y-178778019D01*
X53302926Y-178595849D01*
X53412473Y-178431900D01*
X53551900Y-178292473D01*
X53715849Y-178182926D01*
X53898019Y-178107468D01*
X53994715Y-178088234D01*
X54091409Y-178069000D01*
X54288591Y-178069000D01*
X54385285Y-178088234D01*
X54385285Y-178088234D01*
G37*
G36*
X48497142Y-166858242D02*
G01*
X48645101Y-166919529D01*
X48778255Y-167008499D01*
X48891501Y-167121745D01*
X48980471Y-167254899D01*
X49041758Y-167402858D01*
X49073000Y-167559925D01*
X49073000Y-167720075D01*
X49041758Y-167877142D01*
X48980471Y-168025101D01*
X48891501Y-168158255D01*
X48778255Y-168271501D01*
X48645101Y-168360471D01*
X48497142Y-168421758D01*
X48340075Y-168453000D01*
X48179925Y-168453000D01*
X48022858Y-168421758D01*
X47874899Y-168360471D01*
X47741745Y-168271501D01*
X47628499Y-168158255D01*
X47539529Y-168025101D01*
X47478242Y-167877142D01*
X47447000Y-167720075D01*
X47447000Y-167559925D01*
X47478242Y-167402858D01*
X47539529Y-167254899D01*
X47628499Y-167121745D01*
X47741745Y-167008499D01*
X47874899Y-166919529D01*
X48022858Y-166858242D01*
X48179925Y-166827000D01*
X48340075Y-166827000D01*
X48497142Y-166858242D01*
X48497142Y-166858242D01*
G37*
G36*
X33257142Y-166858242D02*
G01*
X33405101Y-166919529D01*
X33538255Y-167008499D01*
X33651501Y-167121745D01*
X33740471Y-167254899D01*
X33801758Y-167402858D01*
X33833000Y-167559925D01*
X33833000Y-167720075D01*
X33801758Y-167877142D01*
X33740471Y-168025101D01*
X33651501Y-168158255D01*
X33538255Y-168271501D01*
X33405101Y-168360471D01*
X33257142Y-168421758D01*
X33100075Y-168453000D01*
X32939925Y-168453000D01*
X32782858Y-168421758D01*
X32634899Y-168360471D01*
X32501745Y-168271501D01*
X32388499Y-168158255D01*
X32299529Y-168025101D01*
X32238242Y-167877142D01*
X32207000Y-167720075D01*
X32207000Y-167559925D01*
X32238242Y-167402858D01*
X32299529Y-167254899D01*
X32388499Y-167121745D01*
X32501745Y-167008499D01*
X32634899Y-166919529D01*
X32782858Y-166858242D01*
X32939925Y-166827000D01*
X33100075Y-166827000D01*
X33257142Y-166858242D01*
X33257142Y-166858242D01*
G37*
G36*
X48497142Y-164318242D02*
G01*
X48645101Y-164379529D01*
X48778255Y-164468499D01*
X48891501Y-164581745D01*
X48980471Y-164714899D01*
X49041758Y-164862858D01*
X49073000Y-165019925D01*
X49073000Y-165180075D01*
X49041758Y-165337142D01*
X48980471Y-165485101D01*
X48891501Y-165618255D01*
X48778255Y-165731501D01*
X48645101Y-165820471D01*
X48497142Y-165881758D01*
X48340075Y-165913000D01*
X48179925Y-165913000D01*
X48022858Y-165881758D01*
X47874899Y-165820471D01*
X47741745Y-165731501D01*
X47628499Y-165618255D01*
X47539529Y-165485101D01*
X47478242Y-165337142D01*
X47447000Y-165180075D01*
X47447000Y-165019925D01*
X47478242Y-164862858D01*
X47539529Y-164714899D01*
X47628499Y-164581745D01*
X47741745Y-164468499D01*
X47874899Y-164379529D01*
X48022858Y-164318242D01*
X48179925Y-164287000D01*
X48340075Y-164287000D01*
X48497142Y-164318242D01*
X48497142Y-164318242D01*
G37*
G36*
X33257142Y-164318242D02*
G01*
X33405101Y-164379529D01*
X33538255Y-164468499D01*
X33651501Y-164581745D01*
X33740471Y-164714899D01*
X33801758Y-164862858D01*
X33833000Y-165019925D01*
X33833000Y-165180075D01*
X33801758Y-165337142D01*
X33740471Y-165485101D01*
X33651501Y-165618255D01*
X33538255Y-165731501D01*
X33405101Y-165820471D01*
X33257142Y-165881758D01*
X33100075Y-165913000D01*
X32939925Y-165913000D01*
X32782858Y-165881758D01*
X32634899Y-165820471D01*
X32501745Y-165731501D01*
X32388499Y-165618255D01*
X32299529Y-165485101D01*
X32238242Y-165337142D01*
X32207000Y-165180075D01*
X32207000Y-165019925D01*
X32238242Y-164862858D01*
X32299529Y-164714899D01*
X32388499Y-164581745D01*
X32501745Y-164468499D01*
X32634899Y-164379529D01*
X32782858Y-164318242D01*
X32939925Y-164287000D01*
X33100075Y-164287000D01*
X33257142Y-164318242D01*
X33257142Y-164318242D01*
G37*
G36*
X33257142Y-161778242D02*
G01*
X33405101Y-161839529D01*
X33538255Y-161928499D01*
X33651501Y-162041745D01*
X33740471Y-162174899D01*
X33801758Y-162322858D01*
X33833000Y-162479925D01*
X33833000Y-162640075D01*
X33801758Y-162797142D01*
X33740471Y-162945101D01*
X33651501Y-163078255D01*
X33538255Y-163191501D01*
X33405101Y-163280471D01*
X33257142Y-163341758D01*
X33100075Y-163373000D01*
X32939925Y-163373000D01*
X32782858Y-163341758D01*
X32634899Y-163280471D01*
X32501745Y-163191501D01*
X32388499Y-163078255D01*
X32299529Y-162945101D01*
X32238242Y-162797142D01*
X32207000Y-162640075D01*
X32207000Y-162479925D01*
X32238242Y-162322858D01*
X32299529Y-162174899D01*
X32388499Y-162041745D01*
X32501745Y-161928499D01*
X32634899Y-161839529D01*
X32782858Y-161778242D01*
X32939925Y-161747000D01*
X33100075Y-161747000D01*
X33257142Y-161778242D01*
X33257142Y-161778242D01*
G37*
G36*
X48497142Y-161778242D02*
G01*
X48645101Y-161839529D01*
X48778255Y-161928499D01*
X48891501Y-162041745D01*
X48980471Y-162174899D01*
X49041758Y-162322858D01*
X49073000Y-162479925D01*
X49073000Y-162640075D01*
X49041758Y-162797142D01*
X48980471Y-162945101D01*
X48891501Y-163078255D01*
X48778255Y-163191501D01*
X48645101Y-163280471D01*
X48497142Y-163341758D01*
X48340075Y-163373000D01*
X48179925Y-163373000D01*
X48022858Y-163341758D01*
X47874899Y-163280471D01*
X47741745Y-163191501D01*
X47628499Y-163078255D01*
X47539529Y-162945101D01*
X47478242Y-162797142D01*
X47447000Y-162640075D01*
X47447000Y-162479925D01*
X47478242Y-162322858D01*
X47539529Y-162174899D01*
X47628499Y-162041745D01*
X47741745Y-161928499D01*
X47874899Y-161839529D01*
X48022858Y-161778242D01*
X48179925Y-161747000D01*
X48340075Y-161747000D01*
X48497142Y-161778242D01*
X48497142Y-161778242D01*
G37*
G36*
X48497142Y-159238242D02*
G01*
X48645101Y-159299529D01*
X48778255Y-159388499D01*
X48891501Y-159501745D01*
X48980471Y-159634899D01*
X49041758Y-159782858D01*
X49073000Y-159939925D01*
X49073000Y-160100075D01*
X49041758Y-160257142D01*
X48980471Y-160405101D01*
X48891501Y-160538255D01*
X48778255Y-160651501D01*
X48645101Y-160740471D01*
X48497142Y-160801758D01*
X48340075Y-160833000D01*
X48179925Y-160833000D01*
X48022858Y-160801758D01*
X47874899Y-160740471D01*
X47741745Y-160651501D01*
X47628499Y-160538255D01*
X47539529Y-160405101D01*
X47478242Y-160257142D01*
X47447000Y-160100075D01*
X47447000Y-159939925D01*
X47478242Y-159782858D01*
X47539529Y-159634899D01*
X47628499Y-159501745D01*
X47741745Y-159388499D01*
X47874899Y-159299529D01*
X48022858Y-159238242D01*
X48179925Y-159207000D01*
X48340075Y-159207000D01*
X48497142Y-159238242D01*
X48497142Y-159238242D01*
G37*
G36*
X33257142Y-159238242D02*
G01*
X33405101Y-159299529D01*
X33538255Y-159388499D01*
X33651501Y-159501745D01*
X33740471Y-159634899D01*
X33801758Y-159782858D01*
X33833000Y-159939925D01*
X33833000Y-160100075D01*
X33801758Y-160257142D01*
X33740471Y-160405101D01*
X33651501Y-160538255D01*
X33538255Y-160651501D01*
X33405101Y-160740471D01*
X33257142Y-160801758D01*
X33100075Y-160833000D01*
X32939925Y-160833000D01*
X32782858Y-160801758D01*
X32634899Y-160740471D01*
X32501745Y-160651501D01*
X32388499Y-160538255D01*
X32299529Y-160405101D01*
X32238242Y-160257142D01*
X32207000Y-160100075D01*
X32207000Y-159939925D01*
X32238242Y-159782858D01*
X32299529Y-159634899D01*
X32388499Y-159501745D01*
X32501745Y-159388499D01*
X32634899Y-159299529D01*
X32782858Y-159238242D01*
X32939925Y-159207000D01*
X33100075Y-159207000D01*
X33257142Y-159238242D01*
X33257142Y-159238242D01*
G37*
G36*
X60288254Y-155507818D02*
G01*
X60656791Y-155660471D01*
X60661513Y-155662427D01*
X60750306Y-155721757D01*
X60997436Y-155886884D01*
X61283116Y-156172564D01*
X61507574Y-156508489D01*
X61662182Y-156881746D01*
X61741000Y-157277993D01*
X61741000Y-157682007D01*
X61662182Y-158078254D01*
X61511293Y-158442532D01*
X61507573Y-158451513D01*
X61283116Y-158787436D01*
X60997436Y-159073116D01*
X60661513Y-159297573D01*
X60661512Y-159297574D01*
X60661511Y-159297574D01*
X60288254Y-159452182D01*
X59892007Y-159531000D01*
X59487993Y-159531000D01*
X59091746Y-159452182D01*
X58718489Y-159297574D01*
X58718488Y-159297574D01*
X58718487Y-159297573D01*
X58382564Y-159073116D01*
X58096884Y-158787436D01*
X57872427Y-158451513D01*
X57868707Y-158442532D01*
X57717818Y-158078254D01*
X57639000Y-157682007D01*
X57639000Y-157277993D01*
X57717818Y-156881746D01*
X57872426Y-156508489D01*
X58096884Y-156172564D01*
X58382564Y-155886884D01*
X58629694Y-155721757D01*
X58718487Y-155662427D01*
X58723209Y-155660471D01*
X59091746Y-155507818D01*
X59487993Y-155429000D01*
X59892007Y-155429000D01*
X60288254Y-155507818D01*
X60288254Y-155507818D01*
G37*
G36*
X79338254Y-155507818D02*
G01*
X79706791Y-155660471D01*
X79711513Y-155662427D01*
X79800306Y-155721757D01*
X80047436Y-155886884D01*
X80333116Y-156172564D01*
X80557574Y-156508489D01*
X80712182Y-156881746D01*
X80791000Y-157277993D01*
X80791000Y-157682007D01*
X80712182Y-158078254D01*
X80561293Y-158442532D01*
X80557573Y-158451513D01*
X80333116Y-158787436D01*
X80047436Y-159073116D01*
X79711513Y-159297573D01*
X79711512Y-159297574D01*
X79711511Y-159297574D01*
X79338254Y-159452182D01*
X78942007Y-159531000D01*
X78537993Y-159531000D01*
X78141746Y-159452182D01*
X77768489Y-159297574D01*
X77768488Y-159297574D01*
X77768487Y-159297573D01*
X77432564Y-159073116D01*
X77146884Y-158787436D01*
X76922427Y-158451513D01*
X76918707Y-158442532D01*
X76767818Y-158078254D01*
X76689000Y-157682007D01*
X76689000Y-157277993D01*
X76767818Y-156881746D01*
X76922426Y-156508489D01*
X77146884Y-156172564D01*
X77432564Y-155886884D01*
X77679694Y-155721757D01*
X77768487Y-155662427D01*
X77773209Y-155660471D01*
X78141746Y-155507818D01*
X78537993Y-155429000D01*
X78942007Y-155429000D01*
X79338254Y-155507818D01*
X79338254Y-155507818D01*
G37*
G36*
X65385285Y-156498234D02*
G01*
X65481981Y-156517468D01*
X65664151Y-156592926D01*
X65828100Y-156702473D01*
X65967527Y-156841900D01*
X66077074Y-157005849D01*
X66152532Y-157188019D01*
X66191000Y-157381410D01*
X66191000Y-157578590D01*
X66152532Y-157771981D01*
X66077074Y-157954151D01*
X65967527Y-158118100D01*
X65828100Y-158257527D01*
X65664151Y-158367074D01*
X65481981Y-158442532D01*
X65288591Y-158481000D01*
X65091409Y-158481000D01*
X64898019Y-158442532D01*
X64715849Y-158367074D01*
X64551900Y-158257527D01*
X64412473Y-158118100D01*
X64302926Y-157954151D01*
X64227468Y-157771981D01*
X64189000Y-157578590D01*
X64189000Y-157381410D01*
X64227468Y-157188019D01*
X64302926Y-157005849D01*
X64412473Y-156841900D01*
X64551900Y-156702473D01*
X64715849Y-156592926D01*
X64898019Y-156517468D01*
X64994715Y-156498234D01*
X65091409Y-156479000D01*
X65288591Y-156479000D01*
X65385285Y-156498234D01*
X65385285Y-156498234D01*
G37*
G36*
X54385285Y-156498234D02*
G01*
X54481981Y-156517468D01*
X54664151Y-156592926D01*
X54828100Y-156702473D01*
X54967527Y-156841900D01*
X55077074Y-157005849D01*
X55152532Y-157188019D01*
X55191000Y-157381410D01*
X55191000Y-157578590D01*
X55152532Y-157771981D01*
X55077074Y-157954151D01*
X54967527Y-158118100D01*
X54828100Y-158257527D01*
X54664151Y-158367074D01*
X54481981Y-158442532D01*
X54288591Y-158481000D01*
X54091409Y-158481000D01*
X53898019Y-158442532D01*
X53715849Y-158367074D01*
X53551900Y-158257527D01*
X53412473Y-158118100D01*
X53302926Y-157954151D01*
X53227468Y-157771981D01*
X53189000Y-157578590D01*
X53189000Y-157381410D01*
X53227468Y-157188019D01*
X53302926Y-157005849D01*
X53412473Y-156841900D01*
X53551900Y-156702473D01*
X53715849Y-156592926D01*
X53898019Y-156517468D01*
X53994715Y-156498234D01*
X54091409Y-156479000D01*
X54288591Y-156479000D01*
X54385285Y-156498234D01*
X54385285Y-156498234D01*
G37*
G36*
X73435285Y-156498234D02*
G01*
X73531981Y-156517468D01*
X73714151Y-156592926D01*
X73878100Y-156702473D01*
X74017527Y-156841900D01*
X74127074Y-157005849D01*
X74202532Y-157188019D01*
X74241000Y-157381410D01*
X74241000Y-157578590D01*
X74202532Y-157771981D01*
X74127074Y-157954151D01*
X74017527Y-158118100D01*
X73878100Y-158257527D01*
X73714151Y-158367074D01*
X73531981Y-158442532D01*
X73338591Y-158481000D01*
X73141409Y-158481000D01*
X72948019Y-158442532D01*
X72765849Y-158367074D01*
X72601900Y-158257527D01*
X72462473Y-158118100D01*
X72352926Y-157954151D01*
X72277468Y-157771981D01*
X72239000Y-157578590D01*
X72239000Y-157381410D01*
X72277468Y-157188019D01*
X72352926Y-157005849D01*
X72462473Y-156841900D01*
X72601900Y-156702473D01*
X72765849Y-156592926D01*
X72948019Y-156517468D01*
X73044715Y-156498234D01*
X73141409Y-156479000D01*
X73338591Y-156479000D01*
X73435285Y-156498234D01*
X73435285Y-156498234D01*
G37*
G36*
X84435285Y-156498234D02*
G01*
X84531981Y-156517468D01*
X84714151Y-156592926D01*
X84878100Y-156702473D01*
X85017527Y-156841900D01*
X85127074Y-157005849D01*
X85202532Y-157188019D01*
X85241000Y-157381410D01*
X85241000Y-157578590D01*
X85202532Y-157771981D01*
X85127074Y-157954151D01*
X85017527Y-158118100D01*
X84878100Y-158257527D01*
X84714151Y-158367074D01*
X84531981Y-158442532D01*
X84338591Y-158481000D01*
X84141409Y-158481000D01*
X83948019Y-158442532D01*
X83765849Y-158367074D01*
X83601900Y-158257527D01*
X83462473Y-158118100D01*
X83352926Y-157954151D01*
X83277468Y-157771981D01*
X83239000Y-157578590D01*
X83239000Y-157381410D01*
X83277468Y-157188019D01*
X83352926Y-157005849D01*
X83462473Y-156841900D01*
X83601900Y-156702473D01*
X83765849Y-156592926D01*
X83948019Y-156517468D01*
X84044715Y-156498234D01*
X84141409Y-156479000D01*
X84338591Y-156479000D01*
X84435285Y-156498234D01*
X84435285Y-156498234D01*
G37*
G36*
X33257142Y-156698242D02*
G01*
X33405101Y-156759529D01*
X33538255Y-156848499D01*
X33651501Y-156961745D01*
X33740471Y-157094899D01*
X33801758Y-157242858D01*
X33833000Y-157399925D01*
X33833000Y-157560075D01*
X33801758Y-157717142D01*
X33740471Y-157865101D01*
X33651501Y-157998255D01*
X33538255Y-158111501D01*
X33405101Y-158200471D01*
X33257142Y-158261758D01*
X33100075Y-158293000D01*
X32939925Y-158293000D01*
X32782858Y-158261758D01*
X32634899Y-158200471D01*
X32501745Y-158111501D01*
X32388499Y-157998255D01*
X32299529Y-157865101D01*
X32238242Y-157717142D01*
X32207000Y-157560075D01*
X32207000Y-157399925D01*
X32238242Y-157242858D01*
X32299529Y-157094899D01*
X32388499Y-156961745D01*
X32501745Y-156848499D01*
X32634899Y-156759529D01*
X32782858Y-156698242D01*
X32939925Y-156667000D01*
X33100075Y-156667000D01*
X33257142Y-156698242D01*
X33257142Y-156698242D01*
G37*
G36*
X48497142Y-156698242D02*
G01*
X48645101Y-156759529D01*
X48778255Y-156848499D01*
X48891501Y-156961745D01*
X48980471Y-157094899D01*
X49041758Y-157242858D01*
X49073000Y-157399925D01*
X49073000Y-157560075D01*
X49041758Y-157717142D01*
X48980471Y-157865101D01*
X48891501Y-157998255D01*
X48778255Y-158111501D01*
X48645101Y-158200471D01*
X48497142Y-158261758D01*
X48340075Y-158293000D01*
X48179925Y-158293000D01*
X48022858Y-158261758D01*
X47874899Y-158200471D01*
X47741745Y-158111501D01*
X47628499Y-157998255D01*
X47539529Y-157865101D01*
X47478242Y-157717142D01*
X47447000Y-157560075D01*
X47447000Y-157399925D01*
X47478242Y-157242858D01*
X47539529Y-157094899D01*
X47628499Y-156961745D01*
X47741745Y-156848499D01*
X47874899Y-156759529D01*
X48022858Y-156698242D01*
X48179925Y-156667000D01*
X48340075Y-156667000D01*
X48497142Y-156698242D01*
X48497142Y-156698242D01*
G37*
G36*
X33257142Y-154158242D02*
G01*
X33405101Y-154219529D01*
X33538255Y-154308499D01*
X33651501Y-154421745D01*
X33740471Y-154554899D01*
X33801758Y-154702858D01*
X33833000Y-154859925D01*
X33833000Y-155020075D01*
X33801758Y-155177142D01*
X33740471Y-155325101D01*
X33651501Y-155458255D01*
X33538255Y-155571501D01*
X33405101Y-155660471D01*
X33257142Y-155721758D01*
X33100075Y-155753000D01*
X32939925Y-155753000D01*
X32782858Y-155721758D01*
X32634899Y-155660471D01*
X32501745Y-155571501D01*
X32388499Y-155458255D01*
X32299529Y-155325101D01*
X32238242Y-155177142D01*
X32207000Y-155020075D01*
X32207000Y-154859925D01*
X32238242Y-154702858D01*
X32299529Y-154554899D01*
X32388499Y-154421745D01*
X32501745Y-154308499D01*
X32634899Y-154219529D01*
X32782858Y-154158242D01*
X32939925Y-154127000D01*
X33100075Y-154127000D01*
X33257142Y-154158242D01*
X33257142Y-154158242D01*
G37*
G36*
X48497142Y-154158242D02*
G01*
X48645101Y-154219529D01*
X48778255Y-154308499D01*
X48891501Y-154421745D01*
X48980471Y-154554899D01*
X49041758Y-154702858D01*
X49073000Y-154859925D01*
X49073000Y-155020075D01*
X49041758Y-155177142D01*
X48980471Y-155325101D01*
X48891501Y-155458255D01*
X48778255Y-155571501D01*
X48645101Y-155660471D01*
X48497142Y-155721758D01*
X48340075Y-155753000D01*
X48179925Y-155753000D01*
X48022858Y-155721758D01*
X47874899Y-155660471D01*
X47741745Y-155571501D01*
X47628499Y-155458255D01*
X47539529Y-155325101D01*
X47478242Y-155177142D01*
X47447000Y-155020075D01*
X47447000Y-154859925D01*
X47478242Y-154702858D01*
X47539529Y-154554899D01*
X47628499Y-154421745D01*
X47741745Y-154308499D01*
X47874899Y-154219529D01*
X48022858Y-154158242D01*
X48179925Y-154127000D01*
X48340075Y-154127000D01*
X48497142Y-154158242D01*
X48497142Y-154158242D01*
G37*
G36*
X33257142Y-151618242D02*
G01*
X33405101Y-151679529D01*
X33538255Y-151768499D01*
X33651501Y-151881745D01*
X33740471Y-152014899D01*
X33801758Y-152162858D01*
X33833000Y-152319925D01*
X33833000Y-152480075D01*
X33801758Y-152637142D01*
X33740471Y-152785101D01*
X33651501Y-152918255D01*
X33538255Y-153031501D01*
X33405101Y-153120471D01*
X33257142Y-153181758D01*
X33100075Y-153213000D01*
X32939925Y-153213000D01*
X32782858Y-153181758D01*
X32634899Y-153120471D01*
X32501745Y-153031501D01*
X32388499Y-152918255D01*
X32299529Y-152785101D01*
X32238242Y-152637142D01*
X32207000Y-152480075D01*
X32207000Y-152319925D01*
X32238242Y-152162858D01*
X32299529Y-152014899D01*
X32388499Y-151881745D01*
X32501745Y-151768499D01*
X32634899Y-151679529D01*
X32782858Y-151618242D01*
X32939925Y-151587000D01*
X33100075Y-151587000D01*
X33257142Y-151618242D01*
X33257142Y-151618242D01*
G37*
G36*
X48497142Y-151618242D02*
G01*
X48645101Y-151679529D01*
X48778255Y-151768499D01*
X48891501Y-151881745D01*
X48980471Y-152014899D01*
X49041758Y-152162858D01*
X49073000Y-152319925D01*
X49073000Y-152480075D01*
X49041758Y-152637142D01*
X48980471Y-152785101D01*
X48891501Y-152918255D01*
X48778255Y-153031501D01*
X48645101Y-153120471D01*
X48497142Y-153181758D01*
X48340075Y-153213000D01*
X48179925Y-153213000D01*
X48022858Y-153181758D01*
X47874899Y-153120471D01*
X47741745Y-153031501D01*
X47628499Y-152918255D01*
X47539529Y-152785101D01*
X47478242Y-152637142D01*
X47447000Y-152480075D01*
X47447000Y-152319925D01*
X47478242Y-152162858D01*
X47539529Y-152014899D01*
X47628499Y-151881745D01*
X47741745Y-151768499D01*
X47874899Y-151679529D01*
X48022858Y-151618242D01*
X48179925Y-151587000D01*
X48340075Y-151587000D01*
X48497142Y-151618242D01*
X48497142Y-151618242D01*
G37*
G36*
X48497142Y-149078242D02*
G01*
X48645101Y-149139529D01*
X48778255Y-149228499D01*
X48891501Y-149341745D01*
X48980471Y-149474899D01*
X49041758Y-149622858D01*
X49073000Y-149779925D01*
X49073000Y-149940075D01*
X49041758Y-150097142D01*
X48980471Y-150245101D01*
X48891501Y-150378255D01*
X48778255Y-150491501D01*
X48645101Y-150580471D01*
X48497142Y-150641758D01*
X48340075Y-150673000D01*
X48179925Y-150673000D01*
X48022858Y-150641758D01*
X47874899Y-150580471D01*
X47741745Y-150491501D01*
X47628499Y-150378255D01*
X47539529Y-150245101D01*
X47478242Y-150097142D01*
X47447000Y-149940075D01*
X47447000Y-149779925D01*
X47478242Y-149622858D01*
X47539529Y-149474899D01*
X47628499Y-149341745D01*
X47741745Y-149228499D01*
X47874899Y-149139529D01*
X48022858Y-149078242D01*
X48179925Y-149047000D01*
X48340075Y-149047000D01*
X48497142Y-149078242D01*
X48497142Y-149078242D01*
G37*
G36*
X33257142Y-149078242D02*
G01*
X33405101Y-149139529D01*
X33538255Y-149228499D01*
X33651501Y-149341745D01*
X33740471Y-149474899D01*
X33801758Y-149622858D01*
X33833000Y-149779925D01*
X33833000Y-149940075D01*
X33801758Y-150097142D01*
X33740471Y-150245101D01*
X33651501Y-150378255D01*
X33538255Y-150491501D01*
X33405101Y-150580471D01*
X33257142Y-150641758D01*
X33100075Y-150673000D01*
X32939925Y-150673000D01*
X32782858Y-150641758D01*
X32634899Y-150580471D01*
X32501745Y-150491501D01*
X32388499Y-150378255D01*
X32299529Y-150245101D01*
X32238242Y-150097142D01*
X32207000Y-149940075D01*
X32207000Y-149779925D01*
X32238242Y-149622858D01*
X32299529Y-149474899D01*
X32388499Y-149341745D01*
X32501745Y-149228499D01*
X32634899Y-149139529D01*
X32782858Y-149078242D01*
X32939925Y-149047000D01*
X33100075Y-149047000D01*
X33257142Y-149078242D01*
X33257142Y-149078242D01*
G37*
G36*
X33257142Y-146538242D02*
G01*
X33405101Y-146599529D01*
X33538255Y-146688499D01*
X33651501Y-146801745D01*
X33740471Y-146934899D01*
X33801758Y-147082858D01*
X33833000Y-147239925D01*
X33833000Y-147400075D01*
X33801758Y-147557142D01*
X33740471Y-147705101D01*
X33651501Y-147838255D01*
X33538255Y-147951501D01*
X33405101Y-148040471D01*
X33257142Y-148101758D01*
X33100075Y-148133000D01*
X32939925Y-148133000D01*
X32782858Y-148101758D01*
X32634899Y-148040471D01*
X32501745Y-147951501D01*
X32388499Y-147838255D01*
X32299529Y-147705101D01*
X32238242Y-147557142D01*
X32207000Y-147400075D01*
X32207000Y-147239925D01*
X32238242Y-147082858D01*
X32299529Y-146934899D01*
X32388499Y-146801745D01*
X32501745Y-146688499D01*
X32634899Y-146599529D01*
X32782858Y-146538242D01*
X32939925Y-146507000D01*
X33100075Y-146507000D01*
X33257142Y-146538242D01*
X33257142Y-146538242D01*
G37*
G36*
X48497142Y-146538242D02*
G01*
X48645101Y-146599529D01*
X48778255Y-146688499D01*
X48891501Y-146801745D01*
X48980471Y-146934899D01*
X49041758Y-147082858D01*
X49073000Y-147239925D01*
X49073000Y-147400075D01*
X49041758Y-147557142D01*
X48980471Y-147705101D01*
X48891501Y-147838255D01*
X48778255Y-147951501D01*
X48645101Y-148040471D01*
X48497142Y-148101758D01*
X48340075Y-148133000D01*
X48179925Y-148133000D01*
X48022858Y-148101758D01*
X47874899Y-148040471D01*
X47741745Y-147951501D01*
X47628499Y-147838255D01*
X47539529Y-147705101D01*
X47478242Y-147557142D01*
X47447000Y-147400075D01*
X47447000Y-147239925D01*
X47478242Y-147082858D01*
X47539529Y-146934899D01*
X47628499Y-146801745D01*
X47741745Y-146688499D01*
X47874899Y-146599529D01*
X48022858Y-146538242D01*
X48179925Y-146507000D01*
X48340075Y-146507000D01*
X48497142Y-146538242D01*
X48497142Y-146538242D01*
G37*
G36*
X48497142Y-143998242D02*
G01*
X48645101Y-144059529D01*
X48778255Y-144148499D01*
X48891501Y-144261745D01*
X48980471Y-144394899D01*
X49041758Y-144542858D01*
X49073000Y-144699925D01*
X49073000Y-144860075D01*
X49041758Y-145017142D01*
X48980471Y-145165101D01*
X48891501Y-145298255D01*
X48778255Y-145411501D01*
X48645101Y-145500471D01*
X48497142Y-145561758D01*
X48340075Y-145593000D01*
X48179925Y-145593000D01*
X48022858Y-145561758D01*
X47874899Y-145500471D01*
X47741745Y-145411501D01*
X47628499Y-145298255D01*
X47539529Y-145165101D01*
X47478242Y-145017142D01*
X47447000Y-144860075D01*
X47447000Y-144699925D01*
X47478242Y-144542858D01*
X47539529Y-144394899D01*
X47628499Y-144261745D01*
X47741745Y-144148499D01*
X47874899Y-144059529D01*
X48022858Y-143998242D01*
X48179925Y-143967000D01*
X48340075Y-143967000D01*
X48497142Y-143998242D01*
X48497142Y-143998242D01*
G37*
G36*
X33257142Y-143998242D02*
G01*
X33405101Y-144059529D01*
X33538255Y-144148499D01*
X33651501Y-144261745D01*
X33740471Y-144394899D01*
X33801758Y-144542858D01*
X33833000Y-144699925D01*
X33833000Y-144860075D01*
X33801758Y-145017142D01*
X33740471Y-145165101D01*
X33651501Y-145298255D01*
X33538255Y-145411501D01*
X33405101Y-145500471D01*
X33257142Y-145561758D01*
X33100075Y-145593000D01*
X32939925Y-145593000D01*
X32782858Y-145561758D01*
X32634899Y-145500471D01*
X32501745Y-145411501D01*
X32388499Y-145298255D01*
X32299529Y-145165101D01*
X32238242Y-145017142D01*
X32207000Y-144860075D01*
X32207000Y-144699925D01*
X32238242Y-144542858D01*
X32299529Y-144394899D01*
X32388499Y-144261745D01*
X32501745Y-144148499D01*
X32634899Y-144059529D01*
X32782858Y-143998242D01*
X32939925Y-143967000D01*
X33100075Y-143967000D01*
X33257142Y-143998242D01*
X33257142Y-143998242D01*
G37*
G36*
X54916564Y-143209389D02*
G01*
X55107833Y-143288615D01*
X55107835Y-143288616D01*
X55279973Y-143403635D01*
X55426365Y-143550027D01*
X55541385Y-143722167D01*
X55620611Y-143913436D01*
X55661000Y-144116484D01*
X55661000Y-144323516D01*
X55620611Y-144526564D01*
X55548803Y-144699925D01*
X55541384Y-144717835D01*
X55426365Y-144889973D01*
X55279973Y-145036365D01*
X55107835Y-145151384D01*
X55107834Y-145151385D01*
X55107833Y-145151385D01*
X54916564Y-145230611D01*
X54713516Y-145271000D01*
X54506484Y-145271000D01*
X54303436Y-145230611D01*
X54112167Y-145151385D01*
X54112166Y-145151385D01*
X54112165Y-145151384D01*
X53940027Y-145036365D01*
X53793635Y-144889973D01*
X53678616Y-144717835D01*
X53671197Y-144699925D01*
X53599389Y-144526564D01*
X53559000Y-144323516D01*
X53559000Y-144116484D01*
X53599389Y-143913436D01*
X53678615Y-143722167D01*
X53793635Y-143550027D01*
X53940027Y-143403635D01*
X54112165Y-143288616D01*
X54112167Y-143288615D01*
X54303436Y-143209389D01*
X54506484Y-143169000D01*
X54713516Y-143169000D01*
X54916564Y-143209389D01*
X54916564Y-143209389D01*
G37*
G36*
X64864425Y-142764599D02*
G01*
X64988621Y-142789302D01*
X65125022Y-142845801D01*
X65247779Y-142927825D01*
X65352175Y-143032221D01*
X65434199Y-143154978D01*
X65490698Y-143291379D01*
X65519500Y-143436181D01*
X65519500Y-143583819D01*
X65490698Y-143728621D01*
X65434199Y-143865022D01*
X65352175Y-143987779D01*
X65247779Y-144092175D01*
X65125022Y-144174199D01*
X64988621Y-144230698D01*
X64864425Y-144255401D01*
X64843820Y-144259500D01*
X64696180Y-144259500D01*
X64675575Y-144255401D01*
X64551379Y-144230698D01*
X64414978Y-144174199D01*
X64292221Y-144092175D01*
X64187825Y-143987779D01*
X64105801Y-143865022D01*
X64049302Y-143728621D01*
X64020500Y-143583819D01*
X64020500Y-143436181D01*
X64049302Y-143291379D01*
X64105801Y-143154978D01*
X64187825Y-143032221D01*
X64292221Y-142927825D01*
X64414978Y-142845801D01*
X64551379Y-142789302D01*
X64675575Y-142764599D01*
X64696180Y-142760500D01*
X64843820Y-142760500D01*
X64864425Y-142764599D01*
X64864425Y-142764599D01*
G37*
G36*
X61054425Y-142764599D02*
G01*
X61178621Y-142789302D01*
X61315022Y-142845801D01*
X61437779Y-142927825D01*
X61542175Y-143032221D01*
X61624199Y-143154978D01*
X61680698Y-143291379D01*
X61709500Y-143436181D01*
X61709500Y-143583819D01*
X61680698Y-143728621D01*
X61624199Y-143865022D01*
X61542175Y-143987779D01*
X61437779Y-144092175D01*
X61315022Y-144174199D01*
X61178621Y-144230698D01*
X61054425Y-144255401D01*
X61033820Y-144259500D01*
X60886180Y-144259500D01*
X60865575Y-144255401D01*
X60741379Y-144230698D01*
X60604978Y-144174199D01*
X60482221Y-144092175D01*
X60377825Y-143987779D01*
X60295801Y-143865022D01*
X60239302Y-143728621D01*
X60210500Y-143583819D01*
X60210500Y-143436181D01*
X60239302Y-143291379D01*
X60295801Y-143154978D01*
X60377825Y-143032221D01*
X60482221Y-142927825D01*
X60604978Y-142845801D01*
X60741379Y-142789302D01*
X60865575Y-142764599D01*
X60886180Y-142760500D01*
X61033820Y-142760500D01*
X61054425Y-142764599D01*
X61054425Y-142764599D01*
G37*
G36*
X68674425Y-142764599D02*
G01*
X68798621Y-142789302D01*
X68935022Y-142845801D01*
X69057779Y-142927825D01*
X69162175Y-143032221D01*
X69244199Y-143154978D01*
X69300698Y-143291379D01*
X69329500Y-143436181D01*
X69329500Y-143583819D01*
X69300698Y-143728621D01*
X69244199Y-143865022D01*
X69162175Y-143987779D01*
X69057779Y-144092175D01*
X68935022Y-144174199D01*
X68798621Y-144230698D01*
X68674425Y-144255401D01*
X68653820Y-144259500D01*
X68506180Y-144259500D01*
X68485575Y-144255401D01*
X68361379Y-144230698D01*
X68224978Y-144174199D01*
X68102221Y-144092175D01*
X67997825Y-143987779D01*
X67915801Y-143865022D01*
X67859302Y-143728621D01*
X67830500Y-143583819D01*
X67830500Y-143436181D01*
X67859302Y-143291379D01*
X67915801Y-143154978D01*
X67997825Y-143032221D01*
X68102221Y-142927825D01*
X68224978Y-142845801D01*
X68361379Y-142789302D01*
X68485575Y-142764599D01*
X68506180Y-142760500D01*
X68653820Y-142760500D01*
X68674425Y-142764599D01*
X68674425Y-142764599D01*
G37*
G36*
X72484425Y-142764599D02*
G01*
X72608621Y-142789302D01*
X72745022Y-142845801D01*
X72867779Y-142927825D01*
X72972175Y-143032221D01*
X73054199Y-143154978D01*
X73110698Y-143291379D01*
X73139500Y-143436181D01*
X73139500Y-143583819D01*
X73110698Y-143728621D01*
X73054199Y-143865022D01*
X72972175Y-143987779D01*
X72867779Y-144092175D01*
X72745022Y-144174199D01*
X72608621Y-144230698D01*
X72484425Y-144255401D01*
X72463820Y-144259500D01*
X72316180Y-144259500D01*
X72295575Y-144255401D01*
X72171379Y-144230698D01*
X72034978Y-144174199D01*
X71912221Y-144092175D01*
X71807825Y-143987779D01*
X71725801Y-143865022D01*
X71669302Y-143728621D01*
X71640500Y-143583819D01*
X71640500Y-143436181D01*
X71669302Y-143291379D01*
X71725801Y-143154978D01*
X71807825Y-143032221D01*
X71912221Y-142927825D01*
X72034978Y-142845801D01*
X72171379Y-142789302D01*
X72295575Y-142764599D01*
X72316180Y-142760500D01*
X72463820Y-142760500D01*
X72484425Y-142764599D01*
X72484425Y-142764599D01*
G37*
G36*
X76294425Y-142764599D02*
G01*
X76418621Y-142789302D01*
X76555022Y-142845801D01*
X76677779Y-142927825D01*
X76782175Y-143032221D01*
X76864199Y-143154978D01*
X76920698Y-143291379D01*
X76949500Y-143436181D01*
X76949500Y-143583819D01*
X76920698Y-143728621D01*
X76864199Y-143865022D01*
X76782175Y-143987779D01*
X76677779Y-144092175D01*
X76555022Y-144174199D01*
X76418621Y-144230698D01*
X76294425Y-144255401D01*
X76273820Y-144259500D01*
X76126180Y-144259500D01*
X76105575Y-144255401D01*
X75981379Y-144230698D01*
X75844978Y-144174199D01*
X75722221Y-144092175D01*
X75617825Y-143987779D01*
X75535801Y-143865022D01*
X75479302Y-143728621D01*
X75450500Y-143583819D01*
X75450500Y-143436181D01*
X75479302Y-143291379D01*
X75535801Y-143154978D01*
X75617825Y-143032221D01*
X75722221Y-142927825D01*
X75844978Y-142845801D01*
X75981379Y-142789302D01*
X76105575Y-142764599D01*
X76126180Y-142760500D01*
X76273820Y-142760500D01*
X76294425Y-142764599D01*
X76294425Y-142764599D01*
G37*
G36*
X83914425Y-142764599D02*
G01*
X84038621Y-142789302D01*
X84175022Y-142845801D01*
X84297779Y-142927825D01*
X84402175Y-143032221D01*
X84484199Y-143154978D01*
X84540698Y-143291379D01*
X84569500Y-143436181D01*
X84569500Y-143583819D01*
X84540698Y-143728621D01*
X84484199Y-143865022D01*
X84402175Y-143987779D01*
X84297779Y-144092175D01*
X84175022Y-144174199D01*
X84038621Y-144230698D01*
X83914425Y-144255401D01*
X83893820Y-144259500D01*
X83746180Y-144259500D01*
X83725575Y-144255401D01*
X83601379Y-144230698D01*
X83464978Y-144174199D01*
X83342221Y-144092175D01*
X83237825Y-143987779D01*
X83155801Y-143865022D01*
X83099302Y-143728621D01*
X83070500Y-143583819D01*
X83070500Y-143436181D01*
X83099302Y-143291379D01*
X83155801Y-143154978D01*
X83237825Y-143032221D01*
X83342221Y-142927825D01*
X83464978Y-142845801D01*
X83601379Y-142789302D01*
X83725575Y-142764599D01*
X83746180Y-142760500D01*
X83893820Y-142760500D01*
X83914425Y-142764599D01*
X83914425Y-142764599D01*
G37*
G36*
X80104425Y-142764599D02*
G01*
X80228621Y-142789302D01*
X80365022Y-142845801D01*
X80487779Y-142927825D01*
X80592175Y-143032221D01*
X80674199Y-143154978D01*
X80730698Y-143291379D01*
X80759500Y-143436181D01*
X80759500Y-143583819D01*
X80730698Y-143728621D01*
X80674199Y-143865022D01*
X80592175Y-143987779D01*
X80487779Y-144092175D01*
X80365022Y-144174199D01*
X80228621Y-144230698D01*
X80104425Y-144255401D01*
X80083820Y-144259500D01*
X79936180Y-144259500D01*
X79915575Y-144255401D01*
X79791379Y-144230698D01*
X79654978Y-144174199D01*
X79532221Y-144092175D01*
X79427825Y-143987779D01*
X79345801Y-143865022D01*
X79289302Y-143728621D01*
X79260500Y-143583819D01*
X79260500Y-143436181D01*
X79289302Y-143291379D01*
X79345801Y-143154978D01*
X79427825Y-143032221D01*
X79532221Y-142927825D01*
X79654978Y-142845801D01*
X79791379Y-142789302D01*
X79915575Y-142764599D01*
X79936180Y-142760500D01*
X80083820Y-142760500D01*
X80104425Y-142764599D01*
X80104425Y-142764599D01*
G37*
G36*
X33257142Y-141458242D02*
G01*
X33405101Y-141519529D01*
X33538255Y-141608499D01*
X33651501Y-141721745D01*
X33740471Y-141854899D01*
X33801758Y-142002858D01*
X33833000Y-142159925D01*
X33833000Y-142320075D01*
X33801758Y-142477142D01*
X33740471Y-142625101D01*
X33651501Y-142758255D01*
X33538255Y-142871501D01*
X33405101Y-142960471D01*
X33257142Y-143021758D01*
X33100075Y-143053000D01*
X32939925Y-143053000D01*
X32782858Y-143021758D01*
X32634899Y-142960471D01*
X32501745Y-142871501D01*
X32388499Y-142758255D01*
X32299529Y-142625101D01*
X32238242Y-142477142D01*
X32207000Y-142320075D01*
X32207000Y-142159925D01*
X32238242Y-142002858D01*
X32299529Y-141854899D01*
X32388499Y-141721745D01*
X32501745Y-141608499D01*
X32634899Y-141519529D01*
X32782858Y-141458242D01*
X32939925Y-141427000D01*
X33100075Y-141427000D01*
X33257142Y-141458242D01*
X33257142Y-141458242D01*
G37*
G36*
X48497142Y-141458242D02*
G01*
X48645101Y-141519529D01*
X48778255Y-141608499D01*
X48891501Y-141721745D01*
X48980471Y-141854899D01*
X49041758Y-142002858D01*
X49073000Y-142159925D01*
X49073000Y-142320075D01*
X49041758Y-142477142D01*
X48980471Y-142625101D01*
X48891501Y-142758255D01*
X48778255Y-142871501D01*
X48645101Y-142960471D01*
X48497142Y-143021758D01*
X48340075Y-143053000D01*
X48179925Y-143053000D01*
X48022858Y-143021758D01*
X47874899Y-142960471D01*
X47741745Y-142871501D01*
X47628499Y-142758255D01*
X47539529Y-142625101D01*
X47478242Y-142477142D01*
X47447000Y-142320075D01*
X47447000Y-142159925D01*
X47478242Y-142002858D01*
X47539529Y-141854899D01*
X47628499Y-141721745D01*
X47741745Y-141608499D01*
X47874899Y-141519529D01*
X48022858Y-141458242D01*
X48179925Y-141427000D01*
X48340075Y-141427000D01*
X48497142Y-141458242D01*
X48497142Y-141458242D01*
G37*
G36*
X33257142Y-138918242D02*
G01*
X33405101Y-138979529D01*
X33538255Y-139068499D01*
X33651501Y-139181745D01*
X33740471Y-139314899D01*
X33801758Y-139462858D01*
X33833000Y-139619925D01*
X33833000Y-139780075D01*
X33801758Y-139937142D01*
X33740471Y-140085101D01*
X33651501Y-140218255D01*
X33538255Y-140331501D01*
X33405101Y-140420471D01*
X33257142Y-140481758D01*
X33100075Y-140513000D01*
X32939925Y-140513000D01*
X32782858Y-140481758D01*
X32634899Y-140420471D01*
X32501745Y-140331501D01*
X32388499Y-140218255D01*
X32299529Y-140085101D01*
X32238242Y-139937142D01*
X32207000Y-139780075D01*
X32207000Y-139619925D01*
X32238242Y-139462858D01*
X32299529Y-139314899D01*
X32388499Y-139181745D01*
X32501745Y-139068499D01*
X32634899Y-138979529D01*
X32782858Y-138918242D01*
X32939925Y-138887000D01*
X33100075Y-138887000D01*
X33257142Y-138918242D01*
X33257142Y-138918242D01*
G37*
G36*
X49073000Y-140513000D02*
G01*
X47447000Y-140513000D01*
X47447000Y-138887000D01*
X49073000Y-138887000D01*
X49073000Y-140513000D01*
X49073000Y-140513000D01*
G37*
G36*
X80104425Y-137684599D02*
G01*
X80228621Y-137709302D01*
X80365022Y-137765801D01*
X80487779Y-137847825D01*
X80592175Y-137952221D01*
X80674199Y-138074978D01*
X80730698Y-138211379D01*
X80759500Y-138356181D01*
X80759500Y-138503819D01*
X80730698Y-138648621D01*
X80674199Y-138785022D01*
X80592175Y-138907779D01*
X80487779Y-139012175D01*
X80365022Y-139094199D01*
X80228621Y-139150698D01*
X80104425Y-139175401D01*
X80083820Y-139179500D01*
X79936180Y-139179500D01*
X79915575Y-139175401D01*
X79791379Y-139150698D01*
X79654978Y-139094199D01*
X79532221Y-139012175D01*
X79427825Y-138907779D01*
X79345801Y-138785022D01*
X79289302Y-138648621D01*
X79260500Y-138503819D01*
X79260500Y-138356181D01*
X79289302Y-138211379D01*
X79345801Y-138074978D01*
X79427825Y-137952221D01*
X79532221Y-137847825D01*
X79654978Y-137765801D01*
X79791379Y-137709302D01*
X79915575Y-137684599D01*
X79936180Y-137680500D01*
X80083820Y-137680500D01*
X80104425Y-137684599D01*
X80104425Y-137684599D01*
G37*
G36*
X68674425Y-137684599D02*
G01*
X68798621Y-137709302D01*
X68935022Y-137765801D01*
X69057779Y-137847825D01*
X69162175Y-137952221D01*
X69244199Y-138074978D01*
X69300698Y-138211379D01*
X69329500Y-138356181D01*
X69329500Y-138503819D01*
X69300698Y-138648621D01*
X69244199Y-138785022D01*
X69162175Y-138907779D01*
X69057779Y-139012175D01*
X68935022Y-139094199D01*
X68798621Y-139150698D01*
X68674425Y-139175401D01*
X68653820Y-139179500D01*
X68506180Y-139179500D01*
X68485575Y-139175401D01*
X68361379Y-139150698D01*
X68224978Y-139094199D01*
X68102221Y-139012175D01*
X67997825Y-138907779D01*
X67915801Y-138785022D01*
X67859302Y-138648621D01*
X67830500Y-138503819D01*
X67830500Y-138356181D01*
X67859302Y-138211379D01*
X67915801Y-138074978D01*
X67997825Y-137952221D01*
X68102221Y-137847825D01*
X68224978Y-137765801D01*
X68361379Y-137709302D01*
X68485575Y-137684599D01*
X68506180Y-137680500D01*
X68653820Y-137680500D01*
X68674425Y-137684599D01*
X68674425Y-137684599D01*
G37*
G36*
X83914425Y-137684599D02*
G01*
X84038621Y-137709302D01*
X84175022Y-137765801D01*
X84297779Y-137847825D01*
X84402175Y-137952221D01*
X84484199Y-138074978D01*
X84540698Y-138211379D01*
X84569500Y-138356181D01*
X84569500Y-138503819D01*
X84540698Y-138648621D01*
X84484199Y-138785022D01*
X84402175Y-138907779D01*
X84297779Y-139012175D01*
X84175022Y-139094199D01*
X84038621Y-139150698D01*
X83914425Y-139175401D01*
X83893820Y-139179500D01*
X83746180Y-139179500D01*
X83725575Y-139175401D01*
X83601379Y-139150698D01*
X83464978Y-139094199D01*
X83342221Y-139012175D01*
X83237825Y-138907779D01*
X83155801Y-138785022D01*
X83099302Y-138648621D01*
X83070500Y-138503819D01*
X83070500Y-138356181D01*
X83099302Y-138211379D01*
X83155801Y-138074978D01*
X83237825Y-137952221D01*
X83342221Y-137847825D01*
X83464978Y-137765801D01*
X83601379Y-137709302D01*
X83725575Y-137684599D01*
X83746180Y-137680500D01*
X83893820Y-137680500D01*
X83914425Y-137684599D01*
X83914425Y-137684599D01*
G37*
G36*
X76294425Y-137684599D02*
G01*
X76418621Y-137709302D01*
X76555022Y-137765801D01*
X76677779Y-137847825D01*
X76782175Y-137952221D01*
X76864199Y-138074978D01*
X76920698Y-138211379D01*
X76949500Y-138356181D01*
X76949500Y-138503819D01*
X76920698Y-138648621D01*
X76864199Y-138785022D01*
X76782175Y-138907779D01*
X76677779Y-139012175D01*
X76555022Y-139094199D01*
X76418621Y-139150698D01*
X76294425Y-139175401D01*
X76273820Y-139179500D01*
X76126180Y-139179500D01*
X76105575Y-139175401D01*
X75981379Y-139150698D01*
X75844978Y-139094199D01*
X75722221Y-139012175D01*
X75617825Y-138907779D01*
X75535801Y-138785022D01*
X75479302Y-138648621D01*
X75450500Y-138503819D01*
X75450500Y-138356181D01*
X75479302Y-138211379D01*
X75535801Y-138074978D01*
X75617825Y-137952221D01*
X75722221Y-137847825D01*
X75844978Y-137765801D01*
X75981379Y-137709302D01*
X76105575Y-137684599D01*
X76126180Y-137680500D01*
X76273820Y-137680500D01*
X76294425Y-137684599D01*
X76294425Y-137684599D01*
G37*
G36*
X72484425Y-137684599D02*
G01*
X72608621Y-137709302D01*
X72745022Y-137765801D01*
X72867779Y-137847825D01*
X72972175Y-137952221D01*
X73054199Y-138074978D01*
X73110698Y-138211379D01*
X73139500Y-138356181D01*
X73139500Y-138503819D01*
X73110698Y-138648621D01*
X73054199Y-138785022D01*
X72972175Y-138907779D01*
X72867779Y-139012175D01*
X72745022Y-139094199D01*
X72608621Y-139150698D01*
X72484425Y-139175401D01*
X72463820Y-139179500D01*
X72316180Y-139179500D01*
X72295575Y-139175401D01*
X72171379Y-139150698D01*
X72034978Y-139094199D01*
X71912221Y-139012175D01*
X71807825Y-138907779D01*
X71725801Y-138785022D01*
X71669302Y-138648621D01*
X71640500Y-138503819D01*
X71640500Y-138356181D01*
X71669302Y-138211379D01*
X71725801Y-138074978D01*
X71807825Y-137952221D01*
X71912221Y-137847825D01*
X72034978Y-137765801D01*
X72171379Y-137709302D01*
X72295575Y-137684599D01*
X72316180Y-137680500D01*
X72463820Y-137680500D01*
X72484425Y-137684599D01*
X72484425Y-137684599D01*
G37*
G36*
X64864425Y-137684599D02*
G01*
X64988621Y-137709302D01*
X65125022Y-137765801D01*
X65247779Y-137847825D01*
X65352175Y-137952221D01*
X65434199Y-138074978D01*
X65490698Y-138211379D01*
X65519500Y-138356181D01*
X65519500Y-138503819D01*
X65490698Y-138648621D01*
X65434199Y-138785022D01*
X65352175Y-138907779D01*
X65247779Y-139012175D01*
X65125022Y-139094199D01*
X64988621Y-139150698D01*
X64864425Y-139175401D01*
X64843820Y-139179500D01*
X64696180Y-139179500D01*
X64675575Y-139175401D01*
X64551379Y-139150698D01*
X64414978Y-139094199D01*
X64292221Y-139012175D01*
X64187825Y-138907779D01*
X64105801Y-138785022D01*
X64049302Y-138648621D01*
X64020500Y-138503819D01*
X64020500Y-138356181D01*
X64049302Y-138211379D01*
X64105801Y-138074978D01*
X64187825Y-137952221D01*
X64292221Y-137847825D01*
X64414978Y-137765801D01*
X64551379Y-137709302D01*
X64675575Y-137684599D01*
X64696180Y-137680500D01*
X64843820Y-137680500D01*
X64864425Y-137684599D01*
X64864425Y-137684599D01*
G37*
G36*
X61054425Y-137684599D02*
G01*
X61178621Y-137709302D01*
X61315022Y-137765801D01*
X61437779Y-137847825D01*
X61542175Y-137952221D01*
X61624199Y-138074978D01*
X61680698Y-138211379D01*
X61709500Y-138356181D01*
X61709500Y-138503819D01*
X61680698Y-138648621D01*
X61624199Y-138785022D01*
X61542175Y-138907779D01*
X61437779Y-139012175D01*
X61315022Y-139094199D01*
X61178621Y-139150698D01*
X61054425Y-139175401D01*
X61033820Y-139179500D01*
X60886180Y-139179500D01*
X60865575Y-139175401D01*
X60741379Y-139150698D01*
X60604978Y-139094199D01*
X60482221Y-139012175D01*
X60377825Y-138907779D01*
X60295801Y-138785022D01*
X60239302Y-138648621D01*
X60210500Y-138503819D01*
X60210500Y-138356181D01*
X60239302Y-138211379D01*
X60295801Y-138074978D01*
X60377825Y-137952221D01*
X60482221Y-137847825D01*
X60604978Y-137765801D01*
X60741379Y-137709302D01*
X60865575Y-137684599D01*
X60886180Y-137680500D01*
X61033820Y-137680500D01*
X61054425Y-137684599D01*
X61054425Y-137684599D01*
G37*
G36*
X54916564Y-136709389D02*
G01*
X55107833Y-136788615D01*
X55107835Y-136788616D01*
X55279973Y-136903635D01*
X55426365Y-137050027D01*
X55541385Y-137222167D01*
X55620611Y-137413436D01*
X55661000Y-137616484D01*
X55661000Y-137823516D01*
X55620611Y-138026564D01*
X55600557Y-138074978D01*
X55541384Y-138217835D01*
X55426365Y-138389973D01*
X55279973Y-138536365D01*
X55107835Y-138651384D01*
X55107834Y-138651385D01*
X55107833Y-138651385D01*
X54916564Y-138730611D01*
X54713516Y-138771000D01*
X54506484Y-138771000D01*
X54303436Y-138730611D01*
X54112167Y-138651385D01*
X54112166Y-138651385D01*
X54112165Y-138651384D01*
X53940027Y-138536365D01*
X53793635Y-138389973D01*
X53678616Y-138217835D01*
X53619443Y-138074978D01*
X53599389Y-138026564D01*
X53559000Y-137823516D01*
X53559000Y-137616484D01*
X53599389Y-137413436D01*
X53678615Y-137222167D01*
X53793635Y-137050027D01*
X53940027Y-136903635D01*
X54112165Y-136788616D01*
X54112167Y-136788615D01*
X54303436Y-136709389D01*
X54506484Y-136669000D01*
X54713516Y-136669000D01*
X54916564Y-136709389D01*
X54916564Y-136709389D01*
G37*
M02*
