G04 #@! TF.GenerationSoftware,KiCad,Pcbnew,(5.1.2)-1*
G04 #@! TF.CreationDate,2022-03-23T05:29:32+09:00*
G04 #@! TF.ProjectId,pcb,7063622e-6b69-4636-9164-5f7063625858,rev?*
G04 #@! TF.SameCoordinates,Original*
G04 #@! TF.FileFunction,Soldermask,Bot*
G04 #@! TF.FilePolarity,Negative*
%FSLAX46Y46*%
G04 Gerber Fmt 4.6, Leading zero omitted, Abs format (unit mm)*
G04 Created by KiCad (PCBNEW (5.1.2)-1) date 2022-03-23 05:29:32*
%MOMM*%
%LPD*%
G04 APERTURE LIST*
%ADD10C,0.100000*%
G04 APERTURE END LIST*
D10*
G36*
X79338254Y-177097818D02*
G01*
X79711511Y-177252426D01*
X79711513Y-177252427D01*
X79747937Y-177276765D01*
X80047436Y-177476884D01*
X80333116Y-177762564D01*
X80557574Y-178098489D01*
X80712182Y-178471746D01*
X80791000Y-178867993D01*
X80791000Y-179272007D01*
X80712182Y-179668254D01*
X80561293Y-180032532D01*
X80557573Y-180041513D01*
X80333116Y-180377436D01*
X80047436Y-180663116D01*
X79711513Y-180887573D01*
X79711512Y-180887574D01*
X79711511Y-180887574D01*
X79338254Y-181042182D01*
X78942007Y-181121000D01*
X78537993Y-181121000D01*
X78141746Y-181042182D01*
X77768489Y-180887574D01*
X77768488Y-180887574D01*
X77768487Y-180887573D01*
X77432564Y-180663116D01*
X77146884Y-180377436D01*
X76922427Y-180041513D01*
X76918707Y-180032532D01*
X76767818Y-179668254D01*
X76689000Y-179272007D01*
X76689000Y-178867993D01*
X76767818Y-178471746D01*
X76922426Y-178098489D01*
X77146884Y-177762564D01*
X77432564Y-177476884D01*
X77732063Y-177276765D01*
X77768487Y-177252427D01*
X77768489Y-177252426D01*
X78141746Y-177097818D01*
X78537993Y-177019000D01*
X78942007Y-177019000D01*
X79338254Y-177097818D01*
X79338254Y-177097818D01*
G37*
G36*
X60288254Y-177097818D02*
G01*
X60661511Y-177252426D01*
X60661513Y-177252427D01*
X60697937Y-177276765D01*
X60997436Y-177476884D01*
X61283116Y-177762564D01*
X61507574Y-178098489D01*
X61662182Y-178471746D01*
X61741000Y-178867993D01*
X61741000Y-179272007D01*
X61662182Y-179668254D01*
X61511293Y-180032532D01*
X61507573Y-180041513D01*
X61283116Y-180377436D01*
X60997436Y-180663116D01*
X60661513Y-180887573D01*
X60661512Y-180887574D01*
X60661511Y-180887574D01*
X60288254Y-181042182D01*
X59892007Y-181121000D01*
X59487993Y-181121000D01*
X59091746Y-181042182D01*
X58718489Y-180887574D01*
X58718488Y-180887574D01*
X58718487Y-180887573D01*
X58382564Y-180663116D01*
X58096884Y-180377436D01*
X57872427Y-180041513D01*
X57868707Y-180032532D01*
X57717818Y-179668254D01*
X57639000Y-179272007D01*
X57639000Y-178867993D01*
X57717818Y-178471746D01*
X57872426Y-178098489D01*
X58096884Y-177762564D01*
X58382564Y-177476884D01*
X58682063Y-177276765D01*
X58718487Y-177252427D01*
X58718489Y-177252426D01*
X59091746Y-177097818D01*
X59487993Y-177019000D01*
X59892007Y-177019000D01*
X60288254Y-177097818D01*
X60288254Y-177097818D01*
G37*
G36*
X41238254Y-177097818D02*
G01*
X41611511Y-177252426D01*
X41611513Y-177252427D01*
X41647937Y-177276765D01*
X41947436Y-177476884D01*
X42233116Y-177762564D01*
X42457574Y-178098489D01*
X42612182Y-178471746D01*
X42691000Y-178867993D01*
X42691000Y-179272007D01*
X42612182Y-179668254D01*
X42461293Y-180032532D01*
X42457573Y-180041513D01*
X42233116Y-180377436D01*
X41947436Y-180663116D01*
X41611513Y-180887573D01*
X41611512Y-180887574D01*
X41611511Y-180887574D01*
X41238254Y-181042182D01*
X40842007Y-181121000D01*
X40437993Y-181121000D01*
X40041746Y-181042182D01*
X39668489Y-180887574D01*
X39668488Y-180887574D01*
X39668487Y-180887573D01*
X39332564Y-180663116D01*
X39046884Y-180377436D01*
X38822427Y-180041513D01*
X38818707Y-180032532D01*
X38667818Y-179668254D01*
X38589000Y-179272007D01*
X38589000Y-178867993D01*
X38667818Y-178471746D01*
X38822426Y-178098489D01*
X39046884Y-177762564D01*
X39332564Y-177476884D01*
X39632063Y-177276765D01*
X39668487Y-177252427D01*
X39668489Y-177252426D01*
X40041746Y-177097818D01*
X40437993Y-177019000D01*
X40842007Y-177019000D01*
X41238254Y-177097818D01*
X41238254Y-177097818D01*
G37*
G36*
X65385285Y-178088234D02*
G01*
X65481981Y-178107468D01*
X65664151Y-178182926D01*
X65828100Y-178292473D01*
X65967527Y-178431900D01*
X66077074Y-178595849D01*
X66152532Y-178778019D01*
X66191000Y-178971410D01*
X66191000Y-179168590D01*
X66152532Y-179361981D01*
X66077074Y-179544151D01*
X65967527Y-179708100D01*
X65828100Y-179847527D01*
X65664151Y-179957074D01*
X65481981Y-180032532D01*
X65288591Y-180071000D01*
X65091409Y-180071000D01*
X64898019Y-180032532D01*
X64715849Y-179957074D01*
X64551900Y-179847527D01*
X64412473Y-179708100D01*
X64302926Y-179544151D01*
X64227468Y-179361981D01*
X64189000Y-179168590D01*
X64189000Y-178971410D01*
X64227468Y-178778019D01*
X64302926Y-178595849D01*
X64412473Y-178431900D01*
X64551900Y-178292473D01*
X64715849Y-178182926D01*
X64898019Y-178107468D01*
X64994715Y-178088234D01*
X65091409Y-178069000D01*
X65288591Y-178069000D01*
X65385285Y-178088234D01*
X65385285Y-178088234D01*
G37*
G36*
X84435285Y-178088234D02*
G01*
X84531981Y-178107468D01*
X84714151Y-178182926D01*
X84878100Y-178292473D01*
X85017527Y-178431900D01*
X85127074Y-178595849D01*
X85202532Y-178778019D01*
X85241000Y-178971410D01*
X85241000Y-179168590D01*
X85202532Y-179361981D01*
X85127074Y-179544151D01*
X85017527Y-179708100D01*
X84878100Y-179847527D01*
X84714151Y-179957074D01*
X84531981Y-180032532D01*
X84338591Y-180071000D01*
X84141409Y-180071000D01*
X83948019Y-180032532D01*
X83765849Y-179957074D01*
X83601900Y-179847527D01*
X83462473Y-179708100D01*
X83352926Y-179544151D01*
X83277468Y-179361981D01*
X83239000Y-179168590D01*
X83239000Y-178971410D01*
X83277468Y-178778019D01*
X83352926Y-178595849D01*
X83462473Y-178431900D01*
X83601900Y-178292473D01*
X83765849Y-178182926D01*
X83948019Y-178107468D01*
X84044715Y-178088234D01*
X84141409Y-178069000D01*
X84338591Y-178069000D01*
X84435285Y-178088234D01*
X84435285Y-178088234D01*
G37*
G36*
X73435285Y-178088234D02*
G01*
X73531981Y-178107468D01*
X73714151Y-178182926D01*
X73878100Y-178292473D01*
X74017527Y-178431900D01*
X74127074Y-178595849D01*
X74202532Y-178778019D01*
X74241000Y-178971410D01*
X74241000Y-179168590D01*
X74202532Y-179361981D01*
X74127074Y-179544151D01*
X74017527Y-179708100D01*
X73878100Y-179847527D01*
X73714151Y-179957074D01*
X73531981Y-180032532D01*
X73338591Y-180071000D01*
X73141409Y-180071000D01*
X72948019Y-180032532D01*
X72765849Y-179957074D01*
X72601900Y-179847527D01*
X72462473Y-179708100D01*
X72352926Y-179544151D01*
X72277468Y-179361981D01*
X72239000Y-179168590D01*
X72239000Y-178971410D01*
X72277468Y-178778019D01*
X72352926Y-178595849D01*
X72462473Y-178431900D01*
X72601900Y-178292473D01*
X72765849Y-178182926D01*
X72948019Y-178107468D01*
X73044715Y-178088234D01*
X73141409Y-178069000D01*
X73338591Y-178069000D01*
X73435285Y-178088234D01*
X73435285Y-178088234D01*
G37*
G36*
X46335285Y-178088234D02*
G01*
X46431981Y-178107468D01*
X46614151Y-178182926D01*
X46778100Y-178292473D01*
X46917527Y-178431900D01*
X47027074Y-178595849D01*
X47102532Y-178778019D01*
X47141000Y-178971410D01*
X47141000Y-179168590D01*
X47102532Y-179361981D01*
X47027074Y-179544151D01*
X46917527Y-179708100D01*
X46778100Y-179847527D01*
X46614151Y-179957074D01*
X46431981Y-180032532D01*
X46238591Y-180071000D01*
X46041409Y-180071000D01*
X45848019Y-180032532D01*
X45665849Y-179957074D01*
X45501900Y-179847527D01*
X45362473Y-179708100D01*
X45252926Y-179544151D01*
X45177468Y-179361981D01*
X45139000Y-179168590D01*
X45139000Y-178971410D01*
X45177468Y-178778019D01*
X45252926Y-178595849D01*
X45362473Y-178431900D01*
X45501900Y-178292473D01*
X45665849Y-178182926D01*
X45848019Y-178107468D01*
X45944715Y-178088234D01*
X46041409Y-178069000D01*
X46238591Y-178069000D01*
X46335285Y-178088234D01*
X46335285Y-178088234D01*
G37*
G36*
X35335285Y-178088234D02*
G01*
X35431981Y-178107468D01*
X35614151Y-178182926D01*
X35778100Y-178292473D01*
X35917527Y-178431900D01*
X36027074Y-178595849D01*
X36102532Y-178778019D01*
X36141000Y-178971410D01*
X36141000Y-179168590D01*
X36102532Y-179361981D01*
X36027074Y-179544151D01*
X35917527Y-179708100D01*
X35778100Y-179847527D01*
X35614151Y-179957074D01*
X35431981Y-180032532D01*
X35238591Y-180071000D01*
X35041409Y-180071000D01*
X34848019Y-180032532D01*
X34665849Y-179957074D01*
X34501900Y-179847527D01*
X34362473Y-179708100D01*
X34252926Y-179544151D01*
X34177468Y-179361981D01*
X34139000Y-179168590D01*
X34139000Y-178971410D01*
X34177468Y-178778019D01*
X34252926Y-178595849D01*
X34362473Y-178431900D01*
X34501900Y-178292473D01*
X34665849Y-178182926D01*
X34848019Y-178107468D01*
X34944715Y-178088234D01*
X35041409Y-178069000D01*
X35238591Y-178069000D01*
X35335285Y-178088234D01*
X35335285Y-178088234D01*
G37*
G36*
X54385285Y-178088234D02*
G01*
X54481981Y-178107468D01*
X54664151Y-178182926D01*
X54828100Y-178292473D01*
X54967527Y-178431900D01*
X55077074Y-178595849D01*
X55152532Y-178778019D01*
X55191000Y-178971410D01*
X55191000Y-179168590D01*
X55152532Y-179361981D01*
X55077074Y-179544151D01*
X54967527Y-179708100D01*
X54828100Y-179847527D01*
X54664151Y-179957074D01*
X54481981Y-180032532D01*
X54288591Y-180071000D01*
X54091409Y-180071000D01*
X53898019Y-180032532D01*
X53715849Y-179957074D01*
X53551900Y-179847527D01*
X53412473Y-179708100D01*
X53302926Y-179544151D01*
X53227468Y-179361981D01*
X53189000Y-179168590D01*
X53189000Y-178971410D01*
X53227468Y-178778019D01*
X53302926Y-178595849D01*
X53412473Y-178431900D01*
X53551900Y-178292473D01*
X53715849Y-178182926D01*
X53898019Y-178107468D01*
X53994715Y-178088234D01*
X54091409Y-178069000D01*
X54288591Y-178069000D01*
X54385285Y-178088234D01*
X54385285Y-178088234D01*
G37*
G36*
X37183097Y-175484069D02*
G01*
X37286032Y-175494207D01*
X37484146Y-175554305D01*
X37484149Y-175554306D01*
X37580975Y-175606061D01*
X37666729Y-175651897D01*
X37826765Y-175783235D01*
X37958103Y-175943271D01*
X38003939Y-176029025D01*
X38055694Y-176125851D01*
X38055695Y-176125854D01*
X38115793Y-176323968D01*
X38136085Y-176530000D01*
X38115793Y-176736032D01*
X38055695Y-176934146D01*
X38055694Y-176934149D01*
X38010340Y-177019000D01*
X37958103Y-177116729D01*
X37826765Y-177276765D01*
X37666729Y-177408103D01*
X37580975Y-177453939D01*
X37484149Y-177505694D01*
X37484146Y-177505695D01*
X37286032Y-177565793D01*
X37183097Y-177575931D01*
X37131631Y-177581000D01*
X36528369Y-177581000D01*
X36476903Y-177575931D01*
X36373968Y-177565793D01*
X36175854Y-177505695D01*
X36175851Y-177505694D01*
X36079025Y-177453939D01*
X35993271Y-177408103D01*
X35833235Y-177276765D01*
X35701897Y-177116729D01*
X35649660Y-177019000D01*
X35604306Y-176934149D01*
X35604305Y-176934146D01*
X35544207Y-176736032D01*
X35523915Y-176530000D01*
X35544207Y-176323968D01*
X35604305Y-176125854D01*
X35604306Y-176125851D01*
X35656061Y-176029025D01*
X35701897Y-175943271D01*
X35833235Y-175783235D01*
X35993271Y-175651897D01*
X36079025Y-175606061D01*
X36175851Y-175554306D01*
X36175854Y-175554305D01*
X36373968Y-175494207D01*
X36476903Y-175484069D01*
X36528369Y-175479000D01*
X37131631Y-175479000D01*
X37183097Y-175484069D01*
X37183097Y-175484069D01*
G37*
G36*
X56233097Y-175484069D02*
G01*
X56336032Y-175494207D01*
X56534146Y-175554305D01*
X56534149Y-175554306D01*
X56630975Y-175606061D01*
X56716729Y-175651897D01*
X56876765Y-175783235D01*
X57008103Y-175943271D01*
X57053939Y-176029025D01*
X57105694Y-176125851D01*
X57105695Y-176125854D01*
X57165793Y-176323968D01*
X57186085Y-176530000D01*
X57165793Y-176736032D01*
X57105695Y-176934146D01*
X57105694Y-176934149D01*
X57060340Y-177019000D01*
X57008103Y-177116729D01*
X56876765Y-177276765D01*
X56716729Y-177408103D01*
X56630975Y-177453939D01*
X56534149Y-177505694D01*
X56534146Y-177505695D01*
X56336032Y-177565793D01*
X56233097Y-177575931D01*
X56181631Y-177581000D01*
X55578369Y-177581000D01*
X55526903Y-177575931D01*
X55423968Y-177565793D01*
X55225854Y-177505695D01*
X55225851Y-177505694D01*
X55129025Y-177453939D01*
X55043271Y-177408103D01*
X54883235Y-177276765D01*
X54751897Y-177116729D01*
X54699660Y-177019000D01*
X54654306Y-176934149D01*
X54654305Y-176934146D01*
X54594207Y-176736032D01*
X54573915Y-176530000D01*
X54594207Y-176323968D01*
X54654305Y-176125854D01*
X54654306Y-176125851D01*
X54706061Y-176029025D01*
X54751897Y-175943271D01*
X54883235Y-175783235D01*
X55043271Y-175651897D01*
X55129025Y-175606061D01*
X55225851Y-175554306D01*
X55225854Y-175554305D01*
X55423968Y-175494207D01*
X55526903Y-175484069D01*
X55578369Y-175479000D01*
X56181631Y-175479000D01*
X56233097Y-175484069D01*
X56233097Y-175484069D01*
G37*
G36*
X75283097Y-175484069D02*
G01*
X75386032Y-175494207D01*
X75584146Y-175554305D01*
X75584149Y-175554306D01*
X75680975Y-175606061D01*
X75766729Y-175651897D01*
X75926765Y-175783235D01*
X76058103Y-175943271D01*
X76103939Y-176029025D01*
X76155694Y-176125851D01*
X76155695Y-176125854D01*
X76215793Y-176323968D01*
X76236085Y-176530000D01*
X76215793Y-176736032D01*
X76155695Y-176934146D01*
X76155694Y-176934149D01*
X76110340Y-177019000D01*
X76058103Y-177116729D01*
X75926765Y-177276765D01*
X75766729Y-177408103D01*
X75680975Y-177453939D01*
X75584149Y-177505694D01*
X75584146Y-177505695D01*
X75386032Y-177565793D01*
X75283097Y-177575931D01*
X75231631Y-177581000D01*
X74628369Y-177581000D01*
X74576903Y-177575931D01*
X74473968Y-177565793D01*
X74275854Y-177505695D01*
X74275851Y-177505694D01*
X74179025Y-177453939D01*
X74093271Y-177408103D01*
X73933235Y-177276765D01*
X73801897Y-177116729D01*
X73749660Y-177019000D01*
X73704306Y-176934149D01*
X73704305Y-176934146D01*
X73644207Y-176736032D01*
X73623915Y-176530000D01*
X73644207Y-176323968D01*
X73704305Y-176125854D01*
X73704306Y-176125851D01*
X73756061Y-176029025D01*
X73801897Y-175943271D01*
X73933235Y-175783235D01*
X74093271Y-175651897D01*
X74179025Y-175606061D01*
X74275851Y-175554306D01*
X74275854Y-175554305D01*
X74473968Y-175494207D01*
X74576903Y-175484069D01*
X74628369Y-175479000D01*
X75231631Y-175479000D01*
X75283097Y-175484069D01*
X75283097Y-175484069D01*
G37*
G36*
X62583097Y-172944069D02*
G01*
X62686032Y-172954207D01*
X62884146Y-173014305D01*
X62884149Y-173014306D01*
X62980975Y-173066061D01*
X63066729Y-173111897D01*
X63226765Y-173243235D01*
X63358103Y-173403271D01*
X63403939Y-173489025D01*
X63455694Y-173585851D01*
X63455695Y-173585854D01*
X63515793Y-173783968D01*
X63536085Y-173990000D01*
X63515793Y-174196032D01*
X63455695Y-174394146D01*
X63455694Y-174394149D01*
X63403939Y-174490975D01*
X63358103Y-174576729D01*
X63226765Y-174736765D01*
X63066729Y-174868103D01*
X62980975Y-174913939D01*
X62884149Y-174965694D01*
X62884146Y-174965695D01*
X62686032Y-175025793D01*
X62583097Y-175035931D01*
X62531631Y-175041000D01*
X61928369Y-175041000D01*
X61876903Y-175035931D01*
X61773968Y-175025793D01*
X61575854Y-174965695D01*
X61575851Y-174965694D01*
X61479025Y-174913939D01*
X61393271Y-174868103D01*
X61233235Y-174736765D01*
X61101897Y-174576729D01*
X61056061Y-174490975D01*
X61004306Y-174394149D01*
X61004305Y-174394146D01*
X60944207Y-174196032D01*
X60923915Y-173990000D01*
X60944207Y-173783968D01*
X61004305Y-173585854D01*
X61004306Y-173585851D01*
X61056061Y-173489025D01*
X61101897Y-173403271D01*
X61233235Y-173243235D01*
X61393271Y-173111897D01*
X61479025Y-173066061D01*
X61575851Y-173014306D01*
X61575854Y-173014305D01*
X61773968Y-172954207D01*
X61876903Y-172944069D01*
X61928369Y-172939000D01*
X62531631Y-172939000D01*
X62583097Y-172944069D01*
X62583097Y-172944069D01*
G37*
G36*
X81633097Y-172944069D02*
G01*
X81736032Y-172954207D01*
X81934146Y-173014305D01*
X81934149Y-173014306D01*
X82030975Y-173066061D01*
X82116729Y-173111897D01*
X82276765Y-173243235D01*
X82408103Y-173403271D01*
X82453939Y-173489025D01*
X82505694Y-173585851D01*
X82505695Y-173585854D01*
X82565793Y-173783968D01*
X82586085Y-173990000D01*
X82565793Y-174196032D01*
X82505695Y-174394146D01*
X82505694Y-174394149D01*
X82453939Y-174490975D01*
X82408103Y-174576729D01*
X82276765Y-174736765D01*
X82116729Y-174868103D01*
X82030975Y-174913939D01*
X81934149Y-174965694D01*
X81934146Y-174965695D01*
X81736032Y-175025793D01*
X81633097Y-175035931D01*
X81581631Y-175041000D01*
X80978369Y-175041000D01*
X80926903Y-175035931D01*
X80823968Y-175025793D01*
X80625854Y-174965695D01*
X80625851Y-174965694D01*
X80529025Y-174913939D01*
X80443271Y-174868103D01*
X80283235Y-174736765D01*
X80151897Y-174576729D01*
X80106061Y-174490975D01*
X80054306Y-174394149D01*
X80054305Y-174394146D01*
X79994207Y-174196032D01*
X79973915Y-173990000D01*
X79994207Y-173783968D01*
X80054305Y-173585854D01*
X80054306Y-173585851D01*
X80106061Y-173489025D01*
X80151897Y-173403271D01*
X80283235Y-173243235D01*
X80443271Y-173111897D01*
X80529025Y-173066061D01*
X80625851Y-173014306D01*
X80625854Y-173014305D01*
X80823968Y-172954207D01*
X80926903Y-172944069D01*
X80978369Y-172939000D01*
X81581631Y-172939000D01*
X81633097Y-172944069D01*
X81633097Y-172944069D01*
G37*
G36*
X43533097Y-172944069D02*
G01*
X43636032Y-172954207D01*
X43834146Y-173014305D01*
X43834149Y-173014306D01*
X43930975Y-173066061D01*
X44016729Y-173111897D01*
X44176765Y-173243235D01*
X44308103Y-173403271D01*
X44353939Y-173489025D01*
X44405694Y-173585851D01*
X44405695Y-173585854D01*
X44465793Y-173783968D01*
X44486085Y-173990000D01*
X44465793Y-174196032D01*
X44405695Y-174394146D01*
X44405694Y-174394149D01*
X44353939Y-174490975D01*
X44308103Y-174576729D01*
X44176765Y-174736765D01*
X44016729Y-174868103D01*
X43930975Y-174913939D01*
X43834149Y-174965694D01*
X43834146Y-174965695D01*
X43636032Y-175025793D01*
X43533097Y-175035931D01*
X43481631Y-175041000D01*
X42878369Y-175041000D01*
X42826903Y-175035931D01*
X42723968Y-175025793D01*
X42525854Y-174965695D01*
X42525851Y-174965694D01*
X42429025Y-174913939D01*
X42343271Y-174868103D01*
X42183235Y-174736765D01*
X42051897Y-174576729D01*
X42006061Y-174490975D01*
X41954306Y-174394149D01*
X41954305Y-174394146D01*
X41894207Y-174196032D01*
X41873915Y-173990000D01*
X41894207Y-173783968D01*
X41954305Y-173585854D01*
X41954306Y-173585851D01*
X42006061Y-173489025D01*
X42051897Y-173403271D01*
X42183235Y-173243235D01*
X42343271Y-173111897D01*
X42429025Y-173066061D01*
X42525851Y-173014306D01*
X42525854Y-173014305D01*
X42723968Y-172954207D01*
X42826903Y-172944069D01*
X42878369Y-172939000D01*
X43481631Y-172939000D01*
X43533097Y-172944069D01*
X43533097Y-172944069D01*
G37*
G36*
X48497142Y-166858242D02*
G01*
X48645101Y-166919529D01*
X48778255Y-167008499D01*
X48891501Y-167121745D01*
X48980471Y-167254899D01*
X49041758Y-167402858D01*
X49073000Y-167559925D01*
X49073000Y-167720075D01*
X49041758Y-167877142D01*
X48980471Y-168025101D01*
X48891501Y-168158255D01*
X48778255Y-168271501D01*
X48645101Y-168360471D01*
X48497142Y-168421758D01*
X48340075Y-168453000D01*
X48179925Y-168453000D01*
X48022858Y-168421758D01*
X47874899Y-168360471D01*
X47741745Y-168271501D01*
X47628499Y-168158255D01*
X47539529Y-168025101D01*
X47478242Y-167877142D01*
X47447000Y-167720075D01*
X47447000Y-167559925D01*
X47478242Y-167402858D01*
X47539529Y-167254899D01*
X47628499Y-167121745D01*
X47741745Y-167008499D01*
X47874899Y-166919529D01*
X48022858Y-166858242D01*
X48179925Y-166827000D01*
X48340075Y-166827000D01*
X48497142Y-166858242D01*
X48497142Y-166858242D01*
G37*
G36*
X33257142Y-166858242D02*
G01*
X33405101Y-166919529D01*
X33538255Y-167008499D01*
X33651501Y-167121745D01*
X33740471Y-167254899D01*
X33801758Y-167402858D01*
X33833000Y-167559925D01*
X33833000Y-167720075D01*
X33801758Y-167877142D01*
X33740471Y-168025101D01*
X33651501Y-168158255D01*
X33538255Y-168271501D01*
X33405101Y-168360471D01*
X33257142Y-168421758D01*
X33100075Y-168453000D01*
X32939925Y-168453000D01*
X32782858Y-168421758D01*
X32634899Y-168360471D01*
X32501745Y-168271501D01*
X32388499Y-168158255D01*
X32299529Y-168025101D01*
X32238242Y-167877142D01*
X32207000Y-167720075D01*
X32207000Y-167559925D01*
X32238242Y-167402858D01*
X32299529Y-167254899D01*
X32388499Y-167121745D01*
X32501745Y-167008499D01*
X32634899Y-166919529D01*
X32782858Y-166858242D01*
X32939925Y-166827000D01*
X33100075Y-166827000D01*
X33257142Y-166858242D01*
X33257142Y-166858242D01*
G37*
G36*
X33257142Y-164318242D02*
G01*
X33405101Y-164379529D01*
X33538255Y-164468499D01*
X33651501Y-164581745D01*
X33740471Y-164714899D01*
X33801758Y-164862858D01*
X33833000Y-165019925D01*
X33833000Y-165180075D01*
X33801758Y-165337142D01*
X33740471Y-165485101D01*
X33651501Y-165618255D01*
X33538255Y-165731501D01*
X33405101Y-165820471D01*
X33257142Y-165881758D01*
X33100075Y-165913000D01*
X32939925Y-165913000D01*
X32782858Y-165881758D01*
X32634899Y-165820471D01*
X32501745Y-165731501D01*
X32388499Y-165618255D01*
X32299529Y-165485101D01*
X32238242Y-165337142D01*
X32207000Y-165180075D01*
X32207000Y-165019925D01*
X32238242Y-164862858D01*
X32299529Y-164714899D01*
X32388499Y-164581745D01*
X32501745Y-164468499D01*
X32634899Y-164379529D01*
X32782858Y-164318242D01*
X32939925Y-164287000D01*
X33100075Y-164287000D01*
X33257142Y-164318242D01*
X33257142Y-164318242D01*
G37*
G36*
X48497142Y-164318242D02*
G01*
X48645101Y-164379529D01*
X48778255Y-164468499D01*
X48891501Y-164581745D01*
X48980471Y-164714899D01*
X49041758Y-164862858D01*
X49073000Y-165019925D01*
X49073000Y-165180075D01*
X49041758Y-165337142D01*
X48980471Y-165485101D01*
X48891501Y-165618255D01*
X48778255Y-165731501D01*
X48645101Y-165820471D01*
X48497142Y-165881758D01*
X48340075Y-165913000D01*
X48179925Y-165913000D01*
X48022858Y-165881758D01*
X47874899Y-165820471D01*
X47741745Y-165731501D01*
X47628499Y-165618255D01*
X47539529Y-165485101D01*
X47478242Y-165337142D01*
X47447000Y-165180075D01*
X47447000Y-165019925D01*
X47478242Y-164862858D01*
X47539529Y-164714899D01*
X47628499Y-164581745D01*
X47741745Y-164468499D01*
X47874899Y-164379529D01*
X48022858Y-164318242D01*
X48179925Y-164287000D01*
X48340075Y-164287000D01*
X48497142Y-164318242D01*
X48497142Y-164318242D01*
G37*
G36*
X48497142Y-161778242D02*
G01*
X48645101Y-161839529D01*
X48778255Y-161928499D01*
X48891501Y-162041745D01*
X48980471Y-162174899D01*
X49041758Y-162322858D01*
X49073000Y-162479925D01*
X49073000Y-162640075D01*
X49041758Y-162797142D01*
X48980471Y-162945101D01*
X48891501Y-163078255D01*
X48778255Y-163191501D01*
X48645101Y-163280471D01*
X48497142Y-163341758D01*
X48340075Y-163373000D01*
X48179925Y-163373000D01*
X48022858Y-163341758D01*
X47874899Y-163280471D01*
X47741745Y-163191501D01*
X47628499Y-163078255D01*
X47539529Y-162945101D01*
X47478242Y-162797142D01*
X47447000Y-162640075D01*
X47447000Y-162479925D01*
X47478242Y-162322858D01*
X47539529Y-162174899D01*
X47628499Y-162041745D01*
X47741745Y-161928499D01*
X47874899Y-161839529D01*
X48022858Y-161778242D01*
X48179925Y-161747000D01*
X48340075Y-161747000D01*
X48497142Y-161778242D01*
X48497142Y-161778242D01*
G37*
G36*
X33257142Y-161778242D02*
G01*
X33405101Y-161839529D01*
X33538255Y-161928499D01*
X33651501Y-162041745D01*
X33740471Y-162174899D01*
X33801758Y-162322858D01*
X33833000Y-162479925D01*
X33833000Y-162640075D01*
X33801758Y-162797142D01*
X33740471Y-162945101D01*
X33651501Y-163078255D01*
X33538255Y-163191501D01*
X33405101Y-163280471D01*
X33257142Y-163341758D01*
X33100075Y-163373000D01*
X32939925Y-163373000D01*
X32782858Y-163341758D01*
X32634899Y-163280471D01*
X32501745Y-163191501D01*
X32388499Y-163078255D01*
X32299529Y-162945101D01*
X32238242Y-162797142D01*
X32207000Y-162640075D01*
X32207000Y-162479925D01*
X32238242Y-162322858D01*
X32299529Y-162174899D01*
X32388499Y-162041745D01*
X32501745Y-161928499D01*
X32634899Y-161839529D01*
X32782858Y-161778242D01*
X32939925Y-161747000D01*
X33100075Y-161747000D01*
X33257142Y-161778242D01*
X33257142Y-161778242D01*
G37*
G36*
X33257142Y-159238242D02*
G01*
X33405101Y-159299529D01*
X33538255Y-159388499D01*
X33651501Y-159501745D01*
X33740471Y-159634899D01*
X33801758Y-159782858D01*
X33833000Y-159939925D01*
X33833000Y-160100075D01*
X33801758Y-160257142D01*
X33740471Y-160405101D01*
X33651501Y-160538255D01*
X33538255Y-160651501D01*
X33405101Y-160740471D01*
X33257142Y-160801758D01*
X33100075Y-160833000D01*
X32939925Y-160833000D01*
X32782858Y-160801758D01*
X32634899Y-160740471D01*
X32501745Y-160651501D01*
X32388499Y-160538255D01*
X32299529Y-160405101D01*
X32238242Y-160257142D01*
X32207000Y-160100075D01*
X32207000Y-159939925D01*
X32238242Y-159782858D01*
X32299529Y-159634899D01*
X32388499Y-159501745D01*
X32501745Y-159388499D01*
X32634899Y-159299529D01*
X32782858Y-159238242D01*
X32939925Y-159207000D01*
X33100075Y-159207000D01*
X33257142Y-159238242D01*
X33257142Y-159238242D01*
G37*
G36*
X48497142Y-159238242D02*
G01*
X48645101Y-159299529D01*
X48778255Y-159388499D01*
X48891501Y-159501745D01*
X48980471Y-159634899D01*
X49041758Y-159782858D01*
X49073000Y-159939925D01*
X49073000Y-160100075D01*
X49041758Y-160257142D01*
X48980471Y-160405101D01*
X48891501Y-160538255D01*
X48778255Y-160651501D01*
X48645101Y-160740471D01*
X48497142Y-160801758D01*
X48340075Y-160833000D01*
X48179925Y-160833000D01*
X48022858Y-160801758D01*
X47874899Y-160740471D01*
X47741745Y-160651501D01*
X47628499Y-160538255D01*
X47539529Y-160405101D01*
X47478242Y-160257142D01*
X47447000Y-160100075D01*
X47447000Y-159939925D01*
X47478242Y-159782858D01*
X47539529Y-159634899D01*
X47628499Y-159501745D01*
X47741745Y-159388499D01*
X47874899Y-159299529D01*
X48022858Y-159238242D01*
X48179925Y-159207000D01*
X48340075Y-159207000D01*
X48497142Y-159238242D01*
X48497142Y-159238242D01*
G37*
G36*
X60288254Y-155507818D02*
G01*
X60656791Y-155660471D01*
X60661513Y-155662427D01*
X60697937Y-155686765D01*
X60997436Y-155886884D01*
X61283116Y-156172564D01*
X61507574Y-156508489D01*
X61662182Y-156881746D01*
X61741000Y-157277993D01*
X61741000Y-157682007D01*
X61662182Y-158078254D01*
X61511293Y-158442532D01*
X61507573Y-158451513D01*
X61283116Y-158787436D01*
X60997436Y-159073116D01*
X60661513Y-159297573D01*
X60661512Y-159297574D01*
X60661511Y-159297574D01*
X60288254Y-159452182D01*
X59892007Y-159531000D01*
X59487993Y-159531000D01*
X59091746Y-159452182D01*
X58718489Y-159297574D01*
X58718488Y-159297574D01*
X58718487Y-159297573D01*
X58382564Y-159073116D01*
X58096884Y-158787436D01*
X57872427Y-158451513D01*
X57868707Y-158442532D01*
X57717818Y-158078254D01*
X57639000Y-157682007D01*
X57639000Y-157277993D01*
X57717818Y-156881746D01*
X57872426Y-156508489D01*
X58096884Y-156172564D01*
X58382564Y-155886884D01*
X58682063Y-155686765D01*
X58718487Y-155662427D01*
X58723209Y-155660471D01*
X59091746Y-155507818D01*
X59487993Y-155429000D01*
X59892007Y-155429000D01*
X60288254Y-155507818D01*
X60288254Y-155507818D01*
G37*
G36*
X79338254Y-155507818D02*
G01*
X79706791Y-155660471D01*
X79711513Y-155662427D01*
X79747937Y-155686765D01*
X80047436Y-155886884D01*
X80333116Y-156172564D01*
X80557574Y-156508489D01*
X80712182Y-156881746D01*
X80791000Y-157277993D01*
X80791000Y-157682007D01*
X80712182Y-158078254D01*
X80561293Y-158442532D01*
X80557573Y-158451513D01*
X80333116Y-158787436D01*
X80047436Y-159073116D01*
X79711513Y-159297573D01*
X79711512Y-159297574D01*
X79711511Y-159297574D01*
X79338254Y-159452182D01*
X78942007Y-159531000D01*
X78537993Y-159531000D01*
X78141746Y-159452182D01*
X77768489Y-159297574D01*
X77768488Y-159297574D01*
X77768487Y-159297573D01*
X77432564Y-159073116D01*
X77146884Y-158787436D01*
X76922427Y-158451513D01*
X76918707Y-158442532D01*
X76767818Y-158078254D01*
X76689000Y-157682007D01*
X76689000Y-157277993D01*
X76767818Y-156881746D01*
X76922426Y-156508489D01*
X77146884Y-156172564D01*
X77432564Y-155886884D01*
X77732063Y-155686765D01*
X77768487Y-155662427D01*
X77773209Y-155660471D01*
X78141746Y-155507818D01*
X78537993Y-155429000D01*
X78942007Y-155429000D01*
X79338254Y-155507818D01*
X79338254Y-155507818D01*
G37*
G36*
X73435285Y-156498234D02*
G01*
X73531981Y-156517468D01*
X73714151Y-156592926D01*
X73878100Y-156702473D01*
X74017527Y-156841900D01*
X74127074Y-157005849D01*
X74202532Y-157188019D01*
X74241000Y-157381410D01*
X74241000Y-157578590D01*
X74202532Y-157771981D01*
X74127074Y-157954151D01*
X74017527Y-158118100D01*
X73878100Y-158257527D01*
X73714151Y-158367074D01*
X73531981Y-158442532D01*
X73338591Y-158481000D01*
X73141409Y-158481000D01*
X72948019Y-158442532D01*
X72765849Y-158367074D01*
X72601900Y-158257527D01*
X72462473Y-158118100D01*
X72352926Y-157954151D01*
X72277468Y-157771981D01*
X72239000Y-157578590D01*
X72239000Y-157381410D01*
X72277468Y-157188019D01*
X72352926Y-157005849D01*
X72462473Y-156841900D01*
X72601900Y-156702473D01*
X72765849Y-156592926D01*
X72948019Y-156517468D01*
X73044715Y-156498234D01*
X73141409Y-156479000D01*
X73338591Y-156479000D01*
X73435285Y-156498234D01*
X73435285Y-156498234D01*
G37*
G36*
X65385285Y-156498234D02*
G01*
X65481981Y-156517468D01*
X65664151Y-156592926D01*
X65828100Y-156702473D01*
X65967527Y-156841900D01*
X66077074Y-157005849D01*
X66152532Y-157188019D01*
X66191000Y-157381410D01*
X66191000Y-157578590D01*
X66152532Y-157771981D01*
X66077074Y-157954151D01*
X65967527Y-158118100D01*
X65828100Y-158257527D01*
X65664151Y-158367074D01*
X65481981Y-158442532D01*
X65288591Y-158481000D01*
X65091409Y-158481000D01*
X64898019Y-158442532D01*
X64715849Y-158367074D01*
X64551900Y-158257527D01*
X64412473Y-158118100D01*
X64302926Y-157954151D01*
X64227468Y-157771981D01*
X64189000Y-157578590D01*
X64189000Y-157381410D01*
X64227468Y-157188019D01*
X64302926Y-157005849D01*
X64412473Y-156841900D01*
X64551900Y-156702473D01*
X64715849Y-156592926D01*
X64898019Y-156517468D01*
X64994715Y-156498234D01*
X65091409Y-156479000D01*
X65288591Y-156479000D01*
X65385285Y-156498234D01*
X65385285Y-156498234D01*
G37*
G36*
X54385285Y-156498234D02*
G01*
X54481981Y-156517468D01*
X54664151Y-156592926D01*
X54828100Y-156702473D01*
X54967527Y-156841900D01*
X55077074Y-157005849D01*
X55152532Y-157188019D01*
X55191000Y-157381410D01*
X55191000Y-157578590D01*
X55152532Y-157771981D01*
X55077074Y-157954151D01*
X54967527Y-158118100D01*
X54828100Y-158257527D01*
X54664151Y-158367074D01*
X54481981Y-158442532D01*
X54288591Y-158481000D01*
X54091409Y-158481000D01*
X53898019Y-158442532D01*
X53715849Y-158367074D01*
X53551900Y-158257527D01*
X53412473Y-158118100D01*
X53302926Y-157954151D01*
X53227468Y-157771981D01*
X53189000Y-157578590D01*
X53189000Y-157381410D01*
X53227468Y-157188019D01*
X53302926Y-157005849D01*
X53412473Y-156841900D01*
X53551900Y-156702473D01*
X53715849Y-156592926D01*
X53898019Y-156517468D01*
X53994715Y-156498234D01*
X54091409Y-156479000D01*
X54288591Y-156479000D01*
X54385285Y-156498234D01*
X54385285Y-156498234D01*
G37*
G36*
X84435285Y-156498234D02*
G01*
X84531981Y-156517468D01*
X84714151Y-156592926D01*
X84878100Y-156702473D01*
X85017527Y-156841900D01*
X85127074Y-157005849D01*
X85202532Y-157188019D01*
X85241000Y-157381410D01*
X85241000Y-157578590D01*
X85202532Y-157771981D01*
X85127074Y-157954151D01*
X85017527Y-158118100D01*
X84878100Y-158257527D01*
X84714151Y-158367074D01*
X84531981Y-158442532D01*
X84338591Y-158481000D01*
X84141409Y-158481000D01*
X83948019Y-158442532D01*
X83765849Y-158367074D01*
X83601900Y-158257527D01*
X83462473Y-158118100D01*
X83352926Y-157954151D01*
X83277468Y-157771981D01*
X83239000Y-157578590D01*
X83239000Y-157381410D01*
X83277468Y-157188019D01*
X83352926Y-157005849D01*
X83462473Y-156841900D01*
X83601900Y-156702473D01*
X83765849Y-156592926D01*
X83948019Y-156517468D01*
X84044715Y-156498234D01*
X84141409Y-156479000D01*
X84338591Y-156479000D01*
X84435285Y-156498234D01*
X84435285Y-156498234D01*
G37*
G36*
X48497142Y-156698242D02*
G01*
X48645101Y-156759529D01*
X48778255Y-156848499D01*
X48891501Y-156961745D01*
X48980471Y-157094899D01*
X49041758Y-157242858D01*
X49073000Y-157399925D01*
X49073000Y-157560075D01*
X49041758Y-157717142D01*
X48980471Y-157865101D01*
X48891501Y-157998255D01*
X48778255Y-158111501D01*
X48645101Y-158200471D01*
X48497142Y-158261758D01*
X48340075Y-158293000D01*
X48179925Y-158293000D01*
X48022858Y-158261758D01*
X47874899Y-158200471D01*
X47741745Y-158111501D01*
X47628499Y-157998255D01*
X47539529Y-157865101D01*
X47478242Y-157717142D01*
X47447000Y-157560075D01*
X47447000Y-157399925D01*
X47478242Y-157242858D01*
X47539529Y-157094899D01*
X47628499Y-156961745D01*
X47741745Y-156848499D01*
X47874899Y-156759529D01*
X48022858Y-156698242D01*
X48179925Y-156667000D01*
X48340075Y-156667000D01*
X48497142Y-156698242D01*
X48497142Y-156698242D01*
G37*
G36*
X33257142Y-156698242D02*
G01*
X33405101Y-156759529D01*
X33538255Y-156848499D01*
X33651501Y-156961745D01*
X33740471Y-157094899D01*
X33801758Y-157242858D01*
X33833000Y-157399925D01*
X33833000Y-157560075D01*
X33801758Y-157717142D01*
X33740471Y-157865101D01*
X33651501Y-157998255D01*
X33538255Y-158111501D01*
X33405101Y-158200471D01*
X33257142Y-158261758D01*
X33100075Y-158293000D01*
X32939925Y-158293000D01*
X32782858Y-158261758D01*
X32634899Y-158200471D01*
X32501745Y-158111501D01*
X32388499Y-157998255D01*
X32299529Y-157865101D01*
X32238242Y-157717142D01*
X32207000Y-157560075D01*
X32207000Y-157399925D01*
X32238242Y-157242858D01*
X32299529Y-157094899D01*
X32388499Y-156961745D01*
X32501745Y-156848499D01*
X32634899Y-156759529D01*
X32782858Y-156698242D01*
X32939925Y-156667000D01*
X33100075Y-156667000D01*
X33257142Y-156698242D01*
X33257142Y-156698242D01*
G37*
G36*
X56233097Y-153894069D02*
G01*
X56336032Y-153904207D01*
X56534146Y-153964305D01*
X56534149Y-153964306D01*
X56630975Y-154016061D01*
X56716729Y-154061897D01*
X56876765Y-154193235D01*
X57008103Y-154353271D01*
X57044702Y-154421743D01*
X57105694Y-154535851D01*
X57105695Y-154535854D01*
X57165793Y-154733968D01*
X57186085Y-154940000D01*
X57165793Y-155146032D01*
X57111472Y-155325101D01*
X57105694Y-155344149D01*
X57060340Y-155429000D01*
X57008103Y-155526729D01*
X56876765Y-155686765D01*
X56716729Y-155818103D01*
X56630975Y-155863939D01*
X56534149Y-155915694D01*
X56534146Y-155915695D01*
X56336032Y-155975793D01*
X56233097Y-155985931D01*
X56181631Y-155991000D01*
X55578369Y-155991000D01*
X55526903Y-155985931D01*
X55423968Y-155975793D01*
X55225854Y-155915695D01*
X55225851Y-155915694D01*
X55129025Y-155863939D01*
X55043271Y-155818103D01*
X54883235Y-155686765D01*
X54751897Y-155526729D01*
X54699660Y-155429000D01*
X54654306Y-155344149D01*
X54648528Y-155325101D01*
X54594207Y-155146032D01*
X54573915Y-154940000D01*
X54594207Y-154733968D01*
X54654305Y-154535854D01*
X54654306Y-154535851D01*
X54715298Y-154421743D01*
X54751897Y-154353271D01*
X54883235Y-154193235D01*
X55043271Y-154061897D01*
X55129025Y-154016061D01*
X55225851Y-153964306D01*
X55225854Y-153964305D01*
X55423968Y-153904207D01*
X55526903Y-153894069D01*
X55578369Y-153889000D01*
X56181631Y-153889000D01*
X56233097Y-153894069D01*
X56233097Y-153894069D01*
G37*
G36*
X75283097Y-153894069D02*
G01*
X75386032Y-153904207D01*
X75584146Y-153964305D01*
X75584149Y-153964306D01*
X75680975Y-154016061D01*
X75766729Y-154061897D01*
X75926765Y-154193235D01*
X76058103Y-154353271D01*
X76094702Y-154421743D01*
X76155694Y-154535851D01*
X76155695Y-154535854D01*
X76215793Y-154733968D01*
X76236085Y-154940000D01*
X76215793Y-155146032D01*
X76161472Y-155325101D01*
X76155694Y-155344149D01*
X76110340Y-155429000D01*
X76058103Y-155526729D01*
X75926765Y-155686765D01*
X75766729Y-155818103D01*
X75680975Y-155863939D01*
X75584149Y-155915694D01*
X75584146Y-155915695D01*
X75386032Y-155975793D01*
X75283097Y-155985931D01*
X75231631Y-155991000D01*
X74628369Y-155991000D01*
X74576903Y-155985931D01*
X74473968Y-155975793D01*
X74275854Y-155915695D01*
X74275851Y-155915694D01*
X74179025Y-155863939D01*
X74093271Y-155818103D01*
X73933235Y-155686765D01*
X73801897Y-155526729D01*
X73749660Y-155429000D01*
X73704306Y-155344149D01*
X73698528Y-155325101D01*
X73644207Y-155146032D01*
X73623915Y-154940000D01*
X73644207Y-154733968D01*
X73704305Y-154535854D01*
X73704306Y-154535851D01*
X73765298Y-154421743D01*
X73801897Y-154353271D01*
X73933235Y-154193235D01*
X74093271Y-154061897D01*
X74179025Y-154016061D01*
X74275851Y-153964306D01*
X74275854Y-153964305D01*
X74473968Y-153904207D01*
X74576903Y-153894069D01*
X74628369Y-153889000D01*
X75231631Y-153889000D01*
X75283097Y-153894069D01*
X75283097Y-153894069D01*
G37*
G36*
X33257142Y-154158242D02*
G01*
X33405101Y-154219529D01*
X33538255Y-154308499D01*
X33651501Y-154421745D01*
X33740471Y-154554899D01*
X33801758Y-154702858D01*
X33833000Y-154859925D01*
X33833000Y-155020075D01*
X33801758Y-155177142D01*
X33740471Y-155325101D01*
X33651501Y-155458255D01*
X33538255Y-155571501D01*
X33405101Y-155660471D01*
X33257142Y-155721758D01*
X33100075Y-155753000D01*
X32939925Y-155753000D01*
X32782858Y-155721758D01*
X32634899Y-155660471D01*
X32501745Y-155571501D01*
X32388499Y-155458255D01*
X32299529Y-155325101D01*
X32238242Y-155177142D01*
X32207000Y-155020075D01*
X32207000Y-154859925D01*
X32238242Y-154702858D01*
X32299529Y-154554899D01*
X32388499Y-154421745D01*
X32501745Y-154308499D01*
X32634899Y-154219529D01*
X32782858Y-154158242D01*
X32939925Y-154127000D01*
X33100075Y-154127000D01*
X33257142Y-154158242D01*
X33257142Y-154158242D01*
G37*
G36*
X48497142Y-154158242D02*
G01*
X48645101Y-154219529D01*
X48778255Y-154308499D01*
X48891501Y-154421745D01*
X48980471Y-154554899D01*
X49041758Y-154702858D01*
X49073000Y-154859925D01*
X49073000Y-155020075D01*
X49041758Y-155177142D01*
X48980471Y-155325101D01*
X48891501Y-155458255D01*
X48778255Y-155571501D01*
X48645101Y-155660471D01*
X48497142Y-155721758D01*
X48340075Y-155753000D01*
X48179925Y-155753000D01*
X48022858Y-155721758D01*
X47874899Y-155660471D01*
X47741745Y-155571501D01*
X47628499Y-155458255D01*
X47539529Y-155325101D01*
X47478242Y-155177142D01*
X47447000Y-155020075D01*
X47447000Y-154859925D01*
X47478242Y-154702858D01*
X47539529Y-154554899D01*
X47628499Y-154421745D01*
X47741745Y-154308499D01*
X47874899Y-154219529D01*
X48022858Y-154158242D01*
X48179925Y-154127000D01*
X48340075Y-154127000D01*
X48497142Y-154158242D01*
X48497142Y-154158242D01*
G37*
G36*
X62583097Y-151354069D02*
G01*
X62686032Y-151364207D01*
X62884146Y-151424305D01*
X62884149Y-151424306D01*
X62980975Y-151476061D01*
X63066729Y-151521897D01*
X63226765Y-151653235D01*
X63358103Y-151813271D01*
X63394702Y-151881743D01*
X63455694Y-151995851D01*
X63455695Y-151995854D01*
X63515793Y-152193968D01*
X63536085Y-152400000D01*
X63515793Y-152606032D01*
X63461472Y-152785101D01*
X63455694Y-152804149D01*
X63403939Y-152900975D01*
X63358103Y-152986729D01*
X63226765Y-153146765D01*
X63066729Y-153278103D01*
X62980975Y-153323939D01*
X62884149Y-153375694D01*
X62884146Y-153375695D01*
X62686032Y-153435793D01*
X62583097Y-153445931D01*
X62531631Y-153451000D01*
X61928369Y-153451000D01*
X61876903Y-153445931D01*
X61773968Y-153435793D01*
X61575854Y-153375695D01*
X61575851Y-153375694D01*
X61479025Y-153323939D01*
X61393271Y-153278103D01*
X61233235Y-153146765D01*
X61101897Y-152986729D01*
X61056061Y-152900975D01*
X61004306Y-152804149D01*
X60998528Y-152785101D01*
X60944207Y-152606032D01*
X60923915Y-152400000D01*
X60944207Y-152193968D01*
X61004305Y-151995854D01*
X61004306Y-151995851D01*
X61065298Y-151881743D01*
X61101897Y-151813271D01*
X61233235Y-151653235D01*
X61393271Y-151521897D01*
X61479025Y-151476061D01*
X61575851Y-151424306D01*
X61575854Y-151424305D01*
X61773968Y-151364207D01*
X61876903Y-151354069D01*
X61928369Y-151349000D01*
X62531631Y-151349000D01*
X62583097Y-151354069D01*
X62583097Y-151354069D01*
G37*
G36*
X81633097Y-151354069D02*
G01*
X81736032Y-151364207D01*
X81934146Y-151424305D01*
X81934149Y-151424306D01*
X82030975Y-151476061D01*
X82116729Y-151521897D01*
X82276765Y-151653235D01*
X82408103Y-151813271D01*
X82444702Y-151881743D01*
X82505694Y-151995851D01*
X82505695Y-151995854D01*
X82565793Y-152193968D01*
X82586085Y-152400000D01*
X82565793Y-152606032D01*
X82511472Y-152785101D01*
X82505694Y-152804149D01*
X82453939Y-152900975D01*
X82408103Y-152986729D01*
X82276765Y-153146765D01*
X82116729Y-153278103D01*
X82030975Y-153323939D01*
X81934149Y-153375694D01*
X81934146Y-153375695D01*
X81736032Y-153435793D01*
X81633097Y-153445931D01*
X81581631Y-153451000D01*
X80978369Y-153451000D01*
X80926903Y-153445931D01*
X80823968Y-153435793D01*
X80625854Y-153375695D01*
X80625851Y-153375694D01*
X80529025Y-153323939D01*
X80443271Y-153278103D01*
X80283235Y-153146765D01*
X80151897Y-152986729D01*
X80106061Y-152900975D01*
X80054306Y-152804149D01*
X80048528Y-152785101D01*
X79994207Y-152606032D01*
X79973915Y-152400000D01*
X79994207Y-152193968D01*
X80054305Y-151995854D01*
X80054306Y-151995851D01*
X80115298Y-151881743D01*
X80151897Y-151813271D01*
X80283235Y-151653235D01*
X80443271Y-151521897D01*
X80529025Y-151476061D01*
X80625851Y-151424306D01*
X80625854Y-151424305D01*
X80823968Y-151364207D01*
X80926903Y-151354069D01*
X80978369Y-151349000D01*
X81581631Y-151349000D01*
X81633097Y-151354069D01*
X81633097Y-151354069D01*
G37*
G36*
X48497142Y-151618242D02*
G01*
X48645101Y-151679529D01*
X48778255Y-151768499D01*
X48891501Y-151881745D01*
X48980471Y-152014899D01*
X49041758Y-152162858D01*
X49073000Y-152319925D01*
X49073000Y-152480075D01*
X49041758Y-152637142D01*
X48980471Y-152785101D01*
X48891501Y-152918255D01*
X48778255Y-153031501D01*
X48645101Y-153120471D01*
X48497142Y-153181758D01*
X48340075Y-153213000D01*
X48179925Y-153213000D01*
X48022858Y-153181758D01*
X47874899Y-153120471D01*
X47741745Y-153031501D01*
X47628499Y-152918255D01*
X47539529Y-152785101D01*
X47478242Y-152637142D01*
X47447000Y-152480075D01*
X47447000Y-152319925D01*
X47478242Y-152162858D01*
X47539529Y-152014899D01*
X47628499Y-151881745D01*
X47741745Y-151768499D01*
X47874899Y-151679529D01*
X48022858Y-151618242D01*
X48179925Y-151587000D01*
X48340075Y-151587000D01*
X48497142Y-151618242D01*
X48497142Y-151618242D01*
G37*
G36*
X33257142Y-151618242D02*
G01*
X33405101Y-151679529D01*
X33538255Y-151768499D01*
X33651501Y-151881745D01*
X33740471Y-152014899D01*
X33801758Y-152162858D01*
X33833000Y-152319925D01*
X33833000Y-152480075D01*
X33801758Y-152637142D01*
X33740471Y-152785101D01*
X33651501Y-152918255D01*
X33538255Y-153031501D01*
X33405101Y-153120471D01*
X33257142Y-153181758D01*
X33100075Y-153213000D01*
X32939925Y-153213000D01*
X32782858Y-153181758D01*
X32634899Y-153120471D01*
X32501745Y-153031501D01*
X32388499Y-152918255D01*
X32299529Y-152785101D01*
X32238242Y-152637142D01*
X32207000Y-152480075D01*
X32207000Y-152319925D01*
X32238242Y-152162858D01*
X32299529Y-152014899D01*
X32388499Y-151881745D01*
X32501745Y-151768499D01*
X32634899Y-151679529D01*
X32782858Y-151618242D01*
X32939925Y-151587000D01*
X33100075Y-151587000D01*
X33257142Y-151618242D01*
X33257142Y-151618242D01*
G37*
G36*
X48497142Y-149078242D02*
G01*
X48645101Y-149139529D01*
X48778255Y-149228499D01*
X48891501Y-149341745D01*
X48980471Y-149474899D01*
X49041758Y-149622858D01*
X49073000Y-149779925D01*
X49073000Y-149940075D01*
X49041758Y-150097142D01*
X48980471Y-150245101D01*
X48891501Y-150378255D01*
X48778255Y-150491501D01*
X48645101Y-150580471D01*
X48497142Y-150641758D01*
X48340075Y-150673000D01*
X48179925Y-150673000D01*
X48022858Y-150641758D01*
X47874899Y-150580471D01*
X47741745Y-150491501D01*
X47628499Y-150378255D01*
X47539529Y-150245101D01*
X47478242Y-150097142D01*
X47447000Y-149940075D01*
X47447000Y-149779925D01*
X47478242Y-149622858D01*
X47539529Y-149474899D01*
X47628499Y-149341745D01*
X47741745Y-149228499D01*
X47874899Y-149139529D01*
X48022858Y-149078242D01*
X48179925Y-149047000D01*
X48340075Y-149047000D01*
X48497142Y-149078242D01*
X48497142Y-149078242D01*
G37*
G36*
X33257142Y-149078242D02*
G01*
X33405101Y-149139529D01*
X33538255Y-149228499D01*
X33651501Y-149341745D01*
X33740471Y-149474899D01*
X33801758Y-149622858D01*
X33833000Y-149779925D01*
X33833000Y-149940075D01*
X33801758Y-150097142D01*
X33740471Y-150245101D01*
X33651501Y-150378255D01*
X33538255Y-150491501D01*
X33405101Y-150580471D01*
X33257142Y-150641758D01*
X33100075Y-150673000D01*
X32939925Y-150673000D01*
X32782858Y-150641758D01*
X32634899Y-150580471D01*
X32501745Y-150491501D01*
X32388499Y-150378255D01*
X32299529Y-150245101D01*
X32238242Y-150097142D01*
X32207000Y-149940075D01*
X32207000Y-149779925D01*
X32238242Y-149622858D01*
X32299529Y-149474899D01*
X32388499Y-149341745D01*
X32501745Y-149228499D01*
X32634899Y-149139529D01*
X32782858Y-149078242D01*
X32939925Y-149047000D01*
X33100075Y-149047000D01*
X33257142Y-149078242D01*
X33257142Y-149078242D01*
G37*
G36*
X48497142Y-146538242D02*
G01*
X48645101Y-146599529D01*
X48778255Y-146688499D01*
X48891501Y-146801745D01*
X48980471Y-146934899D01*
X49041758Y-147082858D01*
X49073000Y-147239925D01*
X49073000Y-147400075D01*
X49041758Y-147557142D01*
X48980471Y-147705101D01*
X48891501Y-147838255D01*
X48778255Y-147951501D01*
X48645101Y-148040471D01*
X48497142Y-148101758D01*
X48340075Y-148133000D01*
X48179925Y-148133000D01*
X48022858Y-148101758D01*
X47874899Y-148040471D01*
X47741745Y-147951501D01*
X47628499Y-147838255D01*
X47539529Y-147705101D01*
X47478242Y-147557142D01*
X47447000Y-147400075D01*
X47447000Y-147239925D01*
X47478242Y-147082858D01*
X47539529Y-146934899D01*
X47628499Y-146801745D01*
X47741745Y-146688499D01*
X47874899Y-146599529D01*
X48022858Y-146538242D01*
X48179925Y-146507000D01*
X48340075Y-146507000D01*
X48497142Y-146538242D01*
X48497142Y-146538242D01*
G37*
G36*
X33257142Y-146538242D02*
G01*
X33405101Y-146599529D01*
X33538255Y-146688499D01*
X33651501Y-146801745D01*
X33740471Y-146934899D01*
X33801758Y-147082858D01*
X33833000Y-147239925D01*
X33833000Y-147400075D01*
X33801758Y-147557142D01*
X33740471Y-147705101D01*
X33651501Y-147838255D01*
X33538255Y-147951501D01*
X33405101Y-148040471D01*
X33257142Y-148101758D01*
X33100075Y-148133000D01*
X32939925Y-148133000D01*
X32782858Y-148101758D01*
X32634899Y-148040471D01*
X32501745Y-147951501D01*
X32388499Y-147838255D01*
X32299529Y-147705101D01*
X32238242Y-147557142D01*
X32207000Y-147400075D01*
X32207000Y-147239925D01*
X32238242Y-147082858D01*
X32299529Y-146934899D01*
X32388499Y-146801745D01*
X32501745Y-146688499D01*
X32634899Y-146599529D01*
X32782858Y-146538242D01*
X32939925Y-146507000D01*
X33100075Y-146507000D01*
X33257142Y-146538242D01*
X33257142Y-146538242D01*
G37*
G36*
X33257142Y-143998242D02*
G01*
X33405101Y-144059529D01*
X33538255Y-144148499D01*
X33651501Y-144261745D01*
X33740471Y-144394899D01*
X33801758Y-144542858D01*
X33833000Y-144699925D01*
X33833000Y-144860075D01*
X33801758Y-145017142D01*
X33740471Y-145165101D01*
X33651501Y-145298255D01*
X33538255Y-145411501D01*
X33405101Y-145500471D01*
X33257142Y-145561758D01*
X33100075Y-145593000D01*
X32939925Y-145593000D01*
X32782858Y-145561758D01*
X32634899Y-145500471D01*
X32501745Y-145411501D01*
X32388499Y-145298255D01*
X32299529Y-145165101D01*
X32238242Y-145017142D01*
X32207000Y-144860075D01*
X32207000Y-144699925D01*
X32238242Y-144542858D01*
X32299529Y-144394899D01*
X32388499Y-144261745D01*
X32501745Y-144148499D01*
X32634899Y-144059529D01*
X32782858Y-143998242D01*
X32939925Y-143967000D01*
X33100075Y-143967000D01*
X33257142Y-143998242D01*
X33257142Y-143998242D01*
G37*
G36*
X48497142Y-143998242D02*
G01*
X48645101Y-144059529D01*
X48778255Y-144148499D01*
X48891501Y-144261745D01*
X48980471Y-144394899D01*
X49041758Y-144542858D01*
X49073000Y-144699925D01*
X49073000Y-144860075D01*
X49041758Y-145017142D01*
X48980471Y-145165101D01*
X48891501Y-145298255D01*
X48778255Y-145411501D01*
X48645101Y-145500471D01*
X48497142Y-145561758D01*
X48340075Y-145593000D01*
X48179925Y-145593000D01*
X48022858Y-145561758D01*
X47874899Y-145500471D01*
X47741745Y-145411501D01*
X47628499Y-145298255D01*
X47539529Y-145165101D01*
X47478242Y-145017142D01*
X47447000Y-144860075D01*
X47447000Y-144699925D01*
X47478242Y-144542858D01*
X47539529Y-144394899D01*
X47628499Y-144261745D01*
X47741745Y-144148499D01*
X47874899Y-144059529D01*
X48022858Y-143998242D01*
X48179925Y-143967000D01*
X48340075Y-143967000D01*
X48497142Y-143998242D01*
X48497142Y-143998242D01*
G37*
G36*
X54916564Y-143209389D02*
G01*
X55107833Y-143288615D01*
X55107835Y-143288616D01*
X55279973Y-143403635D01*
X55426365Y-143550027D01*
X55541385Y-143722167D01*
X55620611Y-143913436D01*
X55661000Y-144116484D01*
X55661000Y-144323516D01*
X55620611Y-144526564D01*
X55548803Y-144699925D01*
X55541384Y-144717835D01*
X55426365Y-144889973D01*
X55279973Y-145036365D01*
X55107835Y-145151384D01*
X55107834Y-145151385D01*
X55107833Y-145151385D01*
X54916564Y-145230611D01*
X54713516Y-145271000D01*
X54506484Y-145271000D01*
X54303436Y-145230611D01*
X54112167Y-145151385D01*
X54112166Y-145151385D01*
X54112165Y-145151384D01*
X53940027Y-145036365D01*
X53793635Y-144889973D01*
X53678616Y-144717835D01*
X53671197Y-144699925D01*
X53599389Y-144526564D01*
X53559000Y-144323516D01*
X53559000Y-144116484D01*
X53599389Y-143913436D01*
X53678615Y-143722167D01*
X53793635Y-143550027D01*
X53940027Y-143403635D01*
X54112165Y-143288616D01*
X54112167Y-143288615D01*
X54303436Y-143209389D01*
X54506484Y-143169000D01*
X54713516Y-143169000D01*
X54916564Y-143209389D01*
X54916564Y-143209389D01*
G37*
G36*
X80104425Y-142764599D02*
G01*
X80228621Y-142789302D01*
X80365022Y-142845801D01*
X80487779Y-142927825D01*
X80592175Y-143032221D01*
X80674199Y-143154978D01*
X80730698Y-143291379D01*
X80759500Y-143436181D01*
X80759500Y-143583819D01*
X80730698Y-143728621D01*
X80674199Y-143865022D01*
X80592175Y-143987779D01*
X80487779Y-144092175D01*
X80365022Y-144174199D01*
X80228621Y-144230698D01*
X80104425Y-144255401D01*
X80083820Y-144259500D01*
X79936180Y-144259500D01*
X79915575Y-144255401D01*
X79791379Y-144230698D01*
X79654978Y-144174199D01*
X79532221Y-144092175D01*
X79427825Y-143987779D01*
X79345801Y-143865022D01*
X79289302Y-143728621D01*
X79260500Y-143583819D01*
X79260500Y-143436181D01*
X79289302Y-143291379D01*
X79345801Y-143154978D01*
X79427825Y-143032221D01*
X79532221Y-142927825D01*
X79654978Y-142845801D01*
X79791379Y-142789302D01*
X79915575Y-142764599D01*
X79936180Y-142760500D01*
X80083820Y-142760500D01*
X80104425Y-142764599D01*
X80104425Y-142764599D01*
G37*
G36*
X76294425Y-142764599D02*
G01*
X76418621Y-142789302D01*
X76555022Y-142845801D01*
X76677779Y-142927825D01*
X76782175Y-143032221D01*
X76864199Y-143154978D01*
X76920698Y-143291379D01*
X76949500Y-143436181D01*
X76949500Y-143583819D01*
X76920698Y-143728621D01*
X76864199Y-143865022D01*
X76782175Y-143987779D01*
X76677779Y-144092175D01*
X76555022Y-144174199D01*
X76418621Y-144230698D01*
X76294425Y-144255401D01*
X76273820Y-144259500D01*
X76126180Y-144259500D01*
X76105575Y-144255401D01*
X75981379Y-144230698D01*
X75844978Y-144174199D01*
X75722221Y-144092175D01*
X75617825Y-143987779D01*
X75535801Y-143865022D01*
X75479302Y-143728621D01*
X75450500Y-143583819D01*
X75450500Y-143436181D01*
X75479302Y-143291379D01*
X75535801Y-143154978D01*
X75617825Y-143032221D01*
X75722221Y-142927825D01*
X75844978Y-142845801D01*
X75981379Y-142789302D01*
X76105575Y-142764599D01*
X76126180Y-142760500D01*
X76273820Y-142760500D01*
X76294425Y-142764599D01*
X76294425Y-142764599D01*
G37*
G36*
X64864425Y-142764599D02*
G01*
X64988621Y-142789302D01*
X65125022Y-142845801D01*
X65247779Y-142927825D01*
X65352175Y-143032221D01*
X65434199Y-143154978D01*
X65490698Y-143291379D01*
X65519500Y-143436181D01*
X65519500Y-143583819D01*
X65490698Y-143728621D01*
X65434199Y-143865022D01*
X65352175Y-143987779D01*
X65247779Y-144092175D01*
X65125022Y-144174199D01*
X64988621Y-144230698D01*
X64864425Y-144255401D01*
X64843820Y-144259500D01*
X64696180Y-144259500D01*
X64675575Y-144255401D01*
X64551379Y-144230698D01*
X64414978Y-144174199D01*
X64292221Y-144092175D01*
X64187825Y-143987779D01*
X64105801Y-143865022D01*
X64049302Y-143728621D01*
X64020500Y-143583819D01*
X64020500Y-143436181D01*
X64049302Y-143291379D01*
X64105801Y-143154978D01*
X64187825Y-143032221D01*
X64292221Y-142927825D01*
X64414978Y-142845801D01*
X64551379Y-142789302D01*
X64675575Y-142764599D01*
X64696180Y-142760500D01*
X64843820Y-142760500D01*
X64864425Y-142764599D01*
X64864425Y-142764599D01*
G37*
G36*
X72484425Y-142764599D02*
G01*
X72608621Y-142789302D01*
X72745022Y-142845801D01*
X72867779Y-142927825D01*
X72972175Y-143032221D01*
X73054199Y-143154978D01*
X73110698Y-143291379D01*
X73139500Y-143436181D01*
X73139500Y-143583819D01*
X73110698Y-143728621D01*
X73054199Y-143865022D01*
X72972175Y-143987779D01*
X72867779Y-144092175D01*
X72745022Y-144174199D01*
X72608621Y-144230698D01*
X72484425Y-144255401D01*
X72463820Y-144259500D01*
X72316180Y-144259500D01*
X72295575Y-144255401D01*
X72171379Y-144230698D01*
X72034978Y-144174199D01*
X71912221Y-144092175D01*
X71807825Y-143987779D01*
X71725801Y-143865022D01*
X71669302Y-143728621D01*
X71640500Y-143583819D01*
X71640500Y-143436181D01*
X71669302Y-143291379D01*
X71725801Y-143154978D01*
X71807825Y-143032221D01*
X71912221Y-142927825D01*
X72034978Y-142845801D01*
X72171379Y-142789302D01*
X72295575Y-142764599D01*
X72316180Y-142760500D01*
X72463820Y-142760500D01*
X72484425Y-142764599D01*
X72484425Y-142764599D01*
G37*
G36*
X68674425Y-142764599D02*
G01*
X68798621Y-142789302D01*
X68935022Y-142845801D01*
X69057779Y-142927825D01*
X69162175Y-143032221D01*
X69244199Y-143154978D01*
X69300698Y-143291379D01*
X69329500Y-143436181D01*
X69329500Y-143583819D01*
X69300698Y-143728621D01*
X69244199Y-143865022D01*
X69162175Y-143987779D01*
X69057779Y-144092175D01*
X68935022Y-144174199D01*
X68798621Y-144230698D01*
X68674425Y-144255401D01*
X68653820Y-144259500D01*
X68506180Y-144259500D01*
X68485575Y-144255401D01*
X68361379Y-144230698D01*
X68224978Y-144174199D01*
X68102221Y-144092175D01*
X67997825Y-143987779D01*
X67915801Y-143865022D01*
X67859302Y-143728621D01*
X67830500Y-143583819D01*
X67830500Y-143436181D01*
X67859302Y-143291379D01*
X67915801Y-143154978D01*
X67997825Y-143032221D01*
X68102221Y-142927825D01*
X68224978Y-142845801D01*
X68361379Y-142789302D01*
X68485575Y-142764599D01*
X68506180Y-142760500D01*
X68653820Y-142760500D01*
X68674425Y-142764599D01*
X68674425Y-142764599D01*
G37*
G36*
X61054425Y-142764599D02*
G01*
X61178621Y-142789302D01*
X61315022Y-142845801D01*
X61437779Y-142927825D01*
X61542175Y-143032221D01*
X61624199Y-143154978D01*
X61680698Y-143291379D01*
X61709500Y-143436181D01*
X61709500Y-143583819D01*
X61680698Y-143728621D01*
X61624199Y-143865022D01*
X61542175Y-143987779D01*
X61437779Y-144092175D01*
X61315022Y-144174199D01*
X61178621Y-144230698D01*
X61054425Y-144255401D01*
X61033820Y-144259500D01*
X60886180Y-144259500D01*
X60865575Y-144255401D01*
X60741379Y-144230698D01*
X60604978Y-144174199D01*
X60482221Y-144092175D01*
X60377825Y-143987779D01*
X60295801Y-143865022D01*
X60239302Y-143728621D01*
X60210500Y-143583819D01*
X60210500Y-143436181D01*
X60239302Y-143291379D01*
X60295801Y-143154978D01*
X60377825Y-143032221D01*
X60482221Y-142927825D01*
X60604978Y-142845801D01*
X60741379Y-142789302D01*
X60865575Y-142764599D01*
X60886180Y-142760500D01*
X61033820Y-142760500D01*
X61054425Y-142764599D01*
X61054425Y-142764599D01*
G37*
G36*
X83914425Y-142764599D02*
G01*
X84038621Y-142789302D01*
X84175022Y-142845801D01*
X84297779Y-142927825D01*
X84402175Y-143032221D01*
X84484199Y-143154978D01*
X84540698Y-143291379D01*
X84569500Y-143436181D01*
X84569500Y-143583819D01*
X84540698Y-143728621D01*
X84484199Y-143865022D01*
X84402175Y-143987779D01*
X84297779Y-144092175D01*
X84175022Y-144174199D01*
X84038621Y-144230698D01*
X83914425Y-144255401D01*
X83893820Y-144259500D01*
X83746180Y-144259500D01*
X83725575Y-144255401D01*
X83601379Y-144230698D01*
X83464978Y-144174199D01*
X83342221Y-144092175D01*
X83237825Y-143987779D01*
X83155801Y-143865022D01*
X83099302Y-143728621D01*
X83070500Y-143583819D01*
X83070500Y-143436181D01*
X83099302Y-143291379D01*
X83155801Y-143154978D01*
X83237825Y-143032221D01*
X83342221Y-142927825D01*
X83464978Y-142845801D01*
X83601379Y-142789302D01*
X83725575Y-142764599D01*
X83746180Y-142760500D01*
X83893820Y-142760500D01*
X83914425Y-142764599D01*
X83914425Y-142764599D01*
G37*
G36*
X33257142Y-141458242D02*
G01*
X33405101Y-141519529D01*
X33538255Y-141608499D01*
X33651501Y-141721745D01*
X33740471Y-141854899D01*
X33801758Y-142002858D01*
X33833000Y-142159925D01*
X33833000Y-142320075D01*
X33801758Y-142477142D01*
X33740471Y-142625101D01*
X33651501Y-142758255D01*
X33538255Y-142871501D01*
X33405101Y-142960471D01*
X33257142Y-143021758D01*
X33100075Y-143053000D01*
X32939925Y-143053000D01*
X32782858Y-143021758D01*
X32634899Y-142960471D01*
X32501745Y-142871501D01*
X32388499Y-142758255D01*
X32299529Y-142625101D01*
X32238242Y-142477142D01*
X32207000Y-142320075D01*
X32207000Y-142159925D01*
X32238242Y-142002858D01*
X32299529Y-141854899D01*
X32388499Y-141721745D01*
X32501745Y-141608499D01*
X32634899Y-141519529D01*
X32782858Y-141458242D01*
X32939925Y-141427000D01*
X33100075Y-141427000D01*
X33257142Y-141458242D01*
X33257142Y-141458242D01*
G37*
G36*
X48497142Y-141458242D02*
G01*
X48645101Y-141519529D01*
X48778255Y-141608499D01*
X48891501Y-141721745D01*
X48980471Y-141854899D01*
X49041758Y-142002858D01*
X49073000Y-142159925D01*
X49073000Y-142320075D01*
X49041758Y-142477142D01*
X48980471Y-142625101D01*
X48891501Y-142758255D01*
X48778255Y-142871501D01*
X48645101Y-142960471D01*
X48497142Y-143021758D01*
X48340075Y-143053000D01*
X48179925Y-143053000D01*
X48022858Y-143021758D01*
X47874899Y-142960471D01*
X47741745Y-142871501D01*
X47628499Y-142758255D01*
X47539529Y-142625101D01*
X47478242Y-142477142D01*
X47447000Y-142320075D01*
X47447000Y-142159925D01*
X47478242Y-142002858D01*
X47539529Y-141854899D01*
X47628499Y-141721745D01*
X47741745Y-141608499D01*
X47874899Y-141519529D01*
X48022858Y-141458242D01*
X48179925Y-141427000D01*
X48340075Y-141427000D01*
X48497142Y-141458242D01*
X48497142Y-141458242D01*
G37*
G36*
X33257142Y-138918242D02*
G01*
X33405101Y-138979529D01*
X33538255Y-139068499D01*
X33651501Y-139181745D01*
X33740471Y-139314899D01*
X33801758Y-139462858D01*
X33833000Y-139619925D01*
X33833000Y-139780075D01*
X33801758Y-139937142D01*
X33740471Y-140085101D01*
X33651501Y-140218255D01*
X33538255Y-140331501D01*
X33405101Y-140420471D01*
X33257142Y-140481758D01*
X33100075Y-140513000D01*
X32939925Y-140513000D01*
X32782858Y-140481758D01*
X32634899Y-140420471D01*
X32501745Y-140331501D01*
X32388499Y-140218255D01*
X32299529Y-140085101D01*
X32238242Y-139937142D01*
X32207000Y-139780075D01*
X32207000Y-139619925D01*
X32238242Y-139462858D01*
X32299529Y-139314899D01*
X32388499Y-139181745D01*
X32501745Y-139068499D01*
X32634899Y-138979529D01*
X32782858Y-138918242D01*
X32939925Y-138887000D01*
X33100075Y-138887000D01*
X33257142Y-138918242D01*
X33257142Y-138918242D01*
G37*
G36*
X49073000Y-140513000D02*
G01*
X47447000Y-140513000D01*
X47447000Y-138887000D01*
X49073000Y-138887000D01*
X49073000Y-140513000D01*
X49073000Y-140513000D01*
G37*
G36*
X83914425Y-137684599D02*
G01*
X84038621Y-137709302D01*
X84175022Y-137765801D01*
X84297779Y-137847825D01*
X84402175Y-137952221D01*
X84484199Y-138074978D01*
X84540698Y-138211379D01*
X84569500Y-138356181D01*
X84569500Y-138503819D01*
X84540698Y-138648621D01*
X84484199Y-138785022D01*
X84402175Y-138907779D01*
X84297779Y-139012175D01*
X84175022Y-139094199D01*
X84038621Y-139150698D01*
X83914425Y-139175401D01*
X83893820Y-139179500D01*
X83746180Y-139179500D01*
X83725575Y-139175401D01*
X83601379Y-139150698D01*
X83464978Y-139094199D01*
X83342221Y-139012175D01*
X83237825Y-138907779D01*
X83155801Y-138785022D01*
X83099302Y-138648621D01*
X83070500Y-138503819D01*
X83070500Y-138356181D01*
X83099302Y-138211379D01*
X83155801Y-138074978D01*
X83237825Y-137952221D01*
X83342221Y-137847825D01*
X83464978Y-137765801D01*
X83601379Y-137709302D01*
X83725575Y-137684599D01*
X83746180Y-137680500D01*
X83893820Y-137680500D01*
X83914425Y-137684599D01*
X83914425Y-137684599D01*
G37*
G36*
X80104425Y-137684599D02*
G01*
X80228621Y-137709302D01*
X80365022Y-137765801D01*
X80487779Y-137847825D01*
X80592175Y-137952221D01*
X80674199Y-138074978D01*
X80730698Y-138211379D01*
X80759500Y-138356181D01*
X80759500Y-138503819D01*
X80730698Y-138648621D01*
X80674199Y-138785022D01*
X80592175Y-138907779D01*
X80487779Y-139012175D01*
X80365022Y-139094199D01*
X80228621Y-139150698D01*
X80104425Y-139175401D01*
X80083820Y-139179500D01*
X79936180Y-139179500D01*
X79915575Y-139175401D01*
X79791379Y-139150698D01*
X79654978Y-139094199D01*
X79532221Y-139012175D01*
X79427825Y-138907779D01*
X79345801Y-138785022D01*
X79289302Y-138648621D01*
X79260500Y-138503819D01*
X79260500Y-138356181D01*
X79289302Y-138211379D01*
X79345801Y-138074978D01*
X79427825Y-137952221D01*
X79532221Y-137847825D01*
X79654978Y-137765801D01*
X79791379Y-137709302D01*
X79915575Y-137684599D01*
X79936180Y-137680500D01*
X80083820Y-137680500D01*
X80104425Y-137684599D01*
X80104425Y-137684599D01*
G37*
G36*
X76294425Y-137684599D02*
G01*
X76418621Y-137709302D01*
X76555022Y-137765801D01*
X76677779Y-137847825D01*
X76782175Y-137952221D01*
X76864199Y-138074978D01*
X76920698Y-138211379D01*
X76949500Y-138356181D01*
X76949500Y-138503819D01*
X76920698Y-138648621D01*
X76864199Y-138785022D01*
X76782175Y-138907779D01*
X76677779Y-139012175D01*
X76555022Y-139094199D01*
X76418621Y-139150698D01*
X76294425Y-139175401D01*
X76273820Y-139179500D01*
X76126180Y-139179500D01*
X76105575Y-139175401D01*
X75981379Y-139150698D01*
X75844978Y-139094199D01*
X75722221Y-139012175D01*
X75617825Y-138907779D01*
X75535801Y-138785022D01*
X75479302Y-138648621D01*
X75450500Y-138503819D01*
X75450500Y-138356181D01*
X75479302Y-138211379D01*
X75535801Y-138074978D01*
X75617825Y-137952221D01*
X75722221Y-137847825D01*
X75844978Y-137765801D01*
X75981379Y-137709302D01*
X76105575Y-137684599D01*
X76126180Y-137680500D01*
X76273820Y-137680500D01*
X76294425Y-137684599D01*
X76294425Y-137684599D01*
G37*
G36*
X72484425Y-137684599D02*
G01*
X72608621Y-137709302D01*
X72745022Y-137765801D01*
X72867779Y-137847825D01*
X72972175Y-137952221D01*
X73054199Y-138074978D01*
X73110698Y-138211379D01*
X73139500Y-138356181D01*
X73139500Y-138503819D01*
X73110698Y-138648621D01*
X73054199Y-138785022D01*
X72972175Y-138907779D01*
X72867779Y-139012175D01*
X72745022Y-139094199D01*
X72608621Y-139150698D01*
X72484425Y-139175401D01*
X72463820Y-139179500D01*
X72316180Y-139179500D01*
X72295575Y-139175401D01*
X72171379Y-139150698D01*
X72034978Y-139094199D01*
X71912221Y-139012175D01*
X71807825Y-138907779D01*
X71725801Y-138785022D01*
X71669302Y-138648621D01*
X71640500Y-138503819D01*
X71640500Y-138356181D01*
X71669302Y-138211379D01*
X71725801Y-138074978D01*
X71807825Y-137952221D01*
X71912221Y-137847825D01*
X72034978Y-137765801D01*
X72171379Y-137709302D01*
X72295575Y-137684599D01*
X72316180Y-137680500D01*
X72463820Y-137680500D01*
X72484425Y-137684599D01*
X72484425Y-137684599D01*
G37*
G36*
X68674425Y-137684599D02*
G01*
X68798621Y-137709302D01*
X68935022Y-137765801D01*
X69057779Y-137847825D01*
X69162175Y-137952221D01*
X69244199Y-138074978D01*
X69300698Y-138211379D01*
X69329500Y-138356181D01*
X69329500Y-138503819D01*
X69300698Y-138648621D01*
X69244199Y-138785022D01*
X69162175Y-138907779D01*
X69057779Y-139012175D01*
X68935022Y-139094199D01*
X68798621Y-139150698D01*
X68674425Y-139175401D01*
X68653820Y-139179500D01*
X68506180Y-139179500D01*
X68485575Y-139175401D01*
X68361379Y-139150698D01*
X68224978Y-139094199D01*
X68102221Y-139012175D01*
X67997825Y-138907779D01*
X67915801Y-138785022D01*
X67859302Y-138648621D01*
X67830500Y-138503819D01*
X67830500Y-138356181D01*
X67859302Y-138211379D01*
X67915801Y-138074978D01*
X67997825Y-137952221D01*
X68102221Y-137847825D01*
X68224978Y-137765801D01*
X68361379Y-137709302D01*
X68485575Y-137684599D01*
X68506180Y-137680500D01*
X68653820Y-137680500D01*
X68674425Y-137684599D01*
X68674425Y-137684599D01*
G37*
G36*
X64864425Y-137684599D02*
G01*
X64988621Y-137709302D01*
X65125022Y-137765801D01*
X65247779Y-137847825D01*
X65352175Y-137952221D01*
X65434199Y-138074978D01*
X65490698Y-138211379D01*
X65519500Y-138356181D01*
X65519500Y-138503819D01*
X65490698Y-138648621D01*
X65434199Y-138785022D01*
X65352175Y-138907779D01*
X65247779Y-139012175D01*
X65125022Y-139094199D01*
X64988621Y-139150698D01*
X64864425Y-139175401D01*
X64843820Y-139179500D01*
X64696180Y-139179500D01*
X64675575Y-139175401D01*
X64551379Y-139150698D01*
X64414978Y-139094199D01*
X64292221Y-139012175D01*
X64187825Y-138907779D01*
X64105801Y-138785022D01*
X64049302Y-138648621D01*
X64020500Y-138503819D01*
X64020500Y-138356181D01*
X64049302Y-138211379D01*
X64105801Y-138074978D01*
X64187825Y-137952221D01*
X64292221Y-137847825D01*
X64414978Y-137765801D01*
X64551379Y-137709302D01*
X64675575Y-137684599D01*
X64696180Y-137680500D01*
X64843820Y-137680500D01*
X64864425Y-137684599D01*
X64864425Y-137684599D01*
G37*
G36*
X61054425Y-137684599D02*
G01*
X61178621Y-137709302D01*
X61315022Y-137765801D01*
X61437779Y-137847825D01*
X61542175Y-137952221D01*
X61624199Y-138074978D01*
X61680698Y-138211379D01*
X61709500Y-138356181D01*
X61709500Y-138503819D01*
X61680698Y-138648621D01*
X61624199Y-138785022D01*
X61542175Y-138907779D01*
X61437779Y-139012175D01*
X61315022Y-139094199D01*
X61178621Y-139150698D01*
X61054425Y-139175401D01*
X61033820Y-139179500D01*
X60886180Y-139179500D01*
X60865575Y-139175401D01*
X60741379Y-139150698D01*
X60604978Y-139094199D01*
X60482221Y-139012175D01*
X60377825Y-138907779D01*
X60295801Y-138785022D01*
X60239302Y-138648621D01*
X60210500Y-138503819D01*
X60210500Y-138356181D01*
X60239302Y-138211379D01*
X60295801Y-138074978D01*
X60377825Y-137952221D01*
X60482221Y-137847825D01*
X60604978Y-137765801D01*
X60741379Y-137709302D01*
X60865575Y-137684599D01*
X60886180Y-137680500D01*
X61033820Y-137680500D01*
X61054425Y-137684599D01*
X61054425Y-137684599D01*
G37*
G36*
X54916564Y-136709389D02*
G01*
X55107833Y-136788615D01*
X55107835Y-136788616D01*
X55279973Y-136903635D01*
X55426365Y-137050027D01*
X55541385Y-137222167D01*
X55620611Y-137413436D01*
X55661000Y-137616484D01*
X55661000Y-137823516D01*
X55620611Y-138026564D01*
X55600557Y-138074978D01*
X55541384Y-138217835D01*
X55426365Y-138389973D01*
X55279973Y-138536365D01*
X55107835Y-138651384D01*
X55107834Y-138651385D01*
X55107833Y-138651385D01*
X54916564Y-138730611D01*
X54713516Y-138771000D01*
X54506484Y-138771000D01*
X54303436Y-138730611D01*
X54112167Y-138651385D01*
X54112166Y-138651385D01*
X54112165Y-138651384D01*
X53940027Y-138536365D01*
X53793635Y-138389973D01*
X53678616Y-138217835D01*
X53619443Y-138074978D01*
X53599389Y-138026564D01*
X53559000Y-137823516D01*
X53559000Y-137616484D01*
X53599389Y-137413436D01*
X53678615Y-137222167D01*
X53793635Y-137050027D01*
X53940027Y-136903635D01*
X54112165Y-136788616D01*
X54112167Y-136788615D01*
X54303436Y-136709389D01*
X54506484Y-136669000D01*
X54713516Y-136669000D01*
X54916564Y-136709389D01*
X54916564Y-136709389D01*
G37*
M02*
