G04 #@! TF.GenerationSoftware,KiCad,Pcbnew,(5.1.2)-1*
G04 #@! TF.CreationDate,2022-03-23T05:29:32+09:00*
G04 #@! TF.ProjectId,pcb,7063622e-6b69-4636-9164-5f7063625858,rev?*
G04 #@! TF.SameCoordinates,Original*
G04 #@! TF.FileFunction,Soldermask,Top*
G04 #@! TF.FilePolarity,Negative*
%FSLAX46Y46*%
G04 Gerber Fmt 4.6, Leading zero omitted, Abs format (unit mm)*
G04 Created by KiCad (PCBNEW (5.1.2)-1) date 2022-03-23 05:29:32*
%MOMM*%
%LPD*%
G04 APERTURE LIST*
%ADD10C,0.010000*%
%ADD11C,0.100000*%
G04 APERTURE END LIST*
D10*
G36*
X109123644Y-140727213D02*
G01*
X109389508Y-140740307D01*
X109513553Y-140762230D01*
X109509489Y-140794560D01*
X109475741Y-140810491D01*
X109175459Y-140977098D01*
X109015097Y-141201041D01*
X108966051Y-141523074D01*
X108966000Y-141536828D01*
X109044708Y-142018341D01*
X109269413Y-142435099D01*
X109622983Y-142756767D01*
X109671795Y-142786680D01*
X109930571Y-142914372D01*
X110165875Y-142991562D01*
X110247671Y-143002000D01*
X110445886Y-143036841D01*
X110547659Y-143093526D01*
X110665248Y-143127475D01*
X110873559Y-143062027D01*
X110990821Y-143005662D01*
X111261336Y-142815531D01*
X111461334Y-142576355D01*
X111566261Y-142329497D01*
X111551563Y-142116323D01*
X111535948Y-142087272D01*
X111360292Y-141936566D01*
X111144840Y-141938911D01*
X110991700Y-142034034D01*
X110873256Y-142114589D01*
X110828666Y-142096911D01*
X110904729Y-141938509D01*
X111098711Y-141802044D01*
X111359304Y-141703487D01*
X111635200Y-141658807D01*
X111875090Y-141683975D01*
X111979676Y-141738647D01*
X112168891Y-141985120D01*
X112215200Y-142268054D01*
X112134389Y-142564826D01*
X111942244Y-142852816D01*
X111654550Y-143109401D01*
X111287094Y-143311960D01*
X110855660Y-143437871D01*
X110786333Y-143448758D01*
X110486709Y-143455084D01*
X110150381Y-143413414D01*
X110053850Y-143391205D01*
X109768036Y-143298038D01*
X109518656Y-143188698D01*
X109452695Y-143150564D01*
X109154384Y-143051161D01*
X108915179Y-143058245D01*
X108681388Y-143063691D01*
X108439694Y-143003374D01*
X108129707Y-142861182D01*
X108080933Y-142835679D01*
X107823627Y-142705886D01*
X107698737Y-142660121D01*
X107693743Y-142694842D01*
X107727136Y-142735628D01*
X107945202Y-142906168D01*
X108249997Y-143061857D01*
X108578277Y-143178035D01*
X108866797Y-143230043D01*
X108979059Y-143223754D01*
X109149629Y-143210756D01*
X109220000Y-143247038D01*
X109145706Y-143332694D01*
X108948011Y-143370371D01*
X108664691Y-143364004D01*
X108333523Y-143317529D01*
X107992284Y-143234882D01*
X107678750Y-143120000D01*
X107590891Y-143077307D01*
X107246362Y-142809721D01*
X107029094Y-142453243D01*
X106970902Y-142154740D01*
X107925250Y-142154740D01*
X107928860Y-142400369D01*
X107994106Y-142554848D01*
X108157398Y-142694471D01*
X108195354Y-142720733D01*
X108400924Y-142826989D01*
X108630077Y-142898105D01*
X108830942Y-142924432D01*
X108951648Y-142896322D01*
X108966000Y-142864095D01*
X108913811Y-142776248D01*
X108780090Y-142608931D01*
X108669666Y-142482851D01*
X108483749Y-142249621D01*
X108396170Y-142040162D01*
X108373374Y-141772043D01*
X108373333Y-141754846D01*
X108373333Y-141354848D01*
X108158084Y-141570097D01*
X107990438Y-141814530D01*
X107926150Y-142137514D01*
X107925250Y-142154740D01*
X106970902Y-142154740D01*
X106948679Y-142040750D01*
X107014708Y-141605116D01*
X107100971Y-141397963D01*
X107255390Y-141127859D01*
X107418777Y-140939558D01*
X107624507Y-140818958D01*
X107905954Y-140751957D01*
X108296495Y-140724452D01*
X108702251Y-140721366D01*
X109123644Y-140727213D01*
X109123644Y-140727213D01*
G37*
X109123644Y-140727213D02*
X109389508Y-140740307D01*
X109513553Y-140762230D01*
X109509489Y-140794560D01*
X109475741Y-140810491D01*
X109175459Y-140977098D01*
X109015097Y-141201041D01*
X108966051Y-141523074D01*
X108966000Y-141536828D01*
X109044708Y-142018341D01*
X109269413Y-142435099D01*
X109622983Y-142756767D01*
X109671795Y-142786680D01*
X109930571Y-142914372D01*
X110165875Y-142991562D01*
X110247671Y-143002000D01*
X110445886Y-143036841D01*
X110547659Y-143093526D01*
X110665248Y-143127475D01*
X110873559Y-143062027D01*
X110990821Y-143005662D01*
X111261336Y-142815531D01*
X111461334Y-142576355D01*
X111566261Y-142329497D01*
X111551563Y-142116323D01*
X111535948Y-142087272D01*
X111360292Y-141936566D01*
X111144840Y-141938911D01*
X110991700Y-142034034D01*
X110873256Y-142114589D01*
X110828666Y-142096911D01*
X110904729Y-141938509D01*
X111098711Y-141802044D01*
X111359304Y-141703487D01*
X111635200Y-141658807D01*
X111875090Y-141683975D01*
X111979676Y-141738647D01*
X112168891Y-141985120D01*
X112215200Y-142268054D01*
X112134389Y-142564826D01*
X111942244Y-142852816D01*
X111654550Y-143109401D01*
X111287094Y-143311960D01*
X110855660Y-143437871D01*
X110786333Y-143448758D01*
X110486709Y-143455084D01*
X110150381Y-143413414D01*
X110053850Y-143391205D01*
X109768036Y-143298038D01*
X109518656Y-143188698D01*
X109452695Y-143150564D01*
X109154384Y-143051161D01*
X108915179Y-143058245D01*
X108681388Y-143063691D01*
X108439694Y-143003374D01*
X108129707Y-142861182D01*
X108080933Y-142835679D01*
X107823627Y-142705886D01*
X107698737Y-142660121D01*
X107693743Y-142694842D01*
X107727136Y-142735628D01*
X107945202Y-142906168D01*
X108249997Y-143061857D01*
X108578277Y-143178035D01*
X108866797Y-143230043D01*
X108979059Y-143223754D01*
X109149629Y-143210756D01*
X109220000Y-143247038D01*
X109145706Y-143332694D01*
X108948011Y-143370371D01*
X108664691Y-143364004D01*
X108333523Y-143317529D01*
X107992284Y-143234882D01*
X107678750Y-143120000D01*
X107590891Y-143077307D01*
X107246362Y-142809721D01*
X107029094Y-142453243D01*
X106970902Y-142154740D01*
X107925250Y-142154740D01*
X107928860Y-142400369D01*
X107994106Y-142554848D01*
X108157398Y-142694471D01*
X108195354Y-142720733D01*
X108400924Y-142826989D01*
X108630077Y-142898105D01*
X108830942Y-142924432D01*
X108951648Y-142896322D01*
X108966000Y-142864095D01*
X108913811Y-142776248D01*
X108780090Y-142608931D01*
X108669666Y-142482851D01*
X108483749Y-142249621D01*
X108396170Y-142040162D01*
X108373374Y-141772043D01*
X108373333Y-141754846D01*
X108373333Y-141354848D01*
X108158084Y-141570097D01*
X107990438Y-141814530D01*
X107926150Y-142137514D01*
X107925250Y-142154740D01*
X106970902Y-142154740D01*
X106948679Y-142040750D01*
X107014708Y-141605116D01*
X107100971Y-141397963D01*
X107255390Y-141127859D01*
X107418777Y-140939558D01*
X107624507Y-140818958D01*
X107905954Y-140751957D01*
X108296495Y-140724452D01*
X108702251Y-140721366D01*
X109123644Y-140727213D01*
G36*
X88983695Y-172954839D02*
G01*
X88984666Y-172974000D01*
X88919578Y-173055413D01*
X88895003Y-173058666D01*
X88844437Y-173006796D01*
X88857666Y-172974000D01*
X88933748Y-172893229D01*
X88947330Y-172889333D01*
X88983695Y-172954839D01*
X88983695Y-172954839D01*
G37*
X88983695Y-172954839D02*
X88984666Y-172974000D01*
X88919578Y-173055413D01*
X88895003Y-173058666D01*
X88844437Y-173006796D01*
X88857666Y-172974000D01*
X88933748Y-172893229D01*
X88947330Y-172889333D01*
X88983695Y-172954839D01*
G36*
X114957226Y-140967623D02*
G01*
X115175135Y-141112601D01*
X115338319Y-141205544D01*
X115390254Y-141223999D01*
X115477275Y-141281415D01*
X115646113Y-141433720D01*
X115864135Y-141651008D01*
X115921416Y-141710833D01*
X116319022Y-142201692D01*
X116708128Y-142814388D01*
X117062633Y-143502339D01*
X117356438Y-144218965D01*
X117403962Y-144356666D01*
X117518794Y-144682988D01*
X117621971Y-144945143D01*
X117697325Y-145103278D01*
X117717525Y-145129653D01*
X117840965Y-145173183D01*
X118063710Y-145218974D01*
X118159570Y-145233530D01*
X118431556Y-145296338D01*
X118775295Y-145410018D01*
X119081211Y-145534733D01*
X119633999Y-145785380D01*
X119633999Y-149342618D01*
X119340797Y-149986008D01*
X119180453Y-150321356D01*
X119021655Y-150626121D01*
X118894241Y-150843559D01*
X118875131Y-150871602D01*
X118745292Y-151063658D01*
X118724515Y-151155571D01*
X118822397Y-151184241D01*
X118957032Y-151186444D01*
X119222899Y-151225761D01*
X119422699Y-151299529D01*
X119552481Y-151393826D01*
X119615267Y-151531847D01*
X119633659Y-151770539D01*
X119633999Y-151831902D01*
X119629195Y-152019670D01*
X119600814Y-152168152D01*
X119527904Y-152311522D01*
X119389513Y-152483955D01*
X119164690Y-152719625D01*
X118969612Y-152915579D01*
X118305225Y-153579966D01*
X118635005Y-153798203D01*
X118983034Y-154050161D01*
X119282331Y-154307153D01*
X119504852Y-154541617D01*
X119622551Y-154725992D01*
X119633999Y-154779987D01*
X119555270Y-154961724D01*
X119336199Y-155162078D01*
X119002467Y-155366331D01*
X118579754Y-155559764D01*
X118093737Y-155727658D01*
X117877166Y-155786953D01*
X117659234Y-155856346D01*
X117531370Y-155924779D01*
X117517333Y-155947574D01*
X117594255Y-156003692D01*
X117795424Y-156066297D01*
X118076438Y-156126626D01*
X118392899Y-156175915D01*
X118700408Y-156205399D01*
X118846766Y-156210000D01*
X119131709Y-156177879D01*
X119380464Y-156098053D01*
X119428520Y-156071160D01*
X119640417Y-155932320D01*
X119616042Y-156769660D01*
X119591666Y-157607000D01*
X119083666Y-157715493D01*
X118655827Y-157774868D01*
X118130419Y-157799924D01*
X117559362Y-157792831D01*
X116994573Y-157755759D01*
X116487972Y-157690880D01*
X116091478Y-157600365D01*
X116056833Y-157588942D01*
X115764790Y-157500022D01*
X115606747Y-157475352D01*
X115590505Y-157510533D01*
X115723865Y-157601167D01*
X115887500Y-157684421D01*
X116065350Y-157775868D01*
X116358692Y-157934318D01*
X116736143Y-158142495D01*
X117166326Y-158383124D01*
X117517333Y-158581688D01*
X117974908Y-158839861D01*
X118412000Y-159082873D01*
X118794860Y-159292224D01*
X119089736Y-159449413D01*
X119231833Y-159521456D01*
X119634000Y-159715075D01*
X119634000Y-162683248D01*
X119383330Y-162379142D01*
X119164458Y-162154098D01*
X118842875Y-161873330D01*
X118460369Y-161569400D01*
X118058724Y-161274870D01*
X117679729Y-161022302D01*
X117517333Y-160925084D01*
X117136333Y-160708098D01*
X116482629Y-160929834D01*
X115828925Y-161151571D01*
X116110953Y-161495952D01*
X116351103Y-161811852D01*
X116613967Y-162194997D01*
X116881995Y-162615247D01*
X117137634Y-163042465D01*
X117363334Y-163446512D01*
X117541543Y-163797251D01*
X117654709Y-164064543D01*
X117686666Y-164201654D01*
X117632163Y-164193269D01*
X117489147Y-164087463D01*
X117288354Y-163907037D01*
X117284500Y-163903342D01*
X116953307Y-163605113D01*
X116569498Y-163289708D01*
X116179306Y-162992626D01*
X115828962Y-162749363D01*
X115612333Y-162619411D01*
X115433402Y-162502587D01*
X115174942Y-162306902D01*
X114882610Y-162067520D01*
X114771762Y-161972080D01*
X114449431Y-161700594D01*
X114221402Y-161530423D01*
X114094973Y-161465435D01*
X114077437Y-161509497D01*
X114163869Y-161649833D01*
X114286060Y-161839148D01*
X114350707Y-161967333D01*
X114529808Y-162403161D01*
X114683466Y-162696585D01*
X114819727Y-162866946D01*
X114956091Y-163038580D01*
X114949061Y-163161837D01*
X114813171Y-163213664D01*
X114682937Y-163170636D01*
X114577368Y-162999410D01*
X114536323Y-162887969D01*
X114463981Y-162725823D01*
X114343073Y-162557231D01*
X114151016Y-162358671D01*
X113865223Y-162106618D01*
X113493984Y-161802353D01*
X113158638Y-161536230D01*
X112872644Y-161315973D01*
X112660354Y-161159819D01*
X112546116Y-161086007D01*
X112533695Y-161083092D01*
X112565177Y-161158220D01*
X112678504Y-161322465D01*
X112797670Y-161475859D01*
X113052970Y-161813212D01*
X113208703Y-162065157D01*
X113263321Y-162221899D01*
X113215277Y-162273643D01*
X113063026Y-162210596D01*
X112895310Y-162094208D01*
X112691710Y-161962140D01*
X112430419Y-161822931D01*
X112156341Y-161696454D01*
X111914380Y-161602579D01*
X111749442Y-161561179D01*
X111707295Y-161568482D01*
X111705310Y-161660253D01*
X111725384Y-161882200D01*
X111763676Y-162197159D01*
X111797355Y-162439951D01*
X111860262Y-162934043D01*
X111918190Y-163493729D01*
X111960691Y-164015501D01*
X111967592Y-164126333D01*
X111994209Y-164564218D01*
X112028973Y-165097580D01*
X112067004Y-165653063D01*
X112097205Y-166073666D01*
X112130382Y-166595987D01*
X112157489Y-167159921D01*
X112175351Y-167690654D01*
X112180863Y-168045112D01*
X112183333Y-168915892D01*
X112458500Y-168601881D01*
X112680212Y-168368237D01*
X112978717Y-168080121D01*
X113322769Y-167764830D01*
X113681122Y-167449661D01*
X114022533Y-167161911D01*
X114315755Y-166928876D01*
X114529543Y-166777854D01*
X114577662Y-166750503D01*
X115514809Y-166361513D01*
X116513254Y-166098920D01*
X117532033Y-165969486D01*
X118530182Y-165979972D01*
X118945398Y-166029580D01*
X119634000Y-166136700D01*
X119634000Y-184488666D01*
X118024184Y-184488666D01*
X117495216Y-184484368D01*
X117027199Y-184472347D01*
X116647685Y-184453917D01*
X116384225Y-184430389D01*
X116267351Y-184404994D01*
X116106180Y-184329179D01*
X115853602Y-184226173D01*
X115681485Y-184161276D01*
X115242637Y-184001230D01*
X114961818Y-184241507D01*
X114652672Y-184438348D01*
X114369286Y-184491131D01*
X114134841Y-184400024D01*
X114003666Y-184234666D01*
X113891985Y-184062283D01*
X113795263Y-183981505D01*
X113787966Y-183980666D01*
X113673905Y-184013606D01*
X113452505Y-184100349D01*
X113169731Y-184222782D01*
X113143430Y-184234666D01*
X112583245Y-184488666D01*
X88646000Y-184488666D01*
X88646000Y-176780939D01*
X89462621Y-175995530D01*
X89815279Y-175653237D01*
X90050438Y-175398743D01*
X90171004Y-175200785D01*
X90179884Y-175028099D01*
X90079984Y-174849419D01*
X89874211Y-174633482D01*
X89611753Y-174391369D01*
X89162901Y-173981143D01*
X89497117Y-173346549D01*
X89695480Y-172949870D01*
X89802561Y-172674965D01*
X89819784Y-172501905D01*
X89748576Y-172410763D01*
X89590361Y-172381612D01*
X89566160Y-172381333D01*
X89302843Y-172336999D01*
X89051606Y-172222216D01*
X88841620Y-172064310D01*
X88702060Y-171890608D01*
X88662098Y-171728436D01*
X88742772Y-171610059D01*
X88915440Y-171542790D01*
X88971635Y-171535963D01*
X89111801Y-171512745D01*
X89352652Y-171454291D01*
X89550860Y-171399413D01*
X89863968Y-171285359D01*
X90063137Y-171145310D01*
X90173739Y-170997009D01*
X90324506Y-170820481D01*
X90572533Y-170607919D01*
X90865935Y-170403470D01*
X90885480Y-170391429D01*
X90930295Y-170362907D01*
X100711314Y-170362907D01*
X100730529Y-170609943D01*
X100762515Y-170710213D01*
X100817421Y-170756867D01*
X100933806Y-170751588D01*
X101150230Y-170696061D01*
X101351799Y-170637067D01*
X101939449Y-170435762D01*
X102385292Y-170215885D01*
X102716807Y-169962838D01*
X102813907Y-169860289D01*
X103069677Y-169565389D01*
X103252093Y-169380441D01*
X103404889Y-169293069D01*
X103571800Y-169290898D01*
X103796560Y-169361552D01*
X104118833Y-169491022D01*
X104370403Y-169587627D01*
X104503652Y-169619690D01*
X104555697Y-169589844D01*
X104563810Y-169522597D01*
X104505655Y-169409473D01*
X104346949Y-169210010D01*
X104111924Y-168952337D01*
X103824812Y-168664587D01*
X103824192Y-168663991D01*
X103468596Y-168309071D01*
X103237353Y-168046048D01*
X103120918Y-167863159D01*
X103102761Y-167774991D01*
X103084551Y-167675824D01*
X102990999Y-167573239D01*
X102796543Y-167447805D01*
X102475618Y-167280094D01*
X102406890Y-167246102D01*
X101692356Y-166894537D01*
X101561943Y-167246102D01*
X101274300Y-168057804D01*
X101041712Y-168790320D01*
X100867883Y-169428666D01*
X100756516Y-169957856D01*
X100711314Y-170362907D01*
X90930295Y-170362907D01*
X91148951Y-170223748D01*
X91344568Y-170086363D01*
X91436860Y-170004514D01*
X91439799Y-169996984D01*
X91360814Y-169978454D01*
X91145614Y-169969419D01*
X90827077Y-169970377D01*
X90438441Y-169981812D01*
X89436882Y-170022655D01*
X89062607Y-169737893D01*
X88787267Y-169483362D01*
X88666514Y-169252637D01*
X88661149Y-169219822D01*
X88633966Y-168986514D01*
X89253816Y-169039251D01*
X89653979Y-169052959D01*
X90123617Y-169039404D01*
X90565595Y-169001574D01*
X90593333Y-168998049D01*
X91042414Y-168941313D01*
X91556151Y-168879218D01*
X92030810Y-168824276D01*
X92075000Y-168819338D01*
X92500780Y-168763208D01*
X92939671Y-168691174D01*
X93309369Y-168617014D01*
X93370270Y-168602520D01*
X93859800Y-168523221D01*
X94420677Y-168499188D01*
X95002490Y-168526555D01*
X95554823Y-168601457D01*
X96027263Y-168720030D01*
X96281051Y-168825679D01*
X96541184Y-168955002D01*
X96714302Y-169008001D01*
X96858902Y-168994956D01*
X96981883Y-168948854D01*
X97211537Y-168855308D01*
X97393037Y-168789841D01*
X97534539Y-168671200D01*
X97702479Y-168408504D01*
X97889860Y-168023700D01*
X98089685Y-167538731D01*
X98294957Y-166975543D01*
X98498678Y-166356082D01*
X98693853Y-165702292D01*
X98873483Y-165036119D01*
X99030573Y-164379508D01*
X99158124Y-163754404D01*
X99249141Y-163182753D01*
X99284886Y-162856271D01*
X99335279Y-162263543D01*
X98753139Y-162263605D01*
X98442151Y-162268139D01*
X98247931Y-162294519D01*
X98117933Y-162362029D01*
X97999611Y-162489955D01*
X97945578Y-162560000D01*
X97624756Y-162883604D01*
X97208339Y-163163909D01*
X96742799Y-163380805D01*
X96274606Y-163514178D01*
X95850231Y-163543918D01*
X95715666Y-163525069D01*
X95179098Y-163326455D01*
X94713818Y-162987074D01*
X94349677Y-162530343D01*
X94275062Y-162394888D01*
X94194860Y-162187876D01*
X94192072Y-162168590D01*
X94490368Y-162168590D01*
X94508863Y-162363053D01*
X94574479Y-162503292D01*
X94662504Y-162607837D01*
X94994008Y-162846441D01*
X95422395Y-162988947D01*
X95902099Y-163030806D01*
X96387553Y-162967473D01*
X96786040Y-162819718D01*
X97065357Y-162654043D01*
X97321239Y-162467848D01*
X97387833Y-162409573D01*
X97547857Y-162223306D01*
X97619845Y-162066403D01*
X97590285Y-161976292D01*
X97547492Y-161967333D01*
X97455645Y-161911837D01*
X97280859Y-161765379D01*
X97058652Y-161557999D01*
X97027475Y-161527482D01*
X96641250Y-161066039D01*
X96314346Y-160519591D01*
X96113182Y-160035828D01*
X97366666Y-160035828D01*
X97410235Y-160210228D01*
X97527453Y-160483776D01*
X97698090Y-160814698D01*
X97901916Y-161161214D01*
X97942627Y-161225215D01*
X98198532Y-161554734D01*
X98462121Y-161781261D01*
X98710865Y-161899709D01*
X98922234Y-161904991D01*
X99073699Y-161792022D01*
X99142729Y-161555714D01*
X99144666Y-161496592D01*
X99116975Y-161275114D01*
X99011781Y-161156109D01*
X98941879Y-161124042D01*
X98772368Y-161024834D01*
X98700249Y-160935638D01*
X98642873Y-160875238D01*
X98527511Y-160940095D01*
X98500869Y-160962485D01*
X98253072Y-161127215D01*
X98054923Y-161164050D01*
X97930611Y-161069965D01*
X97916833Y-161035475D01*
X97912790Y-160841275D01*
X97959704Y-160739219D01*
X97993489Y-160645797D01*
X97933378Y-160522921D01*
X97760912Y-160337080D01*
X97712699Y-160290725D01*
X97527121Y-160125853D01*
X97401531Y-160036598D01*
X97366666Y-160035828D01*
X96113182Y-160035828D01*
X96075436Y-159945058D01*
X96027971Y-159733168D01*
X114469333Y-159733168D01*
X114525294Y-159807045D01*
X114675680Y-159971546D01*
X114894245Y-160198500D01*
X115040833Y-160346571D01*
X115327805Y-160626544D01*
X115539782Y-160795480D01*
X115719698Y-160863859D01*
X115910485Y-160842164D01*
X116155076Y-160740874D01*
X116320340Y-160658939D01*
X116689681Y-160472989D01*
X115981674Y-160212630D01*
X115402953Y-160003731D01*
X114957341Y-159851391D01*
X114651512Y-159757724D01*
X114492144Y-159724848D01*
X114469333Y-159733168D01*
X96027971Y-159733168D01*
X95953194Y-159399358D01*
X95952615Y-159393831D01*
X95917685Y-159136336D01*
X95878308Y-158964013D01*
X95851797Y-158919333D01*
X95777815Y-158989307D01*
X95646240Y-159177206D01*
X95476190Y-159449989D01*
X95286782Y-159774620D01*
X95097131Y-160118059D01*
X94926355Y-160447269D01*
X94793571Y-160729212D01*
X94764449Y-160798529D01*
X94639271Y-161179553D01*
X94543024Y-161601077D01*
X94507159Y-161863164D01*
X94490368Y-162168590D01*
X94192072Y-162168590D01*
X94159657Y-161944380D01*
X94163326Y-161608843D01*
X94172365Y-161463555D01*
X94198833Y-161183149D01*
X94242746Y-160919300D01*
X94313472Y-160646874D01*
X94420380Y-160340736D01*
X94572837Y-159975752D01*
X94780214Y-159526789D01*
X95051877Y-158968711D01*
X95253157Y-158563976D01*
X95544028Y-157963858D01*
X95751737Y-157485267D01*
X95868923Y-157141333D01*
X99239765Y-157141333D01*
X99244648Y-157442903D01*
X99266044Y-157702352D01*
X99284411Y-157804054D01*
X99336991Y-157937590D01*
X99411441Y-157923205D01*
X99460853Y-157877431D01*
X99539450Y-157744039D01*
X99490351Y-157577843D01*
X99486510Y-157570604D01*
X99407044Y-157369362D01*
X99332642Y-157099481D01*
X99318188Y-157031559D01*
X99247886Y-156675666D01*
X99239765Y-157141333D01*
X95868923Y-157141333D01*
X95881257Y-157105136D01*
X95937557Y-156800402D01*
X95925608Y-156547999D01*
X95850380Y-156324862D01*
X95766911Y-156180035D01*
X95607605Y-155938404D01*
X95502910Y-156264702D01*
X95310904Y-156753891D01*
X95036343Y-157309048D01*
X94706844Y-157884784D01*
X94350025Y-158435711D01*
X93993504Y-158916440D01*
X93670506Y-159276198D01*
X93267547Y-159593199D01*
X92754632Y-159892562D01*
X92190772Y-160145467D01*
X91634973Y-160323095D01*
X91443399Y-160363929D01*
X91068649Y-160417061D01*
X90706560Y-160432663D01*
X90289635Y-160411410D01*
X89962989Y-160378797D01*
X89573148Y-160329297D01*
X89224479Y-160274369D01*
X88965997Y-160222256D01*
X88874661Y-160195794D01*
X88746477Y-160133460D01*
X88677970Y-160039560D01*
X88650651Y-159866480D01*
X88646000Y-159606905D01*
X88646000Y-159104953D01*
X89090499Y-159343863D01*
X89755720Y-159607890D01*
X90516468Y-159739174D01*
X91295379Y-159740437D01*
X91796598Y-159695797D01*
X92163098Y-159634217D01*
X92429474Y-159541532D01*
X92630316Y-159403573D01*
X92800218Y-159206174D01*
X92876653Y-159092842D01*
X93374517Y-158202963D01*
X93777070Y-157247730D01*
X94069103Y-156272091D01*
X94203423Y-155503912D01*
X95754052Y-155503912D01*
X95760114Y-155718917D01*
X95819543Y-155892500D01*
X95903518Y-156055569D01*
X95950304Y-156125489D01*
X95950674Y-156125532D01*
X95955689Y-156047643D01*
X95952496Y-155840020D01*
X95941881Y-155542023D01*
X95936717Y-155427032D01*
X95903767Y-154728333D01*
X95805586Y-155194000D01*
X95754052Y-155503912D01*
X94203423Y-155503912D01*
X94235407Y-155320998D01*
X94261165Y-155000941D01*
X94305400Y-154172883D01*
X93909866Y-154577608D01*
X93565648Y-154913567D01*
X93193867Y-155249565D01*
X92829768Y-155556071D01*
X92508593Y-155803552D01*
X92265589Y-155962476D01*
X92242901Y-155974424D01*
X92032775Y-156066289D01*
X91728115Y-156182560D01*
X91406800Y-156294044D01*
X91076856Y-156391185D01*
X90785214Y-156443011D01*
X90462601Y-156457068D01*
X90052134Y-156441618D01*
X89661664Y-156405907D01*
X89298598Y-156349542D01*
X89023912Y-156282683D01*
X88963500Y-156260242D01*
X88646000Y-156123060D01*
X88646632Y-152781000D01*
X88824282Y-153077333D01*
X89190634Y-153568385D01*
X89613965Y-153927128D01*
X90075095Y-154140701D01*
X90495825Y-154198361D01*
X90899226Y-154125947D01*
X91357815Y-153936629D01*
X91836142Y-153656538D01*
X91840997Y-153652920D01*
X114562774Y-153652920D01*
X114656750Y-153731978D01*
X114905009Y-153828742D01*
X114998500Y-153858843D01*
X115555504Y-154029068D01*
X115987090Y-154147062D01*
X116327527Y-154216929D01*
X116611084Y-154242773D01*
X116872031Y-154228696D01*
X117144638Y-154178804D01*
X117316448Y-154136415D01*
X117750624Y-153975800D01*
X118065433Y-153758170D01*
X118237074Y-153500151D01*
X118239929Y-153491437D01*
X118249090Y-153262239D01*
X118181886Y-152964029D01*
X118059674Y-152666084D01*
X117920640Y-152455793D01*
X117735083Y-152247472D01*
X117377206Y-152493698D01*
X117011645Y-152720311D01*
X116581019Y-152949161D01*
X116131872Y-153159134D01*
X115710746Y-153329112D01*
X115364187Y-153437980D01*
X115243860Y-153461558D01*
X114852597Y-153523752D01*
X114626813Y-153585525D01*
X114562774Y-153652920D01*
X91840997Y-153652920D01*
X92298757Y-153311806D01*
X92710211Y-152928561D01*
X93035052Y-152532934D01*
X93224341Y-152187157D01*
X93357683Y-151847314D01*
X92634761Y-152081324D01*
X92254527Y-152202773D01*
X92006804Y-152275645D01*
X91863614Y-152305367D01*
X91796979Y-152297367D01*
X91778918Y-152257071D01*
X91778666Y-152247392D01*
X91851382Y-152183338D01*
X92038221Y-152091489D01*
X92203273Y-152026764D01*
X92639672Y-151783822D01*
X93057053Y-151378659D01*
X93449420Y-150817884D01*
X93669970Y-150410217D01*
X93813345Y-150111274D01*
X93921576Y-149868500D01*
X93976580Y-149723060D01*
X93980000Y-149704481D01*
X93952042Y-149647476D01*
X93854712Y-149597706D01*
X93667826Y-149551195D01*
X93371199Y-149503972D01*
X92944646Y-149452060D01*
X92413666Y-149396093D01*
X91750261Y-149328062D01*
X91237586Y-149273004D01*
X90857727Y-149228642D01*
X90592770Y-149192699D01*
X90424799Y-149162896D01*
X90335901Y-149136957D01*
X90323161Y-149130338D01*
X90210096Y-149153257D01*
X90045694Y-149307519D01*
X89845240Y-149568794D01*
X89624023Y-149912750D01*
X89397329Y-150315056D01*
X89180446Y-150751380D01*
X88988661Y-151197390D01*
X88933810Y-151341666D01*
X88654454Y-152103666D01*
X88650227Y-150762327D01*
X88646000Y-149420987D01*
X89100316Y-148971000D01*
X90314923Y-148971000D01*
X90771628Y-149013333D01*
X91589725Y-149034122D01*
X92294967Y-148933692D01*
X92496849Y-148876175D01*
X92798134Y-148762764D01*
X93163153Y-148603359D01*
X93477890Y-148450115D01*
X94034113Y-148161746D01*
X93715755Y-147816903D01*
X93525740Y-147620656D01*
X93382026Y-147524778D01*
X93217866Y-147503567D01*
X92972117Y-147530550D01*
X92541151Y-147637826D01*
X92037939Y-147839743D01*
X91511374Y-148112622D01*
X91010346Y-148432786D01*
X90827585Y-148569142D01*
X90314923Y-148971000D01*
X89100316Y-148971000D01*
X89175166Y-148896864D01*
X89693243Y-148424419D01*
X90197289Y-148061331D01*
X90750408Y-147766212D01*
X91165211Y-147591588D01*
X91739139Y-147376195D01*
X92187376Y-147227606D01*
X92536541Y-147138627D01*
X92813253Y-147102065D01*
X92971730Y-147103336D01*
X93291782Y-147126132D01*
X93244807Y-146729498D01*
X93238868Y-146237082D01*
X93316239Y-145641983D01*
X93467610Y-144983275D01*
X93638989Y-144441333D01*
X96533368Y-144441333D01*
X96546673Y-144561528D01*
X96576073Y-144547166D01*
X96587255Y-144373824D01*
X96576073Y-144335500D01*
X96545170Y-144324863D01*
X96533368Y-144441333D01*
X93638989Y-144441333D01*
X93683673Y-144300034D01*
X93955118Y-143631336D01*
X93959876Y-143621147D01*
X96497669Y-143621147D01*
X96503900Y-143749273D01*
X96519386Y-143764000D01*
X96569931Y-143688662D01*
X96622204Y-143497875D01*
X96642793Y-143381539D01*
X96716427Y-143057038D01*
X96830851Y-142710207D01*
X96871147Y-142612503D01*
X96962234Y-142383835D01*
X97006272Y-142226176D01*
X97003809Y-142187587D01*
X96953715Y-142233680D01*
X96870179Y-142400767D01*
X96769123Y-142647862D01*
X96666471Y-142933980D01*
X96578148Y-143218138D01*
X96531135Y-143404166D01*
X96497669Y-143621147D01*
X93959876Y-143621147D01*
X94011780Y-143510000D01*
X94236833Y-143107151D01*
X94555558Y-142629767D01*
X94937682Y-142118690D01*
X95352932Y-141614760D01*
X95700495Y-141231777D01*
X96193323Y-140716000D01*
X99904066Y-140716000D01*
X99567525Y-141160499D01*
X99310260Y-141555334D01*
X99112266Y-141966870D01*
X98996336Y-142342363D01*
X98975649Y-142530249D01*
X99043366Y-142793126D01*
X99216425Y-143073178D01*
X99450954Y-143307527D01*
X99572123Y-143385132D01*
X99755706Y-143468160D01*
X99862643Y-143494193D01*
X99868909Y-143491312D01*
X99904996Y-143402938D01*
X99979920Y-143185784D01*
X100082606Y-142872881D01*
X100197558Y-142511355D01*
X100377987Y-141962850D01*
X100543552Y-141511911D01*
X100685709Y-141180121D01*
X100795915Y-140989058D01*
X100803890Y-140979599D01*
X100910053Y-140956724D01*
X101145727Y-140950904D01*
X101472191Y-140959908D01*
X101850725Y-140981504D01*
X102242609Y-141013460D01*
X102609121Y-141053545D01*
X102911542Y-141099527D01*
X102923226Y-141101738D01*
X103275640Y-141188588D01*
X103729026Y-141327766D01*
X104230698Y-141500443D01*
X104727971Y-141687790D01*
X105168162Y-141870974D01*
X105448405Y-142004265D01*
X105626722Y-142126157D01*
X105876111Y-142331637D01*
X106151907Y-142580683D01*
X106409447Y-142833274D01*
X106573672Y-143012596D01*
X106763678Y-143236936D01*
X106294955Y-144234489D01*
X106122252Y-144615006D01*
X105984192Y-144944276D01*
X105893340Y-145190393D01*
X105862259Y-145321448D01*
X105863697Y-145329673D01*
X105958893Y-145391690D01*
X106178215Y-145469340D01*
X106479139Y-145548234D01*
X106565747Y-145567228D01*
X106932438Y-145649721D01*
X107394167Y-145761206D01*
X107882924Y-145884972D01*
X108204000Y-145969774D01*
X108615583Y-146077538D01*
X108939674Y-146149383D01*
X109229583Y-146190964D01*
X109538619Y-146207935D01*
X109920093Y-146205950D01*
X110320666Y-146194266D01*
X111051118Y-146152442D01*
X111656725Y-146075075D01*
X112179818Y-145953560D01*
X112662730Y-145779294D01*
X112903000Y-145669372D01*
X113374979Y-145385584D01*
X113809318Y-145024433D01*
X113968227Y-144849816D01*
X116956997Y-144849816D01*
X116987259Y-145044902D01*
X117002371Y-145097500D01*
X117074152Y-145121378D01*
X117164146Y-145083668D01*
X117177510Y-145055166D01*
X117146258Y-144868189D01*
X117078388Y-144696125D01*
X117003437Y-144611523D01*
X116996562Y-144610666D01*
X116959823Y-144681993D01*
X116956997Y-144849816D01*
X113968227Y-144849816D01*
X114180286Y-144616797D01*
X114462150Y-144193556D01*
X114629178Y-143785589D01*
X114663708Y-143556492D01*
X114604743Y-143244549D01*
X114428543Y-142868314D01*
X114159121Y-142456890D01*
X113820491Y-142039382D01*
X113436666Y-141644893D01*
X113031657Y-141302529D01*
X112629479Y-141041392D01*
X112558428Y-141004860D01*
X112056333Y-140758333D01*
X113324917Y-140734790D01*
X114593502Y-140711247D01*
X114957226Y-140967623D01*
X114957226Y-140967623D01*
G37*
X114957226Y-140967623D02*
X115175135Y-141112601D01*
X115338319Y-141205544D01*
X115390254Y-141223999D01*
X115477275Y-141281415D01*
X115646113Y-141433720D01*
X115864135Y-141651008D01*
X115921416Y-141710833D01*
X116319022Y-142201692D01*
X116708128Y-142814388D01*
X117062633Y-143502339D01*
X117356438Y-144218965D01*
X117403962Y-144356666D01*
X117518794Y-144682988D01*
X117621971Y-144945143D01*
X117697325Y-145103278D01*
X117717525Y-145129653D01*
X117840965Y-145173183D01*
X118063710Y-145218974D01*
X118159570Y-145233530D01*
X118431556Y-145296338D01*
X118775295Y-145410018D01*
X119081211Y-145534733D01*
X119633999Y-145785380D01*
X119633999Y-149342618D01*
X119340797Y-149986008D01*
X119180453Y-150321356D01*
X119021655Y-150626121D01*
X118894241Y-150843559D01*
X118875131Y-150871602D01*
X118745292Y-151063658D01*
X118724515Y-151155571D01*
X118822397Y-151184241D01*
X118957032Y-151186444D01*
X119222899Y-151225761D01*
X119422699Y-151299529D01*
X119552481Y-151393826D01*
X119615267Y-151531847D01*
X119633659Y-151770539D01*
X119633999Y-151831902D01*
X119629195Y-152019670D01*
X119600814Y-152168152D01*
X119527904Y-152311522D01*
X119389513Y-152483955D01*
X119164690Y-152719625D01*
X118969612Y-152915579D01*
X118305225Y-153579966D01*
X118635005Y-153798203D01*
X118983034Y-154050161D01*
X119282331Y-154307153D01*
X119504852Y-154541617D01*
X119622551Y-154725992D01*
X119633999Y-154779987D01*
X119555270Y-154961724D01*
X119336199Y-155162078D01*
X119002467Y-155366331D01*
X118579754Y-155559764D01*
X118093737Y-155727658D01*
X117877166Y-155786953D01*
X117659234Y-155856346D01*
X117531370Y-155924779D01*
X117517333Y-155947574D01*
X117594255Y-156003692D01*
X117795424Y-156066297D01*
X118076438Y-156126626D01*
X118392899Y-156175915D01*
X118700408Y-156205399D01*
X118846766Y-156210000D01*
X119131709Y-156177879D01*
X119380464Y-156098053D01*
X119428520Y-156071160D01*
X119640417Y-155932320D01*
X119616042Y-156769660D01*
X119591666Y-157607000D01*
X119083666Y-157715493D01*
X118655827Y-157774868D01*
X118130419Y-157799924D01*
X117559362Y-157792831D01*
X116994573Y-157755759D01*
X116487972Y-157690880D01*
X116091478Y-157600365D01*
X116056833Y-157588942D01*
X115764790Y-157500022D01*
X115606747Y-157475352D01*
X115590505Y-157510533D01*
X115723865Y-157601167D01*
X115887500Y-157684421D01*
X116065350Y-157775868D01*
X116358692Y-157934318D01*
X116736143Y-158142495D01*
X117166326Y-158383124D01*
X117517333Y-158581688D01*
X117974908Y-158839861D01*
X118412000Y-159082873D01*
X118794860Y-159292224D01*
X119089736Y-159449413D01*
X119231833Y-159521456D01*
X119634000Y-159715075D01*
X119634000Y-162683248D01*
X119383330Y-162379142D01*
X119164458Y-162154098D01*
X118842875Y-161873330D01*
X118460369Y-161569400D01*
X118058724Y-161274870D01*
X117679729Y-161022302D01*
X117517333Y-160925084D01*
X117136333Y-160708098D01*
X116482629Y-160929834D01*
X115828925Y-161151571D01*
X116110953Y-161495952D01*
X116351103Y-161811852D01*
X116613967Y-162194997D01*
X116881995Y-162615247D01*
X117137634Y-163042465D01*
X117363334Y-163446512D01*
X117541543Y-163797251D01*
X117654709Y-164064543D01*
X117686666Y-164201654D01*
X117632163Y-164193269D01*
X117489147Y-164087463D01*
X117288354Y-163907037D01*
X117284500Y-163903342D01*
X116953307Y-163605113D01*
X116569498Y-163289708D01*
X116179306Y-162992626D01*
X115828962Y-162749363D01*
X115612333Y-162619411D01*
X115433402Y-162502587D01*
X115174942Y-162306902D01*
X114882610Y-162067520D01*
X114771762Y-161972080D01*
X114449431Y-161700594D01*
X114221402Y-161530423D01*
X114094973Y-161465435D01*
X114077437Y-161509497D01*
X114163869Y-161649833D01*
X114286060Y-161839148D01*
X114350707Y-161967333D01*
X114529808Y-162403161D01*
X114683466Y-162696585D01*
X114819727Y-162866946D01*
X114956091Y-163038580D01*
X114949061Y-163161837D01*
X114813171Y-163213664D01*
X114682937Y-163170636D01*
X114577368Y-162999410D01*
X114536323Y-162887969D01*
X114463981Y-162725823D01*
X114343073Y-162557231D01*
X114151016Y-162358671D01*
X113865223Y-162106618D01*
X113493984Y-161802353D01*
X113158638Y-161536230D01*
X112872644Y-161315973D01*
X112660354Y-161159819D01*
X112546116Y-161086007D01*
X112533695Y-161083092D01*
X112565177Y-161158220D01*
X112678504Y-161322465D01*
X112797670Y-161475859D01*
X113052970Y-161813212D01*
X113208703Y-162065157D01*
X113263321Y-162221899D01*
X113215277Y-162273643D01*
X113063026Y-162210596D01*
X112895310Y-162094208D01*
X112691710Y-161962140D01*
X112430419Y-161822931D01*
X112156341Y-161696454D01*
X111914380Y-161602579D01*
X111749442Y-161561179D01*
X111707295Y-161568482D01*
X111705310Y-161660253D01*
X111725384Y-161882200D01*
X111763676Y-162197159D01*
X111797355Y-162439951D01*
X111860262Y-162934043D01*
X111918190Y-163493729D01*
X111960691Y-164015501D01*
X111967592Y-164126333D01*
X111994209Y-164564218D01*
X112028973Y-165097580D01*
X112067004Y-165653063D01*
X112097205Y-166073666D01*
X112130382Y-166595987D01*
X112157489Y-167159921D01*
X112175351Y-167690654D01*
X112180863Y-168045112D01*
X112183333Y-168915892D01*
X112458500Y-168601881D01*
X112680212Y-168368237D01*
X112978717Y-168080121D01*
X113322769Y-167764830D01*
X113681122Y-167449661D01*
X114022533Y-167161911D01*
X114315755Y-166928876D01*
X114529543Y-166777854D01*
X114577662Y-166750503D01*
X115514809Y-166361513D01*
X116513254Y-166098920D01*
X117532033Y-165969486D01*
X118530182Y-165979972D01*
X118945398Y-166029580D01*
X119634000Y-166136700D01*
X119634000Y-184488666D01*
X118024184Y-184488666D01*
X117495216Y-184484368D01*
X117027199Y-184472347D01*
X116647685Y-184453917D01*
X116384225Y-184430389D01*
X116267351Y-184404994D01*
X116106180Y-184329179D01*
X115853602Y-184226173D01*
X115681485Y-184161276D01*
X115242637Y-184001230D01*
X114961818Y-184241507D01*
X114652672Y-184438348D01*
X114369286Y-184491131D01*
X114134841Y-184400024D01*
X114003666Y-184234666D01*
X113891985Y-184062283D01*
X113795263Y-183981505D01*
X113787966Y-183980666D01*
X113673905Y-184013606D01*
X113452505Y-184100349D01*
X113169731Y-184222782D01*
X113143430Y-184234666D01*
X112583245Y-184488666D01*
X88646000Y-184488666D01*
X88646000Y-176780939D01*
X89462621Y-175995530D01*
X89815279Y-175653237D01*
X90050438Y-175398743D01*
X90171004Y-175200785D01*
X90179884Y-175028099D01*
X90079984Y-174849419D01*
X89874211Y-174633482D01*
X89611753Y-174391369D01*
X89162901Y-173981143D01*
X89497117Y-173346549D01*
X89695480Y-172949870D01*
X89802561Y-172674965D01*
X89819784Y-172501905D01*
X89748576Y-172410763D01*
X89590361Y-172381612D01*
X89566160Y-172381333D01*
X89302843Y-172336999D01*
X89051606Y-172222216D01*
X88841620Y-172064310D01*
X88702060Y-171890608D01*
X88662098Y-171728436D01*
X88742772Y-171610059D01*
X88915440Y-171542790D01*
X88971635Y-171535963D01*
X89111801Y-171512745D01*
X89352652Y-171454291D01*
X89550860Y-171399413D01*
X89863968Y-171285359D01*
X90063137Y-171145310D01*
X90173739Y-170997009D01*
X90324506Y-170820481D01*
X90572533Y-170607919D01*
X90865935Y-170403470D01*
X90885480Y-170391429D01*
X90930295Y-170362907D01*
X100711314Y-170362907D01*
X100730529Y-170609943D01*
X100762515Y-170710213D01*
X100817421Y-170756867D01*
X100933806Y-170751588D01*
X101150230Y-170696061D01*
X101351799Y-170637067D01*
X101939449Y-170435762D01*
X102385292Y-170215885D01*
X102716807Y-169962838D01*
X102813907Y-169860289D01*
X103069677Y-169565389D01*
X103252093Y-169380441D01*
X103404889Y-169293069D01*
X103571800Y-169290898D01*
X103796560Y-169361552D01*
X104118833Y-169491022D01*
X104370403Y-169587627D01*
X104503652Y-169619690D01*
X104555697Y-169589844D01*
X104563810Y-169522597D01*
X104505655Y-169409473D01*
X104346949Y-169210010D01*
X104111924Y-168952337D01*
X103824812Y-168664587D01*
X103824192Y-168663991D01*
X103468596Y-168309071D01*
X103237353Y-168046048D01*
X103120918Y-167863159D01*
X103102761Y-167774991D01*
X103084551Y-167675824D01*
X102990999Y-167573239D01*
X102796543Y-167447805D01*
X102475618Y-167280094D01*
X102406890Y-167246102D01*
X101692356Y-166894537D01*
X101561943Y-167246102D01*
X101274300Y-168057804D01*
X101041712Y-168790320D01*
X100867883Y-169428666D01*
X100756516Y-169957856D01*
X100711314Y-170362907D01*
X90930295Y-170362907D01*
X91148951Y-170223748D01*
X91344568Y-170086363D01*
X91436860Y-170004514D01*
X91439799Y-169996984D01*
X91360814Y-169978454D01*
X91145614Y-169969419D01*
X90827077Y-169970377D01*
X90438441Y-169981812D01*
X89436882Y-170022655D01*
X89062607Y-169737893D01*
X88787267Y-169483362D01*
X88666514Y-169252637D01*
X88661149Y-169219822D01*
X88633966Y-168986514D01*
X89253816Y-169039251D01*
X89653979Y-169052959D01*
X90123617Y-169039404D01*
X90565595Y-169001574D01*
X90593333Y-168998049D01*
X91042414Y-168941313D01*
X91556151Y-168879218D01*
X92030810Y-168824276D01*
X92075000Y-168819338D01*
X92500780Y-168763208D01*
X92939671Y-168691174D01*
X93309369Y-168617014D01*
X93370270Y-168602520D01*
X93859800Y-168523221D01*
X94420677Y-168499188D01*
X95002490Y-168526555D01*
X95554823Y-168601457D01*
X96027263Y-168720030D01*
X96281051Y-168825679D01*
X96541184Y-168955002D01*
X96714302Y-169008001D01*
X96858902Y-168994956D01*
X96981883Y-168948854D01*
X97211537Y-168855308D01*
X97393037Y-168789841D01*
X97534539Y-168671200D01*
X97702479Y-168408504D01*
X97889860Y-168023700D01*
X98089685Y-167538731D01*
X98294957Y-166975543D01*
X98498678Y-166356082D01*
X98693853Y-165702292D01*
X98873483Y-165036119D01*
X99030573Y-164379508D01*
X99158124Y-163754404D01*
X99249141Y-163182753D01*
X99284886Y-162856271D01*
X99335279Y-162263543D01*
X98753139Y-162263605D01*
X98442151Y-162268139D01*
X98247931Y-162294519D01*
X98117933Y-162362029D01*
X97999611Y-162489955D01*
X97945578Y-162560000D01*
X97624756Y-162883604D01*
X97208339Y-163163909D01*
X96742799Y-163380805D01*
X96274606Y-163514178D01*
X95850231Y-163543918D01*
X95715666Y-163525069D01*
X95179098Y-163326455D01*
X94713818Y-162987074D01*
X94349677Y-162530343D01*
X94275062Y-162394888D01*
X94194860Y-162187876D01*
X94192072Y-162168590D01*
X94490368Y-162168590D01*
X94508863Y-162363053D01*
X94574479Y-162503292D01*
X94662504Y-162607837D01*
X94994008Y-162846441D01*
X95422395Y-162988947D01*
X95902099Y-163030806D01*
X96387553Y-162967473D01*
X96786040Y-162819718D01*
X97065357Y-162654043D01*
X97321239Y-162467848D01*
X97387833Y-162409573D01*
X97547857Y-162223306D01*
X97619845Y-162066403D01*
X97590285Y-161976292D01*
X97547492Y-161967333D01*
X97455645Y-161911837D01*
X97280859Y-161765379D01*
X97058652Y-161557999D01*
X97027475Y-161527482D01*
X96641250Y-161066039D01*
X96314346Y-160519591D01*
X96113182Y-160035828D01*
X97366666Y-160035828D01*
X97410235Y-160210228D01*
X97527453Y-160483776D01*
X97698090Y-160814698D01*
X97901916Y-161161214D01*
X97942627Y-161225215D01*
X98198532Y-161554734D01*
X98462121Y-161781261D01*
X98710865Y-161899709D01*
X98922234Y-161904991D01*
X99073699Y-161792022D01*
X99142729Y-161555714D01*
X99144666Y-161496592D01*
X99116975Y-161275114D01*
X99011781Y-161156109D01*
X98941879Y-161124042D01*
X98772368Y-161024834D01*
X98700249Y-160935638D01*
X98642873Y-160875238D01*
X98527511Y-160940095D01*
X98500869Y-160962485D01*
X98253072Y-161127215D01*
X98054923Y-161164050D01*
X97930611Y-161069965D01*
X97916833Y-161035475D01*
X97912790Y-160841275D01*
X97959704Y-160739219D01*
X97993489Y-160645797D01*
X97933378Y-160522921D01*
X97760912Y-160337080D01*
X97712699Y-160290725D01*
X97527121Y-160125853D01*
X97401531Y-160036598D01*
X97366666Y-160035828D01*
X96113182Y-160035828D01*
X96075436Y-159945058D01*
X96027971Y-159733168D01*
X114469333Y-159733168D01*
X114525294Y-159807045D01*
X114675680Y-159971546D01*
X114894245Y-160198500D01*
X115040833Y-160346571D01*
X115327805Y-160626544D01*
X115539782Y-160795480D01*
X115719698Y-160863859D01*
X115910485Y-160842164D01*
X116155076Y-160740874D01*
X116320340Y-160658939D01*
X116689681Y-160472989D01*
X115981674Y-160212630D01*
X115402953Y-160003731D01*
X114957341Y-159851391D01*
X114651512Y-159757724D01*
X114492144Y-159724848D01*
X114469333Y-159733168D01*
X96027971Y-159733168D01*
X95953194Y-159399358D01*
X95952615Y-159393831D01*
X95917685Y-159136336D01*
X95878308Y-158964013D01*
X95851797Y-158919333D01*
X95777815Y-158989307D01*
X95646240Y-159177206D01*
X95476190Y-159449989D01*
X95286782Y-159774620D01*
X95097131Y-160118059D01*
X94926355Y-160447269D01*
X94793571Y-160729212D01*
X94764449Y-160798529D01*
X94639271Y-161179553D01*
X94543024Y-161601077D01*
X94507159Y-161863164D01*
X94490368Y-162168590D01*
X94192072Y-162168590D01*
X94159657Y-161944380D01*
X94163326Y-161608843D01*
X94172365Y-161463555D01*
X94198833Y-161183149D01*
X94242746Y-160919300D01*
X94313472Y-160646874D01*
X94420380Y-160340736D01*
X94572837Y-159975752D01*
X94780214Y-159526789D01*
X95051877Y-158968711D01*
X95253157Y-158563976D01*
X95544028Y-157963858D01*
X95751737Y-157485267D01*
X95868923Y-157141333D01*
X99239765Y-157141333D01*
X99244648Y-157442903D01*
X99266044Y-157702352D01*
X99284411Y-157804054D01*
X99336991Y-157937590D01*
X99411441Y-157923205D01*
X99460853Y-157877431D01*
X99539450Y-157744039D01*
X99490351Y-157577843D01*
X99486510Y-157570604D01*
X99407044Y-157369362D01*
X99332642Y-157099481D01*
X99318188Y-157031559D01*
X99247886Y-156675666D01*
X99239765Y-157141333D01*
X95868923Y-157141333D01*
X95881257Y-157105136D01*
X95937557Y-156800402D01*
X95925608Y-156547999D01*
X95850380Y-156324862D01*
X95766911Y-156180035D01*
X95607605Y-155938404D01*
X95502910Y-156264702D01*
X95310904Y-156753891D01*
X95036343Y-157309048D01*
X94706844Y-157884784D01*
X94350025Y-158435711D01*
X93993504Y-158916440D01*
X93670506Y-159276198D01*
X93267547Y-159593199D01*
X92754632Y-159892562D01*
X92190772Y-160145467D01*
X91634973Y-160323095D01*
X91443399Y-160363929D01*
X91068649Y-160417061D01*
X90706560Y-160432663D01*
X90289635Y-160411410D01*
X89962989Y-160378797D01*
X89573148Y-160329297D01*
X89224479Y-160274369D01*
X88965997Y-160222256D01*
X88874661Y-160195794D01*
X88746477Y-160133460D01*
X88677970Y-160039560D01*
X88650651Y-159866480D01*
X88646000Y-159606905D01*
X88646000Y-159104953D01*
X89090499Y-159343863D01*
X89755720Y-159607890D01*
X90516468Y-159739174D01*
X91295379Y-159740437D01*
X91796598Y-159695797D01*
X92163098Y-159634217D01*
X92429474Y-159541532D01*
X92630316Y-159403573D01*
X92800218Y-159206174D01*
X92876653Y-159092842D01*
X93374517Y-158202963D01*
X93777070Y-157247730D01*
X94069103Y-156272091D01*
X94203423Y-155503912D01*
X95754052Y-155503912D01*
X95760114Y-155718917D01*
X95819543Y-155892500D01*
X95903518Y-156055569D01*
X95950304Y-156125489D01*
X95950674Y-156125532D01*
X95955689Y-156047643D01*
X95952496Y-155840020D01*
X95941881Y-155542023D01*
X95936717Y-155427032D01*
X95903767Y-154728333D01*
X95805586Y-155194000D01*
X95754052Y-155503912D01*
X94203423Y-155503912D01*
X94235407Y-155320998D01*
X94261165Y-155000941D01*
X94305400Y-154172883D01*
X93909866Y-154577608D01*
X93565648Y-154913567D01*
X93193867Y-155249565D01*
X92829768Y-155556071D01*
X92508593Y-155803552D01*
X92265589Y-155962476D01*
X92242901Y-155974424D01*
X92032775Y-156066289D01*
X91728115Y-156182560D01*
X91406800Y-156294044D01*
X91076856Y-156391185D01*
X90785214Y-156443011D01*
X90462601Y-156457068D01*
X90052134Y-156441618D01*
X89661664Y-156405907D01*
X89298598Y-156349542D01*
X89023912Y-156282683D01*
X88963500Y-156260242D01*
X88646000Y-156123060D01*
X88646632Y-152781000D01*
X88824282Y-153077333D01*
X89190634Y-153568385D01*
X89613965Y-153927128D01*
X90075095Y-154140701D01*
X90495825Y-154198361D01*
X90899226Y-154125947D01*
X91357815Y-153936629D01*
X91836142Y-153656538D01*
X91840997Y-153652920D01*
X114562774Y-153652920D01*
X114656750Y-153731978D01*
X114905009Y-153828742D01*
X114998500Y-153858843D01*
X115555504Y-154029068D01*
X115987090Y-154147062D01*
X116327527Y-154216929D01*
X116611084Y-154242773D01*
X116872031Y-154228696D01*
X117144638Y-154178804D01*
X117316448Y-154136415D01*
X117750624Y-153975800D01*
X118065433Y-153758170D01*
X118237074Y-153500151D01*
X118239929Y-153491437D01*
X118249090Y-153262239D01*
X118181886Y-152964029D01*
X118059674Y-152666084D01*
X117920640Y-152455793D01*
X117735083Y-152247472D01*
X117377206Y-152493698D01*
X117011645Y-152720311D01*
X116581019Y-152949161D01*
X116131872Y-153159134D01*
X115710746Y-153329112D01*
X115364187Y-153437980D01*
X115243860Y-153461558D01*
X114852597Y-153523752D01*
X114626813Y-153585525D01*
X114562774Y-153652920D01*
X91840997Y-153652920D01*
X92298757Y-153311806D01*
X92710211Y-152928561D01*
X93035052Y-152532934D01*
X93224341Y-152187157D01*
X93357683Y-151847314D01*
X92634761Y-152081324D01*
X92254527Y-152202773D01*
X92006804Y-152275645D01*
X91863614Y-152305367D01*
X91796979Y-152297367D01*
X91778918Y-152257071D01*
X91778666Y-152247392D01*
X91851382Y-152183338D01*
X92038221Y-152091489D01*
X92203273Y-152026764D01*
X92639672Y-151783822D01*
X93057053Y-151378659D01*
X93449420Y-150817884D01*
X93669970Y-150410217D01*
X93813345Y-150111274D01*
X93921576Y-149868500D01*
X93976580Y-149723060D01*
X93980000Y-149704481D01*
X93952042Y-149647476D01*
X93854712Y-149597706D01*
X93667826Y-149551195D01*
X93371199Y-149503972D01*
X92944646Y-149452060D01*
X92413666Y-149396093D01*
X91750261Y-149328062D01*
X91237586Y-149273004D01*
X90857727Y-149228642D01*
X90592770Y-149192699D01*
X90424799Y-149162896D01*
X90335901Y-149136957D01*
X90323161Y-149130338D01*
X90210096Y-149153257D01*
X90045694Y-149307519D01*
X89845240Y-149568794D01*
X89624023Y-149912750D01*
X89397329Y-150315056D01*
X89180446Y-150751380D01*
X88988661Y-151197390D01*
X88933810Y-151341666D01*
X88654454Y-152103666D01*
X88650227Y-150762327D01*
X88646000Y-149420987D01*
X89100316Y-148971000D01*
X90314923Y-148971000D01*
X90771628Y-149013333D01*
X91589725Y-149034122D01*
X92294967Y-148933692D01*
X92496849Y-148876175D01*
X92798134Y-148762764D01*
X93163153Y-148603359D01*
X93477890Y-148450115D01*
X94034113Y-148161746D01*
X93715755Y-147816903D01*
X93525740Y-147620656D01*
X93382026Y-147524778D01*
X93217866Y-147503567D01*
X92972117Y-147530550D01*
X92541151Y-147637826D01*
X92037939Y-147839743D01*
X91511374Y-148112622D01*
X91010346Y-148432786D01*
X90827585Y-148569142D01*
X90314923Y-148971000D01*
X89100316Y-148971000D01*
X89175166Y-148896864D01*
X89693243Y-148424419D01*
X90197289Y-148061331D01*
X90750408Y-147766212D01*
X91165211Y-147591588D01*
X91739139Y-147376195D01*
X92187376Y-147227606D01*
X92536541Y-147138627D01*
X92813253Y-147102065D01*
X92971730Y-147103336D01*
X93291782Y-147126132D01*
X93244807Y-146729498D01*
X93238868Y-146237082D01*
X93316239Y-145641983D01*
X93467610Y-144983275D01*
X93638989Y-144441333D01*
X96533368Y-144441333D01*
X96546673Y-144561528D01*
X96576073Y-144547166D01*
X96587255Y-144373824D01*
X96576073Y-144335500D01*
X96545170Y-144324863D01*
X96533368Y-144441333D01*
X93638989Y-144441333D01*
X93683673Y-144300034D01*
X93955118Y-143631336D01*
X93959876Y-143621147D01*
X96497669Y-143621147D01*
X96503900Y-143749273D01*
X96519386Y-143764000D01*
X96569931Y-143688662D01*
X96622204Y-143497875D01*
X96642793Y-143381539D01*
X96716427Y-143057038D01*
X96830851Y-142710207D01*
X96871147Y-142612503D01*
X96962234Y-142383835D01*
X97006272Y-142226176D01*
X97003809Y-142187587D01*
X96953715Y-142233680D01*
X96870179Y-142400767D01*
X96769123Y-142647862D01*
X96666471Y-142933980D01*
X96578148Y-143218138D01*
X96531135Y-143404166D01*
X96497669Y-143621147D01*
X93959876Y-143621147D01*
X94011780Y-143510000D01*
X94236833Y-143107151D01*
X94555558Y-142629767D01*
X94937682Y-142118690D01*
X95352932Y-141614760D01*
X95700495Y-141231777D01*
X96193323Y-140716000D01*
X99904066Y-140716000D01*
X99567525Y-141160499D01*
X99310260Y-141555334D01*
X99112266Y-141966870D01*
X98996336Y-142342363D01*
X98975649Y-142530249D01*
X99043366Y-142793126D01*
X99216425Y-143073178D01*
X99450954Y-143307527D01*
X99572123Y-143385132D01*
X99755706Y-143468160D01*
X99862643Y-143494193D01*
X99868909Y-143491312D01*
X99904996Y-143402938D01*
X99979920Y-143185784D01*
X100082606Y-142872881D01*
X100197558Y-142511355D01*
X100377987Y-141962850D01*
X100543552Y-141511911D01*
X100685709Y-141180121D01*
X100795915Y-140989058D01*
X100803890Y-140979599D01*
X100910053Y-140956724D01*
X101145727Y-140950904D01*
X101472191Y-140959908D01*
X101850725Y-140981504D01*
X102242609Y-141013460D01*
X102609121Y-141053545D01*
X102911542Y-141099527D01*
X102923226Y-141101738D01*
X103275640Y-141188588D01*
X103729026Y-141327766D01*
X104230698Y-141500443D01*
X104727971Y-141687790D01*
X105168162Y-141870974D01*
X105448405Y-142004265D01*
X105626722Y-142126157D01*
X105876111Y-142331637D01*
X106151907Y-142580683D01*
X106409447Y-142833274D01*
X106573672Y-143012596D01*
X106763678Y-143236936D01*
X106294955Y-144234489D01*
X106122252Y-144615006D01*
X105984192Y-144944276D01*
X105893340Y-145190393D01*
X105862259Y-145321448D01*
X105863697Y-145329673D01*
X105958893Y-145391690D01*
X106178215Y-145469340D01*
X106479139Y-145548234D01*
X106565747Y-145567228D01*
X106932438Y-145649721D01*
X107394167Y-145761206D01*
X107882924Y-145884972D01*
X108204000Y-145969774D01*
X108615583Y-146077538D01*
X108939674Y-146149383D01*
X109229583Y-146190964D01*
X109538619Y-146207935D01*
X109920093Y-146205950D01*
X110320666Y-146194266D01*
X111051118Y-146152442D01*
X111656725Y-146075075D01*
X112179818Y-145953560D01*
X112662730Y-145779294D01*
X112903000Y-145669372D01*
X113374979Y-145385584D01*
X113809318Y-145024433D01*
X113968227Y-144849816D01*
X116956997Y-144849816D01*
X116987259Y-145044902D01*
X117002371Y-145097500D01*
X117074152Y-145121378D01*
X117164146Y-145083668D01*
X117177510Y-145055166D01*
X117146258Y-144868189D01*
X117078388Y-144696125D01*
X117003437Y-144611523D01*
X116996562Y-144610666D01*
X116959823Y-144681993D01*
X116956997Y-144849816D01*
X113968227Y-144849816D01*
X114180286Y-144616797D01*
X114462150Y-144193556D01*
X114629178Y-143785589D01*
X114663708Y-143556492D01*
X114604743Y-143244549D01*
X114428543Y-142868314D01*
X114159121Y-142456890D01*
X113820491Y-142039382D01*
X113436666Y-141644893D01*
X113031657Y-141302529D01*
X112629479Y-141041392D01*
X112558428Y-141004860D01*
X112056333Y-140758333D01*
X113324917Y-140734790D01*
X114593502Y-140711247D01*
X114957226Y-140967623D01*
D11*
G36*
X79338254Y-177097818D02*
G01*
X79711511Y-177252426D01*
X79711513Y-177252427D01*
X80047436Y-177476884D01*
X80333116Y-177762564D01*
X80557574Y-178098489D01*
X80712182Y-178471746D01*
X80791000Y-178867993D01*
X80791000Y-179272007D01*
X80712182Y-179668254D01*
X80561293Y-180032532D01*
X80557573Y-180041513D01*
X80333116Y-180377436D01*
X80047436Y-180663116D01*
X79711513Y-180887573D01*
X79711512Y-180887574D01*
X79711511Y-180887574D01*
X79338254Y-181042182D01*
X78942007Y-181121000D01*
X78537993Y-181121000D01*
X78141746Y-181042182D01*
X77768489Y-180887574D01*
X77768488Y-180887574D01*
X77768487Y-180887573D01*
X77432564Y-180663116D01*
X77146884Y-180377436D01*
X76922427Y-180041513D01*
X76918707Y-180032532D01*
X76767818Y-179668254D01*
X76689000Y-179272007D01*
X76689000Y-178867993D01*
X76767818Y-178471746D01*
X76922426Y-178098489D01*
X77146884Y-177762564D01*
X77432564Y-177476884D01*
X77768487Y-177252427D01*
X77768489Y-177252426D01*
X78141746Y-177097818D01*
X78537993Y-177019000D01*
X78942007Y-177019000D01*
X79338254Y-177097818D01*
X79338254Y-177097818D01*
G37*
G36*
X60288254Y-177097818D02*
G01*
X60661511Y-177252426D01*
X60661513Y-177252427D01*
X60997436Y-177476884D01*
X61283116Y-177762564D01*
X61507574Y-178098489D01*
X61662182Y-178471746D01*
X61741000Y-178867993D01*
X61741000Y-179272007D01*
X61662182Y-179668254D01*
X61511293Y-180032532D01*
X61507573Y-180041513D01*
X61283116Y-180377436D01*
X60997436Y-180663116D01*
X60661513Y-180887573D01*
X60661512Y-180887574D01*
X60661511Y-180887574D01*
X60288254Y-181042182D01*
X59892007Y-181121000D01*
X59487993Y-181121000D01*
X59091746Y-181042182D01*
X58718489Y-180887574D01*
X58718488Y-180887574D01*
X58718487Y-180887573D01*
X58382564Y-180663116D01*
X58096884Y-180377436D01*
X57872427Y-180041513D01*
X57868707Y-180032532D01*
X57717818Y-179668254D01*
X57639000Y-179272007D01*
X57639000Y-178867993D01*
X57717818Y-178471746D01*
X57872426Y-178098489D01*
X58096884Y-177762564D01*
X58382564Y-177476884D01*
X58718487Y-177252427D01*
X58718489Y-177252426D01*
X59091746Y-177097818D01*
X59487993Y-177019000D01*
X59892007Y-177019000D01*
X60288254Y-177097818D01*
X60288254Y-177097818D01*
G37*
G36*
X41238254Y-177097818D02*
G01*
X41611511Y-177252426D01*
X41611513Y-177252427D01*
X41947436Y-177476884D01*
X42233116Y-177762564D01*
X42457574Y-178098489D01*
X42612182Y-178471746D01*
X42691000Y-178867993D01*
X42691000Y-179272007D01*
X42612182Y-179668254D01*
X42461293Y-180032532D01*
X42457573Y-180041513D01*
X42233116Y-180377436D01*
X41947436Y-180663116D01*
X41611513Y-180887573D01*
X41611512Y-180887574D01*
X41611511Y-180887574D01*
X41238254Y-181042182D01*
X40842007Y-181121000D01*
X40437993Y-181121000D01*
X40041746Y-181042182D01*
X39668489Y-180887574D01*
X39668488Y-180887574D01*
X39668487Y-180887573D01*
X39332564Y-180663116D01*
X39046884Y-180377436D01*
X38822427Y-180041513D01*
X38818707Y-180032532D01*
X38667818Y-179668254D01*
X38589000Y-179272007D01*
X38589000Y-178867993D01*
X38667818Y-178471746D01*
X38822426Y-178098489D01*
X39046884Y-177762564D01*
X39332564Y-177476884D01*
X39668487Y-177252427D01*
X39668489Y-177252426D01*
X40041746Y-177097818D01*
X40437993Y-177019000D01*
X40842007Y-177019000D01*
X41238254Y-177097818D01*
X41238254Y-177097818D01*
G37*
G36*
X65385285Y-178088234D02*
G01*
X65481981Y-178107468D01*
X65664151Y-178182926D01*
X65828100Y-178292473D01*
X65967527Y-178431900D01*
X66077074Y-178595849D01*
X66152532Y-178778019D01*
X66191000Y-178971410D01*
X66191000Y-179168590D01*
X66152532Y-179361981D01*
X66077074Y-179544151D01*
X65967527Y-179708100D01*
X65828100Y-179847527D01*
X65664151Y-179957074D01*
X65481981Y-180032532D01*
X65288591Y-180071000D01*
X65091409Y-180071000D01*
X64898019Y-180032532D01*
X64715849Y-179957074D01*
X64551900Y-179847527D01*
X64412473Y-179708100D01*
X64302926Y-179544151D01*
X64227468Y-179361981D01*
X64189000Y-179168590D01*
X64189000Y-178971410D01*
X64227468Y-178778019D01*
X64302926Y-178595849D01*
X64412473Y-178431900D01*
X64551900Y-178292473D01*
X64715849Y-178182926D01*
X64898019Y-178107468D01*
X64994715Y-178088234D01*
X65091409Y-178069000D01*
X65288591Y-178069000D01*
X65385285Y-178088234D01*
X65385285Y-178088234D01*
G37*
G36*
X84435285Y-178088234D02*
G01*
X84531981Y-178107468D01*
X84714151Y-178182926D01*
X84878100Y-178292473D01*
X85017527Y-178431900D01*
X85127074Y-178595849D01*
X85202532Y-178778019D01*
X85241000Y-178971410D01*
X85241000Y-179168590D01*
X85202532Y-179361981D01*
X85127074Y-179544151D01*
X85017527Y-179708100D01*
X84878100Y-179847527D01*
X84714151Y-179957074D01*
X84531981Y-180032532D01*
X84338591Y-180071000D01*
X84141409Y-180071000D01*
X83948019Y-180032532D01*
X83765849Y-179957074D01*
X83601900Y-179847527D01*
X83462473Y-179708100D01*
X83352926Y-179544151D01*
X83277468Y-179361981D01*
X83239000Y-179168590D01*
X83239000Y-178971410D01*
X83277468Y-178778019D01*
X83352926Y-178595849D01*
X83462473Y-178431900D01*
X83601900Y-178292473D01*
X83765849Y-178182926D01*
X83948019Y-178107468D01*
X84044715Y-178088234D01*
X84141409Y-178069000D01*
X84338591Y-178069000D01*
X84435285Y-178088234D01*
X84435285Y-178088234D01*
G37*
G36*
X73435285Y-178088234D02*
G01*
X73531981Y-178107468D01*
X73714151Y-178182926D01*
X73878100Y-178292473D01*
X74017527Y-178431900D01*
X74127074Y-178595849D01*
X74202532Y-178778019D01*
X74241000Y-178971410D01*
X74241000Y-179168590D01*
X74202532Y-179361981D01*
X74127074Y-179544151D01*
X74017527Y-179708100D01*
X73878100Y-179847527D01*
X73714151Y-179957074D01*
X73531981Y-180032532D01*
X73338591Y-180071000D01*
X73141409Y-180071000D01*
X72948019Y-180032532D01*
X72765849Y-179957074D01*
X72601900Y-179847527D01*
X72462473Y-179708100D01*
X72352926Y-179544151D01*
X72277468Y-179361981D01*
X72239000Y-179168590D01*
X72239000Y-178971410D01*
X72277468Y-178778019D01*
X72352926Y-178595849D01*
X72462473Y-178431900D01*
X72601900Y-178292473D01*
X72765849Y-178182926D01*
X72948019Y-178107468D01*
X73044715Y-178088234D01*
X73141409Y-178069000D01*
X73338591Y-178069000D01*
X73435285Y-178088234D01*
X73435285Y-178088234D01*
G37*
G36*
X46335285Y-178088234D02*
G01*
X46431981Y-178107468D01*
X46614151Y-178182926D01*
X46778100Y-178292473D01*
X46917527Y-178431900D01*
X47027074Y-178595849D01*
X47102532Y-178778019D01*
X47141000Y-178971410D01*
X47141000Y-179168590D01*
X47102532Y-179361981D01*
X47027074Y-179544151D01*
X46917527Y-179708100D01*
X46778100Y-179847527D01*
X46614151Y-179957074D01*
X46431981Y-180032532D01*
X46238591Y-180071000D01*
X46041409Y-180071000D01*
X45848019Y-180032532D01*
X45665849Y-179957074D01*
X45501900Y-179847527D01*
X45362473Y-179708100D01*
X45252926Y-179544151D01*
X45177468Y-179361981D01*
X45139000Y-179168590D01*
X45139000Y-178971410D01*
X45177468Y-178778019D01*
X45252926Y-178595849D01*
X45362473Y-178431900D01*
X45501900Y-178292473D01*
X45665849Y-178182926D01*
X45848019Y-178107468D01*
X45944715Y-178088234D01*
X46041409Y-178069000D01*
X46238591Y-178069000D01*
X46335285Y-178088234D01*
X46335285Y-178088234D01*
G37*
G36*
X35335285Y-178088234D02*
G01*
X35431981Y-178107468D01*
X35614151Y-178182926D01*
X35778100Y-178292473D01*
X35917527Y-178431900D01*
X36027074Y-178595849D01*
X36102532Y-178778019D01*
X36141000Y-178971410D01*
X36141000Y-179168590D01*
X36102532Y-179361981D01*
X36027074Y-179544151D01*
X35917527Y-179708100D01*
X35778100Y-179847527D01*
X35614151Y-179957074D01*
X35431981Y-180032532D01*
X35238591Y-180071000D01*
X35041409Y-180071000D01*
X34848019Y-180032532D01*
X34665849Y-179957074D01*
X34501900Y-179847527D01*
X34362473Y-179708100D01*
X34252926Y-179544151D01*
X34177468Y-179361981D01*
X34139000Y-179168590D01*
X34139000Y-178971410D01*
X34177468Y-178778019D01*
X34252926Y-178595849D01*
X34362473Y-178431900D01*
X34501900Y-178292473D01*
X34665849Y-178182926D01*
X34848019Y-178107468D01*
X34944715Y-178088234D01*
X35041409Y-178069000D01*
X35238591Y-178069000D01*
X35335285Y-178088234D01*
X35335285Y-178088234D01*
G37*
G36*
X54385285Y-178088234D02*
G01*
X54481981Y-178107468D01*
X54664151Y-178182926D01*
X54828100Y-178292473D01*
X54967527Y-178431900D01*
X55077074Y-178595849D01*
X55152532Y-178778019D01*
X55191000Y-178971410D01*
X55191000Y-179168590D01*
X55152532Y-179361981D01*
X55077074Y-179544151D01*
X54967527Y-179708100D01*
X54828100Y-179847527D01*
X54664151Y-179957074D01*
X54481981Y-180032532D01*
X54288591Y-180071000D01*
X54091409Y-180071000D01*
X53898019Y-180032532D01*
X53715849Y-179957074D01*
X53551900Y-179847527D01*
X53412473Y-179708100D01*
X53302926Y-179544151D01*
X53227468Y-179361981D01*
X53189000Y-179168590D01*
X53189000Y-178971410D01*
X53227468Y-178778019D01*
X53302926Y-178595849D01*
X53412473Y-178431900D01*
X53551900Y-178292473D01*
X53715849Y-178182926D01*
X53898019Y-178107468D01*
X53994715Y-178088234D01*
X54091409Y-178069000D01*
X54288591Y-178069000D01*
X54385285Y-178088234D01*
X54385285Y-178088234D01*
G37*
G36*
X48497142Y-166858242D02*
G01*
X48645101Y-166919529D01*
X48778255Y-167008499D01*
X48891501Y-167121745D01*
X48980471Y-167254899D01*
X49041758Y-167402858D01*
X49073000Y-167559925D01*
X49073000Y-167720075D01*
X49041758Y-167877142D01*
X48980471Y-168025101D01*
X48891501Y-168158255D01*
X48778255Y-168271501D01*
X48645101Y-168360471D01*
X48497142Y-168421758D01*
X48340075Y-168453000D01*
X48179925Y-168453000D01*
X48022858Y-168421758D01*
X47874899Y-168360471D01*
X47741745Y-168271501D01*
X47628499Y-168158255D01*
X47539529Y-168025101D01*
X47478242Y-167877142D01*
X47447000Y-167720075D01*
X47447000Y-167559925D01*
X47478242Y-167402858D01*
X47539529Y-167254899D01*
X47628499Y-167121745D01*
X47741745Y-167008499D01*
X47874899Y-166919529D01*
X48022858Y-166858242D01*
X48179925Y-166827000D01*
X48340075Y-166827000D01*
X48497142Y-166858242D01*
X48497142Y-166858242D01*
G37*
G36*
X33257142Y-166858242D02*
G01*
X33405101Y-166919529D01*
X33538255Y-167008499D01*
X33651501Y-167121745D01*
X33740471Y-167254899D01*
X33801758Y-167402858D01*
X33833000Y-167559925D01*
X33833000Y-167720075D01*
X33801758Y-167877142D01*
X33740471Y-168025101D01*
X33651501Y-168158255D01*
X33538255Y-168271501D01*
X33405101Y-168360471D01*
X33257142Y-168421758D01*
X33100075Y-168453000D01*
X32939925Y-168453000D01*
X32782858Y-168421758D01*
X32634899Y-168360471D01*
X32501745Y-168271501D01*
X32388499Y-168158255D01*
X32299529Y-168025101D01*
X32238242Y-167877142D01*
X32207000Y-167720075D01*
X32207000Y-167559925D01*
X32238242Y-167402858D01*
X32299529Y-167254899D01*
X32388499Y-167121745D01*
X32501745Y-167008499D01*
X32634899Y-166919529D01*
X32782858Y-166858242D01*
X32939925Y-166827000D01*
X33100075Y-166827000D01*
X33257142Y-166858242D01*
X33257142Y-166858242D01*
G37*
G36*
X48497142Y-164318242D02*
G01*
X48645101Y-164379529D01*
X48778255Y-164468499D01*
X48891501Y-164581745D01*
X48980471Y-164714899D01*
X49041758Y-164862858D01*
X49073000Y-165019925D01*
X49073000Y-165180075D01*
X49041758Y-165337142D01*
X48980471Y-165485101D01*
X48891501Y-165618255D01*
X48778255Y-165731501D01*
X48645101Y-165820471D01*
X48497142Y-165881758D01*
X48340075Y-165913000D01*
X48179925Y-165913000D01*
X48022858Y-165881758D01*
X47874899Y-165820471D01*
X47741745Y-165731501D01*
X47628499Y-165618255D01*
X47539529Y-165485101D01*
X47478242Y-165337142D01*
X47447000Y-165180075D01*
X47447000Y-165019925D01*
X47478242Y-164862858D01*
X47539529Y-164714899D01*
X47628499Y-164581745D01*
X47741745Y-164468499D01*
X47874899Y-164379529D01*
X48022858Y-164318242D01*
X48179925Y-164287000D01*
X48340075Y-164287000D01*
X48497142Y-164318242D01*
X48497142Y-164318242D01*
G37*
G36*
X33257142Y-164318242D02*
G01*
X33405101Y-164379529D01*
X33538255Y-164468499D01*
X33651501Y-164581745D01*
X33740471Y-164714899D01*
X33801758Y-164862858D01*
X33833000Y-165019925D01*
X33833000Y-165180075D01*
X33801758Y-165337142D01*
X33740471Y-165485101D01*
X33651501Y-165618255D01*
X33538255Y-165731501D01*
X33405101Y-165820471D01*
X33257142Y-165881758D01*
X33100075Y-165913000D01*
X32939925Y-165913000D01*
X32782858Y-165881758D01*
X32634899Y-165820471D01*
X32501745Y-165731501D01*
X32388499Y-165618255D01*
X32299529Y-165485101D01*
X32238242Y-165337142D01*
X32207000Y-165180075D01*
X32207000Y-165019925D01*
X32238242Y-164862858D01*
X32299529Y-164714899D01*
X32388499Y-164581745D01*
X32501745Y-164468499D01*
X32634899Y-164379529D01*
X32782858Y-164318242D01*
X32939925Y-164287000D01*
X33100075Y-164287000D01*
X33257142Y-164318242D01*
X33257142Y-164318242D01*
G37*
G36*
X33257142Y-161778242D02*
G01*
X33405101Y-161839529D01*
X33538255Y-161928499D01*
X33651501Y-162041745D01*
X33740471Y-162174899D01*
X33801758Y-162322858D01*
X33833000Y-162479925D01*
X33833000Y-162640075D01*
X33801758Y-162797142D01*
X33740471Y-162945101D01*
X33651501Y-163078255D01*
X33538255Y-163191501D01*
X33405101Y-163280471D01*
X33257142Y-163341758D01*
X33100075Y-163373000D01*
X32939925Y-163373000D01*
X32782858Y-163341758D01*
X32634899Y-163280471D01*
X32501745Y-163191501D01*
X32388499Y-163078255D01*
X32299529Y-162945101D01*
X32238242Y-162797142D01*
X32207000Y-162640075D01*
X32207000Y-162479925D01*
X32238242Y-162322858D01*
X32299529Y-162174899D01*
X32388499Y-162041745D01*
X32501745Y-161928499D01*
X32634899Y-161839529D01*
X32782858Y-161778242D01*
X32939925Y-161747000D01*
X33100075Y-161747000D01*
X33257142Y-161778242D01*
X33257142Y-161778242D01*
G37*
G36*
X48497142Y-161778242D02*
G01*
X48645101Y-161839529D01*
X48778255Y-161928499D01*
X48891501Y-162041745D01*
X48980471Y-162174899D01*
X49041758Y-162322858D01*
X49073000Y-162479925D01*
X49073000Y-162640075D01*
X49041758Y-162797142D01*
X48980471Y-162945101D01*
X48891501Y-163078255D01*
X48778255Y-163191501D01*
X48645101Y-163280471D01*
X48497142Y-163341758D01*
X48340075Y-163373000D01*
X48179925Y-163373000D01*
X48022858Y-163341758D01*
X47874899Y-163280471D01*
X47741745Y-163191501D01*
X47628499Y-163078255D01*
X47539529Y-162945101D01*
X47478242Y-162797142D01*
X47447000Y-162640075D01*
X47447000Y-162479925D01*
X47478242Y-162322858D01*
X47539529Y-162174899D01*
X47628499Y-162041745D01*
X47741745Y-161928499D01*
X47874899Y-161839529D01*
X48022858Y-161778242D01*
X48179925Y-161747000D01*
X48340075Y-161747000D01*
X48497142Y-161778242D01*
X48497142Y-161778242D01*
G37*
G36*
X48497142Y-159238242D02*
G01*
X48645101Y-159299529D01*
X48778255Y-159388499D01*
X48891501Y-159501745D01*
X48980471Y-159634899D01*
X49041758Y-159782858D01*
X49073000Y-159939925D01*
X49073000Y-160100075D01*
X49041758Y-160257142D01*
X48980471Y-160405101D01*
X48891501Y-160538255D01*
X48778255Y-160651501D01*
X48645101Y-160740471D01*
X48497142Y-160801758D01*
X48340075Y-160833000D01*
X48179925Y-160833000D01*
X48022858Y-160801758D01*
X47874899Y-160740471D01*
X47741745Y-160651501D01*
X47628499Y-160538255D01*
X47539529Y-160405101D01*
X47478242Y-160257142D01*
X47447000Y-160100075D01*
X47447000Y-159939925D01*
X47478242Y-159782858D01*
X47539529Y-159634899D01*
X47628499Y-159501745D01*
X47741745Y-159388499D01*
X47874899Y-159299529D01*
X48022858Y-159238242D01*
X48179925Y-159207000D01*
X48340075Y-159207000D01*
X48497142Y-159238242D01*
X48497142Y-159238242D01*
G37*
G36*
X33257142Y-159238242D02*
G01*
X33405101Y-159299529D01*
X33538255Y-159388499D01*
X33651501Y-159501745D01*
X33740471Y-159634899D01*
X33801758Y-159782858D01*
X33833000Y-159939925D01*
X33833000Y-160100075D01*
X33801758Y-160257142D01*
X33740471Y-160405101D01*
X33651501Y-160538255D01*
X33538255Y-160651501D01*
X33405101Y-160740471D01*
X33257142Y-160801758D01*
X33100075Y-160833000D01*
X32939925Y-160833000D01*
X32782858Y-160801758D01*
X32634899Y-160740471D01*
X32501745Y-160651501D01*
X32388499Y-160538255D01*
X32299529Y-160405101D01*
X32238242Y-160257142D01*
X32207000Y-160100075D01*
X32207000Y-159939925D01*
X32238242Y-159782858D01*
X32299529Y-159634899D01*
X32388499Y-159501745D01*
X32501745Y-159388499D01*
X32634899Y-159299529D01*
X32782858Y-159238242D01*
X32939925Y-159207000D01*
X33100075Y-159207000D01*
X33257142Y-159238242D01*
X33257142Y-159238242D01*
G37*
G36*
X60288254Y-155507818D02*
G01*
X60656791Y-155660471D01*
X60661513Y-155662427D01*
X60750306Y-155721757D01*
X60997436Y-155886884D01*
X61283116Y-156172564D01*
X61507574Y-156508489D01*
X61662182Y-156881746D01*
X61741000Y-157277993D01*
X61741000Y-157682007D01*
X61662182Y-158078254D01*
X61511293Y-158442532D01*
X61507573Y-158451513D01*
X61283116Y-158787436D01*
X60997436Y-159073116D01*
X60661513Y-159297573D01*
X60661512Y-159297574D01*
X60661511Y-159297574D01*
X60288254Y-159452182D01*
X59892007Y-159531000D01*
X59487993Y-159531000D01*
X59091746Y-159452182D01*
X58718489Y-159297574D01*
X58718488Y-159297574D01*
X58718487Y-159297573D01*
X58382564Y-159073116D01*
X58096884Y-158787436D01*
X57872427Y-158451513D01*
X57868707Y-158442532D01*
X57717818Y-158078254D01*
X57639000Y-157682007D01*
X57639000Y-157277993D01*
X57717818Y-156881746D01*
X57872426Y-156508489D01*
X58096884Y-156172564D01*
X58382564Y-155886884D01*
X58629694Y-155721757D01*
X58718487Y-155662427D01*
X58723209Y-155660471D01*
X59091746Y-155507818D01*
X59487993Y-155429000D01*
X59892007Y-155429000D01*
X60288254Y-155507818D01*
X60288254Y-155507818D01*
G37*
G36*
X79338254Y-155507818D02*
G01*
X79706791Y-155660471D01*
X79711513Y-155662427D01*
X79800306Y-155721757D01*
X80047436Y-155886884D01*
X80333116Y-156172564D01*
X80557574Y-156508489D01*
X80712182Y-156881746D01*
X80791000Y-157277993D01*
X80791000Y-157682007D01*
X80712182Y-158078254D01*
X80561293Y-158442532D01*
X80557573Y-158451513D01*
X80333116Y-158787436D01*
X80047436Y-159073116D01*
X79711513Y-159297573D01*
X79711512Y-159297574D01*
X79711511Y-159297574D01*
X79338254Y-159452182D01*
X78942007Y-159531000D01*
X78537993Y-159531000D01*
X78141746Y-159452182D01*
X77768489Y-159297574D01*
X77768488Y-159297574D01*
X77768487Y-159297573D01*
X77432564Y-159073116D01*
X77146884Y-158787436D01*
X76922427Y-158451513D01*
X76918707Y-158442532D01*
X76767818Y-158078254D01*
X76689000Y-157682007D01*
X76689000Y-157277993D01*
X76767818Y-156881746D01*
X76922426Y-156508489D01*
X77146884Y-156172564D01*
X77432564Y-155886884D01*
X77679694Y-155721757D01*
X77768487Y-155662427D01*
X77773209Y-155660471D01*
X78141746Y-155507818D01*
X78537993Y-155429000D01*
X78942007Y-155429000D01*
X79338254Y-155507818D01*
X79338254Y-155507818D01*
G37*
G36*
X65385285Y-156498234D02*
G01*
X65481981Y-156517468D01*
X65664151Y-156592926D01*
X65828100Y-156702473D01*
X65967527Y-156841900D01*
X66077074Y-157005849D01*
X66152532Y-157188019D01*
X66191000Y-157381410D01*
X66191000Y-157578590D01*
X66152532Y-157771981D01*
X66077074Y-157954151D01*
X65967527Y-158118100D01*
X65828100Y-158257527D01*
X65664151Y-158367074D01*
X65481981Y-158442532D01*
X65288591Y-158481000D01*
X65091409Y-158481000D01*
X64898019Y-158442532D01*
X64715849Y-158367074D01*
X64551900Y-158257527D01*
X64412473Y-158118100D01*
X64302926Y-157954151D01*
X64227468Y-157771981D01*
X64189000Y-157578590D01*
X64189000Y-157381410D01*
X64227468Y-157188019D01*
X64302926Y-157005849D01*
X64412473Y-156841900D01*
X64551900Y-156702473D01*
X64715849Y-156592926D01*
X64898019Y-156517468D01*
X64994715Y-156498234D01*
X65091409Y-156479000D01*
X65288591Y-156479000D01*
X65385285Y-156498234D01*
X65385285Y-156498234D01*
G37*
G36*
X54385285Y-156498234D02*
G01*
X54481981Y-156517468D01*
X54664151Y-156592926D01*
X54828100Y-156702473D01*
X54967527Y-156841900D01*
X55077074Y-157005849D01*
X55152532Y-157188019D01*
X55191000Y-157381410D01*
X55191000Y-157578590D01*
X55152532Y-157771981D01*
X55077074Y-157954151D01*
X54967527Y-158118100D01*
X54828100Y-158257527D01*
X54664151Y-158367074D01*
X54481981Y-158442532D01*
X54288591Y-158481000D01*
X54091409Y-158481000D01*
X53898019Y-158442532D01*
X53715849Y-158367074D01*
X53551900Y-158257527D01*
X53412473Y-158118100D01*
X53302926Y-157954151D01*
X53227468Y-157771981D01*
X53189000Y-157578590D01*
X53189000Y-157381410D01*
X53227468Y-157188019D01*
X53302926Y-157005849D01*
X53412473Y-156841900D01*
X53551900Y-156702473D01*
X53715849Y-156592926D01*
X53898019Y-156517468D01*
X53994715Y-156498234D01*
X54091409Y-156479000D01*
X54288591Y-156479000D01*
X54385285Y-156498234D01*
X54385285Y-156498234D01*
G37*
G36*
X73435285Y-156498234D02*
G01*
X73531981Y-156517468D01*
X73714151Y-156592926D01*
X73878100Y-156702473D01*
X74017527Y-156841900D01*
X74127074Y-157005849D01*
X74202532Y-157188019D01*
X74241000Y-157381410D01*
X74241000Y-157578590D01*
X74202532Y-157771981D01*
X74127074Y-157954151D01*
X74017527Y-158118100D01*
X73878100Y-158257527D01*
X73714151Y-158367074D01*
X73531981Y-158442532D01*
X73338591Y-158481000D01*
X73141409Y-158481000D01*
X72948019Y-158442532D01*
X72765849Y-158367074D01*
X72601900Y-158257527D01*
X72462473Y-158118100D01*
X72352926Y-157954151D01*
X72277468Y-157771981D01*
X72239000Y-157578590D01*
X72239000Y-157381410D01*
X72277468Y-157188019D01*
X72352926Y-157005849D01*
X72462473Y-156841900D01*
X72601900Y-156702473D01*
X72765849Y-156592926D01*
X72948019Y-156517468D01*
X73044715Y-156498234D01*
X73141409Y-156479000D01*
X73338591Y-156479000D01*
X73435285Y-156498234D01*
X73435285Y-156498234D01*
G37*
G36*
X84435285Y-156498234D02*
G01*
X84531981Y-156517468D01*
X84714151Y-156592926D01*
X84878100Y-156702473D01*
X85017527Y-156841900D01*
X85127074Y-157005849D01*
X85202532Y-157188019D01*
X85241000Y-157381410D01*
X85241000Y-157578590D01*
X85202532Y-157771981D01*
X85127074Y-157954151D01*
X85017527Y-158118100D01*
X84878100Y-158257527D01*
X84714151Y-158367074D01*
X84531981Y-158442532D01*
X84338591Y-158481000D01*
X84141409Y-158481000D01*
X83948019Y-158442532D01*
X83765849Y-158367074D01*
X83601900Y-158257527D01*
X83462473Y-158118100D01*
X83352926Y-157954151D01*
X83277468Y-157771981D01*
X83239000Y-157578590D01*
X83239000Y-157381410D01*
X83277468Y-157188019D01*
X83352926Y-157005849D01*
X83462473Y-156841900D01*
X83601900Y-156702473D01*
X83765849Y-156592926D01*
X83948019Y-156517468D01*
X84044715Y-156498234D01*
X84141409Y-156479000D01*
X84338591Y-156479000D01*
X84435285Y-156498234D01*
X84435285Y-156498234D01*
G37*
G36*
X33257142Y-156698242D02*
G01*
X33405101Y-156759529D01*
X33538255Y-156848499D01*
X33651501Y-156961745D01*
X33740471Y-157094899D01*
X33801758Y-157242858D01*
X33833000Y-157399925D01*
X33833000Y-157560075D01*
X33801758Y-157717142D01*
X33740471Y-157865101D01*
X33651501Y-157998255D01*
X33538255Y-158111501D01*
X33405101Y-158200471D01*
X33257142Y-158261758D01*
X33100075Y-158293000D01*
X32939925Y-158293000D01*
X32782858Y-158261758D01*
X32634899Y-158200471D01*
X32501745Y-158111501D01*
X32388499Y-157998255D01*
X32299529Y-157865101D01*
X32238242Y-157717142D01*
X32207000Y-157560075D01*
X32207000Y-157399925D01*
X32238242Y-157242858D01*
X32299529Y-157094899D01*
X32388499Y-156961745D01*
X32501745Y-156848499D01*
X32634899Y-156759529D01*
X32782858Y-156698242D01*
X32939925Y-156667000D01*
X33100075Y-156667000D01*
X33257142Y-156698242D01*
X33257142Y-156698242D01*
G37*
G36*
X48497142Y-156698242D02*
G01*
X48645101Y-156759529D01*
X48778255Y-156848499D01*
X48891501Y-156961745D01*
X48980471Y-157094899D01*
X49041758Y-157242858D01*
X49073000Y-157399925D01*
X49073000Y-157560075D01*
X49041758Y-157717142D01*
X48980471Y-157865101D01*
X48891501Y-157998255D01*
X48778255Y-158111501D01*
X48645101Y-158200471D01*
X48497142Y-158261758D01*
X48340075Y-158293000D01*
X48179925Y-158293000D01*
X48022858Y-158261758D01*
X47874899Y-158200471D01*
X47741745Y-158111501D01*
X47628499Y-157998255D01*
X47539529Y-157865101D01*
X47478242Y-157717142D01*
X47447000Y-157560075D01*
X47447000Y-157399925D01*
X47478242Y-157242858D01*
X47539529Y-157094899D01*
X47628499Y-156961745D01*
X47741745Y-156848499D01*
X47874899Y-156759529D01*
X48022858Y-156698242D01*
X48179925Y-156667000D01*
X48340075Y-156667000D01*
X48497142Y-156698242D01*
X48497142Y-156698242D01*
G37*
G36*
X33257142Y-154158242D02*
G01*
X33405101Y-154219529D01*
X33538255Y-154308499D01*
X33651501Y-154421745D01*
X33740471Y-154554899D01*
X33801758Y-154702858D01*
X33833000Y-154859925D01*
X33833000Y-155020075D01*
X33801758Y-155177142D01*
X33740471Y-155325101D01*
X33651501Y-155458255D01*
X33538255Y-155571501D01*
X33405101Y-155660471D01*
X33257142Y-155721758D01*
X33100075Y-155753000D01*
X32939925Y-155753000D01*
X32782858Y-155721758D01*
X32634899Y-155660471D01*
X32501745Y-155571501D01*
X32388499Y-155458255D01*
X32299529Y-155325101D01*
X32238242Y-155177142D01*
X32207000Y-155020075D01*
X32207000Y-154859925D01*
X32238242Y-154702858D01*
X32299529Y-154554899D01*
X32388499Y-154421745D01*
X32501745Y-154308499D01*
X32634899Y-154219529D01*
X32782858Y-154158242D01*
X32939925Y-154127000D01*
X33100075Y-154127000D01*
X33257142Y-154158242D01*
X33257142Y-154158242D01*
G37*
G36*
X48497142Y-154158242D02*
G01*
X48645101Y-154219529D01*
X48778255Y-154308499D01*
X48891501Y-154421745D01*
X48980471Y-154554899D01*
X49041758Y-154702858D01*
X49073000Y-154859925D01*
X49073000Y-155020075D01*
X49041758Y-155177142D01*
X48980471Y-155325101D01*
X48891501Y-155458255D01*
X48778255Y-155571501D01*
X48645101Y-155660471D01*
X48497142Y-155721758D01*
X48340075Y-155753000D01*
X48179925Y-155753000D01*
X48022858Y-155721758D01*
X47874899Y-155660471D01*
X47741745Y-155571501D01*
X47628499Y-155458255D01*
X47539529Y-155325101D01*
X47478242Y-155177142D01*
X47447000Y-155020075D01*
X47447000Y-154859925D01*
X47478242Y-154702858D01*
X47539529Y-154554899D01*
X47628499Y-154421745D01*
X47741745Y-154308499D01*
X47874899Y-154219529D01*
X48022858Y-154158242D01*
X48179925Y-154127000D01*
X48340075Y-154127000D01*
X48497142Y-154158242D01*
X48497142Y-154158242D01*
G37*
G36*
X33257142Y-151618242D02*
G01*
X33405101Y-151679529D01*
X33538255Y-151768499D01*
X33651501Y-151881745D01*
X33740471Y-152014899D01*
X33801758Y-152162858D01*
X33833000Y-152319925D01*
X33833000Y-152480075D01*
X33801758Y-152637142D01*
X33740471Y-152785101D01*
X33651501Y-152918255D01*
X33538255Y-153031501D01*
X33405101Y-153120471D01*
X33257142Y-153181758D01*
X33100075Y-153213000D01*
X32939925Y-153213000D01*
X32782858Y-153181758D01*
X32634899Y-153120471D01*
X32501745Y-153031501D01*
X32388499Y-152918255D01*
X32299529Y-152785101D01*
X32238242Y-152637142D01*
X32207000Y-152480075D01*
X32207000Y-152319925D01*
X32238242Y-152162858D01*
X32299529Y-152014899D01*
X32388499Y-151881745D01*
X32501745Y-151768499D01*
X32634899Y-151679529D01*
X32782858Y-151618242D01*
X32939925Y-151587000D01*
X33100075Y-151587000D01*
X33257142Y-151618242D01*
X33257142Y-151618242D01*
G37*
G36*
X48497142Y-151618242D02*
G01*
X48645101Y-151679529D01*
X48778255Y-151768499D01*
X48891501Y-151881745D01*
X48980471Y-152014899D01*
X49041758Y-152162858D01*
X49073000Y-152319925D01*
X49073000Y-152480075D01*
X49041758Y-152637142D01*
X48980471Y-152785101D01*
X48891501Y-152918255D01*
X48778255Y-153031501D01*
X48645101Y-153120471D01*
X48497142Y-153181758D01*
X48340075Y-153213000D01*
X48179925Y-153213000D01*
X48022858Y-153181758D01*
X47874899Y-153120471D01*
X47741745Y-153031501D01*
X47628499Y-152918255D01*
X47539529Y-152785101D01*
X47478242Y-152637142D01*
X47447000Y-152480075D01*
X47447000Y-152319925D01*
X47478242Y-152162858D01*
X47539529Y-152014899D01*
X47628499Y-151881745D01*
X47741745Y-151768499D01*
X47874899Y-151679529D01*
X48022858Y-151618242D01*
X48179925Y-151587000D01*
X48340075Y-151587000D01*
X48497142Y-151618242D01*
X48497142Y-151618242D01*
G37*
G36*
X48497142Y-149078242D02*
G01*
X48645101Y-149139529D01*
X48778255Y-149228499D01*
X48891501Y-149341745D01*
X48980471Y-149474899D01*
X49041758Y-149622858D01*
X49073000Y-149779925D01*
X49073000Y-149940075D01*
X49041758Y-150097142D01*
X48980471Y-150245101D01*
X48891501Y-150378255D01*
X48778255Y-150491501D01*
X48645101Y-150580471D01*
X48497142Y-150641758D01*
X48340075Y-150673000D01*
X48179925Y-150673000D01*
X48022858Y-150641758D01*
X47874899Y-150580471D01*
X47741745Y-150491501D01*
X47628499Y-150378255D01*
X47539529Y-150245101D01*
X47478242Y-150097142D01*
X47447000Y-149940075D01*
X47447000Y-149779925D01*
X47478242Y-149622858D01*
X47539529Y-149474899D01*
X47628499Y-149341745D01*
X47741745Y-149228499D01*
X47874899Y-149139529D01*
X48022858Y-149078242D01*
X48179925Y-149047000D01*
X48340075Y-149047000D01*
X48497142Y-149078242D01*
X48497142Y-149078242D01*
G37*
G36*
X33257142Y-149078242D02*
G01*
X33405101Y-149139529D01*
X33538255Y-149228499D01*
X33651501Y-149341745D01*
X33740471Y-149474899D01*
X33801758Y-149622858D01*
X33833000Y-149779925D01*
X33833000Y-149940075D01*
X33801758Y-150097142D01*
X33740471Y-150245101D01*
X33651501Y-150378255D01*
X33538255Y-150491501D01*
X33405101Y-150580471D01*
X33257142Y-150641758D01*
X33100075Y-150673000D01*
X32939925Y-150673000D01*
X32782858Y-150641758D01*
X32634899Y-150580471D01*
X32501745Y-150491501D01*
X32388499Y-150378255D01*
X32299529Y-150245101D01*
X32238242Y-150097142D01*
X32207000Y-149940075D01*
X32207000Y-149779925D01*
X32238242Y-149622858D01*
X32299529Y-149474899D01*
X32388499Y-149341745D01*
X32501745Y-149228499D01*
X32634899Y-149139529D01*
X32782858Y-149078242D01*
X32939925Y-149047000D01*
X33100075Y-149047000D01*
X33257142Y-149078242D01*
X33257142Y-149078242D01*
G37*
G36*
X33257142Y-146538242D02*
G01*
X33405101Y-146599529D01*
X33538255Y-146688499D01*
X33651501Y-146801745D01*
X33740471Y-146934899D01*
X33801758Y-147082858D01*
X33833000Y-147239925D01*
X33833000Y-147400075D01*
X33801758Y-147557142D01*
X33740471Y-147705101D01*
X33651501Y-147838255D01*
X33538255Y-147951501D01*
X33405101Y-148040471D01*
X33257142Y-148101758D01*
X33100075Y-148133000D01*
X32939925Y-148133000D01*
X32782858Y-148101758D01*
X32634899Y-148040471D01*
X32501745Y-147951501D01*
X32388499Y-147838255D01*
X32299529Y-147705101D01*
X32238242Y-147557142D01*
X32207000Y-147400075D01*
X32207000Y-147239925D01*
X32238242Y-147082858D01*
X32299529Y-146934899D01*
X32388499Y-146801745D01*
X32501745Y-146688499D01*
X32634899Y-146599529D01*
X32782858Y-146538242D01*
X32939925Y-146507000D01*
X33100075Y-146507000D01*
X33257142Y-146538242D01*
X33257142Y-146538242D01*
G37*
G36*
X48497142Y-146538242D02*
G01*
X48645101Y-146599529D01*
X48778255Y-146688499D01*
X48891501Y-146801745D01*
X48980471Y-146934899D01*
X49041758Y-147082858D01*
X49073000Y-147239925D01*
X49073000Y-147400075D01*
X49041758Y-147557142D01*
X48980471Y-147705101D01*
X48891501Y-147838255D01*
X48778255Y-147951501D01*
X48645101Y-148040471D01*
X48497142Y-148101758D01*
X48340075Y-148133000D01*
X48179925Y-148133000D01*
X48022858Y-148101758D01*
X47874899Y-148040471D01*
X47741745Y-147951501D01*
X47628499Y-147838255D01*
X47539529Y-147705101D01*
X47478242Y-147557142D01*
X47447000Y-147400075D01*
X47447000Y-147239925D01*
X47478242Y-147082858D01*
X47539529Y-146934899D01*
X47628499Y-146801745D01*
X47741745Y-146688499D01*
X47874899Y-146599529D01*
X48022858Y-146538242D01*
X48179925Y-146507000D01*
X48340075Y-146507000D01*
X48497142Y-146538242D01*
X48497142Y-146538242D01*
G37*
G36*
X48497142Y-143998242D02*
G01*
X48645101Y-144059529D01*
X48778255Y-144148499D01*
X48891501Y-144261745D01*
X48980471Y-144394899D01*
X49041758Y-144542858D01*
X49073000Y-144699925D01*
X49073000Y-144860075D01*
X49041758Y-145017142D01*
X48980471Y-145165101D01*
X48891501Y-145298255D01*
X48778255Y-145411501D01*
X48645101Y-145500471D01*
X48497142Y-145561758D01*
X48340075Y-145593000D01*
X48179925Y-145593000D01*
X48022858Y-145561758D01*
X47874899Y-145500471D01*
X47741745Y-145411501D01*
X47628499Y-145298255D01*
X47539529Y-145165101D01*
X47478242Y-145017142D01*
X47447000Y-144860075D01*
X47447000Y-144699925D01*
X47478242Y-144542858D01*
X47539529Y-144394899D01*
X47628499Y-144261745D01*
X47741745Y-144148499D01*
X47874899Y-144059529D01*
X48022858Y-143998242D01*
X48179925Y-143967000D01*
X48340075Y-143967000D01*
X48497142Y-143998242D01*
X48497142Y-143998242D01*
G37*
G36*
X33257142Y-143998242D02*
G01*
X33405101Y-144059529D01*
X33538255Y-144148499D01*
X33651501Y-144261745D01*
X33740471Y-144394899D01*
X33801758Y-144542858D01*
X33833000Y-144699925D01*
X33833000Y-144860075D01*
X33801758Y-145017142D01*
X33740471Y-145165101D01*
X33651501Y-145298255D01*
X33538255Y-145411501D01*
X33405101Y-145500471D01*
X33257142Y-145561758D01*
X33100075Y-145593000D01*
X32939925Y-145593000D01*
X32782858Y-145561758D01*
X32634899Y-145500471D01*
X32501745Y-145411501D01*
X32388499Y-145298255D01*
X32299529Y-145165101D01*
X32238242Y-145017142D01*
X32207000Y-144860075D01*
X32207000Y-144699925D01*
X32238242Y-144542858D01*
X32299529Y-144394899D01*
X32388499Y-144261745D01*
X32501745Y-144148499D01*
X32634899Y-144059529D01*
X32782858Y-143998242D01*
X32939925Y-143967000D01*
X33100075Y-143967000D01*
X33257142Y-143998242D01*
X33257142Y-143998242D01*
G37*
G36*
X54916564Y-143209389D02*
G01*
X55107833Y-143288615D01*
X55107835Y-143288616D01*
X55279973Y-143403635D01*
X55426365Y-143550027D01*
X55541385Y-143722167D01*
X55620611Y-143913436D01*
X55661000Y-144116484D01*
X55661000Y-144323516D01*
X55620611Y-144526564D01*
X55548803Y-144699925D01*
X55541384Y-144717835D01*
X55426365Y-144889973D01*
X55279973Y-145036365D01*
X55107835Y-145151384D01*
X55107834Y-145151385D01*
X55107833Y-145151385D01*
X54916564Y-145230611D01*
X54713516Y-145271000D01*
X54506484Y-145271000D01*
X54303436Y-145230611D01*
X54112167Y-145151385D01*
X54112166Y-145151385D01*
X54112165Y-145151384D01*
X53940027Y-145036365D01*
X53793635Y-144889973D01*
X53678616Y-144717835D01*
X53671197Y-144699925D01*
X53599389Y-144526564D01*
X53559000Y-144323516D01*
X53559000Y-144116484D01*
X53599389Y-143913436D01*
X53678615Y-143722167D01*
X53793635Y-143550027D01*
X53940027Y-143403635D01*
X54112165Y-143288616D01*
X54112167Y-143288615D01*
X54303436Y-143209389D01*
X54506484Y-143169000D01*
X54713516Y-143169000D01*
X54916564Y-143209389D01*
X54916564Y-143209389D01*
G37*
G36*
X64864425Y-142764599D02*
G01*
X64988621Y-142789302D01*
X65125022Y-142845801D01*
X65247779Y-142927825D01*
X65352175Y-143032221D01*
X65434199Y-143154978D01*
X65490698Y-143291379D01*
X65519500Y-143436181D01*
X65519500Y-143583819D01*
X65490698Y-143728621D01*
X65434199Y-143865022D01*
X65352175Y-143987779D01*
X65247779Y-144092175D01*
X65125022Y-144174199D01*
X64988621Y-144230698D01*
X64864425Y-144255401D01*
X64843820Y-144259500D01*
X64696180Y-144259500D01*
X64675575Y-144255401D01*
X64551379Y-144230698D01*
X64414978Y-144174199D01*
X64292221Y-144092175D01*
X64187825Y-143987779D01*
X64105801Y-143865022D01*
X64049302Y-143728621D01*
X64020500Y-143583819D01*
X64020500Y-143436181D01*
X64049302Y-143291379D01*
X64105801Y-143154978D01*
X64187825Y-143032221D01*
X64292221Y-142927825D01*
X64414978Y-142845801D01*
X64551379Y-142789302D01*
X64675575Y-142764599D01*
X64696180Y-142760500D01*
X64843820Y-142760500D01*
X64864425Y-142764599D01*
X64864425Y-142764599D01*
G37*
G36*
X61054425Y-142764599D02*
G01*
X61178621Y-142789302D01*
X61315022Y-142845801D01*
X61437779Y-142927825D01*
X61542175Y-143032221D01*
X61624199Y-143154978D01*
X61680698Y-143291379D01*
X61709500Y-143436181D01*
X61709500Y-143583819D01*
X61680698Y-143728621D01*
X61624199Y-143865022D01*
X61542175Y-143987779D01*
X61437779Y-144092175D01*
X61315022Y-144174199D01*
X61178621Y-144230698D01*
X61054425Y-144255401D01*
X61033820Y-144259500D01*
X60886180Y-144259500D01*
X60865575Y-144255401D01*
X60741379Y-144230698D01*
X60604978Y-144174199D01*
X60482221Y-144092175D01*
X60377825Y-143987779D01*
X60295801Y-143865022D01*
X60239302Y-143728621D01*
X60210500Y-143583819D01*
X60210500Y-143436181D01*
X60239302Y-143291379D01*
X60295801Y-143154978D01*
X60377825Y-143032221D01*
X60482221Y-142927825D01*
X60604978Y-142845801D01*
X60741379Y-142789302D01*
X60865575Y-142764599D01*
X60886180Y-142760500D01*
X61033820Y-142760500D01*
X61054425Y-142764599D01*
X61054425Y-142764599D01*
G37*
G36*
X68674425Y-142764599D02*
G01*
X68798621Y-142789302D01*
X68935022Y-142845801D01*
X69057779Y-142927825D01*
X69162175Y-143032221D01*
X69244199Y-143154978D01*
X69300698Y-143291379D01*
X69329500Y-143436181D01*
X69329500Y-143583819D01*
X69300698Y-143728621D01*
X69244199Y-143865022D01*
X69162175Y-143987779D01*
X69057779Y-144092175D01*
X68935022Y-144174199D01*
X68798621Y-144230698D01*
X68674425Y-144255401D01*
X68653820Y-144259500D01*
X68506180Y-144259500D01*
X68485575Y-144255401D01*
X68361379Y-144230698D01*
X68224978Y-144174199D01*
X68102221Y-144092175D01*
X67997825Y-143987779D01*
X67915801Y-143865022D01*
X67859302Y-143728621D01*
X67830500Y-143583819D01*
X67830500Y-143436181D01*
X67859302Y-143291379D01*
X67915801Y-143154978D01*
X67997825Y-143032221D01*
X68102221Y-142927825D01*
X68224978Y-142845801D01*
X68361379Y-142789302D01*
X68485575Y-142764599D01*
X68506180Y-142760500D01*
X68653820Y-142760500D01*
X68674425Y-142764599D01*
X68674425Y-142764599D01*
G37*
G36*
X72484425Y-142764599D02*
G01*
X72608621Y-142789302D01*
X72745022Y-142845801D01*
X72867779Y-142927825D01*
X72972175Y-143032221D01*
X73054199Y-143154978D01*
X73110698Y-143291379D01*
X73139500Y-143436181D01*
X73139500Y-143583819D01*
X73110698Y-143728621D01*
X73054199Y-143865022D01*
X72972175Y-143987779D01*
X72867779Y-144092175D01*
X72745022Y-144174199D01*
X72608621Y-144230698D01*
X72484425Y-144255401D01*
X72463820Y-144259500D01*
X72316180Y-144259500D01*
X72295575Y-144255401D01*
X72171379Y-144230698D01*
X72034978Y-144174199D01*
X71912221Y-144092175D01*
X71807825Y-143987779D01*
X71725801Y-143865022D01*
X71669302Y-143728621D01*
X71640500Y-143583819D01*
X71640500Y-143436181D01*
X71669302Y-143291379D01*
X71725801Y-143154978D01*
X71807825Y-143032221D01*
X71912221Y-142927825D01*
X72034978Y-142845801D01*
X72171379Y-142789302D01*
X72295575Y-142764599D01*
X72316180Y-142760500D01*
X72463820Y-142760500D01*
X72484425Y-142764599D01*
X72484425Y-142764599D01*
G37*
G36*
X76294425Y-142764599D02*
G01*
X76418621Y-142789302D01*
X76555022Y-142845801D01*
X76677779Y-142927825D01*
X76782175Y-143032221D01*
X76864199Y-143154978D01*
X76920698Y-143291379D01*
X76949500Y-143436181D01*
X76949500Y-143583819D01*
X76920698Y-143728621D01*
X76864199Y-143865022D01*
X76782175Y-143987779D01*
X76677779Y-144092175D01*
X76555022Y-144174199D01*
X76418621Y-144230698D01*
X76294425Y-144255401D01*
X76273820Y-144259500D01*
X76126180Y-144259500D01*
X76105575Y-144255401D01*
X75981379Y-144230698D01*
X75844978Y-144174199D01*
X75722221Y-144092175D01*
X75617825Y-143987779D01*
X75535801Y-143865022D01*
X75479302Y-143728621D01*
X75450500Y-143583819D01*
X75450500Y-143436181D01*
X75479302Y-143291379D01*
X75535801Y-143154978D01*
X75617825Y-143032221D01*
X75722221Y-142927825D01*
X75844978Y-142845801D01*
X75981379Y-142789302D01*
X76105575Y-142764599D01*
X76126180Y-142760500D01*
X76273820Y-142760500D01*
X76294425Y-142764599D01*
X76294425Y-142764599D01*
G37*
G36*
X83914425Y-142764599D02*
G01*
X84038621Y-142789302D01*
X84175022Y-142845801D01*
X84297779Y-142927825D01*
X84402175Y-143032221D01*
X84484199Y-143154978D01*
X84540698Y-143291379D01*
X84569500Y-143436181D01*
X84569500Y-143583819D01*
X84540698Y-143728621D01*
X84484199Y-143865022D01*
X84402175Y-143987779D01*
X84297779Y-144092175D01*
X84175022Y-144174199D01*
X84038621Y-144230698D01*
X83914425Y-144255401D01*
X83893820Y-144259500D01*
X83746180Y-144259500D01*
X83725575Y-144255401D01*
X83601379Y-144230698D01*
X83464978Y-144174199D01*
X83342221Y-144092175D01*
X83237825Y-143987779D01*
X83155801Y-143865022D01*
X83099302Y-143728621D01*
X83070500Y-143583819D01*
X83070500Y-143436181D01*
X83099302Y-143291379D01*
X83155801Y-143154978D01*
X83237825Y-143032221D01*
X83342221Y-142927825D01*
X83464978Y-142845801D01*
X83601379Y-142789302D01*
X83725575Y-142764599D01*
X83746180Y-142760500D01*
X83893820Y-142760500D01*
X83914425Y-142764599D01*
X83914425Y-142764599D01*
G37*
G36*
X80104425Y-142764599D02*
G01*
X80228621Y-142789302D01*
X80365022Y-142845801D01*
X80487779Y-142927825D01*
X80592175Y-143032221D01*
X80674199Y-143154978D01*
X80730698Y-143291379D01*
X80759500Y-143436181D01*
X80759500Y-143583819D01*
X80730698Y-143728621D01*
X80674199Y-143865022D01*
X80592175Y-143987779D01*
X80487779Y-144092175D01*
X80365022Y-144174199D01*
X80228621Y-144230698D01*
X80104425Y-144255401D01*
X80083820Y-144259500D01*
X79936180Y-144259500D01*
X79915575Y-144255401D01*
X79791379Y-144230698D01*
X79654978Y-144174199D01*
X79532221Y-144092175D01*
X79427825Y-143987779D01*
X79345801Y-143865022D01*
X79289302Y-143728621D01*
X79260500Y-143583819D01*
X79260500Y-143436181D01*
X79289302Y-143291379D01*
X79345801Y-143154978D01*
X79427825Y-143032221D01*
X79532221Y-142927825D01*
X79654978Y-142845801D01*
X79791379Y-142789302D01*
X79915575Y-142764599D01*
X79936180Y-142760500D01*
X80083820Y-142760500D01*
X80104425Y-142764599D01*
X80104425Y-142764599D01*
G37*
G36*
X33257142Y-141458242D02*
G01*
X33405101Y-141519529D01*
X33538255Y-141608499D01*
X33651501Y-141721745D01*
X33740471Y-141854899D01*
X33801758Y-142002858D01*
X33833000Y-142159925D01*
X33833000Y-142320075D01*
X33801758Y-142477142D01*
X33740471Y-142625101D01*
X33651501Y-142758255D01*
X33538255Y-142871501D01*
X33405101Y-142960471D01*
X33257142Y-143021758D01*
X33100075Y-143053000D01*
X32939925Y-143053000D01*
X32782858Y-143021758D01*
X32634899Y-142960471D01*
X32501745Y-142871501D01*
X32388499Y-142758255D01*
X32299529Y-142625101D01*
X32238242Y-142477142D01*
X32207000Y-142320075D01*
X32207000Y-142159925D01*
X32238242Y-142002858D01*
X32299529Y-141854899D01*
X32388499Y-141721745D01*
X32501745Y-141608499D01*
X32634899Y-141519529D01*
X32782858Y-141458242D01*
X32939925Y-141427000D01*
X33100075Y-141427000D01*
X33257142Y-141458242D01*
X33257142Y-141458242D01*
G37*
G36*
X48497142Y-141458242D02*
G01*
X48645101Y-141519529D01*
X48778255Y-141608499D01*
X48891501Y-141721745D01*
X48980471Y-141854899D01*
X49041758Y-142002858D01*
X49073000Y-142159925D01*
X49073000Y-142320075D01*
X49041758Y-142477142D01*
X48980471Y-142625101D01*
X48891501Y-142758255D01*
X48778255Y-142871501D01*
X48645101Y-142960471D01*
X48497142Y-143021758D01*
X48340075Y-143053000D01*
X48179925Y-143053000D01*
X48022858Y-143021758D01*
X47874899Y-142960471D01*
X47741745Y-142871501D01*
X47628499Y-142758255D01*
X47539529Y-142625101D01*
X47478242Y-142477142D01*
X47447000Y-142320075D01*
X47447000Y-142159925D01*
X47478242Y-142002858D01*
X47539529Y-141854899D01*
X47628499Y-141721745D01*
X47741745Y-141608499D01*
X47874899Y-141519529D01*
X48022858Y-141458242D01*
X48179925Y-141427000D01*
X48340075Y-141427000D01*
X48497142Y-141458242D01*
X48497142Y-141458242D01*
G37*
G36*
X33257142Y-138918242D02*
G01*
X33405101Y-138979529D01*
X33538255Y-139068499D01*
X33651501Y-139181745D01*
X33740471Y-139314899D01*
X33801758Y-139462858D01*
X33833000Y-139619925D01*
X33833000Y-139780075D01*
X33801758Y-139937142D01*
X33740471Y-140085101D01*
X33651501Y-140218255D01*
X33538255Y-140331501D01*
X33405101Y-140420471D01*
X33257142Y-140481758D01*
X33100075Y-140513000D01*
X32939925Y-140513000D01*
X32782858Y-140481758D01*
X32634899Y-140420471D01*
X32501745Y-140331501D01*
X32388499Y-140218255D01*
X32299529Y-140085101D01*
X32238242Y-139937142D01*
X32207000Y-139780075D01*
X32207000Y-139619925D01*
X32238242Y-139462858D01*
X32299529Y-139314899D01*
X32388499Y-139181745D01*
X32501745Y-139068499D01*
X32634899Y-138979529D01*
X32782858Y-138918242D01*
X32939925Y-138887000D01*
X33100075Y-138887000D01*
X33257142Y-138918242D01*
X33257142Y-138918242D01*
G37*
G36*
X49073000Y-140513000D02*
G01*
X47447000Y-140513000D01*
X47447000Y-138887000D01*
X49073000Y-138887000D01*
X49073000Y-140513000D01*
X49073000Y-140513000D01*
G37*
G36*
X80104425Y-137684599D02*
G01*
X80228621Y-137709302D01*
X80365022Y-137765801D01*
X80487779Y-137847825D01*
X80592175Y-137952221D01*
X80674199Y-138074978D01*
X80730698Y-138211379D01*
X80759500Y-138356181D01*
X80759500Y-138503819D01*
X80730698Y-138648621D01*
X80674199Y-138785022D01*
X80592175Y-138907779D01*
X80487779Y-139012175D01*
X80365022Y-139094199D01*
X80228621Y-139150698D01*
X80104425Y-139175401D01*
X80083820Y-139179500D01*
X79936180Y-139179500D01*
X79915575Y-139175401D01*
X79791379Y-139150698D01*
X79654978Y-139094199D01*
X79532221Y-139012175D01*
X79427825Y-138907779D01*
X79345801Y-138785022D01*
X79289302Y-138648621D01*
X79260500Y-138503819D01*
X79260500Y-138356181D01*
X79289302Y-138211379D01*
X79345801Y-138074978D01*
X79427825Y-137952221D01*
X79532221Y-137847825D01*
X79654978Y-137765801D01*
X79791379Y-137709302D01*
X79915575Y-137684599D01*
X79936180Y-137680500D01*
X80083820Y-137680500D01*
X80104425Y-137684599D01*
X80104425Y-137684599D01*
G37*
G36*
X68674425Y-137684599D02*
G01*
X68798621Y-137709302D01*
X68935022Y-137765801D01*
X69057779Y-137847825D01*
X69162175Y-137952221D01*
X69244199Y-138074978D01*
X69300698Y-138211379D01*
X69329500Y-138356181D01*
X69329500Y-138503819D01*
X69300698Y-138648621D01*
X69244199Y-138785022D01*
X69162175Y-138907779D01*
X69057779Y-139012175D01*
X68935022Y-139094199D01*
X68798621Y-139150698D01*
X68674425Y-139175401D01*
X68653820Y-139179500D01*
X68506180Y-139179500D01*
X68485575Y-139175401D01*
X68361379Y-139150698D01*
X68224978Y-139094199D01*
X68102221Y-139012175D01*
X67997825Y-138907779D01*
X67915801Y-138785022D01*
X67859302Y-138648621D01*
X67830500Y-138503819D01*
X67830500Y-138356181D01*
X67859302Y-138211379D01*
X67915801Y-138074978D01*
X67997825Y-137952221D01*
X68102221Y-137847825D01*
X68224978Y-137765801D01*
X68361379Y-137709302D01*
X68485575Y-137684599D01*
X68506180Y-137680500D01*
X68653820Y-137680500D01*
X68674425Y-137684599D01*
X68674425Y-137684599D01*
G37*
G36*
X83914425Y-137684599D02*
G01*
X84038621Y-137709302D01*
X84175022Y-137765801D01*
X84297779Y-137847825D01*
X84402175Y-137952221D01*
X84484199Y-138074978D01*
X84540698Y-138211379D01*
X84569500Y-138356181D01*
X84569500Y-138503819D01*
X84540698Y-138648621D01*
X84484199Y-138785022D01*
X84402175Y-138907779D01*
X84297779Y-139012175D01*
X84175022Y-139094199D01*
X84038621Y-139150698D01*
X83914425Y-139175401D01*
X83893820Y-139179500D01*
X83746180Y-139179500D01*
X83725575Y-139175401D01*
X83601379Y-139150698D01*
X83464978Y-139094199D01*
X83342221Y-139012175D01*
X83237825Y-138907779D01*
X83155801Y-138785022D01*
X83099302Y-138648621D01*
X83070500Y-138503819D01*
X83070500Y-138356181D01*
X83099302Y-138211379D01*
X83155801Y-138074978D01*
X83237825Y-137952221D01*
X83342221Y-137847825D01*
X83464978Y-137765801D01*
X83601379Y-137709302D01*
X83725575Y-137684599D01*
X83746180Y-137680500D01*
X83893820Y-137680500D01*
X83914425Y-137684599D01*
X83914425Y-137684599D01*
G37*
G36*
X76294425Y-137684599D02*
G01*
X76418621Y-137709302D01*
X76555022Y-137765801D01*
X76677779Y-137847825D01*
X76782175Y-137952221D01*
X76864199Y-138074978D01*
X76920698Y-138211379D01*
X76949500Y-138356181D01*
X76949500Y-138503819D01*
X76920698Y-138648621D01*
X76864199Y-138785022D01*
X76782175Y-138907779D01*
X76677779Y-139012175D01*
X76555022Y-139094199D01*
X76418621Y-139150698D01*
X76294425Y-139175401D01*
X76273820Y-139179500D01*
X76126180Y-139179500D01*
X76105575Y-139175401D01*
X75981379Y-139150698D01*
X75844978Y-139094199D01*
X75722221Y-139012175D01*
X75617825Y-138907779D01*
X75535801Y-138785022D01*
X75479302Y-138648621D01*
X75450500Y-138503819D01*
X75450500Y-138356181D01*
X75479302Y-138211379D01*
X75535801Y-138074978D01*
X75617825Y-137952221D01*
X75722221Y-137847825D01*
X75844978Y-137765801D01*
X75981379Y-137709302D01*
X76105575Y-137684599D01*
X76126180Y-137680500D01*
X76273820Y-137680500D01*
X76294425Y-137684599D01*
X76294425Y-137684599D01*
G37*
G36*
X72484425Y-137684599D02*
G01*
X72608621Y-137709302D01*
X72745022Y-137765801D01*
X72867779Y-137847825D01*
X72972175Y-137952221D01*
X73054199Y-138074978D01*
X73110698Y-138211379D01*
X73139500Y-138356181D01*
X73139500Y-138503819D01*
X73110698Y-138648621D01*
X73054199Y-138785022D01*
X72972175Y-138907779D01*
X72867779Y-139012175D01*
X72745022Y-139094199D01*
X72608621Y-139150698D01*
X72484425Y-139175401D01*
X72463820Y-139179500D01*
X72316180Y-139179500D01*
X72295575Y-139175401D01*
X72171379Y-139150698D01*
X72034978Y-139094199D01*
X71912221Y-139012175D01*
X71807825Y-138907779D01*
X71725801Y-138785022D01*
X71669302Y-138648621D01*
X71640500Y-138503819D01*
X71640500Y-138356181D01*
X71669302Y-138211379D01*
X71725801Y-138074978D01*
X71807825Y-137952221D01*
X71912221Y-137847825D01*
X72034978Y-137765801D01*
X72171379Y-137709302D01*
X72295575Y-137684599D01*
X72316180Y-137680500D01*
X72463820Y-137680500D01*
X72484425Y-137684599D01*
X72484425Y-137684599D01*
G37*
G36*
X64864425Y-137684599D02*
G01*
X64988621Y-137709302D01*
X65125022Y-137765801D01*
X65247779Y-137847825D01*
X65352175Y-137952221D01*
X65434199Y-138074978D01*
X65490698Y-138211379D01*
X65519500Y-138356181D01*
X65519500Y-138503819D01*
X65490698Y-138648621D01*
X65434199Y-138785022D01*
X65352175Y-138907779D01*
X65247779Y-139012175D01*
X65125022Y-139094199D01*
X64988621Y-139150698D01*
X64864425Y-139175401D01*
X64843820Y-139179500D01*
X64696180Y-139179500D01*
X64675575Y-139175401D01*
X64551379Y-139150698D01*
X64414978Y-139094199D01*
X64292221Y-139012175D01*
X64187825Y-138907779D01*
X64105801Y-138785022D01*
X64049302Y-138648621D01*
X64020500Y-138503819D01*
X64020500Y-138356181D01*
X64049302Y-138211379D01*
X64105801Y-138074978D01*
X64187825Y-137952221D01*
X64292221Y-137847825D01*
X64414978Y-137765801D01*
X64551379Y-137709302D01*
X64675575Y-137684599D01*
X64696180Y-137680500D01*
X64843820Y-137680500D01*
X64864425Y-137684599D01*
X64864425Y-137684599D01*
G37*
G36*
X61054425Y-137684599D02*
G01*
X61178621Y-137709302D01*
X61315022Y-137765801D01*
X61437779Y-137847825D01*
X61542175Y-137952221D01*
X61624199Y-138074978D01*
X61680698Y-138211379D01*
X61709500Y-138356181D01*
X61709500Y-138503819D01*
X61680698Y-138648621D01*
X61624199Y-138785022D01*
X61542175Y-138907779D01*
X61437779Y-139012175D01*
X61315022Y-139094199D01*
X61178621Y-139150698D01*
X61054425Y-139175401D01*
X61033820Y-139179500D01*
X60886180Y-139179500D01*
X60865575Y-139175401D01*
X60741379Y-139150698D01*
X60604978Y-139094199D01*
X60482221Y-139012175D01*
X60377825Y-138907779D01*
X60295801Y-138785022D01*
X60239302Y-138648621D01*
X60210500Y-138503819D01*
X60210500Y-138356181D01*
X60239302Y-138211379D01*
X60295801Y-138074978D01*
X60377825Y-137952221D01*
X60482221Y-137847825D01*
X60604978Y-137765801D01*
X60741379Y-137709302D01*
X60865575Y-137684599D01*
X60886180Y-137680500D01*
X61033820Y-137680500D01*
X61054425Y-137684599D01*
X61054425Y-137684599D01*
G37*
G36*
X54916564Y-136709389D02*
G01*
X55107833Y-136788615D01*
X55107835Y-136788616D01*
X55279973Y-136903635D01*
X55426365Y-137050027D01*
X55541385Y-137222167D01*
X55620611Y-137413436D01*
X55661000Y-137616484D01*
X55661000Y-137823516D01*
X55620611Y-138026564D01*
X55600557Y-138074978D01*
X55541384Y-138217835D01*
X55426365Y-138389973D01*
X55279973Y-138536365D01*
X55107835Y-138651384D01*
X55107834Y-138651385D01*
X55107833Y-138651385D01*
X54916564Y-138730611D01*
X54713516Y-138771000D01*
X54506484Y-138771000D01*
X54303436Y-138730611D01*
X54112167Y-138651385D01*
X54112166Y-138651385D01*
X54112165Y-138651384D01*
X53940027Y-138536365D01*
X53793635Y-138389973D01*
X53678616Y-138217835D01*
X53619443Y-138074978D01*
X53599389Y-138026564D01*
X53559000Y-137823516D01*
X53559000Y-137616484D01*
X53599389Y-137413436D01*
X53678615Y-137222167D01*
X53793635Y-137050027D01*
X53940027Y-136903635D01*
X54112165Y-136788616D01*
X54112167Y-136788615D01*
X54303436Y-136709389D01*
X54506484Y-136669000D01*
X54713516Y-136669000D01*
X54916564Y-136709389D01*
X54916564Y-136709389D01*
G37*
M02*
