G04 #@! TF.GenerationSoftware,KiCad,Pcbnew,(5.1.2)-1*
G04 #@! TF.CreationDate,2022-03-23T05:29:32+09:00*
G04 #@! TF.ProjectId,pcb,7063622e-6b69-4636-9164-5f7063625858,rev?*
G04 #@! TF.SameCoordinates,Original*
G04 #@! TF.FileFunction,Copper,L2,Bot*
G04 #@! TF.FilePolarity,Positive*
%FSLAX46Y46*%
G04 Gerber Fmt 4.6, Leading zero omitted, Abs format (unit mm)*
G04 Created by KiCad (PCBNEW (5.1.2)-1) date 2022-03-23 05:29:32*
%MOMM*%
%LPD*%
G04 APERTURE LIST*
%ADD10O,2.500000X2.000000*%
%ADD11C,1.397000*%
%ADD12R,1.524000X1.524000*%
%ADD13C,1.524000*%
%ADD14C,2.000000*%
%ADD15C,0.250000*%
G04 APERTURE END LIST*
D10*
X62230000Y-173990000D03*
X55880000Y-176530000D03*
X74930000Y-154940000D03*
X81280000Y-152400000D03*
D11*
X60960000Y-138430000D03*
X60960000Y-143510000D03*
X64770000Y-138430000D03*
X64770000Y-143510000D03*
X68580000Y-138430000D03*
X68580000Y-143510000D03*
X72390000Y-138430000D03*
X72390000Y-143510000D03*
X76200000Y-138430000D03*
X76200000Y-143510000D03*
X80010000Y-138430000D03*
X80010000Y-143510000D03*
X83820000Y-138430000D03*
X83820000Y-143510000D03*
D10*
X55880000Y-154940000D03*
X62230000Y-152400000D03*
D12*
X48260000Y-139700000D03*
D13*
X48260000Y-142240000D03*
X48260000Y-144780000D03*
X48260000Y-147320000D03*
X48260000Y-149860000D03*
X48260000Y-152400000D03*
X48260000Y-154940000D03*
X48260000Y-157480000D03*
X48260000Y-160020000D03*
X48260000Y-162560000D03*
X48260000Y-165100000D03*
X48260000Y-167640000D03*
X33020000Y-139700000D03*
X33020000Y-142240000D03*
X33020000Y-144780000D03*
X33020000Y-147320000D03*
X33020000Y-149860000D03*
X33020000Y-152400000D03*
X33020000Y-154940000D03*
X33020000Y-157480000D03*
X33020000Y-160020000D03*
X33020000Y-162560000D03*
X33020000Y-165100000D03*
X33020000Y-167640000D03*
D10*
X43180000Y-173990000D03*
X36830000Y-176530000D03*
X81280000Y-173990000D03*
X74930000Y-176530000D03*
D14*
X54610000Y-137720000D03*
X54610000Y-144220000D03*
D15*
X45720000Y-142240000D02*
X48260000Y-144780000D01*
X33020000Y-142240000D02*
X45720000Y-142240000D01*
X54050000Y-144780000D02*
X54610000Y-144220000D01*
X48260000Y-144780000D02*
X54050000Y-144780000D01*
X55609999Y-145219999D02*
X61399999Y-145219999D01*
X54610000Y-144220000D02*
X55609999Y-145219999D01*
X61399999Y-145219999D02*
X66040000Y-149860000D01*
X57380000Y-154940000D02*
X55880000Y-154940000D01*
X61813847Y-154940000D02*
X57380000Y-154940000D01*
X66040000Y-150713847D02*
X61813847Y-154940000D01*
X66040000Y-149860000D02*
X66040000Y-150713847D01*
X48260000Y-144780000D02*
X48260000Y-147320000D01*
X66040000Y-150713847D02*
X82133847Y-150713847D01*
X82133847Y-150713847D02*
X85090000Y-153670000D01*
X83820000Y-154940000D02*
X74930000Y-154940000D01*
X85090000Y-153670000D02*
X83820000Y-154940000D01*
X36830000Y-176530000D02*
X55880000Y-176530000D01*
X55880000Y-176530000D02*
X74930000Y-176530000D01*
X76430000Y-176530000D02*
X74930000Y-176530000D01*
X80863847Y-176530000D02*
X76430000Y-176530000D01*
X82855010Y-174538837D02*
X80863847Y-176530000D01*
X82855010Y-173441163D02*
X82855010Y-174538837D01*
X76603837Y-167189990D02*
X82855010Y-173441163D01*
X65958988Y-167189990D02*
X76603837Y-167189990D01*
X55880000Y-157111002D02*
X65958988Y-167189990D01*
X55880000Y-154940000D02*
X55880000Y-157111002D01*
X54610000Y-137720000D02*
X46430000Y-137720000D01*
X46430000Y-137720000D02*
X43180000Y-140970000D01*
X43180000Y-140970000D02*
X30480000Y-140970000D01*
X30480000Y-140970000D02*
X30480000Y-143510000D01*
X31750000Y-143510000D02*
X33020000Y-144780000D01*
X30480000Y-143510000D02*
X31750000Y-143510000D01*
X81280000Y-172740000D02*
X81280000Y-173990000D01*
X76180000Y-167640000D02*
X81280000Y-172740000D01*
X48260000Y-167640000D02*
X76180000Y-167640000D01*
X48260000Y-165100000D02*
X46990000Y-165100000D01*
X46990000Y-165100000D02*
X45720000Y-166370000D01*
X60730000Y-173990000D02*
X62230000Y-173990000D01*
X53001238Y-173990000D02*
X60730000Y-173990000D01*
X45720000Y-166708762D02*
X53001238Y-173990000D01*
X45720000Y-166370000D02*
X45720000Y-166708762D01*
X48260000Y-162560000D02*
X46990000Y-162560000D01*
X43180000Y-166370000D02*
X43180000Y-173990000D01*
X46990000Y-162560000D02*
X43180000Y-166370000D01*
X60730000Y-152400000D02*
X62230000Y-152400000D01*
X59642999Y-151312999D02*
X60730000Y-152400000D01*
X46807001Y-151312999D02*
X59642999Y-151312999D01*
X33020000Y-165100000D02*
X46807001Y-151312999D01*
X33020000Y-167640000D02*
X33020000Y-184150000D01*
X33020000Y-184150000D02*
X85090000Y-184150000D01*
X85090000Y-184150000D02*
X86360000Y-182880000D01*
X86360000Y-182880000D02*
X86360000Y-170180000D01*
X86360000Y-170180000D02*
X76200000Y-160020000D01*
X73892998Y-160020000D02*
X71120000Y-157247002D01*
X76200000Y-160020000D02*
X73892998Y-160020000D01*
X75346153Y-152400000D02*
X76200000Y-152400000D01*
X71120000Y-156626153D02*
X75346153Y-152400000D01*
X71120000Y-157247002D02*
X71120000Y-156626153D01*
X81280000Y-152400000D02*
X76200000Y-152400000D01*
M02*
